<svg width="193" height="128" fill="none" xmlns="http://www.w3.org/2000/svg"><path d="M35.672 127H1v-24.466M35.672 127c-.203-4.282 2.19-12.967 13.382-13.456 3.581-.157 6.116-.986 7.908-2.154M35.672 127l114.965-72.786v-3.059M1 75.621L117.79 1h61.987C186.528 1 192 6.472 192 13.223v0c0 4.195-2.151 8.096-5.697 10.335l-10.118 6.389M1 75.62v26.913M1 75.62h62.045c10.949 0 16.423 15.391 5.474 22.304l-7.3 4.609m0 0H1m60.22 0c0 2.357-.45 6.373-4.258 8.856m4.258-8.856l114.965-72.587M56.962 111.39l115.573-74.303c1.825-.886 5.11-3.556 3.65-7.14" stroke="#000" stroke-width="1.219"/></svg>