<svg width="198" height="131" fill="none" xmlns="http://www.w3.org/2000/svg"><path d="M79.156 101.265H74.27m4.885 0L197 27.901M79.156 101.265V130M1 74.976v26.289h32.972M1 74.976L117.012 1h50.68M1 74.976h49.458M167.692 1L50.458 74.976M167.692 1v3.668M50.458 74.976v3.668m0 0c6.717 0 20.882 4.525 23.813 22.621m-23.813-22.62L167.692 4.667m-93.421 96.597H33.972m40.299 0L190.894 27.9M33.972 101.265V130h45.184m0 0L197 54.8V27.9m0 0h-6.106m0 0c0-7.54-5.617-23.232-23.202-23.232" stroke="#000" stroke-width="1.219"/></svg>