<svg width="36" height="27" fill="none" xmlns="http://www.w3.org/2000/svg"><path d="M10.469 14.32h1.46c1.422 0 2.322.85 2.333 2.022.017 1.206-.94 2.064-2.39 2.064-1.315-.009-2.28-.73-2.349-1.698H7.125c.066 2.053 1.74 3.792 4.737 3.792 2.728 0 5.027-1.483 4.998-4.04-.029-2.14-1.643-3.1-2.842-3.216v-.14c.968-.157 2.475-1.183 2.437-3.088-.028-2.036-1.76-3.527-4.516-3.516-2.882.011-4.495 1.649-4.563 3.752h2.426c.049-.879.843-1.687 2.06-1.687 1.17 0 2.041.74 2.041 1.826.009 1.076-.842 1.876-2.041 1.876h-1.39v2.053h-.003zm7.933-7.564v13.477h4.816c3.982 0 5.907-2.487 5.907-6.773 0-4.255-1.894-6.704-5.907-6.704h-4.816zm2.612 2.172h1.856c2.447 0 3.567 1.542 3.567 4.583 0 3.04-1.111 4.538-3.567 4.538h-1.856V8.93z" fill="#42BD98"/><path d="M30.75 2.667a2.2 2.2 0 011.547.634c.41.407.64.958.64 1.532v17.334c0 .574-.23 1.125-.64 1.532a2.2 2.2 0 01-1.547.634H4.5a2.2 2.2 0 01-1.547-.634 2.156 2.156 0 01-.64-1.532V4.833c0-.574.23-1.125.64-1.532A2.2 2.2 0 014.5 2.667h26.25zM4.5.5C3.34.5 2.227.957 1.406 1.77A4.313 4.313 0 00.125 4.832v17.334a4.31 4.31 0 001.281 3.064A4.396 4.396 0 004.5 26.5h26.25c1.16 0 2.273-.456 3.094-1.27a4.313 4.313 0 001.281-3.063V4.833a4.31 4.31 0 00-1.281-3.064A4.397 4.397 0 0030.75.5H4.5z" fill="#42BD98"/></svg>