<svg width="65" height="52" fill="none" xmlns="http://www.w3.org/2000/svg"><path d="M54.677 21.878L36.33 29.653l.046 19.773 18.348-7.773-.047-19.774v-.001zm.746-2.582c.785 0 1.499.623 1.499 1.46l.055 21.365a1.46 1.46 0 01-.902 1.344l-19.849 8.42c-.185.08-.385.123-.588.123-.785 0-1.5-.623-1.5-1.46l-.055-21.364c0-.584.354-1.114.903-1.345l19.84-8.404c.196-.1.4-.139.596-.139zm-22.54-12.03l-19.031 8.313 19.07 8.227 19.023-8.32-19.063-8.22zM32.875 5a1.5 1.5 0 01.604.123l20.915 9.019c1.185.515 1.193 2.158.008 2.673l-20.868 9.127a1.67 1.67 0 01-.605.13 1.494 1.494 0 01-.604-.123l-20.922-9.026c-1.186-.515-1.194-2.159-.008-2.673L32.27 5.13c.189-.084.393-.13.605-.13zM11.293 21.878l-.048 19.774 18.348 7.773.047-19.773-18.348-7.774zm-.746-2.582c.196 0 .393.039.589.123l19.846 8.412c.268.113.497.3.658.54.16.239.246.519.245.805L31.83 50.54c0 .846-.706 1.46-1.499 1.46a1.47 1.47 0 01-.589-.123l-19.84-8.404a1.484 1.484 0 01-.656-.54A1.44 1.44 0 019 42.13l.055-21.365c0-.388.157-.76.436-1.036.28-.275.66-.43 1.056-.432z" fill="#C4072B"/></svg>