<svg width="65" height="52" fill="none" xmlns="http://www.w3.org/2000/svg"><path d="M21.543 33.015h30.43l5.385-17.895h-7.924L46.59 6.938l-11.864 3.581 1.622 4.6h-.559l-2.929-8.18-11.865 3.581 1.622 4.6h-6.343l-1.317-4.904c-.664-2.454-2.96-4.19-5.606-4.19H5.727v2.05H9.35c1.643 0 3.077 1.02 3.52 2.561l5.826 21.231a4.537 4.537 0 00-1.465 1.583 4.21 4.21 0 00-.526 2.037c0 2.453 2.202 4.503 4.837 4.503h29.661v-2.05h-29.66c-1.433 0-2.635-1.129-2.635-2.453 0-1.344 1.212-2.472 2.635-2.472zM45.166 9.489l1.981 5.523h-8.566l-1.212-3.169 7.797-2.354zm-13.73 0l1.981 5.523h-8.566l-1.212-3.169 7.797-2.354zm23.066 7.574L50.33 30.974H20.668l-3.846-13.911h37.681zM41.542 43.04c-2.529 0-4.616 1.943-4.616 4.297 0 2.355 2.087 4.297 4.616 4.297 2.634 0 4.615-1.942 4.615-4.297 0-2.354-2.086-4.297-4.615-4.297zm0 6.652c-1.433 0-2.529-1.128-2.529-2.355 0-1.334 1.212-2.354 2.53-2.354 1.432 0 2.528 1.02 2.528 2.354 0 1.335-1.212 2.355-2.529 2.355zM24.62 43.041c-2.528 0-4.614 1.943-4.614 4.297 0 2.355 2.086 4.297 4.614 4.297 2.53 0 4.616-1.942 4.616-4.297 0-2.354-2.087-4.297-4.616-4.297zm0 6.652c-1.432 0-2.528-1.128-2.528-2.355 0-1.334 1.211-2.354 2.528-2.354 1.318 0 2.53 1.02 2.53 2.354 0 1.335-1.212 2.355-2.53 2.355z" fill="#C4072B"/></svg>