<svg width="65" height="52" fill="none" xmlns="http://www.w3.org/2000/svg"><path fill-rule="evenodd" clip-rule="evenodd" d="M14.18 51.44v-.95h36.642c.219 0 .599-.139 1.018-.51.401-.355.717-.819.857-1.248l2.232-7.386.072-.11c2.912-4.523 4.33-11.267 5.004-16.74l.083-.671.664-.143c2.436-.525 4.249-2.657 4.249-5.177 0-2.91-2.416-5.303-5.411-5.303-2.995 0-5.41 2.391-5.41 5.303 0 1.4.557 2.676 1.471 3.628l.615.64-.597.657a11.432 11.432 0 01-3.847 2.769 11.478 11.478 0 01-4.645.974c-2.885 0-5.423-1.678-7.318-3.826-1.904-2.158-3.28-4.92-3.823-7.392l-.113-.517.38-.369a5.242 5.242 0 001.609-3.767C37.912 8.392 35.496 6 32.5 6s-5.412 2.392-5.412 5.303c0 1.468.614 2.8 1.61 3.767l.38.368-.114.516c-.542 2.472-1.92 5.235-3.823 7.393-1.895 2.147-4.433 3.826-7.318 3.826a11.454 11.454 0 01-8.491-3.743l-.598-.657.614-.64a5.22 5.22 0 001.473-3.628c0-2.91-2.416-5.303-5.41-5.303C2.415 13.202 0 15.594 0 18.505c0 2.521 1.813 4.653 4.249 5.177l.664.143.083.671C5.671 29.968 7.088 36.713 10 41.234l.072.113 2.233 7.385c.14.43.456.893.857 1.248.42.371.8.51 1.018.51v.952-.001zm-2.075-9.283l1.736 5.874h37.294l1.768-5.874H12.104zm-.399-1.969h41.59l.277-.463c2.175-3.624 3.388-8.629 4.075-13.039l.402-2.581-1.975 1.72a13.513 13.513 0 01-8.898 3.316c-6.066 0-11.276-4.539-12.905-10.088l-.23-.785-.814.108a.839.839 0 01-.172.008l-.05-.004a5.93 5.93 0 00-.342-.012h-.035l-.035.003h-.016l-.053.004a5.842 5.842 0 01-.183.008 2.782 2.782 0 01-.349-.007l-.813-.108-.231.786c-1.625 5.53-7.042 10.087-13.125 10.087-3.41 0-6.524-1.253-8.894-3.314l-1.976-1.718.402 2.58c.687 4.41 1.9 9.416 4.072 13.035l.278.464zM59.59 15.17c-1.854 0-3.382 1.483-3.382 3.335 0 1.851 1.529 3.334 3.382 3.334 1.853 0 3.381-1.483 3.381-3.334 0-1.852-1.528-3.335-3.381-3.335zM32.5 7.968c-1.852 0-3.381 1.484-3.381 3.335 0 1.85 1.529 3.334 3.382 3.334 1.853 0 3.381-1.483 3.381-3.334 0-1.852-1.528-3.335-3.381-3.335zM5.412 15.17c-1.853 0-3.381 1.483-3.381 3.335 0 1.852 1.528 3.334 3.381 3.334 1.853 0 3.382-1.483 3.382-3.334 0-1.852-1.528-3.335-3.382-3.335z" fill="#C4072B"/></svg>