<svg width="16" height="16" fill="none" xmlns="http://www.w3.org/2000/svg"><circle cx="8.279" cy="7.625" r="7" stroke="#42BD98"/><path d="M9.597 5.876l-2.718.328-.097.434.534.094c.349.08.418.201.342.536l-.876 3.96c-.23 1.024.124 1.506.959 1.506.646 0 1.398-.287 1.738-.682l.105-.476c-.238.201-.584.281-.814.281-.327 0-.445-.22-.361-.608l1.188-5.373zm.083-2.384c0 .302-.125.593-.348.807a1.21 1.21 0 01-.839.334 1.21 1.21 0 01-.84-.334 1.12 1.12 0 01-.347-.807c0-.303.125-.594.348-.808a1.21 1.21 0 01.84-.334c.314 0 .616.12.838.334.223.214.348.505.348.808z" fill="#42BD98"/></svg>