<svg width="35" height="35" fill="none" xmlns="http://www.w3.org/2000/svg"><circle cx="17.5" cy="17.5" r="17.5" fill="#FAFAFA"/><g clip-path="url(#clip0_6105_38477)"><path d="M24.498 21.69v2.25a1.499 1.499 0 01-1.635 1.5 14.843 14.843 0 01-6.472-2.303 14.626 14.626 0 01-4.5-4.5 14.842 14.842 0 01-2.303-6.502 1.5 1.5 0 011.493-1.635h2.25a1.5 1.5 0 011.5 1.29c.095.72.27 1.427.525 2.108a1.5 1.5 0 01-.338 1.582l-.952.953a12 12 0 004.5 4.5l.952-.953a1.5 1.5 0 011.583-.338c.68.254 1.387.43 2.107.526a1.5 1.5 0 011.29 1.522z" stroke="gray" stroke-width="2" stroke-linecap="round" stroke-linejoin="round"/></g><defs><clipPath id="clip0_6105_38477"><path fill="#fff" transform="translate(8 9)" d="M0 0h18v18H0z"/></clipPath></defs></svg>