<svg width="19" height="20" fill="none" xmlns="http://www.w3.org/2000/svg"><path d="M18.441 11.542v-1.375h-3.937v6.875h1.312v-2.75h1.97v-1.375h-1.97v-1.375h2.625zm-7.218 5.5H8.598v-6.875h2.625c.522 0 1.022.218 1.391.604.37.387.577.911.577 1.458v2.75c0 .547-.208 1.071-.577 1.458s-.87.604-1.391.605zM9.91 15.667h1.313a.64.64 0 00.463-.202.706.706 0 00.193-.486v-2.75a.705.705 0 00-.192-.486.642.642 0 00-.464-.201H9.91v4.125zm-3.937-5.5H2.69v6.875h1.313v-2.063h1.969c.348 0 .681-.145.927-.403a1.41 1.41 0 00.385-.972v-2.062a1.41 1.41 0 00-.385-.972 1.284 1.284 0 00-.927-.403zm-1.97 3.437v-2.062h1.97v2.062h-1.97z" fill="#fff"/><path d="M13.191 8.792v-2.75a.652.652 0 00-.197-.481L8.402.748a.573.573 0 00-.46-.206H1.38a1.287 1.287 0 00-.927.404 1.413 1.413 0 00-.386.97v16.5c0 .365.139.715.385.973s.58.403.928.403h10.5v-1.375H1.38v-16.5h5.25v4.125c0 .364.14.713.385.97.246.258.58.404.927.405h3.938v1.375h1.312zm-5.25-2.75v-3.85l3.675 3.85H7.941z" fill="#fff"/></svg>