<svg width="20" height="20" fill="none" xmlns="http://www.w3.org/2000/svg"><path d="M5.69 2.037c.682 0 1.31.376 1.642.982l1.15 2.103c.3.551.315 1.217.037 1.78L7.57 8.83l.015.047.09.256c.178.48.427.96.754 1.404a5.081 5.081 0 001.008 1.026 5.594 5.594 0 001.635.858l.046.015 1.898-.964a1.853 1.853 0 011.588-.044l.166.083 2.076 1.172c.596.337.966.976.966 1.669v2.42c0 1.886-1.757 3.238-3.517 2.634-3.52-1.206-6.637-2.828-8.717-4.94C3.498 12.35 1.901 9.184.713 5.61.12 3.822 1.45 2.037 3.306 2.037H5.69zm0 1.909H3.305c-.594 0-.987.527-.812 1.054 1.103 3.32 2.584 6.257 4.413 8.114 1.828 1.858 4.72 3.363 7.989 4.483.518.178 1.037-.222 1.037-.825V14.35l-2.076-1.173-2.214 1.125a.926.926 0 01-.597.083c-.716-.139-1.724-.526-2.736-1.296a6.915 6.915 0 01-1.386-1.411c-.755-1.026-1.136-2.047-1.275-2.772a.968.968 0 01.082-.609l1.108-2.25-1.15-2.102zm8.553-3.18a6.991 6.991 0 013.263 1.881 7.158 7.158 0 011.852 3.315 7.3 7.3 0 01.135 2.807.942.942 0 01-1.068.803.952.952 0 01-.79-1.084c.1-.687.067-1.389-.1-2.062a5.24 5.24 0 00-1.358-2.429 5.12 5.12 0 00-4.42-1.48.942.942 0 01-1.068-.803.952.952 0 01.79-1.085 6.98 6.98 0 012.764.137zm.625 4.355a3.85 3.85 0 011.06 3.265.942.942 0 01-1.069.803.95.95 0 01-.8-.974l.01-.11a1.923 1.923 0 00-.53-1.634 1.857 1.857 0 00-1.432-.556l-.176.018a.942.942 0 01-1.068-.803.952.952 0 01.79-1.085 3.718 3.718 0 013.215 1.076z" fill="#ABABAB"/></svg>