<svg width="17" height="17" fill="none" xmlns="http://www.w3.org/2000/svg"><path d="M4.508 1.418c.583 0 1.121.317 1.405.828l.983 1.77c.258.464.27 1.025.032 1.5l-.811 1.622.012.04.076.215c.153.404.366.808.646 1.183a4.29 4.29 0 00.863.864 4.806 4.806 0 001.398.722l.039.012 1.624-.811a1.607 1.607 0 011.358-.038l.142.07 1.776.988c.51.283.826.821.826 1.405v2.039c0 1.587-1.503 2.725-3.009 2.217-3.01-1.015-5.676-2.381-7.456-4.16-1.78-1.78-3.145-4.447-4.16-7.457-.509-1.506.63-3.009 2.217-3.009h2.039zm0 1.608H2.469c-.508 0-.844.443-.695.887.944 2.795 2.21 5.27 3.775 6.834 1.564 1.564 4.038 2.831 6.833 3.774.444.15.888-.186.888-.694v-2.04l-1.776-.987-1.894.947a.803.803 0 01-.51.07c-.613-.117-1.475-.442-2.34-1.091a5.892 5.892 0 01-1.186-1.188c-.646-.864-.972-1.724-1.09-2.334a.804.804 0 01.07-.513l.947-1.894-.983-1.771zM11.824.348a6.003 6.003 0 012.792 1.584A6.002 6.002 0 0116.2 4.723c.193.773.232 1.577.115 2.364a.804.804 0 11-1.59-.237 4.448 4.448 0 00-.085-1.736 4.396 4.396 0 00-1.16-2.044 4.396 4.396 0 00-2.046-1.162 4.448 4.448 0 00-1.736-.084.804.804 0 01-.237-1.59 6.055 6.055 0 012.364.115zm.535 3.668a3.211 3.211 0 01.906 2.749.804.804 0 01-1.599-.144l.009-.093a1.604 1.604 0 00-.453-1.376 1.602 1.602 0 00-1.225-.468l-.15.015a.804.804 0 11-.238-1.59c1-.149 2.02.177 2.75.907z" fill="#C5072B"/></svg>