<svg width="20" height="16" fill="none" xmlns="http://www.w3.org/2000/svg"><path d="M18.783 3.35a2.316 2.316 0 00-1.616-1.667c-1.434-.35-7.167-.35-7.167-.35s-5.733 0-7.167.384a2.317 2.317 0 00-1.616 1.666 24.166 24.166 0 00-.384 4.409 24.22 24.22 0 00.384 4.441 2.316 2.316 0 001.616 1.6c1.434.384 7.167.384 7.167.384s5.733 0 7.167-.384a2.317 2.317 0 001.616-1.666 24.22 24.22 0 00.384-4.375 24.23 24.23 0 00-.384-4.442z" stroke="#C5072B" stroke-width="2" stroke-linecap="round" stroke-linejoin="round"/><path d="M8.125 10.517l4.792-2.725-4.792-2.725v5.45z" stroke="#C5072B" stroke-width="2" stroke-linecap="round" stroke-linejoin="round"/></svg>