<svg xmlns="http://www.w3.org/2000/svg"><defs><style/></defs><symbol viewBox="0 0 19 20" fill="none" id="icon-user2"><path fill-rule="evenodd" clip-rule="evenodd" d="M6.36 12.265a.875.875 0 011.134.089L9.5 14.36l2.007-2.006a.875.875 0 011.133-.09l4.812 3.5c.178.13.3.322.344.537l.437 2.187a.875.875 0 01-1.716.344l-.37-1.853-3.932-2.86-2.096 2.097a.875.875 0 01-1.238 0L6.785 14.12l-3.931 2.86-.37 1.852a.875.875 0 11-1.717-.344l.438-2.187a.875.875 0 01.343-.536l4.813-3.5zM3.375 6.41a6.125 6.125 0 1110.456 4.331.875.875 0 11-1.237-1.237c.239-.24.45-.506.629-.794.035-.25-.061-.481-.327-.76-.264-.277-.586-.487-.905-.695a13.84 13.84 0 01-.237-.155c-.032-.022-.15-.078-.413-.145a11.71 11.71 0 00-.862-.17c-.313-.055-.666-.112-.981-.18-.304-.064-.653-.153-.941-.294-.654-.32-1.022-.983-1.218-1.337l-.09-.164c-.063-.115-.125-.231-.198-.34-.047-.012-.064-.006-.08 0h-.003c-.066.023-.302.14-.688.692-.401.573-.68 1.579-.714 3.164.214.438.499.836.84 1.178A.875.875 0 015.17 10.74a6.107 6.107 0 01-1.795-4.33zm10.5.058c.031-2.406-1.968-4.433-4.375-4.433-.864 0-1.67.25-2.35.684.278.022.512.104.689.18m6.036 3.57a8.424 8.424 0 00-.992-.722 3.68 3.68 0 00-1.111-.488c-.32-.08-.673-.144-.997-.2-.338-.058-.642-.107-.913-.165a2.666 2.666 0 01-.535-.154c-.252-.124-.39-.489-.518-.724a7.241 7.241 0 00-.276-.477c-.107-.164-.327-.48-.694-.64" fill="#535353"/></symbol><symbol id="arr-down" viewBox="0 0 5.625 3.031"><path d="M5.312.39l-2.5 2-2.5-2"/></symbol><symbol id="arr-next" viewBox="0 0 14 21"><path d="M.795.667l11.526 9.935L.795 20.538" stroke-width="3"/></symbol><symbol id="arr-prev" viewBox="0 0 14 21"><path d="M12.962 20.539L1.436 10.603 12.962.667" stroke-width="3"/></symbol><symbol id="arr-up" viewBox="0 0 5.625 3.031"><path d="M.312 2.64l2.5-2 2.5 2"/></symbol><symbol id="icon-box" viewBox="0 0 11 11"><path d="M.013 8.71L0 3.712c0-.246.252-.411.478-.316L5.043 5.34a.346.346 0 01.209.315l.012 4.997a.344.344 0 01-.478.317L.22 9.024a.342.342 0 01-.207-.314zM10.47 3.948L6.258 5.766l.01 4.626 4.214-1.819-.011-4.625zm.171-.604c.18 0 .344.146.344.342L11 8.683c0 .136-.081.26-.207.314l-4.558 1.97a.344.344 0 01-.48-.313l-.012-4.997c0-.137.081-.26.207-.315l4.556-1.966a.294.294 0 01.137-.032zM5.466.53l-4.37 1.944L5.476 4.4l4.367-1.946L5.466.53zM5.464 0c.047 0 .096.009.14.029l4.802 2.11c.272.12.274.504.002.625L5.616 4.898a.337.337 0 01-.278.002L.534 2.79a.341.341 0 01-.002-.625L5.326.03c.043-.02.09-.03.138-.03z"/></symbol><symbol id="icon-cart-2" viewBox="0 0 89 84"><path d="M27.433 49.285h52.032l9.206-32.678H75.123L70.258 1.666l-20.286 6.54 2.774 8.401h-.955L46.783 1.666l-20.287 6.54 2.774 8.401H18.424L16.172 7.65C15.037 3.17 11.11 0 6.587 0H.39v3.744h6.197c2.81 0 5.261 1.863 6.018 4.676l9.963 38.769a8.102 8.102 0 00-3.405 6.61c0 4.48 3.765 8.224 8.27 8.224H78.15v-3.745H27.433c-2.45 0-4.505-2.06-4.505-4.478 0-2.455 2.072-4.515 4.505-4.515zm40.393-42.96l3.387 10.085H56.566l-2.072-5.786 13.332-4.3zm-23.476 0l3.387 10.085H33.09l-2.072-5.786 13.332-4.3zm39.439 13.83l-7.135 25.404H25.937l-6.576-25.404H83.79zm-22.16 47.439c-4.324 0-7.892 3.547-7.892 7.847 0 4.3 3.568 7.847 7.892 7.847 4.504 0 7.891-3.547 7.891-7.847 0-4.3-3.567-7.847-7.891-7.847zm0 12.147c-2.45 0-4.324-2.06-4.324-4.3 0-2.436 2.072-4.3 4.324-4.3 2.45 0 4.324 1.864 4.324 4.3 0 2.437-2.072 4.3-4.324 4.3zM32.694 67.594c-4.324 0-7.891 3.547-7.891 7.847 0 4.3 3.567 7.847 7.891 7.847s7.892-3.547 7.892-7.847c0-4.3-3.568-7.847-7.892-7.847zm0 12.147c-2.45 0-4.324-2.06-4.324-4.3 0-2.436 2.072-4.3 4.324-4.3s4.324 1.864 4.324 4.3c0 2.437-2.072 4.3-4.324 4.3z"/></symbol><symbol id="icon-cart" viewBox="0 0 18 18"><path opacity=".6" d="M5.4 14.4c-.99 0-1.8.81-1.8 1.8S4.41 18 5.4 18s1.8-.81 1.8-1.8-.81-1.8-1.8-1.8zM0 0v1.8h1.8l3.24 6.84-1.26 2.16c-.09.27-.18.63-.18.9 0 .99.81 1.8 1.8 1.8h10.8v-1.8H5.76c-.09 0-.18-.09-.18-.18v-.09l.81-1.53h6.66c.72 0 1.26-.36 1.53-.9l3.24-5.85c.18-.18.18-.27.18-.45 0-.54-.36-.9-.9-.9H3.78L2.97 0H0zm14.4 14.4c-.99 0-1.8.81-1.8 1.8s.81 1.8 1.8 1.8 1.8-.81 1.8-1.8-.81-1.8-1.8-1.8z"/></symbol><symbol id="icon-catalog" viewBox="0 0 21 21"><path fill-rule="evenodd" clip-rule="evenodd" d="M1.5 7.95V1.5h6.45v6.45H1.5zM0 1a1 1 0 011-1h7.45a1 1 0 011 1v7.45a1 1 0 01-1 1H1a1 1 0 01-1-1V1zm1.5 18.5v-6.45h6.45v6.45H1.5zM0 12.55a1 1 0 011-1h7.45a1 1 0 011 1V20a1 1 0 01-1 1H1a1 1 0 01-1-1v-7.45zM13.05 1.5v6.45h6.45V1.5h-6.45zm-.5-1.5a1 1 0 00-1 1v7.45a1 1 0 001 1H20a1 1 0 001-1V1a1 1 0 00-1-1h-7.45zm.5 19.5v-6.45h6.45v6.45h-6.45zm-1.5-6.95a1 1 0 011-1H20a1 1 0 011 1V20a1 1 0 01-1 1h-7.45a1 1 0 01-1-1v-7.45z"/></symbol><symbol id="icon-close" viewBox="0 0 20 21"><path fill-rule="evenodd" clip-rule="evenodd" d="M19.085 0L9.9 9.32.715 0 .003.702l9.195 9.33L0 19.365l.712.702 9.186-9.32 9.185 9.32.712-.702-9.195-9.33L19.798.702 19.086 0z"/></symbol><symbol id="icon-ig" viewBox="0 0 18 18"><path fill-rule="evenodd" clip-rule="evenodd" d="M.811 0h16.354c.448 0 .813.363.813.81v16.357c0 .446-.365.81-.813.81H.811a.812.812 0 01-.811-.81V.81C0 .363.364 0 .811 0zm11.315 8.989a3.137 3.137 0 10-6.274 0 3.137 3.137 0 006.274 0zm3.604 6.741H2.247V7.865h1.48a5.37 5.37 0 00-.123 1.124 5.39 5.39 0 005.385 5.384 5.39 5.39 0 005.384-5.384c0-.386-.045-.76-.121-1.124h1.478v7.865zM12.36 5.618h3.37v-3.37h-3.37v3.37z"/></symbol><symbol id="icon-marker" viewBox="0 0 8 10"><path fill-rule="evenodd" clip-rule="evenodd" d="M3.998 0A4.003 4.003 0 00.366 5.67c.43 1.015 1.378 2.573 3.456 4.241a.284.284 0 00.356 0c2.076-1.668 3.025-3.226 3.456-4.24a3.893 3.893 0 00.295-.922A4.01 4.01 0 003.998 0zM2.023 4.042c0 1.087.885 1.974 1.974 1.974 1.09 0 1.974-.887 1.974-1.974a1.978 1.978 0 00-1.974-1.974 1.978 1.978 0 00-1.974 1.974z"/></symbol><symbol id="icon-minus" viewBox="0 0 32 32"><path d="M3 15h26v2H3z"/></symbol><symbol id="icon-pdf" viewBox="0 0 55 58"><path fill-rule="evenodd" clip-rule="evenodd" d="M39.566.342l14.776 15.354c.2.208.312.485.312.773v37.073C54.654 56 52.649 58 50.184 58H16.739c-2.465 0-4.47-2-4.47-4.46V43.5H3.344A3.347 3.347 0 010 40.157V23.42c0-1.843 1.5-3.343 3.344-3.343h8.925V4.468A4.474 4.474 0 0116.74 0h22.023c.303 0 .593.123.804.342zm11.603 15.273L39.039 3.011v12.604h12.13zM2.23 40.157c0 .613.5 1.112 1.113 1.112h30.12c.614 0 1.113-.499 1.113-1.112V23.42c0-.613-.5-1.112-1.113-1.112H3.344c-.614 0-1.113.499-1.113 1.112v16.737zm47.953 15.612a2.235 2.235 0 002.239-2.227V17.846h-14.5c-.616 0-1.115-.5-1.115-1.115V2.23H16.739A2.24 2.24 0 0014.5 4.468v15.609h18.964c1.844 0 3.344 1.5 3.344 3.343v16.737c0 1.843-1.5 3.343-3.344 3.343H14.5v10.04c0 1.23 1.005 2.23 2.24 2.23h33.444zM11.956 27.37c.549.144 1.008.457 1.379.938.37.482.555 1.104.555 1.866 0 .588-.106 1.083-.32 1.484a2.63 2.63 0 01-.814.944c-.329.229-.663.38-1.003.454-.462.092-1.13.137-2.006.137H8.485v3.615H6.551v-9.581h3.104c1.177 0 1.943.047 2.3.143zm-.883 4.046c.258-.1.459-.257.605-.47.146-.214.219-.463.219-.746 0-.348-.103-.636-.308-.862a1.337 1.337 0 00-.777-.425c-.231-.044-.695-.066-1.392-.066h-.935v2.72h1.059c.762 0 1.272-.05 1.53-.151zm12.116-1.572a4.186 4.186 0 00-.915-1.552 3.203 3.203 0 00-1.444-.883c-.418-.121-1.026-.182-1.824-.182h-3.535v9.58h3.64c.715 0 1.285-.067 1.712-.202.571-.183 1.024-.438 1.36-.765.444-.431.786-.995 1.026-1.692.196-.571.294-1.25.294-2.04 0-.897-.105-1.652-.314-2.264zm-1.882 3.934c-.13.43-.3.738-.507.925-.207.188-.467.32-.78.399-.24.06-.63.091-1.17.091h-1.445v-6.346h.87c.788 0 1.317.03 1.588.092.361.078.66.229.895.45.235.223.418.532.549.929.13.396.196.965.196 1.706 0 .74-.065 1.325-.196 1.754zm10.417-6.551v1.62h-4.633v2.268h4v1.621h-4v4.072h-1.935v-9.581h6.568z"/></symbol><symbol id="icon-phone-full" viewBox="0 0 16 16"><path d="M15.966 12.397c-.045-.136-.333-.337-.864-.602a26.173 26.173 0 00-.613-.341 58.136 58.136 0 01-.722-.398 24.117 24.117 0 01-.608-.352c-.03-.023-.125-.089-.284-.199a3.199 3.199 0 00-.403-.244.744.744 0 00-.324-.08c-.152 0-.341.108-.568.324-.227.216-.436.45-.625.705-.19.254-.39.488-.602.704-.212.216-.387.324-.523.324a.77.77 0 01-.256-.057 2.621 2.621 0 01-.233-.096 4.248 4.248 0 01-.272-.16 7.1 7.1 0 00-.216-.13c-1.038-.576-1.928-1.235-2.671-1.977-.742-.743-1.402-1.633-1.977-2.67a6.588 6.588 0 00-.131-.217 4.1 4.1 0 01-.16-.272 2.46 2.46 0 01-.096-.233.769.769 0 01-.057-.256c0-.136.108-.31.324-.523a6.8 6.8 0 01.705-.602 5.53 5.53 0 00.704-.625c.216-.227.324-.416.324-.568a.742.742 0 00-.08-.324 3.16 3.16 0 00-.244-.403 14.96 14.96 0 00-.198-.284 26.83 26.83 0 01-.353-.608 57.422 57.422 0 01-.398-.722c-.143-.265-.257-.47-.34-.613-.265-.53-.466-.819-.603-.864A.636.636 0 003.364 0a3.73 3.73 0 00-.801.114 4.5 4.5 0 00-.779.238c-.379.16-.78.621-1.204 1.386C.193 2.45 0 3.155 0 3.852a4.327 4.327 0 00.182 1.25c.068.242.123.422.165.54.041.117.119.327.233.63.113.303.181.489.204.557.265.743.58 1.405.943 1.989.598.97 1.415 1.971 2.449 3.005 1.034 1.034 2.036 1.85 3.006 2.45.583.363 1.246.677 1.989.943.068.022.253.09.556.204.303.114.514.191.63.233.118.042.298.097.54.165.243.068.461.116.654.142.193.026.392.04.597.04.697 0 1.401-.193 2.114-.58.764-.424 1.226-.825 1.386-1.204.083-.19.162-.449.238-.779a3.74 3.74 0 00.114-.8.635.635 0 00-.034-.24z"/></symbol><symbol viewBox="0 0 14 14" id="icon-phone"><path d="M3.757 1.595c.468 0 .899.253 1.126.662l.787 1.419c.206.371.216.82.026 1.2l-.65 1.3.01.032.061.172c.123.323.293.647.517.948a3.438 3.438 0 00.691.692 3.85 3.85 0 001.12.578l.031.01 1.301-.65a1.29 1.29 0 011.088-.03l.114.056 1.422.791c.409.227.662.658.662 1.125v1.633c0 1.272-1.204 2.184-2.41 1.777-2.411-.814-4.547-1.908-5.972-3.333C2.255 8.55 1.16 6.416.348 4.005c-.407-1.206.505-2.41 1.776-2.41h1.633zm0 1.287H2.124c-.407 0-.676.356-.556.711.755 2.239 1.77 4.22 3.023 5.473 1.253 1.253 3.235 2.268 5.474 3.024.355.12.71-.15.71-.557V9.9l-1.422-.79-1.517.758a.644.644 0 01-.41.056c-.49-.094-1.18-.355-1.873-.874a4.715 4.715 0 01-.95-.952c-.517-.692-.778-1.38-.873-1.87a.644.644 0 01.056-.41L4.545 4.3l-.788-1.419zM9.617.738c.84.21 1.611.643 2.236 1.268a4.808 4.808 0 011.27 2.236c.154.619.186 1.263.091 1.894a.644.644 0 11-1.273-.19c.07-.463.046-.937-.068-1.39a3.52 3.52 0 00-.93-1.64 3.52 3.52 0 00-1.638-.93 3.562 3.562 0 00-1.391-.067.644.644 0 11-.19-1.274 4.85 4.85 0 011.894.093zm.428 2.937c.585.584.846 1.4.726 2.202a.644.644 0 01-1.28-.115l.007-.075A1.284 1.284 0 008.154 4.21l-.12.013a.644.644 0 11-.19-1.274 2.572 2.572 0 012.202.726z"/></symbol><symbol id="icon-plus" viewBox="0 0 32 32"><path d="M29 15H17V3h-2v12H3v2h12v12h2V17h12z"/></symbol><symbol id="icon-search" viewBox="0 0 23 23"><path d="M22.718 21.366l-5.529-5.529a9.658 9.658 0 002.197-6.144C19.386 4.342 15.044 0 9.693 0 4.337 0 0 4.342 0 9.693c0 5.35 4.337 9.693 9.693 9.693a9.642 9.642 0 006.14-2.192l5.529 5.524a.958.958 0 001.356-1.352zm-13.025-3.91c-4.286 0-7.769-3.482-7.769-7.763s3.483-7.769 7.769-7.769c4.28 0 7.768 3.488 7.768 7.769 0 4.28-3.487 7.763-7.768 7.763z"/></symbol><symbol id="icon-tel" viewBox="0 0 15 16"><path d="M8.77 10.285h-.001a3.96 3.96 0 01-.31-.167c-.936-.594-1.787-1.369-2.604-2.373-.386-.487-.646-.897-.837-1.31.226-.209.439-.424.644-.633l.068-.069.134-.135.133-.135c.342-.341.516-.737.516-1.135s-.174-.794-.516-1.135l-.867-.868c-.1-.099-.2-.2-.295-.3v-.001a15.07 15.07 0 00-.6-.593C3.92 1.118 3.54.95 3.137.95c-.402 0-.79.168-1.115.481l-.004.004-.003.003-1.08 1.09H.932a2.375 2.375 0 00-.704 1.51c-.077.94.2 1.812.41 2.38.517 1.395 1.29 2.687 2.44 4.07a15.007 15.007 0 004.997 3.913c.733.347 1.716.76 2.816.832.067.003.138.006.203.006.748 0 1.378-.27 1.871-.805l.002.002.004-.009.002-.002.003-.004a.06.06 0 00.006-.007c.15-.182.322-.349.506-.526l.044-.043c.137-.13.277-.267.414-.41.323-.336.494-.73.494-1.135 0-.41-.175-.8-.504-1.126l-1.744-1.75c-.317-.33-.7-.509-1.11-.509-.407 0-.794.176-1.123.505l-.978.975a11.348 11.348 0 00-.132-.069l-.08-.041zm4.48 2.495c-.098.105-.199.203-.305.306a22.15 22.15 0 00-.073.07 8.4 8.4 0 00-.616.64c-.31.331-.675.488-1.158.488-.048 0-.097 0-.143-.003-.934-.06-1.804-.425-2.46-.74a14.07 14.07 0 01-4.675-3.66C2.739 8.578 2.017 7.375 1.54 6.084c-.294-.787-.4-1.396-.353-1.968.03-.36.168-.657.424-.913L2.694 2.12c.15-.14.303-.212.449-.212.18 0 .33.11.428.208l.005.005.005.005h.001c.193.181.377.368.57.568l.15.153.002.001.15.154.869.869c.163.163.238.313.238.457 0 .143-.075.294-.238.457l-.093.093-.18.18-.001.001c-.267.273-.52.526-.796.773l-.002.002-.001.001-.002.002-.003.002a.706.706 0 00-.23.435.827.827 0 00.043.348l.005.015.005.014.001.004c.228.552.549 1.07 1.034 1.687l.003.004.002.001c.88 1.084 1.808 1.93 2.833 2.577.132.084.268.152.394.215h.001c.115.058.221.111.31.167l.005.002a.168.168 0 01.015.009c.006.004.014.01.023.013a.74.74 0 00.337.085.729.729 0 00.518-.233l1.088-1.088c.105-.106.265-.224.444-.224.176 0 .326.112.42.216l.002.002h.001v.001h.001v.001h.001v.001h.001v.001h.001v.001h.001v.001l1.752 1.752c.158.156.231.309.232.457 0 .147-.07.3-.224.461a.05.05 0 00-.011.012l-.003.004z" stroke-width=".1"/></symbol><symbol id="icon-user" viewBox="0 0 32 28"><path d="M16 19.117a6.25 6.25 0 100-12.5 6.25 6.25 0 000 12.5zm0 0a11.255 11.255 0 00-10.61 7.5m10.61-7.5a11.255 11.255 0 0110.61 7.5m-24.36-25h27.5c.69 0 1.25.56 1.25 1.25v22.5c0 .69-.56 1.25-1.25 1.25H2.25c-.69 0-1.25-.56-1.25-1.25v-22.5c0-.69.56-1.25 1.25-1.25z" fill="none" stroke-width="1.5" stroke-linecap="round" stroke-linejoin="round"/></symbol><symbol id="icon-vk" viewBox="0 0 22 13"><path fill-rule="evenodd" clip-rule="evenodd" d="M21.884 11.74a1.573 1.573 0 00-.075-.148c-.382-.712-1.111-1.586-2.188-2.622l-.022-.024-.012-.011-.012-.012h-.01c-.49-.483-.8-.807-.929-.973-.237-.316-.29-.637-.16-.961.091-.245.435-.763 1.03-1.554.314-.419.562-.755.745-1.008 1.321-1.82 1.894-2.982 1.718-3.488L21.901.82c-.046-.071-.164-.137-.355-.196-.19-.06-.435-.07-.733-.03l-3.3.024a.414.414 0 00-.228.006l-.15.036-.057.03-.045.035a.506.506 0 00-.126.125.827.827 0 00-.114.207 19.7 19.7 0 01-1.226 2.67c-.283.49-.543.915-.78 1.275-.236.36-.435.625-.595.794-.16.17-.305.307-.435.41-.13.102-.229.146-.298.13a11.859 11.859 0 01-.195-.048.768.768 0 01-.257-.29 1.326 1.326 0 01-.132-.463 5.525 5.525 0 01-.04-.48 9.789 9.789 0 01.006-.57c.007-.245.011-.411.011-.498 0-.3.006-.627.017-.979l.029-.836c.007-.206.011-.423.011-.653 0-.229-.013-.408-.04-.54a1.876 1.876 0 00-.12-.379.63.63 0 00-.235-.284 1.292 1.292 0 00-.383-.161c-.405-.095-.92-.146-1.547-.154-1.42-.016-2.332.08-2.738.285-.16.086-.305.205-.435.355-.137.174-.156.27-.057.285.458.071.782.241.974.51l.068.143c.054.102.108.284.16.545.054.261.088.55.103.866a9.473 9.473 0 010 1.483c-.037.411-.074.732-.108.96a1.975 1.975 0 01-.293.82.2.2 0 01-.057.059.819.819 0 01-.31.06c-.105 0-.235-.056-.388-.167a2.786 2.786 0 01-.475-.457 6.1 6.1 0 01-.557-.813 14.317 14.317 0 01-.64-1.233l-.184-.344a28.422 28.422 0 01-.47-.967 18.766 18.766 0 01-.526-1.228.785.785 0 00-.275-.38L4.319.75a.815.815 0 00-.184-.101A1.189 1.189 0 003.872.57L.733.595C.413.595.195.67.08.82L.034.89A.4.4 0 000 1.08a.97.97 0 00.069.32 39.53 39.53 0 001.495 3.227A36.617 36.617 0 002.966 7.13c.398.633.802 1.23 1.215 1.791.412.562.685.921.819 1.08.134.159.239.276.315.355l.286.285c.183.19.452.418.808.682.355.265.748.526 1.18.784a6.29 6.29 0 001.506.628c.573.162 1.13.228 1.673.196h1.317c.267-.024.47-.111.607-.261l.045-.06a.802.802 0 00.086-.219c.027-.099.04-.207.04-.326a4.11 4.11 0 01.075-.92c.056-.272.122-.477.195-.616a1.491 1.491 0 01.44-.522.762.762 0 01.092-.042c.184-.063.399-.001.648.184.247.187.48.416.698.689.218.273.48.58.784.919.307.34.574.593.802.76l.23.141c.153.096.351.182.595.261.245.08.458.1.642.06l2.932-.048c.29 0 .516-.05.676-.148.16-.099.255-.208.286-.326a.952.952 0 00.006-.404 1.584 1.584 0 00-.08-.314z"/></symbol><symbol id="icon-yt" viewBox="0 0 20 14"><path fill-rule="evenodd" clip-rule="evenodd" d="M17.276.278c1.63.059 2.422 1.71 2.533 3.019.228 2.75.228 4.485.002 7.236-.109 1.309-1.114 2.982-2.533 3.224-4.522.344-9.887.3-14.575 0C1.24 13.575.28 11.842.17 10.533c-.227-2.75-.227-4.315 0-7.064C.278 2.159 1.263.436 2.7.278c4.634-.384 10.025-.301 14.576 0zM7.49 3.439v7.05l6.244-3.525L7.491 3.44z"/></symbol><symbol viewBox="0 0 36 30" id="icon-doors"><path d="M34.333 28.95h-4M1 28.95h3.333m0 0v-28H23v7.305M4.333 28.95H23m0 0V8.255m0 20.695h7.333M23 8.255l7.333 4.26V28.95" fill="none" stroke-width="1.5" stroke-linecap="round" stroke-linejoin="round"/></symbol><symbol viewBox="0 0 28 28" fill="none" id="icon-fb"><path d="M14 0C6.281 0 0 6.281 0 14s6.281 14 14 14 14-6.281 14-14S21.719 0 14 0zm0 2.333A11.65 11.65 0 0125.667 14a11.64 11.64 0 01-9.931 11.526v-8.124h3.323l.521-3.375h-3.844v-1.843c0-1.4.46-2.645 1.771-2.645h2.106V6.594c-.37-.05-1.153-.159-2.632-.159-3.09 0-4.9 1.631-4.9 5.348v2.244H8.905v3.375h3.176v8.094A11.637 11.637 0 012.333 14 11.65 11.65 0 0114 2.333z" fill="#D92547"/></symbol><symbol viewBox="0 0 26 27" fill="none" id="icon-insta"><path fill-rule="evenodd" clip-rule="evenodd" d="M7.71.744C9.077.68 9.513.667 13 .667c3.486 0 3.922.015 5.29.077 1.367.062 2.3.28 3.117.596a6.314 6.314 0 012.273 1.482 6.268 6.268 0 011.48 2.271c.316.817.533 1.75.596 3.115.063 1.37.077 1.807.077 5.292 0 3.486-.015 3.922-.077 5.29-.061 1.366-.28 2.3-.597 3.116a6.294 6.294 0 01-1.48 2.274 6.292 6.292 0 01-2.272 1.48c-.817.316-1.75.533-3.115.596-1.37.063-1.806.077-5.292.077-3.486 0-3.922-.015-5.29-.077-1.366-.061-2.3-.28-3.116-.597a6.297 6.297 0 01-2.274-1.48 6.29 6.29 0 01-1.48-2.272c-.316-.817-.533-1.75-.596-3.115C.18 17.422.167 16.985.167 13.5c0-3.486.015-3.922.077-5.29.062-1.367.28-2.3.596-3.117A6.295 6.295 0 012.322 2.82a6.29 6.29 0 012.271-1.48c.817-.316 1.75-.533 3.115-.596h.001zm10.476 2.31c-1.353-.062-1.76-.075-5.186-.075s-3.832.013-5.186.075c-1.252.057-1.93.266-2.383.442a3.985 3.985 0 00-1.476.959 3.98 3.98 0 00-.96 1.476c-.175.452-.384 1.131-.441 2.383-.062 1.354-.075 1.76-.075 5.186 0 3.427.013 3.833.075 5.186.057 1.252.266 1.93.442 2.383.205.557.533 1.062.959 1.476.414.426.92.754 1.476.96.452.175 1.131.384 2.383.441 1.354.062 1.758.075 5.186.075s3.833-.013 5.186-.075c1.252-.057 1.93-.266 2.383-.442a3.984 3.984 0 001.476-.959c.426-.414.754-.92.96-1.476.175-.452.384-1.131.441-2.383.062-1.353.075-1.76.075-5.186s-.013-3.832-.075-5.186c-.057-1.252-.266-1.93-.442-2.383a3.984 3.984 0 00-.959-1.476 3.981 3.981 0 00-1.476-.96c-.452-.175-1.131-.384-2.383-.441zM11.36 17.456a4.28 4.28 0 103.082-7.987 4.282 4.282 0 00-3.082 7.987zm-3.025-8.62a6.596 6.596 0 119.328 9.328 6.596 6.596 0 01-9.328-9.328zm12.723-.95a1.56 1.56 0 10-2.141-2.27 1.56 1.56 0 002.141 2.27z" fill="#D92547"/></symbol><symbol viewBox="0 0 29 21" fill="none" id="icon-youtube"><path d="M28.063 10.415c0-.066 0-.142-.003-.23l-.016-.814a45.565 45.565 0 00-.133-2.48c-.09-1.093-.224-2.004-.405-2.688a4.223 4.223 0 00-2.976-2.982c-.857-.23-2.534-.372-4.896-.46a138.67 138.67 0 00-3.526-.085c-.421-.006-.812-.009-1.163-.012h-.89c-.351.003-.742.006-1.162.012-1.202.015-2.404.043-3.527.085-2.362.09-4.042.233-4.896.46a4.219 4.219 0 00-2.975 2.982c-.185.684-.315 1.595-.406 2.688a45.584 45.584 0 00-.133 2.48c-.01.293-.012.569-.015.814 0 .088-.003.163-.003.23v.17c0 .066 0 .142.003.23.003.245.009.52.015.814.024.845.066 1.686.133 2.48.09 1.092.224 2.004.406 2.688a4.218 4.218 0 002.975 2.982c.854.23 2.534.372 4.896.46 1.123.042 2.325.07 3.527.085.42.006.81.009 1.162.012h.89c.351-.003.742-.006 1.163-.012 1.201-.016 2.403-.043 3.526-.085 2.362-.091 4.042-.233 4.896-.46a4.213 4.213 0 002.976-2.982c.184-.684.314-1.596.405-2.689.067-.793.11-1.634.133-2.479.01-.294.012-.569.015-.814 0-.088.003-.164.003-.23v-.17zm-2.18.158c0 .063 0 .133-.003.214-.003.237-.01.497-.015.778a41.284 41.284 0 01-.127 2.359c-.082.975-.197 1.774-.34 2.31a2.037 2.037 0 01-1.434 1.438c-.636.17-2.238.305-4.414.387a137.281 137.281 0 01-4.617.094h-.866l-1.144-.01a137.642 137.642 0 01-3.473-.084c-2.176-.085-3.78-.218-4.413-.387a2.042 2.042 0 01-1.435-1.438c-.143-.536-.258-1.335-.34-2.31a43.85 43.85 0 01-.127-2.358c-.009-.282-.012-.545-.015-.779 0-.081-.003-.154-.003-.214v-.146c0-.063 0-.133.003-.215.003-.236.01-.496.015-.778.022-.805.064-1.61.128-2.358.081-.975.196-1.774.339-2.31.187-.7.738-1.253 1.435-1.438.635-.17 2.237-.306 4.413-.387a137.559 137.559 0 014.617-.094h.866l1.144.009c1.184.015 2.368.042 3.473.085 2.176.084 3.78.218 4.413.387a2.042 2.042 0 011.435 1.438c.143.536.258 1.335.34 2.31.063.748.102 1.553.127 2.358.009.282.012.545.015.778 0 .082.003.155.003.215v.146zm-14.077 3.983l7.023-4.086-7.023-4.027v8.114z" fill="#D92547"/></symbol><symbol viewBox="0 0 27 24" fill="none" id="icon-tg"><path d="M24.255.984a2.881 2.881 0 00-.904.216h-.004c-.276.11-1.588.662-3.584 1.499L12.61 5.71C7.481 7.87 2.436 9.998 2.436 9.998l.06-.023s-.348.114-.711.363c-.225.143-.418.33-.568.55a1.61 1.61 0 00-.268 1.075c.087.7.54 1.119.866 1.35.33.235.643.344.643.344h.008l4.73 1.594c.212.68 1.442 4.722 1.737 5.653.175.556.344.904.556 1.17.103.135.223.249.367.34.075.043.155.078.239.102l-.049-.011c.015.004.027.015.037.02.039.01.065.014.114.021.75.227 1.35-.238 1.35-.238l.035-.027 2.793-2.543 4.68 3.591.107.046c.976.428 1.964.19 2.486-.23a2.53 2.53 0 00.73-.966l.034-.087L26.03 3.561c.102-.457.128-.886.015-1.301a1.75 1.75 0 00-.756-1.015 1.816 1.816 0 00-1.034-.261zm-.098 1.986c-.004.06.008.054-.02.171v.011L20.555 21.49c-.015.027-.041.084-.113.14-.076.06-.136.099-.45-.026l-5.726-4.39-3.458 3.153.726-4.64 9.355-8.72c.385-.358.256-.433.256-.433.027-.44-.582-.13-.582-.13L8.767 13.753l-.004-.02-5.654-1.903v-.004l-.014-.003a.274.274 0 00.029-.011l.03-.016.03-.01s5.049-2.128 10.18-4.288a7173.17 7173.17 0 007.149-3.013c1.18-.497 2.362-.991 3.545-1.482.08-.031.042-.031.1-.031V2.97z" fill="#D92547"/></symbol><symbol viewBox="0 0 33 21" fill="none" id="icon-vk2"><path d="M31.29 2.653c.216-.719 0-1.247-1.025-1.247h-3.393c-.863 0-1.257.457-1.474.958 0 0-1.725 4.206-4.17 6.934-.788.793-1.149 1.044-1.579 1.044-.215 0-.527-.25-.527-.97V2.653c0-.863-.25-1.247-.969-1.247h-5.33c-.539 0-.864.4-.864.78 0 .817 1.222 1.006 1.348 3.308v4.994c0 1.093-.197 1.293-.63 1.293-1.15 0-3.947-4.222-5.606-9.055-.324-.939-.65-1.318-1.517-1.318h-3.39c-.97 0-1.164.456-1.164.958 0 .9 1.15 5.355 5.354 11.248 2.803 4.024 6.75 6.205 10.345 6.205 2.155 0 2.421-.484 2.421-1.32v-3.04c0-.97.206-1.164.888-1.164.502 0 1.365.253 3.378 2.192 2.298 2.299 2.679 3.33 3.97 3.33h3.392c.968 0 1.452-.484 1.174-1.44-.305-.951-1.403-2.336-2.86-3.974-.793-.934-1.976-1.94-2.337-2.443-.502-.648-.357-.934 0-1.51.002.002 4.134-5.818 4.564-7.797v0z" stroke="#D92547" stroke-width="2"/></symbol><symbol viewBox="0 0 29 29" fill="none" id="icon-whatsapp"><path d="M20.874 16.992c-.35-.177-2.053-1.008-2.371-1.126-.318-.114-.55-.173-.781.177-.227.34-.895 1.121-1.1 1.349-.203.227-.404.245-.748.09-.35-.177-1.467-.54-2.793-1.73-1.036-.921-1.726-2.057-1.931-2.406-.204-.346-.023-.541.15-.714.159-.158.35-.4.527-.608.168-.21.222-.35.345-.577.113-.245.055-.436-.031-.608-.087-.173-.782-1.885-1.072-2.567-.277-.677-.568-.59-.781-.59-.2-.019-.432-.019-.663-.019-.231 0-.609.087-.927.418-.318.35-1.218 1.185-1.218 2.875 0 1.695 1.245 3.334 1.418 3.58.177.226 2.447 3.714 5.931 5.213.831.35 1.476.559 1.98.732.832.263 1.59.226 2.19.14.662-.109 2.052-.84 2.343-1.658.296-.822.296-1.503.21-1.658-.087-.158-.313-.244-.663-.399l-.015.087zm-6.318 8.566h-.018a11.65 11.65 0 01-5.882-1.603l-.418-.25-4.36 1.136 1.172-4.243-.282-.436a11.481 11.481 0 01-1.762-6.113c0-6.33 5.183-11.495 11.559-11.495 3.089 0 5.986 1.204 8.167 3.384a11.388 11.388 0 013.383 8.13c-.009 6.326-5.187 11.49-11.554 11.49h-.005zM24.39 4.28C21.737 1.718 18.25.27 14.538.27 6.885.27.653 6.473.649 14.1c0 2.434.636 4.81 1.853 6.912l-1.97 7.163 7.366-1.922a14.066 14.066 0 006.64 1.685h.005c7.657 0 13.889-6.204 13.893-13.835 0-3.692-1.44-7.167-4.064-9.779l.017-.044z" fill="#333"/></symbol><symbol viewBox="0 0 28 24" fill="none" id="icon-tg-dark"><path d="M25.925.97L2.074 10.168c-1.628.654-1.619 1.562-.299 1.966l6.124 1.91 14.168-8.938c.67-.408 1.282-.189.779.258l-11.48 10.36h-.002.003l-.423 6.313c.62 0 .892-.284 1.24-.619l2.974-2.892 6.186 4.57c1.141.628 1.96.305 2.244-1.056L27.65 2.9c.415-1.667-.637-2.422-1.725-1.93z" fill="#333"/></symbol><symbol viewBox="0 0 16 18" fill="none" id="icon-question"><path d="M8.453 15.383H1.457a.957.957 0 01-.957-.958V1.021a.957.957 0 01.957-.957H11.67a.957.957 0 01.958.957v9.894h-.639V1.02a.32.32 0 00-.319-.319H1.457a.32.32 0 00-.319.32v13.403a.32.32 0 00.32.32h6.995v.638zm.026-7.34H6.564v.638h1.915v-.639zm2.234-1.915h-4.15v.638h4.15v-.638zm-2.234 5.744H6.564v.639h1.915v-.639zm2.234-1.915h-4.15v.639h4.15v-.639zM8.479 4.213H6.564v.638h1.915v-.638zm2.234-1.915h-4.15v.638h4.15v-.638zM15.5 14.745a3.191 3.191 0 10-6.383 0 3.191 3.191 0 006.383 0zm-.638 0a2.553 2.553 0 11-5.105 0 2.553 2.553 0 015.105 0zm-3.192-1.596h-.638v.957h.638v-.957zm1.915 0h-.638v.957h.638v-.957zm0 0h-.638v.957h.638v-.957zm-1.915 0h-.638v.957h.638v-.957zm2.553 1.915h-.638c0 .772-.638 1.117-1.277 1.117-.638 0-1.276-.345-1.276-1.117h-.638a1.64 1.64 0 00.619 1.327 2.08 2.08 0 001.296.428c.957 0 1.914-.603 1.914-1.755zM3.937 8.566L5.533 6.65l-.492-.409-1.41 1.695-.721-.479-.351.53.957.638a.32.32 0 00.421-.06zm0-3.83l1.596-1.915-.492-.408-1.41 1.694-.721-.478-.351.53.957.638a.32.32 0 00.421-.06zm0 7.66l1.596-1.915-.492-.409-1.41 1.695-.721-.479-.351.53.957.638a.318.318 0 00.421-.06z" fill="#000"/></symbol><symbol viewBox="0 0 16 16" fill="none" id="icon-pencil"><path d="M8.78 3.58l3.64 3.64M8.78 3.58l2.08-2.08 3.64 3.64-2.08 2.08-3.64-3.64zm0 0l-7.065 7.064a.735.735 0 00-.215.52V14.5h3.336a.735.735 0 00.52-.216L12.42 7.22 8.78 3.58z" stroke="#333" stroke-width="1.5" stroke-linecap="round" stroke-linejoin="round"/></symbol><symbol viewBox="0 0 15 11" fill="none" id="icon-car"><path fill-rule="evenodd" clip-rule="evenodd" d="M0 1.348C0 1.002.28.723.625.723h9.063c.345 0 .624.28.624.625V2.91h2.054c.196 0 .38.092.498.248l2.01 2.656a.626.626 0 01.126.377v2.657c0 .345-.28.625-.625.625h-1.67a1.876 1.876 0 01-3.536 0H5.52a1.876 1.876 0 01-3.537 0H.625A.625.625 0 010 8.848v-7.5zm1.982 6.875a1.876 1.876 0 013.536 0h3.545v-6.25H1.25v6.25h.732zm8.33-1.144V4.16h1.743l1.695 2.241v1.822h-1.044a1.876 1.876 0 00-2.393-1.144zM3.75 8.223a.625.625 0 100 1.25.625.625 0 000-1.25zm7.188 0a.625.625 0 100 1.25.625.625 0 000-1.25z" fill="#333"/></symbol><symbol viewBox="0 0 15 15" fill="none" id="icon-des"><path fill-rule="evenodd" clip-rule="evenodd" d="M5.313 1.16c0-.345.28-.625.625-.625h3.125c.345 0 .625.28.625.625v2.461l2.131-1.23a.625.625 0 01.854.228l1.562 2.707a.625.625 0 01-.228.853L11.875 7.41l2.131 1.23a.625.625 0 01.23.854l-1.563 2.707a.625.625 0 01-.854.229l-2.131-1.231v2.461c0 .345-.28.625-.625.625H5.938a.625.625 0 01-.625-.625v-2.461l-2.132 1.23a.625.625 0 01-.854-.228L.765 9.494a.625.625 0 01.229-.853L3.125 7.41.994 6.18a.625.625 0 01-.23-.854l1.563-2.707a.625.625 0 01.854-.228l2.132 1.23V1.16zm1.25.625v2.919a.625.625 0 01-.938.541l-2.528-1.46L2.16 5.41l2.528 1.46a.625.625 0 010 1.082L2.16 9.411l.937 1.623 2.528-1.459a.625.625 0 01.938.541v2.919h1.875v-2.919a.625.625 0 01.937-.54l2.528 1.458.937-1.623-2.527-1.46a.625.625 0 010-1.082l2.527-1.46-.937-1.623-2.528 1.459a.625.625 0 01-.937-.541V1.785H6.563z" fill="#fff"/></symbol><symbol viewBox="0 0 19 21" fill="none" id="icon-cube"><path d="M1.1 16.014l7.697 4.444a1.441 1.441 0 001.438 0l7.697-4.444a1.44 1.44 0 00.719-1.245V5.881a1.44 1.44 0 00-.72-1.245L10.235.192a1.441 1.441 0 00-1.437 0L1.1 4.636a1.442 1.442 0 00-.72 1.245v8.888a1.442 1.442 0 00.72 1.245zm9.135-14.162l6.978 4.029v7.968l-6.979-3.944V1.852zm-.722 9.296l7.06 3.99-7.057 4.075-7.06-4.076 7.057-3.989zM1.818 5.881l6.979-4.03v8.05l-6.979 3.946V5.88z" fill="#535353"/></symbol><symbol viewBox="0 0 23 20" fill="none" id="icon-basket"><path d="M1.895 1.596h3.158l4.378 14.18h9.294" stroke="#535353" stroke-width="2" stroke-linecap="round"/><path d="M20.04 3.62l-13.038.037a1 1 0 00-.95 1.303l2.138 6.71a1 1 0 00.967.696l9.122-.124a1 1 0 00.952-.74l1.78-6.622a1 1 0 00-.97-1.26z" stroke="#535353" stroke-width="2"/><circle cx="10.578" cy="18.606" r="1.377" fill="#535353"/><circle cx="16.804" cy="18.606" r="1.377" fill="#535353"/></symbol><symbol viewBox="0 0 27 16" fill="none" id="icon-menu"><path stroke="#222121" d="M0 1h26.506M0 8h26.506M0 15h26.506"/></symbol><symbol viewBox="0 0 14 14" fill="none" id="icon-tel2"><path d="M3.757 1.595c.468 0 .899.253 1.126.662l.787 1.419c.206.371.216.82.026 1.2l-.65 1.3.01.032.061.172c.123.323.293.647.517.948a3.438 3.438 0 00.691.692 3.85 3.85 0 001.12.578l.031.01 1.301-.65a1.29 1.29 0 011.088-.03l.114.056 1.422.791c.409.227.662.658.662 1.125v1.633c0 1.272-1.204 2.184-2.41 1.777-2.411-.814-4.547-1.908-5.972-3.333C2.255 8.55 1.16 6.416.348 4.005c-.407-1.206.505-2.41 1.776-2.41h1.633zm0 1.287H2.124c-.407 0-.676.356-.556.711.755 2.239 1.77 4.22 3.023 5.473 1.253 1.253 3.235 2.268 5.474 3.024.355.12.71-.15.71-.557V9.9l-1.422-.79-1.517.758a.644.644 0 01-.41.056c-.49-.094-1.18-.355-1.873-.874a4.715 4.715 0 01-.95-.952c-.517-.692-.778-1.38-.873-1.87a.644.644 0 01.056-.41L4.545 4.3l-.788-1.419zM9.617.738c.84.21 1.611.643 2.236 1.268a4.808 4.808 0 011.27 2.236c.154.619.186 1.263.091 1.894a.644.644 0 11-1.273-.19c.07-.463.046-.937-.068-1.39a3.52 3.52 0 00-.93-1.64 3.52 3.52 0 00-1.638-.93 3.562 3.562 0 00-1.391-.067.644.644 0 11-.19-1.274 4.85 4.85 0 011.894.093zm.428 2.937c.585.584.846 1.4.726 2.202a.644.644 0 01-1.28-.115l.007-.075A1.284 1.284 0 008.154 4.21l-.12.013a.644.644 0 11-.19-1.274 2.572 2.572 0 012.202.726z" fill="#ABABAB"/></symbol><symbol viewBox="0 0 12 16" fill="none" id="icon-marker2"><g clip-path="url(#clip0_1912_6048)"><path fill-rule="evenodd" clip-rule="evenodd" d="M5.997.125A5.254 5.254 0 00.88 6.533c.08.354.198.703.351 1.035.566 1.33 1.809 3.375 4.537 5.565a.373.373 0 00.466 0c2.725-2.19 3.971-4.234 4.537-5.565a5.11 5.11 0 00.387-1.21c.06-.324.093-.656.093-.986A5.262 5.262 0 005.997.125zM3.406 5.43c0 1.427 1.16 2.59 2.59 2.59s2.591-1.163 2.591-2.59a2.595 2.595 0 00-2.59-2.59 2.595 2.595 0 00-2.591 2.59z" fill="#ABABAB"/></g><defs><clipPath id="clip0_1912_6048"><path fill="#fff" transform="translate(.75 .125)" d="M0 0h10.5v15.75H0z"/></clipPath></defs></symbol><symbol viewBox="0 0 21 22" fill="none" id="icon-percent"><path fill-rule="evenodd" clip-rule="evenodd" d="M13.046 2.765L10.288.947 7.529 2.765l-3.3.15-1.163 3.093L.484 8.069l.877 3.185-.877 3.186 2.582 2.06 1.163 3.093 3.3.15 2.759 1.818 2.758-1.818 3.3-.15L17.51 16.5l2.582-2.061-.877-3.185.877-3.186-2.582-2.061-1.163-3.093-3.3-.15zm2.244 1.604l-2.725-.124-2.277-1.502L8.01 4.245l-2.725.124-.96 2.553-2.132 1.702.724 2.63-.724 2.63 2.132 1.703.96 2.553 2.725.125 2.278 1.5 2.277-1.5 2.725-.125.96-2.553 2.132-1.702-.724-2.63.724-2.63-2.131-1.703-.96-2.553z" fill="#D92547"/><path d="M6.348 8.93v-.45c0-.325.07-.62.21-.885a1.6 1.6 0 01.622-.639c.273-.16.61-.24 1.008-.24.41 0 .751.08 1.025.24.277.16.484.373.621.639.14.265.21.56.21.884v.452c0 .316-.07.607-.21.873a1.56 1.56 0 01-.615.638c-.274.16-.612.24-1.014.24-.406 0-.748-.08-1.025-.24a1.6 1.6 0 01-.621-.638 1.837 1.837 0 01-.211-.873zm1.119-.45v.45c0 .137.025.268.076.393a.746.746 0 00.246.3.74.74 0 00.41.11.697.697 0 00.41-.11.704.704 0 00.235-.3c.05-.125.076-.256.076-.392v-.452a.957.957 0 00-.082-.398.672.672 0 00-.65-.416.684.684 0 00-.645.416 1.02 1.02 0 00-.076.398zm2.959 5.25v-.452c0-.32.07-.613.21-.879a1.64 1.64 0 01.628-.638c.277-.16.617-.24 1.02-.24.405 0 .745.08 1.019.24.273.16.48.373.62.638.142.266.212.559.212.88v.45c0 .32-.07.614-.211.88a1.56 1.56 0 01-.615.638c-.274.16-.612.24-1.014.24-.406 0-.748-.08-1.025-.24a1.63 1.63 0 01-.633-.639 1.85 1.85 0 01-.211-.879zm1.125-.452v.451c0 .141.031.274.094.399a.77.77 0 00.257.299.7.7 0 00.393.111c.187 0 .334-.037.44-.111a.56.56 0 00.216-.3c.043-.124.065-.257.065-.398v-.45a.943.943 0 00-.082-.393.684.684 0 00-.65-.416.689.689 0 00-.411.117.7.7 0 00-.24.299.943.943 0 00-.082.392zm1.148-5.22l-4.166 6.668-.82-.434 4.166-6.668.82.434z" fill="#D92547"/></symbol></svg>