<svg width="36" height="36" fill="none" xmlns="http://www.w3.org/2000/svg"><path d="M18 0C8.059 0 0 8.059 0 18s8.059 18 18 18 18-8.059 18-18S27.941 0 18 0z" fill="#40B3E0"/><path d="M26.761 10.354l-3.215 16.21s-.45 1.123-1.686.584l-7.42-5.688-2.697-1.304-4.541-1.529s-.697-.247-.765-.787c-.067-.54.787-.831.787-.831l18.053-7.082s1.484-.652 1.484.427" fill="#fff"/><path d="M13.874 26.382s-.217-.02-.487-.875c-.27-.854-1.64-5.35-1.64-5.35l10.903-6.925s.63-.382.607 0c0 0 .112.068-.225.383s-8.566 7.71-8.566 7.71" fill="#D2E5F1"/><path d="M17.278 23.641l-2.934 2.676s-.23.174-.48.065l.561-4.97" fill="#B5CFE4"/></svg>