<svg width="36" height="36" fill="none" xmlns="http://www.w3.org/2000/svg"><path d="M17.972 0C8.046 0 0 8.046 0 17.972c0 9.926 8.046 17.973 17.972 17.973 9.926 0 17.973-8.047 17.973-17.973C35.945 8.046 27.898 0 17.972 0z" fill="#40B3E0"/><path d="M26.89 9.89l-3.21 16.186s-.449 1.122-1.683.583l-7.408-5.68-2.694-1.3-4.534-1.527s-.696-.247-.763-.786c-.068-.539.785-.83.785-.83L25.41 9.463s1.481-.65 1.481.427" fill="#fff"/><path d="M14.023 25.894s-.216-.02-.486-.873c-.27-.854-1.639-5.343-1.639-5.343l10.887-6.914s.63-.381.607 0c0 0 .112.068-.225.382s-8.552 7.7-8.552 7.7" fill="#D2E5F1"/><path d="M17.425 23.157l-2.93 2.672s-.229.174-.48.065l.562-4.962" fill="#B5CFE4"/></svg>