<svg width="13" height="17" fill="none" xmlns="http://www.w3.org/2000/svg"><path d="M12.41.677h-9.9a.146.146 0 00-.147.143v1c0 .079.066.143.147.143h9.16v12.286c0 .078.066.143.147.143h1.034a.146.146 0 00.148-.143v-13a.58.58 0 00-.59-.572zm-2.364 2.286H.59a.58.58 0 00-.59.571v9.477c0 .152.063.296.174.404l3.2 3.094a.6.6 0 00.136.099v.034h.078a.6.6 0 00.203.035h6.255a.58.58 0 00.59-.571V3.534a.58.58 0 00-.59-.571zm-6.537 11.86l-1.59-1.539h1.59v1.54zm5.798.569H4.69v-2.536a.727.727 0 00-.738-.714H1.33V4.249h7.977v11.143z" fill="#ADADAD"/></svg>