<svg width="65" height="52" fill="none" xmlns="http://www.w3.org/2000/svg"><path d="M55.672 8.98L38.792.386c-1.601-.816-3.803-.189-4.67 1.318l-9.876 17.255h-12.01c-1.535 0-2.736 1.13-2.736 2.573v27.922c0 1.442 1.201 2.572 2.736 2.572h38.365c1.535 0 2.737-1.13 2.737-2.572v-6.527h1.133c.601 0 1.068-.438 1.068-1.003v-7.467c0-.565-.467-1.004-1.068-1.004h-1.134v-7.341c0-1.192-.934-2.259-2.135-2.51l5.871-10.227c.868-1.57.268-3.514-1.4-4.393h-.001zm-12.01-3.826L33.12 23.538h-3.003L41.393 4.024l2.27 1.13zm-7.606-2.51c.334-.565 1.134-.816 1.735-.502l1.667.878-11.743 20.518h-3.67l12.01-20.893zM11.569 21.468c0-.188.267-.502.6-.502h10.876l-1.468 2.51h-9.408c-.2 0-.4 0-.6.062v-2.07zm39.566 27.985a.55.55 0 01-.178.402.593.593 0 01-.422.162H12.169a.613.613 0 01-.423-.162.57.57 0 01-.177-.402V26.11c0-.314.267-.565.6-.565h38.3c.332 0 .6.251.6.565v7.341h-4.07c-1.802 0-3.203 1.38-3.203 3.012v3.452c0 1.693 1.467 3.011 3.202 3.011h4.137v6.526zm2.203-13.993v5.46h-6.34c-.6 0-1.067-.44-1.067-1.005v-3.451c0-.565.467-1.004 1.067-1.004h6.339zm1.8-23.09l-6.405 11.168h-13.21L45.53 6.158l9.073 4.643c.668.25.868 1.004.534 1.568z" fill="#C4072B"/></svg>