<svg width="193" height="128" viewBox="0 0 193 128" fill="none" xmlns="http://www.w3.org/2000/svg">
<path d="M35.672 127H1V102.534M35.672 127C35.4692 122.718 37.8618 114.033 49.0541 113.544C52.6352 113.387 55.1702 112.558 56.9618 111.39M35.672 127L150.637 54.2136V51.1553M1 75.6214L117.79 1H179.777C186.528 1 192 6.47246 192 13.2231V13.2231C192 17.4176 189.849 21.3191 186.303 23.5585L176.185 29.9467M1 75.6214V102.534M1 75.6214H63.0446C73.9936 75.6214 79.4682 91.0122 68.5191 97.9253C57.5701 104.838 61.2197 102.534 61.2197 102.534M61.2197 102.534H1M61.2197 102.534C61.2197 104.891 60.7697 108.907 56.9618 111.39M61.2197 102.534L176.185 29.9467M56.9618 111.39L172.535 37.0874C174.36 36.2007 177.645 33.5313 176.185 29.9467" stroke="black" stroke-width="1.2186"/>
</svg>
