<svg width="198" height="131" viewBox="0 0 198 131" fill="none" xmlns="http://www.w3.org/2000/svg">
<path d="M79.1558 101.265H74.271M79.1558 101.265L197 27.9005M79.1558 101.265V130M1 74.9763V101.265H33.972M1 74.9763L117.012 1H167.692M1 74.9763H50.4579M167.692 1L50.4579 74.9763M167.692 1V4.66825M50.4579 74.9763V78.6445M50.4579 78.6445C57.1745 78.6445 71.3402 83.1687 74.271 101.265M50.4579 78.6445L167.692 4.66825M74.271 101.265H33.972M74.271 101.265L190.894 27.9005M33.972 101.265V130H79.1558M79.1558 130L197 54.8009V27.9005M197 27.9005H190.894M190.894 27.9005C190.894 20.3602 185.277 4.66825 167.692 4.66825" stroke="black" stroke-width="1.2186"/>
</svg>
