<svg width="199" height="127" viewBox="0 0 199 127" fill="none" xmlns="http://www.w3.org/2000/svg">
<path d="M189.666 1H117.243L1 72.9512M189.666 1L72.8149 71.7317M189.666 1C195.881 9.23563 198.044 17.9607 197.999 26M1 72.9512V99.1707H38.7332M1 72.9512L72.8149 71.7317M38.7332 99.1707V126H72.2063M38.7332 99.1707H80.679M72.2063 126L189.666 52.8293C193.365 47.5688 197.935 37.484 197.999 26M72.2063 126C75.7774 120.691 80.199 110.676 80.679 99.1707M72.8149 71.7317C79.127 80.7963 81.0444 90.415 80.679 99.1707M80.679 99.1707L197.999 26" stroke="black" stroke-width="1.2186"/>
</svg>
