<svg width="140" height="49" viewBox="0 0 140 49" fill="none" xmlns="http://www.w3.org/2000/svg">
<g clip-path="url(#clip0_6277_58485)">
<path d="M135.426 7.3721L130.306 11.9036L130.402 12.1599L136.286 9.69345L135.426 7.3721ZM83.6779 2.53598C81.845 2.99406 79.9846 3.3349 78.1086 3.55639C76.1426 3.8224 74.9447 6.38555 74.6452 8.47473C73.7804 6.12923 72.1092 4.80414 68.8775 5.57308C67.1386 5.9938 64.5302 7.23186 62.5401 7.43497C61.6562 7.52687 60.7674 7.39629 59.8157 7.40113L59.6855 7.52203C60.5356 8.00564 61.8495 9.02122 63.3228 9.10828C66.2208 9.27755 68.4525 7.39628 70.7229 7.43013C72.172 7.43013 73.8915 7.46884 74.5098 10.2448L74.7271 10.1432C75.1137 6.61284 77.5193 5.95996 78.5432 5.752C80.1615 5.42315 82.8133 5.38447 84.5378 4.62518C86.6824 3.68213 86.7452 1.67032 87.0255 0.54834H86.8901C86.2961 1.47688 85.1463 2.12975 83.6779 2.56984V2.53598ZM15.0864 44.3489H14.2653L12.8162 46.2835V44.3489H12.0819V46.2835L10.6087 44.3489H9.80199L11.3236 46.2835L9.73438 48.3873H10.5555L12.0819 46.3223V48.4164H12.7872V46.3223L14.3184 48.4164H15.1444L13.5552 46.3078L15.0864 44.3489ZM17.0621 47.2169V44.3829H16.352V48.4164H16.98L19.1101 45.5773V48.4404H19.8105V44.3829H19.1826L17.0621 47.2169ZM22.0132 45.1905C21.8345 47.6087 21.4239 47.7537 21.1099 47.7151V48.4164C21.9118 48.5324 22.4383 48.1502 22.6798 45.8047L22.7571 45.0455H23.9406V48.4309H24.641V44.3829H22.0809L22.0132 45.1905ZM28.1478 44.3199C27.8701 44.3087 27.5933 44.3544 27.334 44.4545C27.0748 44.5544 26.8388 44.7065 26.6405 44.9016C26.4423 45.0964 26.286 45.3298 26.1814 45.5875C26.0767 45.8452 26.0259 46.1215 26.0321 46.3995C26.0223 46.6785 26.0707 46.9568 26.174 47.2159C26.2774 47.4752 26.4336 47.7102 26.6326 47.9058C26.8316 48.1015 27.0691 48.2533 27.3299 48.3521C27.5909 48.4508 27.8693 48.494 28.1478 48.479C28.4251 48.4897 28.7019 48.4434 28.9607 48.3433C29.2198 48.2429 29.4554 48.0908 29.6536 47.896C29.8518 47.7015 30.0079 47.4681 30.1127 47.2109C30.2178 46.9535 30.2689 46.6774 30.2634 46.3995C30.2732 46.1207 30.2249 45.8424 30.1215 45.5831C30.0183 45.324 29.8621 45.089 29.6631 44.8934C29.4641 44.6978 29.2266 44.5457 28.9656 44.4472C28.7049 44.3484 28.4262 44.3052 28.1478 44.3199ZM28.1478 47.8167C27.9649 47.8161 27.7836 47.7786 27.6154 47.7064C27.4473 47.6344 27.2952 47.5291 27.1685 47.3967C27.0418 47.2646 26.943 47.1081 26.8781 46.9368C26.8131 46.7653 26.7833 46.5828 26.7905 46.3995C26.8009 46.1322 26.8897 45.8736 27.0458 45.6564C27.2019 45.4392 27.4183 45.2728 27.6684 45.1776C27.9182 45.0827 28.1903 45.0636 28.4513 45.1224C28.712 45.1812 28.9498 45.3158 29.1346 45.5089C29.3197 45.7021 29.4439 45.9453 29.4917 46.2088C29.5397 46.472 29.5092 46.7436 29.4038 46.9896C29.2987 47.2356 29.1234 47.4451 28.9001 47.5923C28.6768 47.7392 28.415 47.8172 28.1478 47.8167ZM33.4612 44.2283C34.0989 44.2283 34.5723 43.8994 34.5916 43.4012H33.9346C33.9346 43.6527 33.7317 43.735 33.4516 43.735C33.1713 43.735 33.0023 43.6286 32.9685 43.4012H32.3116C32.3695 43.8945 32.7754 44.2283 33.471 44.2283H33.4612ZM32.3695 47.2509V44.3829H31.6644V48.4164H32.2923L34.4224 45.5773V48.4404H35.1324V44.3829H34.5095L32.3695 47.2509ZM41.813 44.3829H40.9629L39.364 46.3174V44.3829H38.6491V48.4164H39.364V46.3368L41.0208 48.4164H41.9241L40.1513 46.2594L41.813 44.3829ZM45.0446 46.2884C45.2221 46.211 45.3722 46.0821 45.4754 45.9182C45.5789 45.7544 45.6307 45.5631 45.6242 45.3694C45.6242 44.8132 45.257 44.3733 44.2909 44.3733C43.8803 44.3733 43.3248 44.3733 43.1171 44.4023V48.421C43.354 48.421 43.8757 48.45 44.2475 48.45C45.1074 48.45 45.7547 48.0681 45.7547 47.241C45.7705 47.0246 45.7088 46.8099 45.5802 46.635C45.4519 46.4605 45.2652 46.3374 45.0542 46.2884H45.0446ZM43.8418 45.0455C43.9674 45.0455 44.1219 45.0455 44.2863 45.0455C44.6676 45.0455 44.9237 45.2195 44.9237 45.5292C44.9245 45.6055 44.9087 45.681 44.8775 45.7508C44.8464 45.8206 44.8008 45.8829 44.7435 45.9336C44.6862 45.9839 44.6188 46.0214 44.5456 46.0435C44.4724 46.0654 44.3955 46.0714 44.3198 46.0611H43.8369L43.8418 45.0455ZM44.3247 47.7778C44.1634 47.777 44.0021 47.7674 43.8418 47.7488V46.6802H44.3247C44.7741 46.6802 45.0348 46.8542 45.0348 47.1926C45.0348 47.5313 44.7932 47.7778 44.3103 47.7778H44.3247ZM48.4933 44.3927L46.7642 48.4164H47.4838L47.9042 47.386H49.6382L50.0632 48.4164H50.8216L49.107 44.3733L48.4933 44.3927ZM48.1938 46.7428L48.7881 45.292L49.3821 46.7428H48.1938ZM53.1788 44.3927H52.0244V48.4259H52.7393V46.9751C52.9132 46.9751 53.145 46.9751 53.2659 46.9751C53.451 46.9959 53.6383 46.9781 53.816 46.9223C53.9937 46.8665 54.1578 46.7743 54.2978 46.6512C54.4379 46.5283 54.5509 46.3776 54.6292 46.2085C54.7076 46.0394 54.7502 45.8559 54.7537 45.6693C54.739 45.0069 54.3622 44.3733 53.1644 44.3733L53.1788 44.3927ZM53.2465 46.327C53.0852 46.3259 52.9239 46.3163 52.7634 46.298V45.0455H53.2755C53.7587 45.0455 54.0243 45.2485 54.0243 45.6693C54.0243 46.09 53.6522 46.3125 53.2321 46.3125L53.2465 46.327ZM55.5555 45.0455H56.8694V48.4309H57.5843V45.0455H58.9028V44.3829H55.5555V45.0455ZM60.9366 44.3733L59.2217 48.4164H59.9413L60.3617 47.386H62.0957L62.5208 48.4164H63.284L61.5694 44.3733H60.9366ZM60.6371 46.7237L61.2312 45.2728L61.8252 46.7237H60.6371ZM64.9217 45.1905C64.7429 47.6087 64.3323 47.7537 64.0184 47.7151V48.4164C64.8201 48.5324 65.3467 48.1502 65.5834 45.8047L65.6653 45.0455H66.849V48.4309H67.559V44.3829H64.9989L64.9217 45.1905ZM73.6163 46.032H71.7614V44.3829H71.0464V48.4164H71.7614V46.6947H73.6163V48.4164H74.3264V44.3829H73.6163V46.032ZM77.2247 44.3733L75.5049 48.4164H76.2247L76.6498 47.386H78.3838L78.8089 48.4164H79.5672L77.8526 44.3733H77.2247ZM76.9203 46.7237L77.5193 45.2728L78.1133 46.7237H76.9203ZM84.6729 46.269L83.2867 44.3829H82.5671V48.4164H83.2771V45.5147L84.5716 47.2894H84.6778L85.9579 45.4953V48.3969H86.6679V44.3829H85.9868L84.6729 46.269ZM90.1796 44.3344C89.9025 44.324 89.626 44.3703 89.3675 44.4704C89.1087 44.5708 88.8734 44.7229 88.6755 44.9177C88.4778 45.1125 88.3219 45.3459 88.2177 45.6031C88.1134 45.8605 88.0626 46.1366 88.0689 46.414C88.059 46.6928 88.1074 46.9702 88.2103 47.2293C88.3135 47.4883 88.4691 47.7228 88.6675 47.9184C88.866 48.114 89.103 48.2662 89.3634 48.3652C89.6235 48.4642 89.9015 48.508 90.1796 48.4935C90.4575 48.505 90.7346 48.459 90.9942 48.3592C91.2535 48.2593 91.49 48.1072 91.6887 47.9124C91.8872 47.7176 92.0439 47.4842 92.1492 47.2265C92.2543 46.9688 92.3056 46.6925 92.3002 46.414C92.3114 46.1335 92.2639 45.8539 92.161 45.5929C92.0578 45.3319 91.9016 45.0953 91.7021 44.898C91.5025 44.701 91.2639 44.5478 91.0019 44.4483C90.7395 44.3487 90.4597 44.3049 90.1796 44.3199V44.3344ZM90.1796 47.8312C89.9967 47.8298 89.816 47.792 89.6481 47.7195C89.4802 47.6473 89.3284 47.542 89.2018 47.4098C89.0754 47.2777 88.9766 47.1215 88.9113 46.9505C88.8461 46.7795 88.8158 46.597 88.8223 46.414C88.8327 46.1467 88.9214 45.8881 89.0776 45.6709C89.2337 45.4537 89.4502 45.2873 89.7002 45.1921C89.95 45.0972 90.2222 45.0781 90.4832 45.1369C90.7439 45.1957 90.9817 45.3303 91.1665 45.5235C91.3516 45.7166 91.4758 45.9598 91.5235 46.2233C91.5716 46.4865 91.541 46.7581 91.4356 47.0041C91.3305 47.2501 91.1553 47.4596 90.932 47.6068C90.7087 47.7537 90.4469 47.8317 90.1796 47.8312ZM95.5558 47.8312C95.3686 47.8394 95.1813 47.8084 95.0066 47.74C94.8319 47.6716 94.6735 47.5671 94.5414 47.4336C94.4096 47.3001 94.3069 47.1406 94.2403 46.965C94.1737 46.7893 94.1448 46.6017 94.1551 46.414C94.1388 46.2318 94.1609 46.0479 94.2204 45.8747C94.2799 45.7016 94.3752 45.5429 94.5002 45.4091C94.6252 45.2753 94.7767 45.1694 94.9454 45.0986C95.1141 45.0274 95.2957 44.993 95.4786 44.9971C95.8043 44.9861 96.1245 45.0813 96.3915 45.2679L96.7103 44.7407C96.3625 44.4606 95.9246 44.3164 95.4786 44.3344C95.2059 44.3344 94.9356 44.3883 94.6836 44.4929C94.4317 44.5974 94.2026 44.7506 94.0099 44.9437C93.8169 45.1369 93.664 45.3659 93.5598 45.6184C93.4552 45.8706 93.4014 46.1409 93.4014 46.414C93.4014 46.6873 93.4552 46.9576 93.5598 47.2098C93.664 47.4621 93.8169 47.6913 94.0099 47.8845C94.2026 48.0777 94.4317 48.2309 94.6836 48.3354C94.9356 48.4399 95.2059 48.4935 95.4786 48.4935C95.9536 48.5116 96.4177 48.3493 96.778 48.0391L96.5075 47.507C96.2315 47.7091 95.8979 47.8177 95.5558 47.8167V47.8312ZM101.256 44.3974H100.396L98.7924 46.3319V44.3974H98.063V48.4309H98.773V46.3513L100.435 48.4309H101.338L99.5652 46.2739L101.256 44.3974ZM104.483 46.3029C104.66 46.2255 104.81 46.0966 104.913 45.9327C105.017 45.7689 105.069 45.5776 105.062 45.3839C105.062 44.8277 104.7 44.3878 103.729 44.3878C103.323 44.3878 102.763 44.3878 102.56 44.4168V48.4355C102.797 48.4355 103.318 48.4645 103.69 48.4645C104.55 48.4645 105.197 48.0826 105.197 47.2555C105.216 47.0347 105.154 46.8148 105.023 46.6367C104.891 46.4586 104.699 46.3346 104.483 46.2884V46.3029ZM103.27 45.06C103.4 45.06 103.555 45.06 103.719 45.06C104.101 45.06 104.357 45.234 104.357 45.5437C104.356 45.6187 104.338 45.6928 104.306 45.7609C104.274 45.8288 104.228 45.8892 104.171 45.9382C104.114 45.9872 104.047 46.0233 103.975 46.0446C103.903 46.0657 103.827 46.0714 103.753 46.0611H103.27V45.06ZM103.753 47.7923C103.592 47.7912 103.43 47.7816 103.27 47.7633V46.6802H103.777C104.222 46.6802 104.483 46.8542 104.483 47.1926C104.483 47.5313 104.222 47.7778 103.743 47.7778L103.753 47.7923ZM107.439 46.7237H108.888V46.0611H107.439V45.0455H109.076V44.3829H106.729V48.4164H109.144V47.7537H107.448L107.439 46.7237ZM110.438 46.7237H111.887V46.0611H110.438V46.7237ZM114.559 44.4072H113.404V48.4404H114.114V46.9896C114.288 46.9896 114.52 46.9896 114.646 46.9896C114.83 47.0098 115.017 46.9912 115.194 46.9352C115.371 46.8791 115.535 46.7866 115.675 46.6638C115.814 46.5409 115.926 46.3904 116.005 46.2216C116.083 46.0528 116.125 45.8698 116.128 45.6838C116.119 45.0069 115.742 44.3733 114.549 44.3733L114.559 44.4072ZM114.621 46.3415C114.46 46.3407 114.299 46.3308 114.138 46.3125V45.0455H114.651C115.133 45.0455 115.399 45.2485 115.399 45.6693C115.399 46.09 115.032 46.3125 114.612 46.3125L114.621 46.3415ZM118.244 46.7382H119.693V46.0611H118.244V45.0455H119.882V44.3829H117.529V48.4164H119.945V47.7537H118.249L118.244 46.7382ZM124.63 44.3829H123.77L122.171 46.3174V44.3829H121.456V48.4164H122.171V46.3368L123.828 48.4164H124.731L122.959 46.2594L124.63 44.3829ZM126.649 46.7092H128.098V46.0611H126.649V45.0455H128.282V44.3829H125.934V48.4164H128.349V47.7537H126.659L126.649 46.7092Z" fill="white"/>
<path d="M8.12287 23.5338H5.13769V15.4333H10.5525L11.9389 20.3807V20.429H12.3495V14.9497H0.0078125V15.3995L2.51961 15.4333V34.7003L0.0078125 34.7682V35.1791H6.94424C11.1129 35.1791 13.5957 33.0175 13.5957 29.3758C13.5957 25.6134 11.6539 23.5338 8.12287 23.5338ZM5.13769 24.0174L7.29203 24.0464C9.60096 24.0803 10.9776 26.1308 10.9776 29.5306C10.9776 33.9606 8.77015 34.6183 6.85246 34.7003H5.13769V24.0174Z" fill="white"/>
<path d="M37.2919 14.9497H29.4766V15.2882L31.9545 15.4623V34.6667L29.5394 34.8358H29.4766V35.1745H37.3596V34.8358L34.5629 34.6957V26.5322H36.1184C40.2386 26.5322 42.7986 24.3801 42.7986 20.9127C42.7986 17.0147 40.8954 14.9497 37.2919 14.9497ZM40.1515 21.0529C40.1515 24.3656 38.7603 26.0486 36.0217 26.0486H34.5724V15.4333H36.4757C38.8425 15.4333 40.1515 17.4258 40.1515 21.0529Z" fill="white"/>
<path d="M58.2109 15.3995L60.8483 15.4333V34.7003L58.2109 34.7682V35.1791H66.1085V34.7343L63.4665 34.7003V15.4333H68.4657L69.9489 20.7579L69.9633 20.8111H70.369V14.9497H58.2109V15.3995Z" fill="white"/>
<path d="M79.861 14.6265C74.8372 14.6265 71.4609 18.9209 71.4609 25.3143C71.4609 31.2772 74.736 35.4411 79.4166 35.4411C84.8313 35.4411 87.7539 29.5314 87.7539 23.9698C87.7539 18.3116 84.6574 14.6265 79.861 14.6265ZM84.8507 24.6275C84.8507 27.7323 84.329 34.9624 79.5133 34.9624C77.0111 34.9624 74.3349 32.2347 74.3349 24.5937C74.3349 18.3067 76.132 15.1101 79.6727 15.1101C83.9523 15.1101 84.8507 20.2992 84.8507 24.6421V24.6275Z" fill="white"/>
<path d="M97.3758 24.299C98.9119 23.8154 101.289 22.442 101.289 19.8014C101.289 16.6241 99.2163 14.9653 95.3035 14.9653H88.3672V15.3087L90.9756 15.478V34.6678L88.3672 34.8418V35.1802H96.004C100.028 35.1802 102.433 33.0186 102.433 29.3769C102.433 25.7354 99.3465 24.4925 97.3758 24.299ZM93.5889 24.4876V15.4344H94.7286C97.144 15.4344 98.5109 17.1561 98.5109 20.1545C98.5109 23.0562 97.337 24.507 95.0185 24.507L93.5889 24.4876ZM99.7186 29.4833C99.7186 32.6944 98.1391 34.6919 95.5885 34.6919H93.5889V24.9809H94.7286C98.2259 24.9809 99.7186 26.3302 99.7186 29.4929V29.4833Z" fill="white"/>
<path d="M112.83 14.6265C107.806 14.6265 104.43 18.9209 104.43 25.3143C104.43 31.2772 107.7 35.4411 112.385 35.4411C117.8 35.4411 120.723 29.5314 120.723 23.9698C120.723 18.3116 117.626 14.6265 112.83 14.6265ZM117.819 24.6421C117.819 27.7468 117.298 34.9769 112.482 34.9769C109.98 34.9769 107.304 32.2492 107.304 24.6082C107.304 18.3212 109.101 15.1246 112.641 15.1246C116.902 15.1101 117.819 20.2992 117.819 24.6421Z" fill="white"/>
<path d="M139.504 15.3608V14.9497H131.572V15.3995L134.214 15.4333V18.4462L126.37 30.7736V15.4333L129.007 15.3608V14.9497H121.109V15.3995L123.752 15.4333V34.7003L121.109 34.7682V35.1791H129.007V34.7343L126.37 34.7003V31.5812L134.214 19.2538V34.7003L131.572 34.7682V35.1791H139.504V34.7343L136.861 34.7003V15.4333L139.504 15.3608Z" fill="white"/>
<path d="M25.6887 34.7003H20.0468V24.4624L22.7856 24.5494L23.457 28.5586L23.4667 28.6117H23.9256V19.6214H23.602L22.7518 23.8675L20.0468 23.9787V15.4333H25.4955L26.8963 19.6359H27.331V14.9497H14.8203V15.2931L17.4287 15.4623V34.6667L14.8203 34.8407V35.1791H27.3889L27.8382 30.4302L27.8431 30.3769L27.5098 30.2704L25.6887 34.7003Z" fill="white"/>
<path d="M54.4231 34.7003H48.781V24.4624L51.5199 24.5494L52.1915 28.5586L52.201 28.6117H52.6599V19.6214H52.3364L51.4814 23.8675L48.781 23.9787V15.4333H54.2299L55.6259 19.6359H56.0605V14.9497H43.5547V15.2931L46.1631 15.4623V34.6667L43.5547 34.8407V35.1791H56.1184L56.5727 30.4302L56.5773 30.3769L56.2393 30.2704L54.4231 34.7003Z" fill="white"/>
<path d="M135.426 7.3721L130.306 11.9036L130.402 12.1599L136.286 9.69345L135.426 7.3721ZM83.6779 2.53598C81.845 2.99406 79.9846 3.3349 78.1086 3.55639C76.1426 3.8224 74.9447 6.38555 74.6452 8.47473C73.7804 6.12923 72.1092 4.80414 68.8775 5.57308C67.1386 5.9938 64.5302 7.23186 62.5401 7.43497C61.6562 7.52687 60.7674 7.39629 59.8157 7.40113L59.6855 7.52203C60.5356 8.00564 61.8495 9.02122 63.3228 9.10828C66.2208 9.27755 68.4525 7.39628 70.7229 7.43013C72.172 7.43013 73.8915 7.46884 74.5098 10.2448L74.7271 10.1432C75.1137 6.61284 77.5193 5.95996 78.5432 5.752C80.1615 5.42315 82.8133 5.38447 84.5378 4.62518C86.6824 3.68213 86.7452 1.67032 87.0255 0.54834H86.8901C86.2961 1.47688 85.1463 2.12975 83.6779 2.56984V2.53598ZM15.0864 44.3489H14.2653L12.8162 46.2835V44.3489H12.0819V46.2835L10.6087 44.3489H9.80199L11.3236 46.2835L9.73438 48.3873H10.5555L12.0819 46.3223V48.4164H12.7872V46.3223L14.3184 48.4164H15.1444L13.5552 46.3078L15.0864 44.3489ZM17.0621 47.2169V44.3829H16.352V48.4164H16.98L19.1101 45.5773V48.4404H19.8105V44.3829H19.1826L17.0621 47.2169ZM22.0132 45.1905C21.8345 47.6087 21.4239 47.7537 21.1099 47.7151V48.4164C21.9118 48.5324 22.4383 48.1502 22.6798 45.8047L22.7571 45.0455H23.9406V48.4309H24.641V44.3829H22.0809L22.0132 45.1905ZM28.1478 44.3199C27.8701 44.3087 27.5933 44.3544 27.334 44.4545C27.0748 44.5544 26.8388 44.7065 26.6405 44.9016C26.4423 45.0964 26.286 45.3298 26.1814 45.5875C26.0767 45.8452 26.0259 46.1215 26.0321 46.3995C26.0223 46.6785 26.0707 46.9568 26.174 47.2159C26.2774 47.4752 26.4336 47.7102 26.6326 47.9058C26.8316 48.1015 27.0691 48.2533 27.3299 48.3521C27.5909 48.4508 27.8693 48.494 28.1478 48.479C28.4251 48.4897 28.7019 48.4434 28.9607 48.3433C29.2198 48.2429 29.4554 48.0908 29.6536 47.896C29.8518 47.7015 30.0079 47.4681 30.1127 47.2109C30.2178 46.9535 30.2689 46.6774 30.2634 46.3995C30.2732 46.1207 30.2249 45.8424 30.1215 45.5831C30.0183 45.324 29.8621 45.089 29.6631 44.8934C29.4641 44.6978 29.2266 44.5457 28.9656 44.4472C28.7049 44.3484 28.4262 44.3052 28.1478 44.3199ZM28.1478 47.8167C27.9649 47.8161 27.7836 47.7786 27.6154 47.7064C27.4473 47.6344 27.2952 47.5291 27.1685 47.3967C27.0418 47.2646 26.943 47.1081 26.8781 46.9368C26.8131 46.7653 26.7833 46.5828 26.7905 46.3995C26.8009 46.1322 26.8897 45.8736 27.0458 45.6564C27.2019 45.4392 27.4183 45.2728 27.6684 45.1776C27.9182 45.0827 28.1903 45.0636 28.4513 45.1224C28.712 45.1812 28.9498 45.3158 29.1346 45.5089C29.3197 45.7021 29.4439 45.9453 29.4917 46.2088C29.5397 46.472 29.5092 46.7436 29.4038 46.9896C29.2987 47.2356 29.1234 47.4451 28.9001 47.5923C28.6768 47.7392 28.415 47.8172 28.1478 47.8167ZM33.4612 44.2283C34.0989 44.2283 34.5723 43.8994 34.5916 43.4012H33.9346C33.9346 43.6527 33.7317 43.735 33.4516 43.735C33.1713 43.735 33.0023 43.6286 32.9685 43.4012H32.3116C32.3695 43.8945 32.7754 44.2283 33.471 44.2283H33.4612ZM32.3695 47.2509V44.3829H31.6644V48.4164H32.2923L34.4224 45.5773V48.4404H35.1324V44.3829H34.5095L32.3695 47.2509ZM41.813 44.3829H40.9629L39.364 46.3174V44.3829H38.6491V48.4164H39.364V46.3368L41.0208 48.4164H41.9241L40.1513 46.2594L41.813 44.3829ZM45.0446 46.2884C45.2221 46.211 45.3722 46.0821 45.4754 45.9182C45.5789 45.7544 45.6307 45.5631 45.6242 45.3694C45.6242 44.8132 45.257 44.3733 44.2909 44.3733C43.8803 44.3733 43.3248 44.3733 43.1171 44.4023V48.421C43.354 48.421 43.8757 48.45 44.2475 48.45C45.1074 48.45 45.7547 48.0681 45.7547 47.241C45.7705 47.0246 45.7088 46.8099 45.5802 46.635C45.4519 46.4605 45.2652 46.3374 45.0542 46.2884H45.0446ZM43.8418 45.0455C43.9674 45.0455 44.1219 45.0455 44.2863 45.0455C44.6676 45.0455 44.9237 45.2195 44.9237 45.5292C44.9245 45.6055 44.9087 45.681 44.8775 45.7508C44.8464 45.8206 44.8008 45.8829 44.7435 45.9336C44.6862 45.9839 44.6188 46.0214 44.5456 46.0435C44.4724 46.0654 44.3955 46.0714 44.3198 46.0611H43.8369L43.8418 45.0455ZM44.3247 47.7778C44.1634 47.777 44.0021 47.7674 43.8418 47.7488V46.6802H44.3247C44.7741 46.6802 45.0348 46.8542 45.0348 47.1926C45.0348 47.5313 44.7932 47.7778 44.3103 47.7778H44.3247ZM48.4933 44.3927L46.7642 48.4164H47.4838L47.9042 47.386H49.6382L50.0632 48.4164H50.8216L49.107 44.3733L48.4933 44.3927ZM48.1938 46.7428L48.7881 45.292L49.3821 46.7428H48.1938ZM53.1788 44.3927H52.0244V48.4259H52.7393V46.9751C52.9132 46.9751 53.145 46.9751 53.2659 46.9751C53.451 46.9959 53.6383 46.9781 53.816 46.9223C53.9937 46.8665 54.1578 46.7743 54.2978 46.6512C54.4379 46.5283 54.5509 46.3776 54.6292 46.2085C54.7076 46.0394 54.7502 45.8559 54.7537 45.6693C54.739 45.0069 54.3622 44.3733 53.1644 44.3733L53.1788 44.3927ZM53.2465 46.327C53.0852 46.3259 52.9239 46.3163 52.7634 46.298V45.0455H53.2755C53.7587 45.0455 54.0243 45.2485 54.0243 45.6693C54.0243 46.09 53.6522 46.3125 53.2321 46.3125L53.2465 46.327ZM55.5555 45.0455H56.8694V48.4309H57.5843V45.0455H58.9028V44.3829H55.5555V45.0455ZM60.9366 44.3733L59.2217 48.4164H59.9413L60.3617 47.386H62.0957L62.5208 48.4164H63.284L61.5694 44.3733H60.9366ZM60.6371 46.7237L61.2312 45.2728L61.8252 46.7237H60.6371ZM64.9217 45.1905C64.7429 47.6087 64.3323 47.7537 64.0184 47.7151V48.4164C64.8201 48.5324 65.3467 48.1502 65.5834 45.8047L65.6653 45.0455H66.849V48.4309H67.559V44.3829H64.9989L64.9217 45.1905ZM73.6163 46.032H71.7614V44.3829H71.0464V48.4164H71.7614V46.6947H73.6163V48.4164H74.3264V44.3829H73.6163V46.032ZM77.2247 44.3733L75.5049 48.4164H76.2247L76.6498 47.386H78.3838L78.8089 48.4164H79.5672L77.8526 44.3733H77.2247ZM76.9203 46.7237L77.5193 45.2728L78.1133 46.7237H76.9203ZM84.6729 46.269L83.2867 44.3829H82.5671V48.4164H83.2771V45.5147L84.5716 47.2894H84.6778L85.9579 45.4953V48.3969H86.6679V44.3829H85.9868L84.6729 46.269ZM90.1796 44.3344C89.9025 44.324 89.626 44.3703 89.3675 44.4704C89.1087 44.5708 88.8734 44.7229 88.6755 44.9177C88.4778 45.1125 88.3219 45.3459 88.2177 45.6031C88.1134 45.8605 88.0626 46.1366 88.0689 46.414C88.059 46.6928 88.1074 46.9702 88.2103 47.2293C88.3135 47.4883 88.4691 47.7228 88.6675 47.9184C88.866 48.114 89.103 48.2662 89.3634 48.3652C89.6235 48.4642 89.9015 48.508 90.1796 48.4935C90.4575 48.505 90.7346 48.459 90.9942 48.3592C91.2535 48.2593 91.49 48.1072 91.6887 47.9124C91.8872 47.7176 92.0439 47.4842 92.1492 47.2265C92.2543 46.9688 92.3056 46.6925 92.3002 46.414C92.3114 46.1335 92.2639 45.8539 92.161 45.5929C92.0578 45.3319 91.9016 45.0953 91.7021 44.898C91.5025 44.701 91.2639 44.5478 91.0019 44.4483C90.7395 44.3487 90.4597 44.3049 90.1796 44.3199V44.3344ZM90.1796 47.8312C89.9967 47.8298 89.816 47.792 89.6481 47.7195C89.4802 47.6473 89.3284 47.542 89.2018 47.4098C89.0754 47.2777 88.9766 47.1215 88.9113 46.9505C88.8461 46.7795 88.8158 46.597 88.8223 46.414C88.8327 46.1467 88.9214 45.8881 89.0776 45.6709C89.2337 45.4537 89.4502 45.2873 89.7002 45.1921C89.95 45.0972 90.2222 45.0781 90.4832 45.1369C90.7439 45.1957 90.9817 45.3303 91.1665 45.5235C91.3516 45.7166 91.4758 45.9598 91.5235 46.2233C91.5716 46.4865 91.541 46.7581 91.4356 47.0041C91.3305 47.2501 91.1553 47.4596 90.932 47.6068C90.7087 47.7537 90.4469 47.8317 90.1796 47.8312ZM95.5558 47.8312C95.3686 47.8394 95.1813 47.8084 95.0066 47.74C94.8319 47.6716 94.6735 47.5671 94.5414 47.4336C94.4096 47.3001 94.3069 47.1406 94.2403 46.965C94.1737 46.7893 94.1448 46.6017 94.1551 46.414C94.1388 46.2318 94.1609 46.0479 94.2204 45.8747C94.2799 45.7016 94.3752 45.5429 94.5002 45.4091C94.6252 45.2753 94.7767 45.1694 94.9454 45.0986C95.1141 45.0274 95.2957 44.993 95.4786 44.9971C95.8043 44.9861 96.1245 45.0813 96.3915 45.2679L96.7103 44.7407C96.3625 44.4606 95.9246 44.3164 95.4786 44.3344C95.2059 44.3344 94.9356 44.3883 94.6836 44.4929C94.4317 44.5974 94.2026 44.7506 94.0099 44.9437C93.8169 45.1369 93.664 45.3659 93.5598 45.6184C93.4552 45.8706 93.4014 46.1409 93.4014 46.414C93.4014 46.6873 93.4552 46.9576 93.5598 47.2098C93.664 47.4621 93.8169 47.6913 94.0099 47.8845C94.2026 48.0777 94.4317 48.2309 94.6836 48.3354C94.9356 48.4399 95.2059 48.4935 95.4786 48.4935C95.9536 48.5116 96.4177 48.3493 96.778 48.0391L96.5075 47.507C96.2315 47.7091 95.8979 47.8177 95.5558 47.8167V47.8312ZM101.256 44.3974H100.396L98.7924 46.3319V44.3974H98.063V48.4309H98.773V46.3513L100.435 48.4309H101.338L99.5652 46.2739L101.256 44.3974ZM104.483 46.3029C104.66 46.2255 104.81 46.0966 104.913 45.9327C105.017 45.7689 105.069 45.5776 105.062 45.3839C105.062 44.8277 104.7 44.3878 103.729 44.3878C103.323 44.3878 102.763 44.3878 102.56 44.4168V48.4355C102.797 48.4355 103.318 48.4645 103.69 48.4645C104.55 48.4645 105.197 48.0826 105.197 47.2555C105.216 47.0347 105.154 46.8148 105.023 46.6367C104.891 46.4586 104.699 46.3346 104.483 46.2884V46.3029ZM103.27 45.06C103.4 45.06 103.555 45.06 103.719 45.06C104.101 45.06 104.357 45.234 104.357 45.5437C104.356 45.6187 104.338 45.6928 104.306 45.7609C104.274 45.8288 104.228 45.8892 104.171 45.9382C104.114 45.9872 104.047 46.0233 103.975 46.0446C103.903 46.0657 103.827 46.0714 103.753 46.0611H103.27V45.06ZM103.753 47.7923C103.592 47.7912 103.43 47.7816 103.27 47.7633V46.6802H103.777C104.222 46.6802 104.483 46.8542 104.483 47.1926C104.483 47.5313 104.222 47.7778 103.743 47.7778L103.753 47.7923ZM107.439 46.7237H108.888V46.0611H107.439V45.0455H109.076V44.3829H106.729V48.4164H109.144V47.7537H107.448L107.439 46.7237ZM110.438 46.7237H111.887V46.0611H110.438V46.7237ZM114.559 44.4072H113.404V48.4404H114.114V46.9896C114.288 46.9896 114.52 46.9896 114.646 46.9896C114.83 47.0098 115.017 46.9912 115.194 46.9352C115.371 46.8791 115.535 46.7866 115.675 46.6638C115.814 46.5409 115.926 46.3904 116.005 46.2216C116.083 46.0528 116.125 45.8698 116.128 45.6838C116.119 45.0069 115.742 44.3733 114.549 44.3733L114.559 44.4072ZM114.621 46.3415C114.46 46.3407 114.299 46.3308 114.138 46.3125V45.0455H114.651C115.133 45.0455 115.399 45.2485 115.399 45.6693C115.399 46.09 115.032 46.3125 114.612 46.3125L114.621 46.3415ZM118.244 46.7382H119.693V46.0611H118.244V45.0455H119.882V44.3829H117.529V48.4164H119.945V47.7537H118.249L118.244 46.7382ZM124.63 44.3829H123.77L122.171 46.3174V44.3829H121.456V48.4164H122.171V46.3368L123.828 48.4164H124.731L122.959 46.2594L124.63 44.3829ZM126.649 46.7092H128.098V46.0611H126.649V45.0455H128.282V44.3829H125.934V48.4164H128.349V47.7537H126.659L126.649 46.7092Z" fill="#3B3B3B"/>
<path d="M8.12287 23.5338H5.13769V15.4333H10.5525L11.9389 20.3807V20.429H12.3495V14.9497H0.0078125V15.3995L2.51961 15.4333V34.7003L0.0078125 34.7682V35.1791H6.94424C11.1129 35.1791 13.5957 33.0175 13.5957 29.3758C13.5957 25.6134 11.6539 23.5338 8.12287 23.5338ZM5.13769 24.0174L7.29203 24.0464C9.60096 24.0803 10.9776 26.1308 10.9776 29.5306C10.9776 33.9606 8.77015 34.6183 6.85246 34.7003H5.13769V24.0174Z" fill="#3B3B3B"/>
<path d="M37.2919 14.9497H29.4766V15.2882L31.9545 15.4623V34.6667L29.5394 34.8358H29.4766V35.1745H37.3596V34.8358L34.5629 34.6957V26.5322H36.1184C40.2386 26.5322 42.7986 24.3801 42.7986 20.9127C42.7986 17.0147 40.8954 14.9497 37.2919 14.9497ZM40.1515 21.0529C40.1515 24.3656 38.7603 26.0486 36.0217 26.0486H34.5724V15.4333H36.4757C38.8425 15.4333 40.1515 17.4258 40.1515 21.0529Z" fill="#3B3B3B"/>
<path d="M58.2109 15.3995L60.8483 15.4333V34.7003L58.2109 34.7682V35.1791H66.1085V34.7343L63.4665 34.7003V15.4333H68.4657L69.9489 20.7579L69.9633 20.8111H70.369V14.9497H58.2109V15.3995Z" fill="#3B3B3B"/>
<path d="M79.861 14.6265C74.8372 14.6265 71.4609 18.9209 71.4609 25.3143C71.4609 31.2772 74.736 35.4411 79.4166 35.4411C84.8313 35.4411 87.7539 29.5314 87.7539 23.9698C87.7539 18.3116 84.6574 14.6265 79.861 14.6265ZM84.8507 24.6275C84.8507 27.7323 84.329 34.9624 79.5133 34.9624C77.0111 34.9624 74.3349 32.2347 74.3349 24.5937C74.3349 18.3067 76.132 15.1101 79.6727 15.1101C83.9523 15.1101 84.8507 20.2992 84.8507 24.6421V24.6275Z" fill="#3B3B3B"/>
<path d="M97.3758 24.299C98.9119 23.8154 101.289 22.442 101.289 19.8014C101.289 16.6241 99.2163 14.9653 95.3035 14.9653H88.3672V15.3087L90.9756 15.478V34.6678L88.3672 34.8418V35.1802H96.004C100.028 35.1802 102.433 33.0186 102.433 29.3769C102.433 25.7354 99.3465 24.4925 97.3758 24.299ZM93.5889 24.4876V15.4344H94.7286C97.144 15.4344 98.5109 17.1561 98.5109 20.1545C98.5109 23.0562 97.337 24.507 95.0185 24.507L93.5889 24.4876ZM99.7186 29.4833C99.7186 32.6944 98.1391 34.6919 95.5885 34.6919H93.5889V24.9809H94.7286C98.2259 24.9809 99.7186 26.3302 99.7186 29.4929V29.4833Z" fill="#3B3B3B"/>
<path d="M112.83 14.6265C107.806 14.6265 104.43 18.9209 104.43 25.3143C104.43 31.2772 107.7 35.4411 112.385 35.4411C117.8 35.4411 120.723 29.5314 120.723 23.9698C120.723 18.3116 117.626 14.6265 112.83 14.6265ZM117.819 24.6421C117.819 27.7468 117.298 34.9769 112.482 34.9769C109.98 34.9769 107.304 32.2492 107.304 24.6082C107.304 18.3212 109.101 15.1246 112.641 15.1246C116.902 15.1101 117.819 20.2992 117.819 24.6421Z" fill="#3B3B3B"/>
<path d="M139.504 15.3608V14.9497H131.572V15.3995L134.214 15.4333V18.4462L126.37 30.7736V15.4333L129.007 15.3608V14.9497H121.109V15.3995L123.752 15.4333V34.7003L121.109 34.7682V35.1791H129.007V34.7343L126.37 34.7003V31.5812L134.214 19.2538V34.7003L131.572 34.7682V35.1791H139.504V34.7343L136.861 34.7003V15.4333L139.504 15.3608Z" fill="#3B3B3B"/>
<path d="M25.6887 34.7003H20.0468V24.4624L22.7856 24.5494L23.457 28.5586L23.4667 28.6117H23.9256V19.6214H23.602L22.7518 23.8675L20.0468 23.9787V15.4333H25.4955L26.8963 19.6359H27.331V14.9497H14.8203V15.2931L17.4287 15.4623V34.6667L14.8203 34.8407V35.1791H27.3889L27.8382 30.4302L27.8431 30.3769L27.5098 30.2704L25.6887 34.7003Z" fill="#3B3B3B"/>
<path d="M54.4231 34.7003H48.781V24.4624L51.5199 24.5494L52.1915 28.5586L52.201 28.6117H52.6599V19.6214H52.3364L51.4814 23.8675L48.781 23.9787V15.4333H54.2299L55.6259 19.6359H56.0605V14.9497H43.5547V15.2931L46.1631 15.4623V34.6667L43.5547 34.8407V35.1791H56.1184L56.5727 30.4302L56.5773 30.3769L56.2393 30.2704L54.4231 34.7003Z" fill="#3B3B3B"/>
</g>
<defs>
<clipPath id="clip0_6277_58485">
<rect width="139.497" height="48.1512" fill="white" transform="translate(0.0078125 0.54834)"/>
</clipPath>
</defs>
</svg>
