<svg width="141" height="34" viewBox="0 0 141 34" fill="none" xmlns="http://www.w3.org/2000/svg">
<path d="M122.93 0.370605C123.227 0.673148 123.504 0.994972 123.758 1.33398C124.498 2.39724 124.846 3.6845 124.741 4.97556C124.741 6.0738 124.568 7.15273 124.433 8.23171C124.298 9.31068 124.125 10.6401 123.97 11.854C123.816 13.0679 123.662 14.0505 123.489 15.168L123.026 18.3086C123.026 18.5206 123.026 18.7325 122.911 18.983C122.828 18.8018 122.789 18.6039 122.795 18.4049C122.545 16.8443 122.313 15.2644 122.102 13.7037C121.89 12.1431 121.697 10.8521 121.504 9.42634C121.369 8.36663 121.234 7.28764 121.138 6.22793C121.1 5.63126 121.1 5.03269 121.138 4.43601C121.144 3.6758 121.308 2.92512 121.619 2.23179C121.931 1.53846 122.384 0.917702 122.949 0.409119L122.93 0.370605Z" fill="#676C6D"/>
<path d="M140.194 21.2188L139.655 21.6812C138.849 22.3361 137.841 22.6903 136.803 22.6831C136.101 22.67 135.4 22.6186 134.703 22.5289L132.16 22.2207L129.539 21.8546L126.668 21.4307L124.992 21.1802C125.157 21.111 125.334 21.0718 125.512 21.0646L129.482 20.4866L133.335 19.9471C134.459 19.7871 135.591 19.6842 136.726 19.6388C137.803 19.6301 138.849 20.0058 139.674 20.6985C139.847 20.8327 140.002 20.9881 140.136 21.161L140.194 21.2188Z" fill="#676C6D"/>
<path d="M0.695312 21.8924V8.07761H10.5795C10.8099 8.049 11.0428 8.049 11.2731 8.07761H1.11914C0.714524 8.07761 0.753171 8.07762 0.753171 8.4437V21.9309L0.695312 21.8924Z" fill="#676C6D"/>
<path d="M53.7964 17.5772L53.989 17.3075C55.9158 14.3275 57.8425 11.3282 59.7693 8.30959C59.8151 8.22426 59.8856 8.15471 59.9715 8.11003C60.0575 8.06534 60.1548 8.04759 60.251 8.05911H62.0236C62.2356 8.05911 62.2356 8.05914 62.2548 8.27108V21.5656C62.2548 21.8932 62.2549 21.8932 61.908 21.8932H60.4244C60.0391 21.8932 60.0969 21.8932 60.0969 21.5656V12.086C60.123 11.9784 60.123 11.8661 60.0969 11.7585L56.9756 16.6524L53.7964 21.5656L47.5538 11.7778C47.5276 11.8854 47.5276 11.9977 47.5538 12.1053V21.739C47.5538 21.9124 47.5537 21.9317 47.361 21.9317H45.6077C45.4536 21.9317 45.415 21.9317 45.4343 21.739V8.25179C45.4343 8.00132 45.4344 8.00131 45.6656 8.00131H47.4574C47.5429 7.99473 47.6283 8.01307 47.7036 8.05411C47.7788 8.09514 47.8405 8.15711 47.8813 8.23251C49.1144 10.1593 50.3476 12.086 51.5614 14.0127L53.6615 17.2882L53.7964 17.5772Z" fill="#676C6D"/>
<path d="M77.7687 17.5381L82.1232 21.8926H81.9113H79.4064C79.3275 21.8953 79.249 21.8812 79.1759 21.8513C79.1029 21.8214 79.037 21.7764 78.9826 21.7191L74.9557 17.673C74.8921 17.6052 74.814 17.5527 74.7273 17.5193C74.6405 17.486 74.5474 17.4726 74.4548 17.4803H71.3142C70.9481 17.4803 70.9866 17.4803 70.9866 17.7886V21.7384L70.8517 21.8926H69.0598C68.8671 21.8926 68.8672 21.8926 68.8672 21.6806V8.34758C68.8672 7.96223 68.8672 8.00072 69.1947 8.00072H78.6358C79.2135 7.98743 79.7903 8.05226 80.3506 8.19341C80.91 8.32825 81.4185 8.62181 81.815 9.03883C82.2115 9.45584 82.4791 9.97855 82.5856 10.544C82.6842 10.9282 82.736 11.3228 82.7398 11.7194C82.7976 12.5597 82.7976 13.4031 82.7398 14.2434C82.7094 14.6653 82.6186 15.0805 82.47 15.4765C82.2962 15.9334 82.0115 16.3399 81.6415 16.6594C81.2716 16.979 80.828 17.2015 80.3506 17.3069C79.8516 17.4227 79.3408 17.4809 78.8284 17.4803H77.7687M75.1098 10.1394H71.1022H70.9866V14.9563C70.9866 15.2839 70.9866 15.2646 71.2949 15.2646H79.0019C79.3955 15.2665 79.7757 15.1213 80.0679 14.8576C80.3602 14.5939 80.5434 14.2305 80.5818 13.8388C80.6589 13.0571 80.6589 12.2698 80.5818 11.4881C80.554 11.1567 80.4183 10.8435 80.1956 10.5965C79.973 10.3494 79.6755 10.1821 79.3487 10.1202C79.0926 10.0915 78.8341 10.0915 78.578 10.1202H75.1098" fill="#676C6D"/>
<path d="M85.0636 16.5551V12.1814C85.0535 11.6241 85.1118 11.0676 85.2371 10.5244C85.3626 9.94296 85.6589 9.41228 86.088 9.00035C86.5171 8.58842 87.0595 8.31405 87.6455 8.21232C88.1063 8.10353 88.5786 8.05173 89.052 8.05815H94.9478C95.4403 8.05212 95.9318 8.10389 96.4122 8.21232C97.0185 8.33305 97.5738 8.6355 98.004 9.0795C98.4342 9.52349 98.7191 10.0879 98.8206 10.6978C98.907 11.1939 98.9457 11.6972 98.9362 12.2007V21.8344C98.9362 21.9693 98.9363 22.0078 98.7629 22.0078H97.0288C96.8361 22.0078 96.8361 22.0078 96.8361 21.7959V19.1755L96.7205 19.0599H87.395C87.2409 19.0599 87.2024 19.0599 87.2024 19.2525C87.2024 20.0425 87.2024 20.8325 87.2024 21.6225V21.8344C87.2024 21.95 87.2024 22.0271 87.0289 22.0078H85.3141C85.0444 22.0078 85.0636 22.0078 85.0636 21.7381V16.5551ZM92 16.8827H96.7013L96.8168 16.7478V12.1814C96.8265 12.0403 96.8265 11.8987 96.8168 11.7575C96.8104 11.3816 96.6685 11.0206 96.4171 10.7409C96.1658 10.4613 95.8219 10.2817 95.4488 10.2354H94.7552H88.6859C88.341 10.2594 88.0138 10.3974 87.7557 10.6276C87.4976 10.8577 87.3233 11.1671 87.2601 11.507C87.2409 11.7379 87.2409 11.9699 87.2601 12.2007V16.7671L87.3565 16.9019H92.0577L92 16.8827Z" fill="#676C6D"/>
<path d="M15.9935 16.556V12.2786C15.9826 11.683 16.0408 11.0882 16.1669 10.5061C16.3071 9.88121 16.6419 9.31695 17.1231 8.89453C17.6044 8.47211 18.2073 8.21332 18.845 8.15542C19.2262 8.08462 19.6135 8.05231 20.0011 8.05905H25.897C26.55 8.03639 27.202 8.1277 27.8237 8.32882C28.3061 8.49924 28.7367 8.79074 29.074 9.17536C29.4114 9.55998 29.6444 10.0248 29.7505 10.5253C29.865 10.9592 29.9232 11.406 29.9238 11.8547V21.739C29.9238 21.9509 29.9238 21.9509 29.7119 21.9509H28.0164C27.8044 21.9509 27.7852 21.9509 27.7852 21.739V19.1186V19.003H18.4405C18.3056 19.003 18.2477 19.003 18.2477 19.1764C18.2477 19.3498 18.2477 19.8508 18.2477 20.1976V21.7197C18.2477 21.9509 18.2477 21.9509 17.9973 21.9509H16.3403C16.1091 21.9509 16.1091 21.9509 16.1091 21.7197L15.9935 16.556ZM22.9297 16.8836H27.4961C27.7466 16.8836 27.7466 16.8836 27.7466 16.6331V12.0667C27.7655 11.8809 27.7655 11.6937 27.7466 11.5079C27.6998 11.2102 27.5645 10.9333 27.3584 10.7134C27.1522 10.4935 26.8847 10.3408 26.5906 10.2749C26.3093 10.2368 26.0241 10.2368 25.7428 10.2749C23.906 10.2749 22.0756 10.2749 20.2516 10.2749H19.6543C19.3208 10.2997 19.0039 10.4311 18.7507 10.6496C18.4975 10.8682 18.3211 11.1623 18.2477 11.4887C18.2193 11.7577 18.2193 12.0289 18.2477 12.2979C18.2477 13.743 18.2477 15.188 18.2477 16.6138V16.7872C18.2477 16.9028 18.2478 16.9414 18.3826 16.9414H23.0453L22.9297 16.8836Z" fill="#676C6D"/>
<path d="M0.695312 21.8926V8.40533C0.695312 7.98144 0.695317 8.01995 1.0614 8.01995H11.2154C11.6994 8.03343 12.1766 8.13802 12.6219 8.32824C13.0768 8.50451 13.4796 8.79306 13.7929 9.16702C14.1063 9.54098 14.3199 9.98815 14.4137 10.4669C14.5147 10.8637 14.5665 11.2714 14.5679 11.6808C14.5679 12.3744 14.5679 13.0681 14.5679 13.7617C14.5633 14.1507 14.5181 14.5381 14.433 14.9177C14.3161 15.5341 14.0103 16.099 13.5581 16.534C13.1059 16.9689 12.5295 17.2525 11.909 17.3454C11.4518 17.4317 10.9868 17.4704 10.5217 17.461H3.12303C2.79549 17.461 2.81469 17.461 2.81469 17.7693V21.6228C2.81469 21.8925 2.8147 21.8733 2.58349 21.8733H0.945799L0.695312 21.8926ZM6.97653 10.1972H3.12303C2.91109 10.1972 2.89183 10.1972 2.89183 10.3899V15.226C2.89183 15.3608 2.89179 15.4379 3.08446 15.4187H10.8878C11.0902 15.4264 11.2922 15.3941 11.4822 15.3238C11.6722 15.2534 11.8464 15.1462 11.995 15.0084C12.1435 14.8706 12.2634 14.7049 12.3479 14.5207C12.4323 14.3366 12.4795 14.1375 12.487 13.9351C12.5546 13.2045 12.5546 12.4692 12.487 11.7386V11.5459C12.4386 11.2405 12.2984 10.9571 12.085 10.7334C11.8716 10.5097 11.5952 10.3562 11.2924 10.2935C11.0305 10.2545 10.7644 10.2545 10.5025 10.2935H7.03427" fill="#676C6D"/>
<path d="M32.1593 14.9952V8.36718C32.1593 8.02036 32.1593 8.05889 32.4676 8.05889H34.0861C34.2788 8.05889 34.298 8.05892 34.298 8.27086V19.5038C34.298 19.8506 34.2979 19.8313 34.6062 19.8313H42.7949C43.1417 19.8313 43.1032 19.8314 43.1032 20.1396V21.7581C43.1032 21.893 43.1032 21.97 42.9298 21.9508H32.4868C32.1015 21.9508 32.1593 21.9508 32.1593 21.6232V14.9952Z" fill="#676C6D"/>
<path d="M122.076 19.1373L121.96 19.0024C120.034 15.6499 117.914 12.2973 116.026 8.86772C115.679 8.21263 115.313 7.55753 115.024 6.94098C114.454 5.62526 114.42 4.13927 114.928 2.79848L115.024 2.6058C115.024 2.37459 115.024 2.37457 115.352 2.47091C116.091 2.76093 116.757 3.20988 117.303 3.7859C117.849 4.36193 118.261 5.05095 118.512 5.8042C118.993 7.21073 119.398 8.65579 119.783 10.0816C120.573 13.0102 121.325 15.9581 122.037 18.9061V19.2143L122.076 19.1373Z" fill="#676C6D"/>
<path d="M123.68 19.214C123.892 18.3084 124.123 17.4028 124.335 16.4973C124.99 13.9539 125.626 11.4106 126.261 8.79027C126.55 7.76909 126.839 6.74794 127.225 5.74603C127.472 5.03326 127.867 4.38116 128.386 3.83304C128.904 3.28492 129.533 2.85333 130.231 2.56691C130.539 2.43204 130.539 2.45126 130.655 2.75954C130.945 3.42833 131.095 4.14976 131.095 4.87897C131.095 5.60818 130.945 6.32961 130.655 6.99841C130.288 7.86544 129.807 8.69394 129.364 9.52244C127.572 12.7208 125.683 15.8422 123.795 18.9635L123.68 19.214Z" fill="#676C6D"/>
<path d="M124.414 19.6388L124.53 19.4462C126.726 16.4597 128.923 13.4732 131.235 10.5831C131.639 10.1014 132.044 9.60051 132.487 9.11882C133.331 8.13415 134.514 7.50163 135.801 7.34619H136.437C136.745 7.34619 136.764 7.34618 136.764 7.63519C136.746 8.14972 136.668 8.66042 136.533 9.15734C136.281 10.0094 135.809 10.7802 135.165 11.3924C134.452 12.086 133.662 12.7026 132.892 13.3191C130.156 15.4771 127.381 17.5387 124.587 19.581L124.414 19.6388Z" fill="#676C6D"/>
<path d="M121.371 19.6389C120.754 19.2343 120.176 18.7718 119.598 18.348C117.229 16.5946 114.859 14.822 112.566 12.9916C112.007 12.5485 111.467 12.1053 110.947 11.6429C110.003 10.8146 109.394 9.67062 109.233 8.42523C109.204 8.16269 109.204 7.89779 109.233 7.63525C109.233 7.42331 109.233 7.42334 109.464 7.42334C110.171 7.42329 110.871 7.5607 111.525 7.82794C112.268 8.14121 112.927 8.62273 113.452 9.23449C114.57 10.5061 115.591 11.8548 116.631 13.1843C118.192 15.2266 119.714 17.2883 121.236 19.3499C121.236 19.4462 121.41 19.504 121.39 19.6389H121.371Z" fill="#676C6D"/>
<path d="M120.98 20.3904L118.225 19.6389C115.97 19.0802 113.735 18.5021 111.52 17.8856C110.518 17.5966 109.593 17.3268 108.533 16.9415C107.915 16.707 107.352 16.3484 106.878 15.8877C106.404 15.4271 106.03 14.8743 105.778 14.2633C105.662 14.0128 105.662 14.0128 105.913 13.8972C106.246 13.7541 106.595 13.6507 106.953 13.5889C107.994 13.4101 109.064 13.5582 110.017 14.0128C111.327 14.6294 112.579 15.3423 113.87 16.0744C116.24 17.4232 118.591 18.8297 120.922 20.2362L120.98 20.3904Z" fill="#676C6D"/>
<path d="M124.859 20.313L125.033 20.1782C127.981 18.3863 130.929 16.6137 133.934 14.9567C134.63 14.5512 135.351 14.1908 136.092 13.8777C137.272 13.3969 138.593 13.3969 139.772 13.8777C139.984 13.8777 140.004 13.8777 139.907 14.2052C139.661 14.8209 139.291 15.3796 138.821 15.8468C138.35 16.314 137.789 16.6799 137.171 16.9219C136.143 17.3074 135.095 17.6354 134.031 17.9046C131.044 18.7331 128.019 19.4845 124.994 20.236L124.859 20.313Z" fill="#676C6D"/>
<path d="M66.6069 14.9939V21.5641C66.6069 21.9109 66.6069 21.8724 66.2986 21.8724H64.8151C64.4297 21.8724 64.4874 21.8724 64.4874 21.5448V8.26959C64.4874 8.05765 64.4874 8.05762 64.6994 8.05762H66.3564C66.6069 8.05762 66.6069 8.05763 66.6069 8.3081V14.9939Z" fill="#676C6D"/>
<path d="M120.752 21.1217L118.016 21.5264L114.664 22.0081L111.774 22.3742L109.847 22.5668C109.158 22.666 108.455 22.6121 107.789 22.409C107.123 22.2058 106.51 21.8584 105.994 21.3915C105.608 21.0254 105.647 21.1025 105.994 20.7749C106.821 19.9916 107.918 19.5569 109.057 19.5611C109.702 19.5777 110.345 19.6292 110.984 19.7152L113.546 20.0235L116.186 20.3896L119.057 20.7942L120.656 21.0447" fill="#676C6D"/>
<path d="M124.84 21.9502L127.768 22.6631C129.695 23.164 131.622 23.665 133.549 24.2237C133.953 24.3586 134.377 24.4742 134.762 24.6283C135.304 24.8104 135.801 25.108 136.216 25.5005C136.632 25.8931 136.958 26.3712 137.171 26.9019C137.171 27.1138 137.171 27.1138 137.036 27.2102C136.552 27.4196 136.031 27.5277 135.504 27.5277C134.977 27.5277 134.456 27.4196 133.972 27.2102C133.414 26.979 132.893 26.6707 132.354 26.3817C129.849 25.0137 127.383 23.5301 124.917 22.0272H124.82L124.84 21.9502Z" fill="#676C6D"/>
<path d="M120.983 21.9698L119.056 23.0874C116.975 24.3205 114.913 25.5729 112.775 26.7097C112.266 27.0013 111.722 27.2278 111.156 27.384C110.35 27.5556 109.511 27.4818 108.748 27.1721C108.536 27.0758 108.536 27.0757 108.632 26.8638C108.828 26.3689 109.124 25.9199 109.503 25.5452C109.881 25.1704 110.332 24.8781 110.829 24.6866C111.747 24.3333 112.687 24.0373 113.642 23.8003C115.992 23.1452 118.362 22.5479 120.732 21.8735L120.983 21.9698Z" fill="#676C6D"/>
<path d="M124.414 22.6626L125.744 23.626C127.42 24.8398 129.077 26.0729 130.695 27.3639C131.092 27.6698 131.472 27.9979 131.832 28.3465C132.16 28.6771 132.417 29.0718 132.586 29.5061C132.755 29.9404 132.833 30.4048 132.815 30.8705C132.815 31.0824 132.815 31.1018 132.583 31.1018C132.112 31.1179 131.642 31.0353 131.204 30.8595C130.766 30.6837 130.37 30.4184 130.04 30.0806C129.547 29.5614 129.084 29.0146 128.653 28.4428C127.208 26.5161 125.82 24.6857 124.433 22.7589L124.414 22.6626Z" fill="#676C6D"/>
<path d="M121.385 22.6626V22.8167C119.805 24.9747 118.244 27.1519 116.549 29.2328C116.287 29.59 115.983 29.9135 115.643 30.1962C115.027 30.675 114.265 30.9267 113.485 30.9091C113.215 30.9091 113.196 30.9091 113.196 30.6201C113.187 30.1579 113.273 29.6987 113.448 29.2711C113.624 28.8436 113.886 28.4567 114.217 28.1346C114.73 27.6541 115.271 27.2037 115.836 26.7858C117.608 25.4178 119.419 24.0884 121.25 22.7782L121.385 22.6626Z" fill="#676C6D"/>
<path d="M122.083 23.126C122.083 23.415 121.968 23.6655 121.91 23.9352C121.447 25.9776 120.966 28.0392 120.407 30.0623C120.299 30.4668 120.17 30.8655 120.022 31.2569C119.857 31.6821 119.598 32.0644 119.265 32.3748C118.931 32.6852 118.531 32.9157 118.095 33.0487C117.902 33.0487 117.883 33.0487 117.787 32.8946C117.583 32.4811 117.477 32.0262 117.477 31.5651C117.477 31.1041 117.583 30.6492 117.787 30.2357C118.076 29.5999 118.442 28.9833 118.788 28.3089C119.79 26.6134 120.85 24.9371 121.91 23.2609L122.083 23.126Z" fill="#676C6D"/>
<path d="M123.68 23.0869L123.815 23.2603C125.009 25.1871 126.184 27.0174 127.283 28.9442C127.533 29.3873 127.784 29.8305 127.996 30.2736C128.19 30.6899 128.291 31.1437 128.291 31.6031C128.291 32.0625 128.19 32.5163 127.996 32.9326C127.996 33.1252 127.996 33.1252 127.707 33.0482C127.259 32.8961 126.853 32.6433 126.519 32.3092C126.185 31.9751 125.932 31.5687 125.78 31.1214C125.491 30.2544 125.26 29.3874 125.028 28.5011C124.566 26.6899 124.142 24.898 123.737 23.0483" fill="#676C6D"/>
<path d="M122.933 23.2417C123.145 24.5134 123.357 25.7465 123.549 26.9796C123.742 28.2127 123.838 28.9063 123.973 29.8504C124.063 30.405 124.114 30.9651 124.127 31.5267C124.113 31.989 123.994 32.442 123.781 32.8522C123.567 33.2624 123.264 33.6194 122.894 33.8966C122.271 33.4242 121.846 32.7378 121.7 31.9699C121.642 31.5544 121.642 31.133 121.7 30.7175C121.969 28.3283 122.393 25.9392 122.798 23.5693L122.933 23.2417Z" fill="#676C6D"/>
<path d="M102.68 18.232V4.22461C102.68 3.97413 102.68 3.97412 102.93 3.97412C103.181 3.97412 103.123 3.97411 103.104 4.14752V32.5285C103.104 32.6249 103.104 32.6826 102.969 32.6826C102.834 32.6826 102.68 32.6827 102.68 32.4129V18.3284V18.232Z" fill="#676C6D"/>
<path d="M95.1094 26.999V24.5328C95.1094 24.3208 95.1093 24.3208 95.3213 24.3208C95.5332 24.3208 95.4755 24.3208 95.4755 24.4942V25.8237L95.6296 25.9585H97.7876C97.9217 25.9507 98.0561 25.9695 98.183 26.0137C98.3098 26.0579 98.4268 26.1268 98.527 26.2163C98.6273 26.3058 98.7088 26.4142 98.7671 26.5353C98.8253 26.6563 98.8592 26.7877 98.8666 26.9219C98.8957 27.3582 98.8957 27.7959 98.8666 28.2321C98.8761 28.4054 98.8761 28.5791 98.8666 28.7524C98.8439 28.9863 98.738 29.2043 98.5683 29.3669C98.3986 29.5295 98.1763 29.6259 97.9416 29.6386H95.3213C95.1093 29.6386 95.1094 29.6386 95.1094 29.4267V26.9797M96.67 29.2918C97.0356 29.3197 97.4027 29.3197 97.7683 29.2918C97.9744 29.2726 98.1658 29.1769 98.3049 29.0235C98.444 28.8702 98.5207 28.6703 98.5198 28.4633C98.5198 28.0201 98.5198 27.5963 98.5198 27.1724C98.5207 26.9654 98.444 26.7656 98.3049 26.6122C98.1658 26.4589 97.9744 26.3632 97.7683 26.3439H95.6874C95.5718 26.3439 95.4947 26.3439 95.4947 26.5173V29.157C95.4947 29.3111 95.4947 29.3496 95.7067 29.3496H96.6893" fill="#676C6D"/>
<path d="M69.7321 27.8847H68.2485C67.9787 27.8847 67.9787 27.8847 67.9787 28.193C67.9696 28.3212 67.9696 28.45 67.9787 28.5783C68.0001 28.7434 68.0731 28.8974 68.1873 29.0185C68.3015 29.1396 68.451 29.2216 68.6145 29.2526H69.0769H71.0037C71.1964 29.2526 71.1963 29.2526 71.2156 29.426C71.2349 29.5994 71.2157 29.5995 71.0423 29.5995H70.1175C69.5972 29.5995 69.0962 29.5995 68.576 29.5995C68.4405 29.6075 68.3048 29.5874 68.1775 29.5403C68.0503 29.4933 67.9341 29.4205 67.8364 29.3264C67.7386 29.2323 67.6614 29.1189 67.6097 28.9935C67.5579 28.868 67.5327 28.7332 67.5356 28.5976C67.4777 28.0081 67.4777 27.4144 67.5356 26.825C67.5355 26.6918 67.5621 26.5599 67.6137 26.437C67.6652 26.3142 67.7407 26.2029 67.8358 26.1096C67.9309 26.0163 68.0436 25.9429 68.1674 25.8937C68.2912 25.8445 68.4235 25.8205 68.5567 25.823C69.1982 25.7803 69.8419 25.7803 70.4834 25.823C70.6166 25.823 70.7486 25.8496 70.8714 25.9011C70.9942 25.9527 71.1055 26.0282 71.1988 26.1233C71.2921 26.2184 71.3655 26.3311 71.4147 26.4549C71.4639 26.5787 71.4879 26.711 71.4854 26.8442C71.5043 27.1136 71.5043 27.3841 71.4854 27.6535C71.4854 27.8076 71.4854 27.8462 71.2928 27.8462H69.7321M69.5201 27.4801H70.6569C71.1386 27.4801 71.1385 27.4801 71.1 26.9984C71.0957 26.7916 71.0142 26.594 70.8716 26.4443C70.729 26.2945 70.5357 26.2035 70.3294 26.1891C69.8034 26.1506 69.2754 26.1506 68.7494 26.1891C68.5525 26.2021 68.3667 26.2849 68.2254 26.4226C68.0841 26.5604 67.9966 26.7441 67.9787 26.9406V27.3452C67.9787 27.5379 67.9788 27.5379 68.1714 27.5379H69.5201" fill="#676C6D"/>
<path d="M45.4531 27.018V24.5325C45.4531 24.3399 45.4532 24.3398 45.6652 24.3398C45.8771 24.3398 45.8192 24.3398 45.8192 24.494V25.7849C45.8192 25.9198 45.8193 25.9583 46.012 25.9583H48.1313C48.2744 25.9503 48.4176 25.9719 48.5519 26.0219C48.6862 26.0718 48.8087 26.1489 48.9118 26.2484C49.0149 26.3479 49.0964 26.4676 49.151 26.6C49.2057 26.7325 49.2325 26.8747 49.2296 27.018C49.2296 27.5382 49.2296 28.0777 49.2296 28.5979C49.2355 28.7395 49.2112 28.8806 49.1586 29.0121C49.1059 29.1436 49.0259 29.2624 48.924 29.3607C48.822 29.4591 48.7003 29.5346 48.567 29.5825C48.4337 29.6303 48.2918 29.6494 48.1506 29.6384C47.3221 29.6384 46.4744 29.6384 45.6459 29.6384C45.4917 29.6384 45.4531 29.6384 45.4531 29.4457V26.9988M45.8192 27.7695V29.0796C45.8192 29.2145 45.8193 29.2916 46.012 29.2916H47.9387H48.1892C48.3752 29.2612 48.5454 29.1683 48.6715 29.0282C48.7976 28.8881 48.8721 28.7091 48.8828 28.5209C48.8828 28.0584 48.8828 27.6153 48.8828 27.1529C48.8789 26.9492 48.8002 26.7541 48.6616 26.6048C48.523 26.4555 48.3342 26.3626 48.1313 26.3437H46.0697C45.8578 26.3437 45.8385 26.3437 45.8385 26.5749V27.8273" fill="#676C6D"/>
<path d="M57.5322 25.9581H58.7653C58.9195 25.9581 58.9965 26.0737 58.9387 26.2278H58.8231H56.3762C56.2264 26.2467 56.0886 26.3199 55.9892 26.4335C55.8897 26.5472 55.8355 26.6933 55.8366 26.8443C55.8287 26.9953 55.8747 27.1441 55.9665 27.2641C56.0583 27.3842 56.1899 27.4676 56.3376 27.4994H56.6267H58.5534C58.7478 27.5091 58.9313 27.592 59.0671 27.7313C59.2029 27.8707 59.2809 28.0563 59.2855 28.2509C59.3048 28.4173 59.3048 28.5854 59.2855 28.7519C59.288 28.8496 59.271 28.9469 59.2354 29.0379C59.1997 29.129 59.1463 29.212 59.078 29.2821C59.0098 29.3521 58.9282 29.4078 58.8381 29.4458C58.748 29.4838 58.6512 29.5033 58.5534 29.5033H56.0293C55.8559 29.5033 55.7789 29.3877 55.8559 29.2143H58.0332H58.3221C58.4007 29.207 58.4771 29.1843 58.5468 29.1474C58.6166 29.1105 58.6784 29.0601 58.7285 28.9992C58.7787 28.9383 58.8162 28.868 58.8391 28.7925C58.8619 28.717 58.8696 28.6377 58.8616 28.5592C58.867 28.4039 58.8116 28.2527 58.7072 28.1376C58.6029 28.0225 58.458 27.9525 58.3029 27.9426C58.0721 27.9234 57.84 27.9234 57.6092 27.9426H56.3569C56.2444 27.9561 56.1303 27.9459 56.0221 27.9125C55.9138 27.8791 55.8138 27.8234 55.7285 27.749C55.6431 27.6745 55.5743 27.5829 55.5265 27.4802C55.4788 27.3775 55.4532 27.2659 55.4513 27.1526C55.4225 26.9869 55.4225 26.8175 55.4513 26.6517C55.4661 26.4541 55.5564 26.2698 55.7035 26.137C55.8506 26.0043 56.0432 25.9333 56.2413 25.9388H57.4936L57.5322 25.9581Z" fill="#676C6D"/>
<path d="M79.189 25.958H80.4222C80.6149 25.958 80.6534 25.958 80.6148 26.1892L80.5185 26.3048H78.1486C77.9918 26.3316 77.8494 26.413 77.7468 26.5347C77.6442 26.6563 77.5878 26.8104 77.5878 26.9695C77.5878 27.1287 77.6442 27.2827 77.7468 27.4043C77.8494 27.526 77.9918 27.6074 78.1486 27.6342H79.8635C80.0228 27.6062 80.1858 27.6062 80.3452 27.6342C80.4634 27.6662 80.5707 27.7297 80.6555 27.8179C80.7404 27.9062 80.7996 28.0159 80.8269 28.1352C80.9239 28.4293 80.9239 28.7467 80.8269 29.0408C80.7852 29.1937 80.695 29.3289 80.5699 29.4262C80.4448 29.5234 80.2916 29.5775 80.1331 29.5803H77.7633C77.5513 29.5803 77.5514 29.5803 77.5514 29.3876C77.5514 29.1949 77.5513 29.2142 77.7054 29.2335H79.69H79.9791C80.1307 29.2142 80.2691 29.1375 80.3659 29.0192C80.4626 28.9009 80.5103 28.75 80.4992 28.5976C80.5052 28.4433 80.4532 28.2924 80.3533 28.1747C80.2534 28.0569 80.113 27.981 79.9598 27.9618H77.8403C77.6459 27.9521 77.4624 27.8693 77.3266 27.7299C77.1908 27.5905 77.1128 27.4049 77.1081 27.2104C77.089 27.0633 77.089 26.9143 77.1081 26.7672C77.0994 26.6588 77.1144 26.5496 77.152 26.4475C77.1896 26.3454 77.2488 26.2526 77.3258 26.1757C77.4028 26.0987 77.4956 26.0394 77.5977 26.0018C77.6998 25.9642 77.809 25.9493 77.9174 25.958H79.189Z" fill="#676C6D"/>
<path d="M74.4701 25.9575H75.7225C75.851 25.9575 75.9088 26.0153 75.896 26.1309C75.896 26.2465 75.896 26.3043 75.7418 26.3043H73.3527C73.196 26.319 73.0508 26.393 72.947 26.5112C72.8431 26.6294 72.7882 26.7829 72.7938 26.9402C72.7823 27.0948 72.8295 27.248 72.9259 27.3694C73.0223 27.4908 73.1609 27.5715 73.3141 27.5953H75.4528C75.6336 27.6066 75.8051 27.6798 75.9385 27.8026C76.0718 27.9254 76.1588 28.0903 76.1849 28.2696C76.2223 28.4864 76.2223 28.708 76.1849 28.9247C76.163 29.1024 76.0798 29.2669 75.9497 29.39C75.8196 29.5131 75.6507 29.587 75.4721 29.5991H72.9287C72.7361 29.5991 72.7168 29.599 72.7168 29.3678L72.871 29.2522H75.2601C75.3429 29.2474 75.4239 29.226 75.4982 29.1892C75.5725 29.1524 75.6386 29.1009 75.6926 29.038C75.7465 28.975 75.7872 28.9018 75.8123 28.8228C75.8373 28.7437 75.8461 28.6605 75.8381 28.5779C75.8388 28.4188 75.7798 28.2653 75.6728 28.1476C75.5658 28.0299 75.4186 27.9565 75.2601 27.9421H73.449C73.3015 27.9527 73.1534 27.9527 73.0059 27.9421C72.8751 27.9104 72.7554 27.8433 72.6603 27.7481C72.5651 27.653 72.498 27.5334 72.4663 27.4026C72.4279 27.173 72.4279 26.9386 72.4663 26.709C72.4688 26.6086 72.4913 26.5097 72.5325 26.4182C72.5738 26.3267 72.6331 26.2443 72.7067 26.1761C72.7803 26.1078 72.8669 26.055 72.9613 26.0208C73.0557 25.9866 73.156 25.9716 73.2562 25.9768L74.4701 25.9575Z" fill="#676C6D"/>
<path d="M54.0841 27.3456C54.1119 27.7819 54.1119 28.2195 54.0841 28.6558C54.0791 28.8926 53.9814 29.118 53.8121 29.2837C53.6428 29.4494 53.4154 29.5422 53.1785 29.5421C52.5386 29.6207 51.8916 29.6207 51.2517 29.5421C51.0095 29.5326 50.7798 29.4321 50.6083 29.2607C50.4369 29.0892 50.3364 28.8595 50.3269 28.6173C50.3077 28.2707 50.3077 27.9234 50.3269 27.5768C50.3269 27.0759 50.3269 26.5942 50.3269 26.0932C50.3269 25.5923 50.3269 25.8813 50.5388 25.8813C50.7508 25.8813 50.7123 25.8813 50.693 26.0354V28.2705C50.6757 28.4643 50.7256 28.6582 50.8344 28.8196C50.9431 28.981 51.1041 29.1 51.2903 29.1568C51.418 29.177 51.548 29.177 51.6757 29.1568H52.7161H52.9859C53.1464 29.129 53.2947 29.0535 53.4116 28.94C53.5284 28.8266 53.6084 28.6805 53.6409 28.5209C53.6494 28.3733 53.6494 28.2254 53.6409 28.0778V26.0547C53.6409 25.862 53.6409 25.862 53.8143 25.862C53.9877 25.862 54.007 25.862 54.007 26.0547V27.3456" fill="#676C6D"/>
<path d="M62.3516 27.7888C62.3516 27.2493 62.3516 26.7098 62.3516 26.1703C62.3516 25.9584 62.3515 25.9583 62.5635 25.9583H65.0682C65.3257 25.9478 65.577 26.0388 65.7681 26.2118C65.9591 26.3848 66.0745 26.6259 66.0895 26.8832V27.1722V29.4457C66.0895 29.6577 66.0895 29.6577 65.8775 29.6577C65.6656 29.6577 65.7041 29.6577 65.7041 29.5035C65.7137 29.3174 65.7137 29.1309 65.7041 28.9448C65.7041 28.386 65.7041 27.808 65.7041 27.2493C65.7153 27.1283 65.7004 27.0063 65.6603 26.8917C65.6203 26.777 65.5561 26.6723 65.4721 26.5846C65.388 26.4969 65.2861 26.4282 65.1732 26.3833C65.0604 26.3385 64.9392 26.3184 64.8179 26.3244H62.8911C62.6599 26.3244 62.6598 26.3244 62.6598 26.5941V29.4843V29.6577H62.3901V29.4843C62.3901 28.9255 62.3901 28.3668 62.3901 27.808" fill="#676C6D"/>
<path d="M86.1123 29.6386H84.9177C84.7706 29.6502 84.6225 29.6298 84.484 29.5787C84.3455 29.5276 84.2197 29.4471 84.1153 29.3427C84.011 29.2383 83.9304 29.1125 83.8793 28.974C83.8282 28.8355 83.8079 28.6876 83.8195 28.5404C83.8195 28.0651 83.8195 27.5834 83.8195 27.0953C83.8018 26.9451 83.8178 26.7929 83.8662 26.6496C83.9145 26.5063 83.9942 26.3755 84.0992 26.2667C84.2043 26.1579 84.3322 26.0739 84.4738 26.0206C84.6153 25.9673 84.767 25.9461 84.9177 25.9585H87.4032C87.4376 25.9574 87.4716 25.9654 87.5019 25.9818C87.5321 25.9983 87.5573 26.0225 87.575 26.052C87.5927 26.0815 87.6022 26.1151 87.6025 26.1495C87.6028 26.1839 87.5939 26.2178 87.5766 26.2475H87.461H85.2645H84.8984C84.7121 26.2654 84.5381 26.3488 84.4076 26.4829C84.277 26.6169 84.1984 26.793 84.1856 26.9797C84.1856 27.4614 84.1856 27.9624 84.1856 28.4441C84.1992 28.616 84.2687 28.7787 84.3835 28.9075C84.4983 29.0362 84.652 29.1238 84.8213 29.1569C84.9812 29.1771 85.1431 29.1771 85.303 29.1569H87.4032C87.6151 29.1569 87.5958 29.1569 87.6151 29.3303C87.6344 29.5038 87.6152 29.5038 87.4418 29.5038H86.1316L86.1123 29.6386Z" fill="#676C6D"/>
<path d="M94.181 27.3448V28.4045C94.1903 28.5135 94.1903 28.6231 94.181 28.7321C94.1574 28.9672 94.0482 29.1855 93.8741 29.3454C93.7 29.5053 93.4733 29.5956 93.2369 29.5991C92.5954 29.6409 91.9518 29.6409 91.3102 29.5991C91.1734 29.5894 91.0398 29.5526 90.9173 29.4911C90.7948 29.4296 90.6857 29.3445 90.5961 29.2406C90.5066 29.1368 90.4384 29.0163 90.3956 28.886C90.3528 28.7557 90.3363 28.6183 90.3468 28.4816C90.3468 28.077 90.3468 27.6723 90.3468 27.287V26.1117C90.3429 26.0743 90.35 26.0366 90.3673 26.0032C90.3845 25.9698 90.4112 25.9421 90.444 25.9237C90.4767 25.9052 90.5142 25.8968 90.5517 25.8994C90.5892 25.902 90.6251 25.9155 90.655 25.9383V26.0924V28.2889C90.6417 28.4074 90.653 28.5274 90.6881 28.6413C90.7232 28.7553 90.7816 28.8608 90.8593 28.9512C90.9371 29.0416 91.0326 29.115 91.14 29.1668C91.2474 29.2186 91.3644 29.2477 91.4835 29.2523C91.9635 29.31 92.4486 29.31 92.9286 29.2523C93.145 29.2374 93.347 29.1382 93.4911 28.9761C93.6352 28.814 93.7099 28.6019 93.6993 28.3853V26.1502C93.6993 25.9383 93.6993 25.9383 93.892 25.9383C94.0846 25.9383 94.0654 25.9383 94.0654 26.1309V27.3448" fill="#676C6D"/>
<path d="M88.6328 26.9604V24.5328C88.6328 24.3401 88.6328 24.3208 88.8447 24.3208C89.0567 24.3208 89.0182 24.3208 89.0182 24.475V29.446C89.0182 29.6386 88.9025 29.7157 88.7098 29.6579V29.5616V26.9604H88.6328Z" fill="#676C6D"/>
<path d="M60.6552 27.7877C60.6552 27.2482 60.6552 26.7087 60.6552 26.1692C60.6552 25.9765 60.7708 25.8994 60.9442 25.9572V29.3483C60.9442 29.4447 60.9442 29.5795 60.79 29.5795C60.6359 29.5795 60.5781 29.5795 60.5781 29.3676C60.5781 28.8088 60.5781 28.2693 60.5781 27.7106" fill="#676C6D"/>
<path d="M60.8486 24.7817C61.0411 24.7817 61.0411 24.7817 61.0411 24.9741C61.0411 25.1666 61.0411 25.1473 60.8486 25.1473C60.6562 25.1473 60.6563 25.1473 60.6563 24.9741C60.6563 24.8009 60.6562 24.7817 60.8486 24.7817Z" fill="#676C6D"/>
<path d="M122.039 19.1555L122.077 19.193L122.058 19.2118L122.039 19.1367V19.1555Z" fill="#676C6D"/>
</svg>
