<svg width="140" height="51" viewBox="0 0 140 51" fill="none" xmlns="http://www.w3.org/2000/svg">
<g clip-path="url(#clip0_6277_58641)">
<path d="M129.394 5.68555H131.456L131.682 5.8268C131.737 5.94766 131.819 6.05408 131.922 6.13748C132.025 6.22089 132.146 6.27896 132.276 6.30704C132.803 6.44852 133.359 6.44852 133.886 6.30704C134.054 6.28398 134.213 6.22051 134.351 6.12209C134.489 6.02367 134.601 5.89325 134.677 5.74205H136.824C136.648 6.28056 136.301 6.7468 135.835 7.06978C135.403 7.37385 134.912 7.58542 134.394 7.69127C133.313 7.9882 132.171 7.9882 131.089 7.69127C130.669 7.57663 130.283 7.35908 129.967 7.05825C129.652 6.75741 129.416 6.38275 129.281 5.96804L129.394 5.68555Z" fill="#717070"/>
<path d="M137.755 27.8618C137.655 28.4271 137.484 28.9775 137.247 29.5003C137.033 29.9287 136.708 30.2913 136.305 30.5499C135.902 30.8085 135.437 30.9534 134.958 30.9693C134.211 31.0477 133.46 30.8574 132.84 30.4325C132.488 30.1898 132.196 29.8705 131.986 29.4986C131.775 29.1268 131.652 28.712 131.625 28.2856V27.9748H131.766H133.574H133.744V28.5116C133.805 28.6714 133.914 28.8089 134.055 28.9059C134.196 29.0029 134.363 29.0548 134.535 29.0548C134.706 29.0548 134.873 29.0029 135.014 28.9059C135.156 28.8089 135.264 28.6714 135.326 28.5116C135.441 28.3446 135.536 28.1644 135.608 27.9748H135.778H137.755V27.8618Z" fill="#717070"/>
<path d="M20.0944 42.4954H19.8119C18.5971 41.9021 17.4106 41.2241 16.2524 40.5179C15.2776 39.8973 14.3348 39.2278 13.4274 38.5122C12.7495 37.9754 12.0715 37.4387 11.4217 36.8454C10.772 36.2522 10.32 35.7719 9.78324 35.2352C9.04386 34.4788 8.36386 33.6666 7.74926 32.8057C7.14 31.9611 6.59242 31.0737 6.11078 30.1503C5.82787 29.589 5.5733 29.0138 5.34804 28.427C5.0205 27.5646 4.76537 26.6764 4.5853 25.7716C4.5853 25.2066 4.41581 24.6133 4.38756 24.0483C4.35931 23.4833 4.38756 22.8054 4.38756 22.2121C4.45125 20.7261 4.77639 19.263 5.34804 17.8899C5.76631 16.8677 6.33786 15.9151 7.04302 15.065C7.60013 14.3993 8.22499 13.7933 8.9075 13.257C9.94874 12.4479 11.0761 11.7563 12.2692 11.1947C13.3663 10.6956 14.4995 10.2801 15.6592 9.95176C16.586 9.68215 17.5297 9.47453 18.4841 9.33027C19.1621 9.18902 19.8684 9.07602 20.5464 8.99128L22.6086 8.82178H23.9928C24.4831 8.83376 24.9688 8.91947 25.4335 9.07602L25.7725 9.27377C25.8255 9.31611 25.8683 9.36984 25.8977 9.43097C25.9271 9.4921 25.9424 9.55906 25.9424 9.62689C25.9424 9.69473 25.9271 9.76169 25.8977 9.82282C25.8683 9.88394 25.8255 9.93767 25.7725 9.98001C25.681 10.1126 25.5662 10.2275 25.4335 10.319C24.9765 10.5027 24.5037 10.6446 24.0211 10.7428C22.4129 11.1455 20.8361 11.6648 19.3034 12.2965C17.8503 12.8841 16.4822 13.6631 15.2354 14.613C14.0851 15.4264 13.122 16.4762 12.4105 17.6922C11.8971 18.5672 11.5343 19.5221 11.337 20.5171C11.337 21.0256 11.337 21.5059 11.1392 22.0426C11.0969 22.7576 11.0969 23.4746 11.1392 24.1896C11.2518 25.7695 11.536 27.3324 11.9867 28.8508C12.3862 30.092 12.8579 31.3088 13.3992 32.495C14.0724 33.9176 14.8367 35.2953 15.6874 36.6194C16.5487 37.9844 17.492 39.2957 18.5124 40.5461C18.9926 41.1394 19.5011 41.7326 20.0096 42.2694V42.4389L20.0944 42.4954Z" fill="white"/>
<path d="M18.3136 46.4503C17.2545 46.2356 16.2151 45.9332 15.2061 45.5463C10.6065 43.884 6.65098 40.8086 3.90626 36.7607C2.17111 34.2141 1.00523 31.3235 0.488057 28.2858C0.289669 27.5506 0.129375 26.8057 0.0078125 26.054C0.0374211 25.8669 0.0374211 25.6762 0.0078125 25.489L0.0078125 23.7376C0.044908 23.4752 0.044908 23.2089 0.0078125 22.9466C0.041697 22.3208 0.117196 21.6979 0.23381 21.0821C0.633918 18.8439 1.37716 16.6808 2.43728 14.6694C3.08353 13.4361 3.83993 12.2636 4.69725 11.1665H4.92325C6.19703 11.9249 7.70597 12.1865 9.1607 11.901C10.5151 11.6735 11.7403 10.9605 12.6072 9.89523C13.1793 9.23193 13.5934 8.44749 13.8185 7.60097C14.0436 6.75445 14.0737 5.86789 13.9066 5.00804C13.9066 4.69729 13.7089 4.4148 13.6806 4.10405C16.9235 2.70952 20.4359 2.05337 23.9635 2.18307H25.7997C25.7439 2.70892 25.7439 3.23921 25.7997 3.76506C25.9717 4.71447 26.3371 5.61836 26.8732 6.42052C27.4283 7.31485 28.1824 8.06893 29.0767 8.624C29.9377 9.15004 30.9006 9.48706 31.9017 9.61273C32.5675 9.69784 33.2415 9.69784 33.9074 9.61273C34.73 9.49147 35.5242 9.22356 36.2521 8.82174C36.9058 8.44518 37.4889 7.95765 37.9753 7.38101H38.1731C38.7539 7.83126 39.3103 8.31218 39.8398 8.82174C42.431 11.3301 44.3705 14.4333 45.4898 17.8616C45.989 19.3648 46.3206 20.9186 46.4785 22.4946C46.5773 23.6507 46.5773 24.8132 46.4785 25.9693C46.2751 29.7843 45.0453 33.4736 42.919 36.6477C39.8951 41.2234 35.3371 44.5693 30.0654 46.083C28.5928 46.5292 27.0782 46.8227 25.5455 46.9588C24.3233 47.0575 23.0952 47.0575 21.873 46.9588L22.0425 46.8175L23.003 46.309C23.8788 45.857 24.7545 45.3485 25.6302 44.8401C27.3535 43.8231 29.0202 42.7496 30.6587 41.5913C32.1435 40.5126 33.5676 39.3526 34.9244 38.1166C35.5741 37.5234 36.1674 36.9301 36.7606 36.3087C37.3539 35.6872 38.1166 34.8397 38.7381 34.0487C39.629 32.922 40.4228 31.7218 41.1111 30.461C41.8103 29.1551 42.378 27.7829 42.806 26.3648C43.1869 24.984 43.3863 23.5596 43.3993 22.1273C43.3993 21.9578 43.3993 21.7601 43.3993 21.5341C43.3939 20.8688 43.3181 20.206 43.1733 19.5566C42.9404 18.2884 42.5015 17.0669 41.8738 15.9407C41.2048 14.722 40.3025 13.6469 39.2183 12.7767C38.4816 12.1801 37.6379 11.7295 36.7324 11.449C35.974 11.2668 35.1957 11.1813 34.4159 11.1947C33.4751 11.1383 32.5317 11.1383 31.5909 11.1947L29.3592 11.3925L26.9862 11.7597C25.6302 12.014 24.1613 12.3247 22.9465 12.6919C21.7318 13.0592 19.7261 13.6524 18.1723 14.2457H18.5113C19.2893 14.1471 20.072 14.0905 20.8561 14.0762C22.0509 14.0058 23.2489 14.0058 24.4438 14.0762L25.941 14.4717C27.1956 14.6322 28.4277 14.9355 29.6134 15.3757C30.5307 15.7026 31.3964 16.1592 32.1842 16.7316C33.3566 17.5579 34.2211 18.7504 34.6419 20.1216C34.9375 21.1099 35.0241 22.149 34.8961 23.1726C34.8045 23.9716 34.6244 24.758 34.3594 25.5173C33.8727 26.8856 33.2678 28.2089 32.5514 29.4722C31.9017 30.6022 31.1672 31.704 30.4044 32.7774C29.2783 34.4001 28.0715 35.9652 26.7885 37.4669C26.054 38.3144 25.3478 39.1619 24.6133 39.9811L22.1273 42.8061L20.7713 44.1903C20.0086 44.9813 19.2458 45.7158 18.4831 46.4503H18.3136Z" fill="#BCBCBB"/>
<path d="M20.0902 42.4948V42.3253C19.5818 41.7885 19.0733 41.1953 18.593 40.602C17.5727 39.3516 16.6293 38.0402 15.768 36.6753C14.9173 35.3512 14.153 33.9735 13.4798 32.5509C12.9385 31.3647 12.4669 30.1479 12.0673 28.9067C11.6166 27.3883 11.3325 25.8253 11.2199 24.2455C11.1775 23.5304 11.1775 22.8135 11.2199 22.0985C11.2199 21.5618 11.2199 21.0533 11.4176 20.573C11.6149 19.578 11.9778 18.623 12.4911 17.7481C13.2026 16.5321 14.1658 15.4823 15.3161 14.6688C16.5628 13.719 17.9309 12.9399 19.384 12.3524C20.9121 11.708 22.4898 11.1884 24.1017 10.7986C24.5574 10.6773 25.0016 10.5167 25.4294 10.3184C25.6331 10.2505 25.8173 10.1341 25.9662 9.9794C26.0192 9.93706 26.0619 9.88333 26.0914 9.8222C26.1208 9.76108 26.136 9.69411 26.136 9.62628C26.136 9.55845 26.1208 9.49149 26.0914 9.43036C26.0619 9.36923 26.0192 9.3155 25.9662 9.27316L25.4294 9.07541C24.9499 8.90059 24.4426 8.81444 23.9322 8.82117H22.6045L20.4575 9.01891C19.7795 9.01891 19.0733 9.21666 18.3953 9.35791C17.4409 9.50217 16.4971 9.70979 15.5703 9.9794C14.3906 10.3142 13.2384 10.7392 12.1238 11.2506C10.9308 11.8122 9.80337 12.5038 8.76213 13.3129C8.07962 13.8492 7.45476 14.4551 6.89766 15.1208C6.1925 15.971 5.62095 16.9235 5.20268 17.9458C4.63102 19.3189 4.30589 20.782 4.24219 22.268C4.24219 22.8612 4.24219 23.4827 4.24219 24.1042C4.24219 24.7257 4.24219 25.2625 4.43994 25.8275C4.61529 26.7027 4.86092 27.5624 5.17443 28.3982C5.39968 28.985 5.65425 29.5601 5.93717 30.1214C6.41259 31.0393 6.96049 31.9178 7.57565 32.7486C8.18273 33.6241 8.86317 34.4463 9.60962 35.2063C10.1464 35.7431 10.6831 36.3081 11.2481 36.8166C11.8131 37.3251 12.5758 37.9466 13.2538 38.4833C13.9318 39.02 15.1183 39.8393 16.0788 40.489C17.0393 41.1388 18.4235 41.8733 19.6382 42.4665L20.0902 42.4948Z" fill="#717070"/>
<path d="M139.507 22.9464H136.089C135.92 22.9464 135.92 22.9464 135.92 22.7769C135.92 22.0425 135.92 21.3362 135.92 20.6017V14.9518C135.92 14.5563 135.92 14.1326 135.92 13.7371C135.219 15.0593 134.445 16.3419 133.603 17.579C132.756 18.9067 131.88 20.2062 131.089 21.5622C130.863 21.9577 130.637 22.3532 130.439 22.7487L130.157 22.9182H126.852V21.7317C126.852 21.3362 126.852 20.9407 126.852 20.5452V10.6578C126.908 9.83014 126.908 8.99958 126.852 8.17188H130.383V8.56737C130.383 9.30186 130.383 10.0364 130.383 10.7426C130.383 12.5223 130.383 14.2738 130.383 16.0535C130.383 16.4773 130.383 16.901 130.383 17.3248C130.665 16.788 130.976 16.2795 131.315 15.7428C132.445 13.9913 133.575 12.2398 134.677 10.4883C135.147 9.80159 135.553 9.07351 135.891 8.31312L136.146 8.17188H139.62V9.30186C139.62 9.75386 139.62 10.2341 139.62 10.6861V21.8165L139.507 22.9464Z" fill="#717070"/>
<path d="M18.3132 46.4499H18.4827C19.2454 45.7154 20.0082 44.9809 20.7709 44.1899L22.1269 42.7209L24.6129 39.896C25.3474 39.0767 26.0536 38.2292 26.7881 37.3818C28.0711 35.8801 29.2779 34.315 30.404 32.6923C31.1668 31.6188 31.9013 30.5171 32.551 29.3871C33.2674 28.1238 33.8724 26.8005 34.359 25.4321C34.6241 24.6728 34.8041 23.8864 34.8957 23.0874C35.012 22.0917 34.9255 21.0827 34.6415 20.1212C34.2207 18.75 33.3562 17.5575 32.1838 16.7313C31.396 16.1588 30.5303 15.7022 29.6131 15.3753C28.4273 14.9351 27.1952 14.6318 25.9406 14.4713L24.1891 14.2735C22.9943 14.2032 21.7963 14.2032 20.6014 14.2735C19.8169 14.2972 19.0341 14.3632 18.2567 14.4713H17.9177C19.4714 13.878 21.0817 13.3695 22.6919 12.9176C24.3021 12.4656 25.4321 12.0701 26.8728 11.8158L29.2458 11.4486L31.4775 11.2508C32.4183 11.1944 33.3617 11.1944 34.3025 11.2508C35.0823 11.2374 35.8606 11.3229 36.619 11.5051C37.5941 11.7617 38.5071 12.2134 39.3027 12.8328C40.3869 13.703 41.2892 14.7781 41.9582 15.9968C42.5858 17.1231 43.0248 18.3445 43.2576 19.6127C43.4025 20.2621 43.4782 20.9249 43.4836 21.5902C43.4836 21.8162 43.4836 22.0139 43.4836 22.1834C43.4707 23.6157 43.2712 25.0401 42.8904 26.4209C42.4624 27.839 41.8946 29.2112 41.1954 30.5171C40.5072 31.7779 39.7134 32.9781 38.8224 34.1048C38.201 34.8958 37.523 35.6303 36.845 36.3648C36.167 37.0993 35.6585 37.5795 35.0087 38.1727C33.652 39.4087 32.2279 40.5687 30.743 41.6474C29.1046 42.8057 27.4378 43.8792 25.7146 44.8962C24.8389 45.4047 23.9631 45.9132 23.0874 46.3651L22.1269 46.8736L21.9574 47.0149H21.7032C19.2172 48.2861 16.6747 49.4161 14.104 50.4896H13.9062V50.3201C15.2905 49.1054 16.7312 47.8341 17.9177 46.5629L18.3132 46.4499Z" fill="#717070"/>
<path d="M104.53 15.2344L104.954 15.3756C105.502 15.5174 106.002 15.805 106.4 16.2079C106.798 16.6108 107.079 17.1139 107.214 17.6638C107.522 18.5803 107.522 19.5723 107.214 20.4888C107.042 21.0263 106.741 21.5135 106.338 21.9076C105.934 22.3016 105.439 22.5905 104.898 22.7488C104.179 22.9894 103.424 23.1041 102.666 23.0878H95.5469V22.0425C95.5469 21.6753 95.5469 21.308 95.5469 20.9408V10.3754C95.5891 9.65096 95.5891 8.92466 95.5469 8.2002H102.779C103.559 8.21179 104.329 8.38492 105.039 8.70869C105.541 8.95703 105.972 9.32792 106.293 9.78711C106.614 10.2463 106.814 10.779 106.875 11.3359C106.974 11.8681 106.974 12.4139 106.875 12.9461C106.771 13.416 106.559 13.8549 106.254 14.2278C105.95 14.6006 105.563 14.897 105.124 15.0931L104.53 15.2344ZM100.773 20.1215H102.327C102.697 20.1318 103.057 20.0046 103.339 19.7646C103.621 19.5247 103.804 19.1889 103.852 18.8221V18.2853C103.863 17.9229 103.738 17.5694 103.504 17.293C103.269 17.0166 102.94 16.8368 102.581 16.7881H102.214H99.2193C99.0216 16.7881 99.0216 16.7881 99.0216 16.9858V19.8108C99.0216 20.0085 99.0216 20.0086 99.2193 20.0086H100.773M100.773 11.0534H99.2758C99.0781 11.0534 99.0781 11.0534 99.0781 11.2512V13.7654H102.355C102.593 13.7265 102.815 13.6209 102.995 13.4609C103.175 13.3009 103.306 13.0929 103.372 12.8614C103.457 12.5373 103.457 12.1968 103.372 11.8726C103.319 11.6963 103.225 11.5351 103.097 11.4024C102.969 11.2698 102.812 11.1695 102.638 11.1099C102.404 11.0693 102.165 11.0693 101.931 11.1099H100.66" fill="#717070"/>
<path d="M61.5392 22.9458C61.6521 21.281 61.6521 19.6105 61.5392 17.9457V11.646C61.5392 11.3635 61.5392 11.3917 61.285 11.3917H56.7368L56.5108 11.4482V11.646C56.5108 14.697 56.5108 17.7762 56.5108 20.8271C56.4685 21.4762 56.4685 22.1273 56.5108 22.7764V22.9458H53.0078V21.9289C53.0078 21.4204 53.0078 20.9119 53.0078 20.4034V10.5725C53.0501 9.80092 53.0501 9.02761 53.0078 8.25603C53.0078 8.08653 53.0078 8.08653 53.0078 8.25603H63.2342H64.9292C65.1269 8.25603 65.1269 8.25603 65.0987 8.45378C65.0423 9.52652 65.0423 10.6015 65.0987 11.6742V20.3469C65.0423 21.1652 65.0423 21.9863 65.0987 22.8046C65.2682 22.9458 65.2682 22.9458 64.9857 22.9458H61.5392Z" fill="#717070"/>
<path d="M68.2344 22.9459C68.2469 22.7578 68.2469 22.569 68.2344 22.3809C68.2344 21.7877 68.2344 21.2227 68.2344 20.6294V10.4595C68.2766 9.75393 68.2766 9.04643 68.2344 8.34082H68.3756H77.133C77.6133 8.34082 78.0653 8.34082 78.5455 8.34082H78.7432V11.3353H77.6415H76.5398H71.9068L71.7656 11.5048V13.8213H71.9068H76.2855C76.7842 13.8482 77.284 13.8482 77.7828 13.8213C77.9523 13.8213 77.9805 13.8213 77.9805 14.019V16.844C77.9805 17.0417 77.9805 17.0417 77.7828 17.0417C77.1337 16.9995 76.4826 16.9995 75.8335 17.0417H71.9068L71.7656 17.2112V19.8667L71.9068 20.0362H77.133C77.6788 20.065 78.2257 20.065 78.7715 20.0362C78.9692 20.0362 78.9692 20.0362 78.9692 20.2057V22.9459C78.9692 23.1436 78.9692 23.1436 78.7432 23.1154L76.2855 22.9459H68.2344Z" fill="#717070"/>
<path d="M85.3196 8.14318H88.4271C89.1377 8.16683 89.8415 8.29046 90.5176 8.51043C91.2108 8.7393 91.829 9.15173 92.3065 9.70386C92.784 10.256 93.103 10.9272 93.2295 11.6461C93.4288 12.5773 93.4288 13.54 93.2295 14.4711C93.0503 15.2794 92.644 16.0198 92.0585 16.6053C91.4731 17.1908 90.7327 17.597 89.9243 17.7763C89.3158 17.935 88.6887 18.011 88.0599 18.0023H85.5456C85.5456 19.0193 85.5456 20.0363 85.5456 21.0533C85.5456 21.5618 85.5456 22.042 85.5456 22.5505C85.5456 23.059 85.5456 22.7483 85.3761 22.7483H81.9297C81.9297 22.946 81.9297 22.946 81.9297 22.7765C81.9719 22.0709 81.9719 21.3634 81.9297 20.6578V10.4597C81.9719 9.73519 81.9719 9.00889 81.9297 8.28443C81.9297 8.08668 81.9297 8.08668 82.1274 8.11493H85.3196M85.3196 13.0304V14.6689C85.3196 14.9796 85.3196 14.9514 85.6021 14.9514H87.7209H88.2576C88.5791 14.9368 88.8874 14.819 89.1368 14.6155C89.3861 14.412 89.5632 14.1335 89.6418 13.8214C89.8122 13.3465 89.8122 12.8272 89.6418 12.3524C89.5813 12.1152 89.4614 11.8974 89.2933 11.7195C89.1253 11.5416 88.9147 11.4094 88.6814 11.3354C88.4382 11.2943 88.19 11.2943 87.9469 11.3354H85.4891C85.3196 11.3354 85.3196 11.3354 85.3196 11.5331V13.0586" fill="#717070"/>
<path d="M112.412 22.9467C111.536 22.9467 110.547 22.9467 109.587 22.9467H109.445C109.459 22.7774 109.459 22.6074 109.445 22.4382C109.473 21.9206 109.473 21.402 109.445 20.8844C109.445 17.4097 109.445 13.9633 109.445 10.5168C109.488 9.82065 109.488 9.12249 109.445 8.42633V8.25684H112.638L112.779 8.42633C112.737 9.1131 112.737 9.80179 112.779 10.4886V13.4548H113.005C113.909 13.4548 114.813 13.4548 115.83 13.4548C116.33 13.501 116.823 13.6053 117.299 13.7655C117.88 13.9654 118.402 14.3081 118.817 14.7622C119.231 15.2163 119.525 15.7673 119.672 16.3645C119.869 17.2062 119.927 18.0748 119.841 18.9352C119.793 19.3168 119.718 19.6945 119.615 20.0652C119.417 20.7071 119.051 21.2842 118.554 21.7363C118.057 22.1884 117.448 22.4991 116.79 22.6359C116.216 22.7714 115.628 22.8377 115.039 22.8337H112.44M112.694 18.116V19.6414C112.694 19.8674 112.694 19.8674 112.92 19.8674H115.152C115.439 19.8219 115.708 19.6934 115.923 19.4977C116.139 19.302 116.293 19.0476 116.366 18.7657C116.436 18.4684 116.436 18.159 116.366 17.8617C116.358 17.55 116.249 17.2492 116.056 17.0047C115.862 16.7602 115.595 16.5851 115.293 16.5057C115.115 16.4786 114.934 16.4786 114.756 16.5057H113.005C112.807 16.5057 112.807 16.5057 112.807 16.7317V18.229" fill="#717070"/>
<path d="M81.4546 35.0373V35.2068L79.1098 41.5347V41.676H78.9403H77.1041L76.9064 41.5065C76.7086 40.9132 76.4826 40.3482 76.2566 39.755C75.6634 38.2013 75.0701 36.6475 74.5051 35.0938V34.8961C74.5199 35.1312 74.5199 35.3671 74.5051 35.6023C74.5051 37.043 74.3074 38.4273 74.1944 39.8963C74.1944 40.4047 74.1944 40.9415 74.1944 41.45C74.1944 41.9585 74.1944 41.676 73.9684 41.676H72.1322C71.9627 41.676 71.9344 41.676 71.9627 41.4782C71.9909 41.2805 71.9627 40.2352 72.1039 39.6138C72.2452 38.9923 72.1039 38.3425 72.2734 37.721L72.5559 34.6418C72.5559 33.8226 72.5559 33.0316 72.7537 32.2123L72.9232 30.3761C72.9232 30.1501 72.9232 30.1784 73.1492 30.1784H74.9854C75.2961 30.1784 75.2396 30.1784 75.3244 30.4044L78.1493 38.06V38.286V38.0883L80.9743 30.4326H81.1438H83.1778L83.3473 30.6021C83.3473 31.3366 83.3473 32.0994 83.545 32.8621L83.7993 35.8848C83.7993 36.6758 83.9405 37.4668 84.0253 38.2578L84.2795 41.2522C84.2795 41.4217 84.2795 41.5912 84.2795 41.7607L84.1383 41.9302H82.189V41.789V40.998L81.9348 37.6645L81.7371 35.2068L81.4546 35.0373Z" fill="#717070"/>
<path d="M98.2294 37.749L98.5401 37.297L102.947 30.4888C102.978 30.414 103.036 30.3529 103.108 30.3166C103.181 30.2803 103.264 30.2713 103.343 30.2911H105.094C105.264 30.2911 105.264 30.2911 105.264 30.4606V41.5062C105.264 41.817 105.264 41.7887 104.981 41.7887H103.201C102.975 41.7887 102.975 41.7887 102.975 41.5627V34.2461L102.806 34.4156L98.2294 41.4215C98.0034 41.7605 98.2294 41.704 97.6926 41.704H96.0541C95.8281 41.704 95.8281 41.704 95.8281 41.478V30.4606C95.8281 30.1781 95.8281 30.2064 96.0824 30.2064H97.8904C98.1446 30.2064 98.1164 30.2064 98.1164 30.4323V37.636L98.2294 37.749Z" fill="#717070"/>
<path d="M132.304 37.7483L132.473 37.5223L137.05 30.5164C137.086 30.4374 137.147 30.3725 137.223 30.3317C137.3 30.2908 137.388 30.2763 137.474 30.2904H139.169C139.366 30.2904 139.366 30.2904 139.366 30.5164V41.5055C139.366 41.8162 139.366 41.788 139.112 41.788H137.304C137.078 41.788 137.078 41.788 137.078 41.5337V36.3075C137.078 35.686 137.078 35.0646 137.078 34.4148L136.909 34.6408L132.276 41.7032C132.239 41.7671 132.185 41.8195 132.12 41.8545C132.055 41.8894 131.982 41.9055 131.908 41.901H130.213C130.016 41.901 130.016 41.901 130.016 41.675V30.5729C130.016 30.2339 130.016 30.2904 130.298 30.2904H132.05C132.332 30.2904 132.304 30.2904 132.304 30.5164V37.7483Z" fill="#717070"/>
<path d="M116.591 36.0253V41.534C116.591 41.7882 116.591 41.7882 116.337 41.7882H114.529C114.303 41.7882 114.303 41.7882 114.303 41.5623V37.2118C114.303 36.9011 114.303 36.9293 114.02 36.9293H109.839C109.613 36.9293 109.613 36.9293 109.613 37.1553V41.5058C109.613 41.8447 109.613 41.7882 109.303 41.7882H107.495C107.325 41.7882 107.297 41.7882 107.297 41.5905V30.5449C107.297 30.2624 107.297 30.2906 107.551 30.2906H109.359C109.613 30.2906 109.613 30.2906 109.613 30.5166V34.4998C109.613 34.7258 109.613 34.7258 109.839 34.7258H114.077C114.303 34.7258 114.303 34.7258 114.303 34.5281V30.5449C114.303 30.2341 114.303 30.2906 114.585 30.2906H116.393C116.591 30.2906 116.591 30.2906 116.591 30.5166V36.0253Z" fill="#717070"/>
<path d="M61.8735 37.9467C61.783 38.4894 61.6314 39.0201 61.4215 39.5287C61.1902 40.0564 60.8488 40.5286 60.42 40.9135C59.9912 41.2985 59.4851 41.5872 58.9355 41.7604C57.7069 42.1697 56.3787 42.1697 55.1501 41.7604C54.4647 41.5501 53.8363 41.1864 53.3125 40.6969C52.7887 40.2074 52.3834 39.605 52.1273 38.9354C51.8019 38.0308 51.6579 37.0708 51.7036 36.1105C51.6916 35.0847 51.8837 34.0669 52.2686 33.116C52.5185 32.4754 52.8986 31.8935 53.3849 31.4073C53.8711 30.921 54.4529 30.541 55.0936 30.291C55.9038 29.9846 56.7738 29.8686 57.636 29.952C58.0945 29.9814 58.5488 30.0571 58.992 30.178C59.592 30.3578 60.1393 30.6805 60.5871 31.1185C61.0349 31.5564 61.3696 32.0964 61.5627 32.6923C61.5627 33.003 61.7322 33.3137 61.7887 33.6245V33.7657H59.67L59.331 33.3985C59.2253 33.0984 59.0457 32.8297 58.8086 32.6174C58.5716 32.4051 58.2849 32.2559 57.975 32.1838C57.4728 32.0708 56.9518 32.0708 56.4495 32.1838C55.8459 32.3004 55.31 32.6442 54.9523 33.1442C54.5115 33.7179 54.2378 34.4023 54.1613 35.1217C53.9912 35.9226 53.9912 36.7503 54.1613 37.5512C54.2919 38.0761 54.5326 38.5672 54.8676 38.9919C55.1302 39.3269 55.471 39.5922 55.8601 39.7646C56.2493 39.937 56.6748 40.0112 57.0993 39.9807H57.8338C58.1548 39.903 58.4539 39.7532 58.7084 39.5428C58.9629 39.3323 59.1662 39.0666 59.3028 38.7659L59.5287 38.1727H61.704" fill="#717070"/>
<path d="M86.3125 36.0255V30.5451C86.3125 30.2626 86.3125 30.2908 86.5667 30.2908H92.4709C92.6404 30.2908 92.6404 30.2908 92.6404 30.4603C92.6404 30.6298 92.6404 31.3926 92.6404 31.8728V32.3248H92.4709H88.855C88.6007 32.3248 88.6007 32.3248 88.6007 32.579V34.3588C88.6007 34.5848 88.6007 34.5848 88.8267 34.5848H92.3579C92.5839 34.5848 92.5839 34.5848 92.5839 34.8108V36.534C92.5839 36.7882 92.5839 36.7882 92.3579 36.7882H88.9115C88.5725 36.7882 88.6007 36.7882 88.6007 37.099V39.3307H92.4992C92.6969 39.3307 92.6969 39.3307 92.6969 39.5285C92.6969 39.7262 92.6969 40.7149 92.6969 41.3082C92.6969 41.9014 92.6969 41.5342 92.4709 41.5342H86.4538L86.3125 41.3929V35.743V36.0255Z" fill="#717070"/>
<path d="M63.5703 36.0255V30.5451C63.5703 30.2626 63.5703 30.2908 63.8528 30.2908H69.5027C69.7852 30.2908 69.757 30.2908 69.757 30.5451V32.2683C69.757 32.466 69.757 32.466 69.531 32.466H66.0563C65.8868 32.466 65.8585 32.466 65.8585 32.6638V34.5283C65.8585 34.6978 65.8585 34.6978 66.0563 34.6978H69.7005L69.87 34.8673C69.87 35.4888 69.87 36.1103 69.87 36.7317C69.87 36.9012 69.87 36.9295 69.7005 36.9295H66.0845C65.8585 36.9295 65.8585 36.9295 65.8585 37.1272V39.3872C65.8585 39.585 65.8585 39.585 66.0845 39.585H69.8135C70.1242 39.585 70.096 39.585 70.096 39.8675V41.5342C70.096 41.8167 70.096 41.7884 69.8417 41.7884H63.7963C63.5703 41.7884 63.5703 41.7884 63.5703 41.5342V36.0255Z" fill="#717070"/>
<path d="M118.32 36.026V30.3761L118.49 30.2349H120.326C120.552 30.2349 120.552 30.2349 120.552 30.4609V34.3311C120.552 34.6701 120.552 34.6136 120.863 34.6136C121.418 34.5714 121.975 34.5714 122.53 34.6136C122.993 34.6626 123.443 34.7967 123.857 35.0091C124.364 35.2368 124.798 35.5999 125.112 36.0584C125.426 36.5169 125.608 37.0531 125.637 37.608C125.749 38.1675 125.749 38.7435 125.637 39.303C125.484 39.7345 125.241 40.1288 124.924 40.4598C124.608 40.7909 124.225 41.0513 123.801 41.224C123.124 41.5185 122.392 41.6631 121.654 41.6477H118.659C118.433 41.6477 118.433 41.6477 118.433 41.4217L118.32 36.026ZM120.609 38.2578V39.4443L120.75 39.5855H121.484C121.845 39.5843 122.201 39.5073 122.53 39.3595C122.7 39.2961 122.852 39.1902 122.971 39.0518C123.09 38.9134 123.171 38.7471 123.208 38.5685C123.222 38.3899 123.222 38.2104 123.208 38.0318C123.195 37.8391 123.13 37.6535 123.021 37.4944C122.912 37.3353 122.761 37.2086 122.586 37.1278H122.162C121.675 37.0575 121.18 37.0575 120.693 37.1278C120.524 37.1278 120.524 37.1278 120.524 37.2973V38.4838" fill="#717070"/>
<path d="M124.141 22.9467H120.751H120.609C120.735 22.0106 120.782 21.0656 120.751 20.1217V10.9688C120.751 10.1778 120.751 9.38682 120.751 8.62408V8.25684H124.028V8.39808V9.13258C124.028 9.58457 124.028 10.0366 124.028 10.4886V20.9127C123.985 21.5146 123.985 22.1187 124.028 22.7207L124.141 22.9467Z" fill="#717070"/>
<path d="M126.031 36.0253V30.5731C126.031 30.2341 126.031 30.2906 126.314 30.2906H128.093C128.319 30.2906 128.319 30.2906 128.319 30.5166V41.4775C128.319 41.8447 128.319 41.7882 128.037 41.7882H126.285C126.06 41.7882 126.031 41.7882 126.031 41.534V36.0253Z" fill="#717070"/>
<path d="M103.627 27.8335C103.561 28.3081 103.438 28.7729 103.26 29.2177C103.035 29.7708 102.64 30.2382 102.132 30.5529C101.625 30.8676 101.031 31.0133 100.435 30.9692C99.6798 30.9624 98.9506 30.6927 98.3727 30.2065C98.0956 29.9496 97.8727 29.6397 97.7175 29.2952C97.5622 28.9507 97.4776 28.5785 97.4688 28.2007C97.4688 27.8335 97.4687 27.8335 97.8077 27.8335H99.3615L99.5592 28.003C99.5323 28.1714 99.5323 28.3431 99.5592 28.5115C99.6019 28.6658 99.6889 28.8042 99.8094 28.9097C99.9299 29.0151 100.079 29.0829 100.237 29.1047C100.413 29.1396 100.595 29.1139 100.754 29.0318C100.913 28.9497 101.04 28.8161 101.113 28.6527C101.217 28.4372 101.293 28.2094 101.339 27.9747H101.537H103.486L103.627 27.8335Z" fill="#717070"/>
<path d="M4.70027 11.1668L4.47427 10.9973C3.67025 10.4195 3.0261 9.64703 2.60218 8.75229C2.17827 7.85755 1.98847 6.86982 2.05058 5.88169C2.11269 4.89356 2.42468 3.93737 2.9573 3.10276C3.48992 2.26814 4.22573 1.58243 5.09576 1.10988C5.82863 0.695336 6.64035 0.439216 7.47842 0.35808C8.31649 0.276945 9.16226 0.3726 9.96104 0.63886C10.7598 0.905121 11.4938 1.33606 12.1156 1.90381C12.7374 2.47156 13.2331 3.16349 13.5707 3.93485V4.13259C13.5707 4.44334 13.7402 4.72584 13.7967 5.03658C13.9614 5.89447 13.9327 6.77828 13.7128 7.6237C13.4929 8.46913 13.0873 9.25488 12.5254 9.92377C11.6516 10.9949 10.4153 11.7085 9.05071 11.9295C7.59598 12.215 6.08704 11.9535 4.81327 11.195L4.70027 11.1668Z" fill="#717070"/>
</g>
<defs>
<clipPath id="clip0_6277_58641">
<rect width="139.497" height="50.2279" fill="white" transform="translate(0.0078125 0.346191)"/>
</clipPath>
</defs>
</svg>
