<svg width="140" height="22" viewBox="0 0 140 22" fill="none" xmlns="http://www.w3.org/2000/svg">
<g clip-path="url(#clip0_6277_58586)">
<path d="M8.77631 16.8826V9.68359L4.91373 16.8826H0.0078125L5.20231 8.52538L0.429588 0.508789H4.98033L8.77631 7.61699V0.508789H12.7721V7.61699L16.5681 0.508789H21.1188L16.3461 8.52538L21.5406 16.8826H16.6347L12.7721 9.68359V16.8826H8.77631Z" fill="#676C6D"/>
<path d="M21.1875 5.57324H25.3165L28.0469 11.6368L30.3334 5.57324H34.0406L26.8926 21.7881H23.0522L26.0268 15.2249L21.1875 5.57324Z" fill="#676C6D"/>
<path d="M34.9453 16.8828V5.57324H38.5193V10.1834L41.4939 5.57324H45.8671L41.8047 10.8874L46.2223 16.8828H41.7159L38.5193 11.8639V16.8828H34.9453Z" fill="#676C6D"/>
<path d="M56.9041 15.5658C56.335 16.1717 55.6416 16.6408 54.8738 16.9392C54.106 17.2377 53.2831 17.3581 52.4643 17.2918C51.6456 17.3581 50.8226 17.2377 50.0548 16.9392C49.2871 16.6408 48.5937 16.1717 48.0246 15.5658C47.0422 14.3422 46.5433 12.7867 46.6261 11.2055C46.5792 9.62792 47.1096 8.08922 48.1134 6.89065C48.6825 6.28479 49.3759 5.81571 50.1436 5.51724C50.9114 5.21877 51.7344 5.09836 52.5531 5.16469C53.3719 5.09836 54.1948 5.21877 54.9626 5.51724C55.7303 5.81571 56.4238 6.28479 56.9929 6.89065C58.0028 8.087 58.5409 9.62528 58.5024 11.2055C58.5521 12.8013 58.0133 14.3578 56.9929 15.5658M50.977 13.4992C51.1515 13.7722 51.3931 13.9935 51.6775 14.141C51.9619 14.2884 52.2791 14.3569 52.5975 14.3395C52.9186 14.3542 53.2381 14.2847 53.5255 14.1376C53.813 13.9906 54.059 13.7708 54.2402 13.4992C54.6401 12.8148 54.8332 12.0247 54.7952 11.2282C54.847 10.4274 54.6446 9.63085 54.218 8.95725C54.036 8.69021 53.7936 8.47211 53.5114 8.32151C53.2293 8.17091 52.9158 8.09226 52.5975 8.09226C52.2793 8.09226 51.9657 8.17091 51.6836 8.32151C51.4015 8.47211 51.1591 8.69021 50.977 8.95725C50.5603 9.63525 50.3587 10.4285 50.3998 11.2282C50.3573 12.0282 50.559 12.8218 50.977 13.4992Z" fill="#676C6D"/>
<path d="M60.1682 5.57324H66.9832H67.5159C67.7483 5.61233 67.9731 5.68899 68.1819 5.80034C68.3971 5.92922 68.598 6.08151 68.7813 6.25454C69.0103 6.45182 69.1797 6.71177 69.2696 7.00397C69.3914 7.36158 69.4515 7.7381 69.4472 8.11675C69.5114 8.70535 69.3798 9.2989 69.0737 9.80159C68.7676 10.3043 68.3048 10.6868 67.7601 10.8874C67.9777 10.9406 68.1869 11.0246 68.3817 11.1372C68.6369 11.2531 68.8699 11.4146 69.0698 11.6141C69.3387 11.8489 69.5385 12.1556 69.647 12.4998C69.8071 12.9348 69.8825 13.3977 69.869 13.8624C69.8892 14.425 69.7587 14.9825 69.4916 15.4748C69.2595 15.8801 68.8994 16.1925 68.4705 16.3604C68.1462 16.4874 67.812 16.5862 67.4715 16.6557H66.7612H60.1016L60.1682 5.57324ZM63.5868 10.0017H65.0519C65.74 10.0017 66.0952 9.66102 66.0952 9.00244C66.0952 8.34385 65.74 8.02591 65.0519 8.02591H63.5868V10.0017ZM63.5868 14.4074H65.1629C65.3178 14.4268 65.475 14.4125 65.6242 14.3656C65.7733 14.3186 65.9112 14.24 66.0286 14.1349C66.2101 13.9215 66.3054 13.6454 66.295 13.3627C66.3045 13.2081 66.2818 13.0532 66.2282 12.9083C66.1746 12.7634 66.0914 12.6319 65.9842 12.5225C65.7501 12.3359 65.4594 12.2395 65.1629 12.25H63.5868V14.4074Z" fill="#676C6D"/>
<path d="M71.5781 16.8828V5.57324H75.1521V10.1834L78.1267 5.57324H82.4999L78.4375 10.8874L82.8551 16.8828H78.3487L75.1521 11.8639V16.8828H71.5781Z" fill="#676C6D"/>
<path d="M91.0223 6.95884V5.57354H94.4409V16.9285H91.0223V15.5432C90.6753 16.0905 90.1976 16.5383 89.6344 16.8442C89.0712 17.1502 88.441 17.3043 87.8035 17.2918C87.1696 17.2972 86.5432 17.1523 85.9732 16.8686C85.4033 16.585 84.9052 16.1702 84.5181 15.6567C83.5734 14.3472 83.1097 12.7391 83.2083 11.1148C83.1969 10.3489 83.2865 9.58506 83.4747 8.84376C83.6935 8.23024 83.9922 7.6497 84.3627 7.11781C84.7043 6.51871 85.2045 6.03061 85.8056 5.7098C86.4405 5.33937 87.1614 5.15108 87.8923 5.16476C88.5189 5.17253 89.1337 5.3408 89.6805 5.6542C90.2273 5.96759 90.6886 6.41613 91.0223 6.95884ZM89.0244 13.9308C89.3224 13.937 89.6177 13.8726 89.8873 13.7426C90.1569 13.6125 90.3934 13.4205 90.5783 13.1814C90.9879 12.6107 91.1919 11.9126 91.1555 11.2056C91.1852 10.5135 90.9814 9.83194 90.5783 9.27525C90.3934 9.03614 90.1569 8.84406 89.8873 8.71405C89.6177 8.58403 89.3224 8.51961 89.0244 8.52582C88.7141 8.50969 88.4048 8.57411 88.1254 8.71308C87.8459 8.85205 87.6054 9.06106 87.4261 9.32067C87.0614 9.87711 86.8752 10.5359 86.8933 11.2056C86.8733 11.8897 87.0593 12.5636 87.4261 13.1359C87.6054 13.3955 87.8459 13.6046 88.1254 13.7435C88.4048 13.8825 88.7141 13.9469 89.0244 13.9308Z" fill="#676C6D"/>
<path d="M104.984 16.8826L110.223 8.27557L105.495 0.508789H110.29L112.421 4.93722L114.53 0.508789H119.058L114.596 8.02576L119.813 16.8826H115.107L112.421 11.4777L109.557 16.8826H104.984Z" fill="#676C6D"/>
<path d="M119.523 16.8826L124.762 8.27557L120.034 0.508789H124.829L126.96 4.93722L129.091 0.508789H133.597L129.135 8.02576L134.352 16.8826H129.646L126.96 11.4777L124.096 16.8826H119.523Z" fill="#676C6D"/>
<path d="M139.504 0.508789H135.508V16.8599H139.504V0.508789Z" fill="#676C6D"/>
</g>
<defs>
<clipPath id="clip0_6277_58586">
<rect width="139.497" height="21.2792" fill="white" transform="translate(0.0078125 0.508789)"/>
</clipPath>
</defs>
</svg>
