<svg width="140" height="45" viewBox="0 0 140 45" fill="none" xmlns="http://www.w3.org/2000/svg">
<g clip-path="url(#clip0_6277_58558)">
<path d="M5.83594 31.9989C5.84515 30.6014 6.3422 29.2511 7.24121 28.1812C8.12161 27.0811 9.38451 26.3535 10.7778 26.1436H12.4173H12.8155C13.7797 26.348 14.6746 26.7984 15.4133 27.4509C16.152 28.1035 16.7094 28.9359 17.0313 29.8675C17.4294 30.8583 17.5589 31.9367 17.4068 32.9936C17.2546 34.0505 16.8261 35.0485 16.1647 35.8868V36.0507L16.0242 36.1913C15.6053 36.6561 15.1151 37.0514 14.5721 37.3623C14.0418 37.6729 13.4642 37.8944 12.8623 38.0181C12.3032 38.0998 11.7351 38.0998 11.176 38.0181C10.3413 37.9343 9.53858 37.6533 8.83385 37.1984C8.09089 36.7321 7.45928 36.1085 6.98358 35.3715C6.5485 34.7015 6.24634 33.9541 6.09357 33.1699C6.05782 32.7335 6.05782 32.2948 6.09357 31.8583" fill="#717070"/>
<path d="M38.2312 11.0597C38.1997 15.7584 37.8869 20.451 37.2944 25.1124C35.943 31.3728 32.2796 36.893 27.0359 40.5704C24.9145 42.207 22.5415 43.4884 20.0095 44.3646C19.7721 44.4638 19.5174 44.5149 19.2601 44.5149C19.0027 44.5149 18.748 44.4638 18.5106 44.3646C14.3357 42.9488 10.5722 40.5299 7.55038 37.3202C4.52851 34.1105 2.34068 30.2081 1.17887 25.9555C0.540153 23.0651 0.249227 20.1087 0.312288 17.1492C0.124919 13.027 0.124919 8.88148 0.0078125 4.75934C0.0078125 3.86934 0.218603 3.44776 1.13203 3.26039C3.47415 2.79196 5.81628 2.22985 8.29892 1.85511C10.5604 1.41104 12.843 1.08272 15.1379 0.871421C20.8616 0.490735 26.6103 0.92445 32.212 2.15959C33.8281 2.53433 35.4675 2.8388 37.0836 3.23696C37.9268 3.44776 38.2781 3.77565 38.2547 4.7125C38.2547 7.05462 38.2547 9.39675 38.2547 11.0597" fill="#BDBCBC"/>
<path d="M20.6922 14.5267L21.0904 13.988C21.0904 13.8709 20.8561 13.7069 20.6922 13.5664C20.6277 13.5042 20.5823 13.4248 20.5616 13.3377C20.5408 13.2505 20.5455 13.1592 20.5751 13.0746C21.2367 10.7043 22.7893 8.68175 24.908 7.43006C26.029 6.81403 27.316 6.5681 28.5851 6.72743C28.8842 6.74668 29.1755 6.83092 29.4386 6.97427C29.7018 7.11761 29.9305 7.31663 30.1089 7.55743C30.2873 7.79823 30.411 8.07504 30.4714 8.36855C30.5319 8.66207 30.5276 8.96523 30.4588 9.25692C30.4588 9.70192 30.2246 10.1235 30.1309 10.5685C30.0373 11.0135 30.1309 10.9667 29.967 11.2009L30.5525 11.3414C30.9038 11.4585 31.302 11.5522 31.6533 11.6927C31.8672 11.7737 32.0512 11.918 32.181 12.1063C32.3107 12.2946 32.3799 12.518 32.3794 12.7467C32.3727 12.9656 32.2965 13.1767 32.1617 13.3494C32.0269 13.5221 31.8407 13.6473 31.6299 13.7069C31.2229 13.8532 30.8086 13.9783 30.3886 14.0817H30.1075C30.1075 14.4564 30.3183 14.7141 30.7399 14.8077C31.1615 14.9014 32.192 15.2293 32.8946 15.4401L33.3397 15.6041L33.0586 15.8617L31.4191 17.1499C31.3279 17.209 31.2568 17.2943 31.215 17.3947C31.1732 17.495 31.1627 17.6056 31.1849 17.712C31.4536 20.1635 30.9122 22.6355 29.6434 24.7503C28.3745 26.865 26.4481 28.5061 24.1585 29.4226C23.6083 29.6374 23.0451 29.8173 22.4722 29.9613C22.429 29.967 22.3873 29.9813 22.3496 30.0033C22.312 30.0254 22.2791 30.0547 22.2529 30.0896C22.2268 30.1245 22.2078 30.1643 22.1972 30.2066C22.1866 30.2489 22.1845 30.2929 22.1912 30.336V34.2474V34.5284H23.9712C24.0415 34.8999 24.0415 35.2812 23.9712 35.6526H22.8001C22.8001 35.9805 23.1748 36.0742 23.3154 36.4021L22.5425 37.1516C22.1912 36.8003 21.8398 36.4958 21.5354 36.1445C21.4015 35.9669 21.2216 35.8294 21.0152 35.7469C20.8088 35.6643 20.5837 35.6398 20.3643 35.6761H19.5446L20.1535 36.3787L19.3572 37.1516C19.061 36.9023 18.7867 36.628 18.5374 36.3318C18.3397 36.1168 18.0859 35.9612 17.8045 35.8825C17.5231 35.8039 17.2254 35.8054 16.9448 35.8868H16.5935H16.4061C16.3467 35.538 16.3467 35.1817 16.4061 34.8329H17.7645C17.7734 34.7003 17.7734 34.5673 17.7645 34.4347V30.5936C17.7645 30.2189 17.7645 30.1955 17.4132 30.1252C15.1558 29.4942 13.1197 28.2449 11.5345 26.5184L10.9021 25.8626L6.47551 30.2658C5.60405 29.5568 4.92706 28.6381 4.50813 27.5957C4.34425 27.2074 4.34098 26.77 4.49902 26.3793C4.65707 25.9886 4.96354 25.6764 5.35129 25.5112C6.08824 25.1458 6.87896 24.9006 7.69342 24.7852L9.63738 24.4807L9.37974 24.1762C8.31242 22.5697 7.39513 20.8684 6.63946 19.0938C6.57689 18.9959 6.54364 18.8821 6.54364 18.7659C6.54364 18.6497 6.57689 18.536 6.63946 18.438C8.10959 16.2139 10.2152 14.4837 12.6821 13.4727C14.0428 12.8673 15.5632 12.7194 17.0151 13.0512C17.3032 13.1318 17.585 13.2336 17.8582 13.3556L20.2003 14.3862L20.5751 14.5267M20.8093 15.7914L15.1179 21.8341C15.4642 22.7818 16.1071 23.5924 16.9511 24.1452C17.7951 24.698 18.7951 24.9636 19.8022 24.9023C20.8575 24.8123 21.8512 24.3673 22.6211 23.64C23.391 22.9126 23.8917 21.9458 24.0414 20.8973C24.1988 19.8165 23.9737 18.7148 23.4049 17.7825C22.8361 16.8502 21.9594 16.1459 20.9264 15.7914M29.522 22.6539C30.0549 21.1536 30.2313 19.5499 30.0373 17.9696C30.0158 17.8096 29.9417 17.6612 29.8265 17.548C29.6111 17.3156 29.4559 17.034 29.3743 16.7279C29.2926 16.4217 29.2871 16.1002 29.358 15.7914V15.2293C29.358 14.9483 29.077 14.6672 28.9599 14.3862C28.9346 14.3143 28.8867 14.2526 28.8233 14.2104C28.76 14.1681 28.6846 14.1476 28.6086 14.152C27.0006 14.1562 25.395 14.0309 23.8072 13.7772H23.4325C22.7859 14.0292 22.2081 14.4305 21.7461 14.9483C22.4455 15.2785 23.0718 15.7451 23.5885 16.3207C24.1051 16.8962 24.5015 17.5692 24.7546 18.3C25.0077 19.0308 25.1122 19.8048 25.0621 20.5766C25.0121 21.3484 24.8084 22.1024 24.463 22.7944C25.2376 22.6503 26.0195 22.5486 26.8051 22.4899C27.6506 22.5001 28.4949 22.5548 29.3346 22.6539M11.7219 25.1599C13.3498 27.1244 15.5672 28.5123 18.0456 29.1181C18.4667 27.9328 19.093 26.8309 19.8959 25.8626C18.7302 25.9372 17.5689 25.6601 16.5625 25.0672C15.5561 24.4742 14.7509 23.5926 14.2514 22.5367L11.7219 25.1599ZM19.7788 15.4635C19.2944 15.4117 18.8047 15.4759 18.3501 15.6509C17.3243 15.9963 16.3599 16.5023 15.4927 17.1499C14.1447 18.1162 12.883 19.1977 11.7219 20.382L9.63738 22.5133L10.8787 24.2699L19.7788 15.4635ZM9.09869 21.5296L13.4785 17.3138L13.1271 17.0093C13.0492 16.9229 12.9489 16.8597 12.8373 16.8267C12.7257 16.7936 12.6072 16.792 12.4948 16.822C12.3735 16.8419 12.2491 16.8296 12.134 16.7864C12.0189 16.7432 11.9172 16.6706 11.839 16.5758C11.7607 16.4809 11.7088 16.3673 11.6882 16.2461C11.6677 16.1249 11.6793 16.0004 11.7219 15.8851C11.7453 15.8344 11.7585 15.7796 11.7606 15.7238C11.7627 15.668 11.7536 15.6123 11.734 15.56C11.7144 15.5077 11.6846 15.4598 11.6463 15.4191C11.6081 15.3784 11.5621 15.3458 11.5111 15.323C10.0316 16.2494 8.7501 17.4593 7.74026 18.883L9.09869 21.5296ZM22.2614 12.1611C24.2039 10.486 26.7287 9.64439 29.2878 9.81903V9.58481V9.13981C29.3271 8.99495 29.3328 8.84301 29.3043 8.69563C29.2758 8.54824 29.214 8.40933 29.1236 8.28952C29.0332 8.1697 28.9166 8.07217 28.7826 8.0044C28.6487 7.93662 28.501 7.90039 28.3509 7.89849C27.5167 7.77244 26.6638 7.88616 25.8917 8.22638C24.2259 8.98619 22.9114 10.351 22.2146 12.044L22.2614 12.1611ZM18.9824 34.5987C19.6889 34.7046 20.4073 34.7046 21.1138 34.5987C21.2079 33.195 21.2079 31.7866 21.1138 30.3829H18.9824V34.5987ZM14.4387 16.6112C15.0008 16.2599 15.5395 15.8617 16.1251 15.5338C16.7106 15.2059 17.3195 14.9249 17.9051 14.6204C17.0734 14.1778 16.1398 13.9621 15.1982 13.995C14.2567 14.0279 13.3404 14.3082 12.5416 14.8077C13.0082 15.5622 13.6617 16.1834 14.4387 16.6112ZM9.54369 25.722H9.28606L6.5692 26.2607C6.28996 26.3437 6.02239 26.4617 5.77288 26.612C5.67211 26.6621 5.59157 26.7453 5.54468 26.8475C5.4978 26.9498 5.4874 27.0651 5.51524 27.1741C5.67678 27.7716 6.02064 28.3038 6.49893 28.6965L9.54369 25.7923M31.1849 12.6998C29.406 12.1568 27.4938 12.2479 25.7746 12.9575H26.3601C27.4511 13.0513 28.5481 13.0513 29.6391 12.9575C30.1524 12.9637 30.6593 12.843 31.1146 12.6062M23.573 12.4656C25.2731 11.7371 27.0892 11.3168 28.9365 11.2243V10.7559C27.0021 10.6686 25.1001 11.275 23.573 12.4656Z" fill="#717070"/>
<path d="M135.15 20.4995L134.284 22.0219L131.403 27.1511C131.353 27.274 131.264 27.377 131.15 27.4447C131.035 27.5123 130.902 27.5408 130.771 27.5259H126.602C126.602 27.1746 126.602 14.1289 126.602 13.4731H130.934C130.934 14.5739 130.934 15.6747 130.934 16.7755C130.934 17.8763 130.934 18.9537 130.934 20.0545C131.661 19.0006 132.293 17.8763 132.925 16.7755C133.558 15.6747 134.213 14.5739 134.846 13.4731H139.53V27.4556C138.056 27.5377 136.578 27.5377 135.103 27.4556C135.103 25.1135 135.244 22.7714 135.291 20.4292L135.15 20.4995Z" fill="#717070"/>
<path d="M97.9297 13.5653H102.333C102.333 15.7669 102.192 17.9451 102.146 20.1467L102.38 19.7719C103.504 17.8045 104.722 15.8606 105.752 13.9166C105.811 13.7817 105.91 13.6684 106.036 13.5928C106.162 13.5172 106.309 13.483 106.455 13.495H110.765V27.3604C109.299 27.4689 107.827 27.4689 106.361 27.3604C106.361 25.0183 106.502 22.6762 106.525 20.334L106.291 20.7322C105.12 22.7933 103.949 24.8543 102.825 26.9154C102.758 27.0775 102.638 27.2122 102.485 27.2973C102.332 27.3824 102.154 27.4129 101.982 27.3838H97.9297V13.5653Z" fill="#717070"/>
<path d="M72.6159 27.5012H67.9316C67.9316 25.7446 67.9316 23.9881 67.9316 22.2315H64.1374C64.1374 22.7936 64.1374 23.3791 64.1374 23.9646C64.1374 24.5502 64.1374 25.1357 64.1374 25.7212V27.5012H59.4531V13.6125C61.0129 13.5107 62.5776 13.5107 64.1374 13.6125C64.1374 14.1277 64.1374 14.643 64.1374 15.1583V18.203C65.4154 18.3119 66.7004 18.3119 67.9785 18.203C67.9785 17.7112 67.9785 17.1725 67.9785 16.6572V13.5656H72.6627L72.6159 27.5012Z" fill="#717070"/>
<path d="M74.7656 27.4782V13.6128C75.1169 13.6128 83.8062 13.6128 84.3449 13.6128V17.407C83.4783 17.407 82.6352 17.407 81.792 17.407H79.1922V18.6249H83.8765C83.9849 19.8326 83.9849 21.0476 83.8765 22.2552H79.1922V23.5668C79.6291 23.5904 80.0669 23.5904 80.5038 23.5668H84.6025C84.6981 24.8454 84.6981 26.1293 84.6025 27.4079L74.7656 27.4782Z" fill="#717070"/>
<path d="M118.215 23.0051V27.4318C116.656 27.5506 115.09 27.5506 113.531 27.4318V13.5664H119.714C120.751 13.5498 121.78 13.7492 122.736 14.1519C123.458 14.4527 124.078 14.9549 124.522 15.5987C124.967 16.2424 125.217 17.0004 125.242 17.7822C125.325 18.5724 125.237 19.3712 124.984 20.1243C124.748 20.6887 124.394 21.1959 123.946 21.612C123.497 22.0281 122.965 22.3434 122.384 22.5367C121.506 22.8547 120.578 23.0134 119.644 23.0051H118.215ZM118.215 17.2201V19.492C118.756 19.6037 119.314 19.6037 119.855 19.492C120.112 19.4204 120.333 19.2564 120.475 19.0314C120.618 18.8065 120.672 18.5367 120.628 18.2741C120.648 18.1355 120.638 17.9944 120.599 17.8599C120.56 17.7255 120.493 17.6009 120.402 17.4945C120.311 17.3881 120.199 17.3023 120.072 17.2429C119.945 17.1835 119.808 17.1517 119.668 17.1498C119.223 17.1498 118.754 17.1498 118.239 17.1498" fill="#717070"/>
<path d="M55.4707 22.3953C56.431 23.5898 57.3678 24.7375 58.3281 25.8383L57.9768 26.1896C56.9539 27.0623 55.7021 27.6232 54.3699 27.8056C52.6543 28.1251 50.8815 27.887 49.3109 27.1264C48.2268 26.6142 47.2918 25.8331 46.5948 24.8574C45.8979 23.8817 45.4622 22.7438 45.3293 21.5522C45.1001 19.994 45.3707 18.4032 46.1022 17.0084C46.5359 16.1461 47.149 15.3865 47.9003 14.7805C48.6517 14.1746 49.5239 13.7364 50.4586 13.4953C51.5852 13.1576 52.7689 13.054 53.937 13.191C55.1051 13.3279 56.2328 13.7025 57.2507 14.2916C57.6255 14.5024 57.9768 14.7834 58.3515 15.0411C57.3913 16.2355 56.4544 17.3832 55.4941 18.5074L55.3068 18.3669C54.91 17.9475 54.3956 17.6582 53.8312 17.5369C53.2668 17.4157 52.6789 17.4682 52.1449 17.6877C51.6437 17.8516 51.2036 18.1627 50.8819 18.5805C50.5602 18.9983 50.3719 19.5034 50.3415 20.0298C50.261 20.5289 50.3092 21.0403 50.4813 21.5157C50.6534 21.9911 50.9438 22.4147 51.3252 22.7467C51.8495 23.2174 52.5293 23.4778 53.234 23.4778C53.9387 23.4778 54.6185 23.2174 55.1428 22.7467L55.4707 22.3719" fill="#717070"/>
<path d="M91.3483 27.5016H86.6641V13.6128C86.992 13.6128 95.6578 13.6128 96.2199 13.6128V18.297H91.3483C91.3483 18.9294 91.3483 19.5384 91.3483 20.1473V27.5953V27.5016Z" fill="#717070"/>
<path d="M87.6272 37.9003H81.9827C81.8912 36.4496 81.8912 34.9946 81.9827 33.5439H82.5448V37.385H84.3248V33.5439H84.9806V37.4084C85.6364 37.4084 86.2453 37.4084 86.9245 37.4084V33.5439H87.5335L87.6272 37.9003Z" fill="#717070"/>
<path d="M107.137 35.0435C107.161 34.8319 107.115 34.6181 107.004 34.4357C106.894 34.2534 106.726 34.1129 106.528 34.0364C106.208 33.9301 105.864 33.9248 105.541 34.0212C105.218 34.1176 104.933 34.311 104.724 34.5751L104.373 34.2472C104.53 34.0047 104.739 33.8001 104.984 33.6485C105.23 33.4968 105.507 33.4018 105.794 33.3704C106.081 33.339 106.371 33.372 106.644 33.4669C106.917 33.5619 107.165 33.7164 107.371 33.9193C107.634 34.2081 107.784 34.5825 107.792 34.9732V37.737V37.9243H107.254V37.4091L106.902 37.6667C106.574 37.9411 106.159 38.0914 105.731 38.0914C105.303 38.0914 104.889 37.9411 104.56 37.6667C104.397 37.5384 104.268 37.3703 104.188 37.1784C104.108 36.9866 104.078 36.7774 104.102 36.5707C104.125 36.3641 104.201 36.1669 104.322 35.998C104.444 35.829 104.606 35.6939 104.794 35.6056C105.037 35.5108 105.288 35.4401 105.544 35.3948L106.996 35.1606L107.137 35.0435ZM107.137 35.629C106.528 35.629 105.919 35.8633 105.333 36.0272C105.164 36.0664 105.015 36.1672 104.915 36.31C104.816 36.4528 104.773 36.6274 104.794 36.8001C104.824 36.9586 104.903 37.1035 105.021 37.2132C105.14 37.3229 105.29 37.3916 105.45 37.4091C105.691 37.4628 105.942 37.453 106.178 37.3808C106.415 37.3086 106.628 37.1764 106.798 36.9971C106.968 36.8178 107.088 36.5975 107.148 36.3577C107.207 36.118 107.203 35.8669 107.137 35.629Z" fill="#717070"/>
<path d="M73.741 37.9242H73.1554C73.1554 37.7602 73.1554 37.6197 73.1554 37.4089C73.0423 37.5173 72.9165 37.6117 72.7807 37.69C72.4878 37.8914 72.1408 37.9992 71.7853 37.9992C71.4299 37.9992 71.0828 37.8914 70.7899 37.69C70.5677 37.5801 70.3853 37.4038 70.2678 37.1856C70.1503 36.9674 70.1036 36.718 70.1341 36.4721C70.1518 36.2248 70.2475 35.9895 70.4075 35.8001C70.5674 35.6107 70.7833 35.477 71.0241 35.4181C71.5394 35.2776 72.1015 35.2073 72.6402 35.1136H73.1789C73.1955 34.8971 73.1433 34.6809 73.0297 34.4959C72.9161 34.3108 72.747 34.1663 72.5465 34.0831C72.2273 33.9733 71.8817 33.9662 71.5583 34.0628C71.2348 34.1594 70.9497 34.3549 70.7431 34.6218L70.2746 34.1768C70.5256 33.8092 70.8951 33.539 71.3214 33.4111C71.7477 33.2832 72.2049 33.3055 72.6168 33.4741C72.9168 33.5654 73.1813 33.7472 73.3742 33.9945C73.567 34.2419 73.6788 34.5427 73.6941 34.856C73.6941 35.8631 73.6941 36.8702 73.6941 37.9242M73.0149 35.582C72.406 35.582 71.797 35.7928 71.1881 35.9568C71.0192 36.0053 70.8727 36.1116 70.7742 36.2572C70.6757 36.4027 70.6316 36.5783 70.6494 36.7531C70.6846 36.9171 70.7721 37.0652 70.8989 37.1751C71.0256 37.2849 71.1847 37.3505 71.352 37.3621C71.5915 37.4109 71.8394 37.3976 72.0722 37.3232C72.3051 37.2489 72.5149 37.1161 72.6817 36.9375C72.8486 36.759 72.9668 36.5406 73.0251 36.3033C73.0835 36.0659 73.08 35.8176 73.0149 35.582Z" fill="#717070"/>
<path d="M53.876 35.0903C53.8981 34.876 53.8509 34.6603 53.7413 34.4748C53.6317 34.2893 53.4655 34.1438 53.2671 34.0598C52.7518 33.8022 52.26 33.9427 51.4402 34.5516L51.1123 34.2472C51.2685 33.998 51.4805 33.7885 51.7315 33.6353C51.9825 33.482 52.2657 33.3893 52.5587 33.3643C52.8517 33.3393 53.1466 33.3828 53.4199 33.4913C53.6932 33.5998 53.9376 33.7704 54.1337 33.9895C54.3206 34.2093 54.4423 34.477 54.485 34.7624C54.485 35.793 54.485 36.8235 54.485 37.9009H53.876C53.876 37.9009 53.876 37.6198 53.876 37.4324L53.5247 37.6901C53.204 37.9314 52.8136 38.0619 52.4122 38.0619C52.0109 38.0619 51.6204 37.9314 51.2997 37.6901C51.1414 37.561 51.0181 37.3941 50.9412 37.2049C50.8643 37.0157 50.8362 36.8101 50.8595 36.6072C50.8829 36.4043 50.9568 36.2105 51.0747 36.0436C51.1925 35.8768 51.3505 35.7422 51.5339 35.6524C51.7646 35.5428 52.0087 35.464 52.26 35.4182L53.8995 35.1606M53.8995 35.7227L52.4005 35.9803C52.2078 36.0238 52.025 36.1033 51.8618 36.2145C51.7534 36.2692 51.6623 36.3529 51.5987 36.4563C51.5351 36.5597 51.5014 36.6787 51.5014 36.8001C51.5014 36.9215 51.5351 37.0405 51.5987 37.1439C51.6623 37.2472 51.7534 37.3309 51.8618 37.3856C52.1398 37.4444 52.427 37.4444 52.705 37.3856C52.9003 37.3575 53.0871 37.2872 53.2524 37.1795C53.4178 37.0719 53.5577 36.9296 53.6624 36.7624C53.7672 36.5952 53.8343 36.4072 53.859 36.2115C53.8838 36.0158 53.8656 35.817 53.8058 35.629" fill="#717070"/>
<path d="M78.4897 37.9237H77.9042V36.4248C77.5064 36.4006 77.1075 36.4006 76.7097 36.4248L76.4052 36.659L75.6323 37.9003H74.9531C75.0412 37.6031 75.1842 37.3251 75.3747 37.0806C75.5152 36.8229 75.6792 36.5653 75.8431 36.3077L75.6558 36.1671C75.4179 35.9978 75.2366 35.7608 75.1355 35.4869C75.0344 35.2131 75.0182 34.9151 75.089 34.6319C75.1598 34.3487 75.3144 34.0934 75.5324 33.8993C75.7505 33.7052 76.022 33.5814 76.3116 33.5439H78.4897V37.9237ZM77.8808 34.0358C77.3522 33.9652 76.8167 33.9652 76.2881 34.0358C76.0961 34.0748 75.9244 34.1812 75.8041 34.3359C75.6837 34.4906 75.6228 34.6832 75.6323 34.879C75.617 35.0786 75.6752 35.2769 75.796 35.4365C75.9168 35.5962 76.0919 35.7061 76.2881 35.7455C76.8174 35.8043 77.3515 35.8043 77.8808 35.7455V34.0358Z" fill="#717070"/>
<path d="M93.4101 35.6755C93.3319 35.3325 93.332 34.9763 93.4104 34.6334C93.4888 34.2904 93.6434 33.9695 93.8628 33.6945C94.0822 33.4195 94.3607 33.1975 94.6776 33.0448C94.9946 32.8922 95.3419 32.813 95.6937 32.813C96.0455 32.813 96.3928 32.8922 96.7097 33.0448C97.0267 33.1975 97.3052 33.4195 97.5246 33.6945C97.744 33.9695 97.8986 34.2904 97.977 34.6334C98.0553 34.9763 98.0554 35.3325 97.9773 35.6755C98.0554 36.0185 98.0553 36.3747 97.977 36.7177C97.8986 37.0607 97.744 37.3816 97.5246 37.6566C97.3052 37.9316 97.0267 38.1536 96.7097 38.3062C96.3928 38.4588 96.0455 38.5381 95.6937 38.5381C95.3419 38.5381 94.9946 38.4588 94.6776 38.3062C94.3607 38.1536 94.0822 37.9316 93.8628 37.6566C93.6434 37.3816 93.4888 37.0607 93.4104 36.7177C93.332 36.3747 93.3319 36.0185 93.4101 35.6755ZM94.0425 35.6755C94.0331 35.897 94.0674 36.1182 94.1436 36.3264C94.2197 36.5346 94.3362 36.7258 94.4863 36.8889C94.6364 37.0521 94.8172 37.1841 95.0183 37.2773C95.2195 37.3705 95.437 37.4231 95.6586 37.4321C96.0865 37.3825 96.4813 37.1773 96.7678 36.8556C97.0543 36.5339 97.2126 36.1181 97.2126 35.6873C97.2126 35.2564 97.0543 34.8406 96.7678 34.5189C96.4813 34.1972 96.0865 33.992 95.6586 33.9424C95.4371 33.9484 95.219 33.9981 95.0167 34.0885C94.8144 34.1789 94.6319 34.3083 94.4797 34.4692C94.3274 34.6302 94.2084 34.8196 94.1293 35.0266C94.0503 35.2335 94.0128 35.4541 94.0191 35.6755" fill="#717070"/>
<path d="M65.6324 36.0041V37.9012H65.0234V33.4746H65.609V35.3249H68.2087V33.4746H68.8411V37.9012H68.2556V36.0041H65.6324Z" fill="#717070"/>
<path d="M99.6398 33.5439H102.872V37.9706H102.286V34.0358C101.607 34.0358 100.975 34.0358 100.272 34.0358V34.6916C100.304 35.4149 100.241 36.1393 100.085 36.8463C100.052 37.0064 100.005 37.1631 99.9443 37.3148C99.8934 37.4562 99.8135 37.5855 99.7097 37.6943C99.6059 37.803 99.4804 37.8888 99.3414 37.9462C99.2025 38.0035 99.053 38.0312 98.9027 38.0273C98.7524 38.0234 98.6046 37.9881 98.4688 37.9237V37.3616H98.6561C99.1011 37.3616 99.3119 37.3616 99.429 36.8463C99.5257 36.4543 99.5884 36.0547 99.6164 35.6519C99.6164 35.0897 99.6164 34.5276 99.6164 33.9655V33.5439" fill="#717070"/>
<path d="M93.0121 37.8773C92.8428 37.9549 92.6507 37.9668 92.4732 37.9105C92.2956 37.8542 92.1454 37.7338 92.0518 37.5728C91.6536 36.9639 91.2086 36.4252 90.8105 35.8397H90.6699L89.8971 36.6828V37.0576V37.971H89.2413C89.1592 36.4966 89.1592 35.0188 89.2413 33.5444H89.8034V35.8865L90.1313 35.6055C90.6699 35.0433 91.2321 34.4812 91.7473 33.8723C91.8737 33.7241 92.0423 33.6178 92.2305 33.5676C92.4188 33.5174 92.6178 33.5256 92.8013 33.5912L91.1384 35.3478L92.0518 36.6594L93.0121 37.971" fill="#717070"/>
<path d="M59.6403 34.247L59.1953 34.6218C59.0258 34.4 58.8053 34.2224 58.5525 34.1042C58.2997 33.9859 58.022 33.9305 57.7432 33.9425C57.5389 33.9503 57.3388 34.0025 57.1567 34.0955C56.9747 34.1885 56.8152 34.3202 56.6892 34.4812C56.4105 34.8077 56.2573 35.223 56.2573 35.6523C56.2573 36.0816 56.4105 36.4969 56.6892 36.8234C57.3685 37.526 58.2585 37.4791 59.2422 36.6126L59.6403 36.9405C59.3608 37.3168 58.9747 37.6005 58.5321 37.755C58.0895 37.9095 57.6107 37.9277 57.1577 37.807C56.6891 37.653 56.2811 37.355 55.9918 36.9555C55.7026 36.5559 55.5469 36.0753 55.5469 35.582C55.5469 35.0888 55.7026 34.6081 55.9918 34.2086C56.2811 33.8091 56.6891 33.511 57.1577 33.357C57.6081 33.216 58.0906 33.2143 58.542 33.3522C58.9933 33.4901 59.3925 33.7612 59.6872 34.1299" fill="#717070"/>
<path d="M45.9141 33.5439H46.523V34.3403C46.5113 34.5353 46.5113 34.7308 46.523 34.9258C46.5396 35.1937 46.6535 35.4462 46.8433 35.636C47.0331 35.8258 47.2857 35.9397 47.5535 35.9563C47.8074 35.95 48.0593 35.9106 48.303 35.8392C48.8183 35.6987 48.8886 35.5816 48.8886 35.0429V33.5439H49.4507C49.5447 35.0258 49.5447 36.5121 49.4507 37.994H48.8886V36.214C48.7612 36.2807 48.6279 36.3356 48.4904 36.3779C48.2152 36.5057 47.9155 36.572 47.6121 36.572C47.3087 36.572 47.009 36.5057 46.7338 36.3779C46.5153 36.2724 46.3261 36.1146 46.1831 35.9185C46.0401 35.7224 45.9477 35.494 45.9141 35.2537C45.9141 34.715 45.9141 34.1529 45.9141 33.5908" fill="#717070"/>
<path d="M62.4282 33.9897V37.901H61.7958V34.0365H60.25C60.25 33.8257 60.25 33.6852 60.25 33.5213C61.513 33.4272 62.7812 33.4272 64.0442 33.5213V34.0131L62.4282 33.9897Z" fill="#717070"/>
<path d="M27.2506 14.8071C27.3664 14.8071 27.481 14.8303 27.5877 14.8753C27.6944 14.9203 27.791 14.9862 27.8718 15.0692C27.9526 15.1521 28.0159 15.2505 28.0581 15.3583C28.1002 15.4662 28.1203 15.5814 28.1172 15.6971C28.1172 15.814 28.0942 15.9297 28.0494 16.0377C28.0047 16.1457 27.9392 16.2438 27.8565 16.3265C27.7739 16.4091 27.6757 16.4747 27.5678 16.5194C27.4598 16.5641 27.3441 16.5871 27.2272 16.5871C27.1063 16.5873 26.9866 16.5628 26.8754 16.5152C26.7643 16.4676 26.664 16.3978 26.5807 16.3101C26.4974 16.2225 26.4329 16.1187 26.391 16.0053C26.3491 15.8918 26.3308 15.7711 26.3372 15.6503C26.3368 15.5334 26.3607 15.4177 26.4074 15.3105C26.4541 15.2034 26.5225 15.1071 26.6084 15.0278C26.6943 14.9485 26.7958 14.888 26.9063 14.85C27.0169 14.812 27.1341 14.7974 27.2506 14.8071Z" fill="#717070"/>
<path d="M19.1406 29.1881C19.7818 27.145 21.1703 25.4191 23.0287 24.3553C24.8871 23.2915 27.0785 22.9682 29.1649 23.4499C28.3112 25.2187 26.9601 26.7001 25.277 27.7125C23.4718 28.9178 21.2964 29.4409 19.1406 29.1881Z" fill="#70706F"/>
</g>
<defs>
<clipPath id="clip0_6277_58558">
<rect width="139.497" height="43.8914" fill="white" transform="translate(0.0078125 0.754395)"/>
</clipPath>
</defs>
</svg>
