<svg width="145" height="33" viewBox="0 0 145 33" fill="none" xmlns="http://www.w3.org/2000/svg">
<g clip-path="url(#clip0_6277_58524)">
<path d="M144.539 4.38092C144.727 5.29848 144.706 5.25677 143.955 5.59042C143.839 5.647 143.738 5.72887 143.658 5.82997C143.578 5.93106 143.523 6.04877 143.495 6.17432C143.495 8.4265 143.495 10.6578 143.495 12.8892C143.489 12.9784 143.502 13.0679 143.533 13.1517C143.565 13.2354 143.614 13.3115 143.677 13.3747C143.74 13.438 143.817 13.4869 143.901 13.5183C143.984 13.5496 144.074 13.5626 144.163 13.5565C144.79 13.5565 144.644 14.057 144.644 14.4115C144.644 14.766 144.226 14.766 144.017 14.7034C143.336 14.4877 142.637 14.3341 141.929 14.2446C141.293 14.3767 140.671 14.5652 140.07 14.8077C139.84 14.8077 139.464 15.0162 139.422 14.5366C139.38 14.057 139.297 13.7024 139.944 13.6607C140.034 13.6642 140.123 13.6484 140.206 13.6144C140.289 13.5805 140.364 13.5292 140.425 13.4639C140.486 13.3987 140.533 13.3211 140.562 13.2363C140.591 13.1516 140.601 13.0616 140.592 12.9726C140.592 11.4503 140.592 9.94881 140.592 8.44736L140.466 8.30138C140.132 8.86443 139.777 9.40662 139.464 9.94881C138.566 11.4086 137.688 12.8475 136.832 14.3072C136.757 14.4616 136.637 14.5899 136.488 14.6755C136.339 14.761 136.168 14.7998 135.997 14.7868C134.973 14.7868 133.908 14.7868 132.947 14.7868C132.78 13.8484 132.801 13.8693 133.49 13.5773C133.62 13.5234 133.733 13.4379 133.821 13.3285C133.909 13.2192 133.967 13.0896 133.991 12.9517C133.991 10.7551 133.991 8.56553 133.991 6.38286C133.972 6.23561 133.918 6.09492 133.835 5.97188C133.751 5.84884 133.641 5.74681 133.511 5.67384C132.801 5.34018 132.759 5.34018 132.947 4.46433C133.658 4.4045 134.374 4.51162 135.036 4.77714C135.29 4.83985 135.555 4.83985 135.809 4.77714L137.897 4.31836C138.19 5.23591 138.106 5.36104 137.438 5.63213C137.229 5.63213 136.937 5.96579 136.937 6.13262C136.937 7.71748 136.937 9.2815 136.937 10.9081C137.25 10.4076 137.542 9.9071 137.835 9.40662C138.816 7.86346 139.652 6.46627 140.508 4.92311C140.573 4.74773 140.694 4.59897 140.853 4.50067C141.012 4.40236 141.2 4.3602 141.385 4.38092C142.43 4.38092 143.474 4.38092 144.539 4.38092Z" fill="#676C6D"/>
<path d="M109.928 14.8078C109.176 14.6618 108.424 14.5367 107.693 14.3281C107.428 14.2449 107.143 14.2449 106.878 14.3281C106.251 14.5152 105.608 14.6409 104.956 14.7035C104.869 14.6892 104.787 14.653 104.718 14.5983C104.648 14.5435 104.594 14.4721 104.56 14.3907C104.56 14.0987 104.33 13.7025 104.831 13.5357C105.729 13.2646 105.729 13.2646 105.729 12.3262V10.2408H102.283C102.283 11.1793 102.283 12.0968 102.283 12.9935C102.283 13.4523 102.659 13.5774 103.014 13.6191C103.369 13.6608 103.473 14.1196 103.473 14.4741C103.473 14.8286 103.118 14.8703 102.889 14.8286C102.209 14.599 101.51 14.4315 100.8 14.3281C100.089 14.4271 99.3896 14.5947 98.7112 14.8286C98.4815 14.8286 98.0846 14.9746 98.1055 14.495C98.1264 14.0153 97.8966 13.6817 98.5441 13.6191C99.1916 13.5566 99.3378 13.2646 99.3378 12.6807C99.129 10.6371 99.129 8.55171 99.129 6.46636C99.129 5.92416 98.9619 5.56965 98.377 5.52795C97.7922 5.48624 97.9175 4.9649 97.9175 4.61039C97.9175 4.25588 98.2935 4.29759 98.5233 4.31844C99.129 4.42271 99.7347 4.58954 100.361 4.71466C100.561 4.75627 100.767 4.75627 100.967 4.71466C101.656 4.58954 102.325 4.42271 103.056 4.31844C103.181 4.31844 103.453 4.52698 103.453 4.61039C103.453 4.69381 103.682 5.29856 103.223 5.46539C102.262 5.8199 102.262 5.8199 102.262 6.82087V8.57256H105.479L105.708 8.28061V6.19526C105.706 6.11398 105.687 6.03406 105.653 5.96028C105.618 5.8865 105.569 5.82037 105.509 5.76586C105.449 5.71135 105.378 5.66958 105.301 5.64303C105.224 5.61648 105.142 5.60571 105.061 5.61136C104.413 5.61136 104.476 5.13173 104.518 4.69381C104.56 4.25588 104.998 4.36015 105.249 4.40186C105.93 4.61649 106.629 4.77003 107.338 4.86063C108.005 4.75942 108.662 4.5989 109.301 4.381C109.531 4.381 109.969 4.15161 110.011 4.6521C110.053 5.15258 110.178 5.52795 109.489 5.59051C108.8 5.65307 108.8 5.92416 108.8 6.42465V12.5973C108.768 12.7736 108.804 12.9556 108.901 13.1065C108.997 13.2574 109.148 13.366 109.322 13.4106C110.095 13.6817 110.095 13.6817 109.928 14.7869" fill="#676C6D"/>
<path d="M73.6071 23.692V22.6284C74.3668 22.526 75.1399 22.6342 75.8421 22.9412C75.9895 23.0087 76.1498 23.0437 76.312 23.0437C76.4742 23.0437 76.6345 23.0087 76.782 22.9412C77.3829 22.7642 77.9978 22.6386 78.62 22.5659C78.7662 22.5659 79.0587 22.7536 79.0378 22.837C79.0169 22.9204 79.3093 23.5668 78.7871 23.7337C77.8263 24.0673 77.8263 24.0673 77.8263 25.11C77.8263 25.5479 77.8263 26.0067 77.8263 26.4446C77.8263 26.8826 78.077 26.82 78.2023 26.82C79.1213 26.82 80.0403 26.82 80.9385 26.82C81.0237 26.7973 81.1013 26.7526 81.1637 26.6903C81.226 26.6281 81.2708 26.5505 81.2936 26.4655C81.2936 25.819 81.2936 25.1726 81.2936 24.5053C81.2965 24.4114 81.2801 24.3179 81.2454 24.2305C81.2107 24.1432 81.1585 24.0639 81.092 23.9975C81.0255 23.931 80.946 23.8789 80.8586 23.8443C80.7711 23.8097 80.6774 23.7933 80.5834 23.7962C79.915 23.7962 80.0612 23.254 80.0821 22.8578C80.103 22.4616 80.5207 22.5242 80.7714 22.5867C81.4063 22.7888 82.0556 22.9421 82.7139 23.0455C83.3486 22.9369 83.9764 22.7907 84.5937 22.6076C85.659 22.4616 85.659 22.4825 85.5545 23.6086C84.4266 23.9214 84.4266 23.9214 84.4266 25.11C84.4266 26.8826 84.4266 28.6551 84.4266 30.4068C84.4266 31.3244 84.4266 31.3661 85.3248 31.5955C86.2229 31.8248 85.6172 32.1585 85.6381 32.4505C85.659 32.7424 85.3456 32.7841 85.2203 32.7633C84.5728 32.7633 83.9462 32.513 83.2987 32.4087C83.0288 32.3669 82.754 32.3669 82.4841 32.4087C81.8575 32.4087 81.2518 32.6798 80.6252 32.7633C80.5343 32.7523 80.4472 32.7201 80.371 32.6694C80.2949 32.6187 80.2317 32.5509 80.1866 32.4713C80.1866 32.1794 79.9568 31.7831 80.4372 31.5955C81.3771 31.2618 81.3771 31.2618 81.3771 30.24C81.3771 29.6978 81.3771 29.1556 81.3771 28.6134C81.3771 28.0712 81.3771 28.1129 80.9176 28.1129H78.2441C77.9099 28.1129 77.7637 28.2172 77.7637 28.5717C77.7637 29.2529 77.7637 29.948 77.7637 30.657C77.7637 31.1784 77.9725 31.5329 78.5156 31.5746C79.0587 31.6163 78.996 32.1168 78.996 32.4922C78.996 32.8675 78.5991 32.8258 78.3694 32.7841C77.6902 32.5575 76.9908 32.3969 76.2807 32.3045C75.5681 32.3823 74.867 32.5433 74.192 32.7841C73.9837 32.806 73.7737 32.806 73.5654 32.7841V31.6997C74.6724 31.3661 74.6724 31.3661 74.6724 30.2191V25.2351C74.6724 24.0465 74.6724 24.0465 73.4609 23.7337" fill="#676C6D"/>
<path d="M36.4675 23.691V22.6275C37.2408 22.5078 38.0322 22.6165 38.7442 22.9403C38.886 23.0017 39.0388 23.0334 39.1933 23.0334C39.3478 23.0334 39.5006 23.0017 39.6424 22.9403C40.2428 22.7612 40.8578 22.6356 41.4804 22.5649C41.5713 22.5759 41.6584 22.6081 41.7346 22.6588C41.8107 22.7095 41.8739 22.7773 41.9191 22.8569C41.9191 23.1697 42.1906 23.5868 41.6475 23.7536C40.7285 24.0038 40.7285 24.0247 40.7285 24.9631V30.6144C40.7285 31.3651 40.7285 31.5111 41.5222 31.6362C42.3159 31.7613 41.9191 32.2201 41.9399 32.5538C41.9608 32.8874 41.5849 32.8874 41.376 32.8457C40.6961 32.6218 39.9969 32.4612 39.2873 32.3661C38.5762 32.4526 37.8761 32.6133 37.1986 32.8457C37.0183 32.8693 36.8358 32.8693 36.6555 32.8457V31.7613C37.7417 31.4277 37.7417 31.4277 37.7417 30.2807V28.6542C37.7417 28.3414 37.6372 28.2162 37.3239 28.2162H34.6086C34.2744 28.2162 34.17 28.3622 34.17 28.6959C34.17 29.3632 34.17 30.0583 34.17 30.7812C34.17 31.3443 34.3788 31.6988 34.9219 31.7405C35.465 31.7822 35.3814 32.2618 35.4023 32.6163C35.4232 32.9708 35.0472 32.9917 34.7966 32.95C34.17 32.8457 33.5643 32.6789 32.9585 32.5538C32.7517 32.5122 32.5387 32.5122 32.3319 32.5538C31.6844 32.6789 31.0369 32.8457 30.3894 32.95C30.2432 32.95 29.9299 32.7623 29.9299 32.658C29.9299 32.5538 29.7002 31.9699 30.1806 31.7822C31.1205 31.4485 31.1205 31.4485 31.1205 30.4684C31.1205 28.6125 31.1205 26.7565 31.1205 24.9005C31.1205 24.2958 30.9534 23.9413 30.3268 23.8579C29.7002 23.7744 29.9299 23.2948 29.9299 22.9612C29.9299 22.6275 30.285 22.6275 30.5148 22.6692C31.1205 22.6692 31.7262 22.9612 32.3528 23.0863C32.5596 23.1278 32.7726 23.1278 32.9794 23.0863C33.6269 22.9612 34.2744 22.7943 34.9219 22.6901C35.0156 22.7011 35.1055 22.733 35.1851 22.7836C35.2647 22.8341 35.3318 22.902 35.3814 22.982C35.3814 23.2948 35.6321 23.7119 35.089 23.8787C34.17 24.129 34.17 24.1498 34.17 25.0882C34.17 25.5678 34.17 26.0475 34.17 26.5271C34.17 27.0067 34.2953 26.965 34.6086 26.965H37.2195C37.5746 26.965 37.679 26.8191 37.6581 26.5063V24.9422C37.6581 24.1498 37.6581 24.0664 36.8226 23.8787H36.4467" fill="#676C6D"/>
<path d="M86.8885 10.0113C86.3245 9.80278 85.9068 9.67766 85.5308 9.48997C85.0193 9.23352 84.6046 8.81875 84.3486 8.3076C84.0926 7.79645 84.0091 7.21634 84.1105 6.65389C84.1763 6.12368 84.4175 5.63056 84.7959 5.25278C85.1742 4.87499 85.6682 4.63418 86.1992 4.56854C86.7205 4.45195 87.2525 4.38906 87.7866 4.38086C89.8753 4.38086 91.964 4.38086 94.0527 4.38086C94.3034 4.38086 94.6167 4.38086 94.5749 4.73537C94.5331 5.08988 94.7838 5.4861 94.1572 5.56951C93.1755 5.73634 93.071 5.90317 93.071 6.90414C93.071 8.82266 93.071 10.7412 93.071 12.6597C93.0525 12.7627 93.0571 12.8685 93.0844 12.9696C93.1117 13.0706 93.1611 13.1644 93.229 13.2441C93.2968 13.3239 93.3816 13.3876 93.477 13.4308C93.5725 13.474 93.6764 13.4955 93.7812 13.4939C94.7211 13.6607 94.742 13.7232 94.5123 14.6825C93.6673 14.763 92.8153 14.6414 92.0267 14.328C91.79 14.2453 91.5323 14.2453 91.2957 14.328C90.4633 14.641 89.5692 14.7552 88.6848 14.6616V13.6398L89.5411 13.4521C89.7314 13.4467 89.912 13.3674 90.0446 13.2311C90.1772 13.0948 90.2514 12.9123 90.2513 12.7223C90.2513 12.0967 90.2513 11.4711 90.2513 10.8455C89.019 10.4284 88.3506 10.8455 88.1626 12.0133C88.1388 12.4362 88.0308 12.8503 87.845 13.2312C87.6592 13.6121 87.3993 13.9522 87.0805 14.2317C86.7616 14.5113 86.3902 14.7246 85.9878 14.8593C85.5855 14.994 85.1603 15.0473 84.7371 15.0162C84.2175 15.0188 83.7156 14.8279 83.3294 14.4809C82.9432 14.1338 82.7004 13.6555 82.6484 13.1393C82.6484 12.91 82.6484 12.6806 82.6484 12.472C82.6484 12.2635 82.6484 11.8673 83.0662 11.8673C83.4839 11.8673 83.6928 11.9924 83.6301 12.4303V12.5971C83.6301 12.9725 83.6301 13.4313 84.1314 13.473C84.3585 13.4975 84.587 13.4422 84.7776 13.3166C84.9683 13.191 85.1091 13.0029 85.1758 12.7848C85.252 12.6146 85.2877 12.429 85.2802 12.2426C85.2802 11.1791 85.4891 10.2824 86.8676 10.0113M90.2513 7.48804C90.2513 7.02926 90.2513 6.57048 90.2513 6.1117C90.2513 5.65292 90.2513 5.69463 89.8545 5.69463C89.4576 5.69463 88.9354 5.69463 88.455 5.69463C88.2632 5.68478 88.0715 5.7163 87.893 5.78705C87.7145 5.85781 87.5534 5.96613 87.4206 6.10466C87.2878 6.24318 87.1865 6.40865 87.1235 6.58979C87.0605 6.77093 87.0373 6.9635 87.0556 7.15438C87.0347 7.37633 87.0347 7.59974 87.0556 7.82169C87.0204 8.15061 87.1171 8.48005 87.3246 8.73797C87.532 8.99589 87.8333 9.1613 88.1626 9.19802C88.7388 9.26089 89.3201 9.26089 89.8962 9.19802C89.8962 9.19802 90.2095 8.96864 90.2304 8.84351C90.2304 8.36388 90.2304 7.88425 90.2304 7.38377" fill="#676C6D"/>
<path d="M56.6896 14.6825C56.5225 13.6815 56.5225 13.6607 57.4207 13.473C57.527 13.4652 57.6306 13.4362 57.7254 13.3875C57.8202 13.3389 57.9042 13.2717 57.9724 13.19C58.0406 13.1083 58.0917 13.0136 58.1225 12.9118C58.1533 12.8099 58.1632 12.7029 58.1517 12.5971V6.46621C58.1517 5.84061 57.8384 5.63207 57.2745 5.5278C56.7105 5.42354 56.627 5.5278 56.6061 5.06903C56.5852 4.61025 56.6061 4.38086 57.358 4.38086H65.5875C66.0052 4.38086 66.1723 4.50598 66.1515 4.9439C66.1515 5.92402 66.1515 6.90414 66.1515 7.98852C65.8599 8.02055 65.5657 8.02055 65.2742 7.98852C65.1074 7.92628 64.9672 7.80842 64.8773 7.65486C64.752 7.38377 64.8773 7.05011 64.6058 6.79987C64.3343 6.54963 64.1254 6.04914 63.7912 5.96573C63.0475 5.82553 62.2923 5.75571 61.5354 5.75719C61.4317 5.80261 61.34 5.87147 61.2675 5.95832C61.195 6.04517 61.1437 6.14765 61.1177 6.25768C61.0759 6.86867 61.0759 7.48179 61.1177 8.09279C61.1177 8.21791 61.3892 8.40559 61.5354 8.42644H64.1045C64.6603 8.38169 65.2168 8.50242 65.7038 8.77338C66.1908 9.04434 66.5865 9.45336 66.8407 9.94875C67.108 10.5139 67.227 11.1376 67.1869 11.7613C67.1467 12.385 66.9485 12.9884 66.611 13.5147C66.4427 13.7871 66.2139 14.0173 65.9422 14.1872C65.6706 14.3572 65.3634 14.4624 65.0444 14.4948C63.327 14.8817 61.5365 14.7952 59.8645 14.2446C59.6814 14.1841 59.4836 14.1841 59.3005 14.2446C58.497 14.5576 57.6332 14.6859 56.7732 14.6199M61.0968 9.63595V12.055C61.0968 13.2436 61.3683 13.4939 62.5589 13.3687H62.9557C63.833 13.1393 64.1672 12.6597 64.1463 11.5753C64.1254 10.4909 63.7912 10.0739 62.9349 9.90704C62.325 9.83137 61.7113 9.7896 61.0968 9.78192" fill="#676C6D"/>
<path d="M5.61701 24.2956C5.36637 23.524 4.67709 23.6909 4.15492 23.4406V22.5648C4.9611 22.4778 5.77592 22.6074 6.51515 22.9401C6.73487 22.9924 6.96382 22.9924 7.18353 22.9401C7.93547 22.7942 8.6874 22.6065 9.52288 22.3979C9.52288 22.8567 9.52288 23.1278 9.52288 23.4198C9.02159 23.7117 8.29055 23.4198 8.0399 24.2748C8.60385 24.2748 9.10514 24.2748 9.62731 24.4416C10.2011 24.4569 10.761 24.6213 11.2517 24.9187C11.7423 25.2161 12.1468 25.6361 12.4252 26.1372C12.7036 26.6384 12.8463 27.2034 12.8391 27.7764C12.832 28.3494 12.6752 28.9107 12.3844 29.4047C12.1816 29.8073 11.8869 30.1566 11.5241 30.4246C11.1613 30.6927 10.7405 30.8719 10.2957 30.9479C9.60561 31.0945 8.90847 31.2059 8.207 31.2816C8.28115 31.4782 8.41198 31.6485 8.58298 31.771C8.75397 31.8934 8.95747 31.9626 9.1678 31.9697C9.60643 31.9697 9.6482 32.2617 9.60643 32.6162C9.56465 32.9707 9.23046 32.929 9.02159 32.8873C8.33844 32.6801 7.64006 32.5267 6.93289 32.4285C6.22092 32.5101 5.52033 32.671 4.84419 32.9081C4.65738 32.9378 4.46705 32.9378 4.28024 32.9081V32.1365C4.78153 31.9697 5.44991 32.0323 5.70056 31.2816C5.42903 31.2816 5.19927 31.2816 4.96951 31.2816C4.13592 31.1354 3.31779 30.912 2.52573 30.6142C1.91821 30.3367 1.42813 29.8542 1.14163 29.2516C0.855125 28.649 0.790533 27.9648 0.959207 27.3194C0.946528 26.7732 1.10468 26.2367 1.41165 25.7844C1.71862 25.3322 2.15915 24.9867 2.67194 24.7961C3.48173 24.5858 4.30531 24.4325 5.13661 24.3373C5.31737 24.3236 5.49891 24.3236 5.67967 24.3373M8.16522 25.38V30.1138C8.53608 30.188 8.92132 30.1138 9.23783 29.907C9.55434 29.7003 9.77675 29.3775 9.85707 29.0085C9.97214 28.2762 9.97214 27.5304 9.85707 26.798C9.85707 25.8596 9.1678 25.4426 8.08168 25.38M5.57524 25.38C4.65621 25.38 4.00871 25.7137 3.88339 26.5269C3.74783 27.3276 3.74783 28.1453 3.88339 28.946C3.91556 29.1359 3.98618 29.3174 4.09094 29.4792C4.19569 29.6411 4.33238 29.7799 4.49266 29.8872C4.65295 29.9946 4.83346 30.0682 5.02318 30.1035C5.2129 30.1389 5.40785 30.1353 5.59612 30.0929L5.57524 25.38Z" fill="#676C6D"/>
<path d="M19.2772 10.4492C19.2772 11.3251 19.2772 12.1801 19.2772 13.0351C19.2772 13.1602 19.5069 13.3687 19.6114 13.3896C20.4051 13.3896 21.1779 13.3896 21.9716 13.3896C22.4043 13.3268 22.8064 13.1301 23.1212 12.827C23.436 12.524 23.6476 12.1299 23.7261 11.7004C24.0185 10.7412 24.0185 10.7412 25.0629 10.8663V14.6616H14.9744C14.7447 13.7649 14.8073 13.6398 15.6428 13.4939C15.7595 13.4838 15.8728 13.4499 15.9759 13.3944C16.0789 13.3388 16.1694 13.2628 16.2419 13.1709C16.3143 13.079 16.3671 12.9733 16.397 12.8603C16.4269 12.7473 16.4332 12.6293 16.4156 12.5137V6.77902C16.4156 5.84061 16.4156 5.73634 15.4131 5.56951C15.0789 5.56951 14.8909 5.44439 14.87 5.02732C14.8491 4.61025 15.0162 4.38086 15.5802 4.38086H25.1046V8.25962H24.7078C24.1856 8.25962 23.935 8.25962 23.8096 7.5923C23.7916 7.31051 23.7165 7.0353 23.5887 6.78337C23.461 6.53144 23.2834 6.30803 23.0666 6.12668C22.8498 5.94534 22.5984 5.80984 22.3276 5.72841C22.0568 5.64697 21.7722 5.62129 21.4912 5.65292C20.9063 5.65292 20.3424 5.65292 19.7576 5.65292C19.1727 5.65292 19.2772 5.65292 19.2981 6.09085C19.2981 6.82072 19.2981 7.5506 19.2981 8.1762C19.2981 8.489 19.4025 8.61413 19.7158 8.59327C20.6348 8.59327 21.0317 8.30132 21.157 7.34206C21.157 6.75816 21.6374 6.9667 21.9507 6.94584C22.264 6.92499 22.3267 7.23779 22.2849 7.48803C22.2431 7.73828 21.9925 8.59327 21.8672 9.15632C21.825 9.34164 21.825 9.53404 21.8672 9.71936C21.9925 10.3033 22.1596 10.8663 22.2849 11.4294C22.4102 11.9924 22.2849 11.9507 21.9507 11.909C21.6165 11.8673 21.2614 12.1175 21.157 11.5753C20.9481 10.4492 20.5095 10.1364 19.2981 10.345" fill="#676C6D"/>
<path d="M52.7783 8.30132H52.1726C51.7757 8.30132 51.6086 8.30132 51.5251 7.77998C51.5074 7.47514 51.4272 7.17717 51.2896 6.90451C51.1519 6.63184 50.9596 6.3903 50.7247 6.19482C50.4897 5.99933 50.2171 5.85408 49.9236 5.76804C49.6302 5.68201 49.3222 5.65702 49.0186 5.69463C48.4756 5.69463 47.9534 5.69463 47.4103 5.69463C46.8673 5.69463 46.9299 5.69463 46.9299 6.13256C46.9299 6.86243 46.9299 7.57145 46.9299 8.21791C46.9299 8.53071 46.9299 8.63498 47.3686 8.63498C48.2876 8.63498 48.6844 8.32218 48.8307 7.40462V7.0084H50.0003C49.8332 7.75913 49.7288 8.42644 49.5199 9.09376C49.4151 9.36195 49.4151 9.6597 49.5199 9.9279C49.7312 10.6117 49.8986 11.3082 50.0212 12.0132H48.9978L48.8724 11.4294C48.844 11.2544 48.7787 11.0875 48.6808 10.9397C48.5829 10.7918 48.4547 10.6665 48.3046 10.5718C48.1545 10.4772 47.986 10.4155 47.8102 10.3907C47.6345 10.366 47.4554 10.3788 47.285 10.4284C47.216 10.4606 47.1566 10.5103 47.1126 10.5725C47.0687 10.6346 47.0417 10.7072 47.0344 10.7829C47.0344 11.5336 47.0344 12.3052 47.0344 13.0559C47.0344 13.3687 47.1806 13.4521 47.4521 13.4313C48.1414 13.4313 48.8307 13.4313 49.5408 13.4313C50.0415 13.4377 50.5278 13.2644 50.9111 12.9429C51.2945 12.6214 51.5494 12.173 51.6295 11.6796C51.901 10.762 51.901 10.762 52.9245 10.8872V14.6616H42.7317C42.4601 13.7858 42.5437 13.6607 43.4 13.473C43.511 13.4654 43.6193 13.4352 43.7182 13.3842C43.817 13.3332 43.9044 13.2626 43.9748 13.1766C44.0453 13.0906 44.0973 12.9912 44.1278 12.8843C44.1583 12.7775 44.1665 12.6656 44.152 12.5554C44.152 10.4701 44.152 8.53071 44.152 6.52877C44.152 5.98658 43.964 5.69463 43.4 5.61122C42.8361 5.5278 42.4392 5.36098 42.7317 4.38086H52.2561C52.7365 4.38086 52.8619 4.52683 52.8619 4.98561C52.8619 6.06999 52.8619 7.07096 52.8619 8.34303" fill="#676C6D"/>
<path d="M28.9898 4.3811C29.3658 4.3811 29.7209 4.3811 30.076 4.3811C32.1647 4.3811 34.2534 4.3811 36.3421 4.3811C36.9201 4.38874 37.4845 4.55696 37.9722 4.8669C38.4598 5.17683 38.8513 5.61624 39.1029 6.13586C39.3544 6.65548 39.4561 7.23478 39.3964 7.80883C39.3367 8.38288 39.118 8.92899 38.7649 9.38595C38.5457 9.70929 38.2542 9.97741 37.9135 10.1692C37.5728 10.361 37.1922 10.4712 36.8016 10.4912C35.8617 10.4912 34.9426 10.4912 34.0027 10.4912H33.2508C33.2508 11.2419 33.2508 11.9509 33.2508 12.5765C33.2508 13.2021 33.7312 13.1604 34.1071 13.2439C35.0262 13.4315 35.0679 13.4941 34.8382 14.4325C33.9745 14.5099 33.1044 14.396 32.29 14.0988C32.0178 14.0152 31.7267 14.0152 31.4545 14.0988C30.64 14.396 29.7699 14.5099 28.9063 14.4325C28.6974 13.4524 28.7183 13.4315 29.5956 13.2439C29.7056 13.239 29.8135 13.2114 29.9123 13.1627C30.0111 13.1139 30.0986 13.0452 30.1694 12.9609C30.2401 12.8765 30.2925 12.7784 30.3231 12.6727C30.3538 12.5671 30.3621 12.4562 30.3475 12.3471C30.3475 10.2618 30.3475 8.28071 30.3475 6.25792C30.3654 6.15282 30.3606 6.04512 30.3336 5.94199C30.3065 5.83886 30.2578 5.74266 30.1906 5.6598C30.1234 5.57694 30.0393 5.50931 29.9439 5.46143C29.8485 5.41354 29.744 5.38649 29.6373 5.38207C28.7392 5.19439 28.7392 5.17354 28.9063 4.13086M33.2299 7.25889V7.9262C33.2299 9.46936 33.3552 9.57363 34.9009 9.30253C35.1314 9.29937 35.3585 9.24676 35.5669 9.14827C35.7753 9.04978 35.96 8.90771 36.1086 8.73169C36.2572 8.55567 36.3661 8.34982 36.428 8.12809C36.4899 7.90636 36.5033 7.67394 36.4674 7.44657C36.4876 7.23099 36.4628 7.01357 36.3945 6.80806C36.3263 6.60256 36.216 6.41344 36.0707 6.2527C35.9254 6.09195 35.7482 5.96308 35.5505 5.87424C35.3527 5.7854 35.1386 5.73852 34.9217 5.73658C34.5458 5.73658 34.1698 5.73658 33.8147 5.73658C33.4597 5.73658 33.3343 5.84085 33.3343 6.19536C33.3343 6.54987 33.3343 7.07121 33.3343 7.52998" fill="#676C6D"/>
<path d="M70.2036 4.38086H70.6631C73.0025 4.38086 75.3209 4.38086 77.6394 4.38086C78.2106 4.39396 78.7674 4.5628 79.2495 4.86909C79.7316 5.17538 80.1206 5.60747 80.3744 6.11859C80.6282 6.62972 80.7372 7.20041 80.6895 7.76892C80.6419 8.33743 80.4394 8.8821 80.104 9.344C79.8759 9.6907 79.5664 9.97644 79.2023 10.1764C78.8383 10.3763 78.4308 10.4843 78.0153 10.4909C77.1381 10.4909 76.2608 10.4909 75.3836 10.4909H74.4854C74.4327 11.2268 74.4327 11.9655 74.4854 12.7014C74.4854 12.9308 74.945 13.181 75.2374 13.2645C76.1564 13.5356 76.1564 13.4939 76.0729 14.4948C75.1732 14.577 74.2665 14.4559 73.4202 14.1403C73.1835 14.0577 72.9258 14.0577 72.6892 14.1403C71.8365 14.4597 70.9222 14.5809 70.0156 14.4948C70.0268 14.2864 70.0268 14.0776 70.0156 13.8692C70.0156 13.5356 70.1618 13.4313 70.4543 13.3687C71.5613 13.1185 71.5613 13.1185 71.5613 11.9507V6.61219C71.5613 6.06999 71.4151 5.71548 70.8302 5.61122C70.2454 5.50695 69.9321 5.40268 70.0992 4.38086M74.4019 7.52974C74.4019 7.98852 74.4019 8.46815 74.4019 8.92693C74.4019 9.38571 74.6108 9.32314 74.7152 9.32314C75.2635 9.38532 75.817 9.38532 76.3653 9.32314C77.1799 9.13546 77.5141 8.57242 77.5141 7.5923C77.5141 6.61219 77.159 6.1117 76.3444 5.92402C75.8883 5.85039 75.4277 5.80858 74.9658 5.7989C74.5481 5.7989 74.3601 5.90317 74.381 6.36194C74.4019 6.82072 74.381 7.19609 74.381 7.63401" fill="#676C6D"/>
<path d="M117.41 8.42651H118.684C119.556 8.41565 120.428 8.45743 121.294 8.55163C121.883 8.64657 122.417 8.94939 122.801 9.40489C123.184 9.8604 123.391 10.4383 123.383 11.0332C123.404 11.5507 123.362 12.0689 123.258 12.5764C123.184 13.0228 122.977 13.4367 122.664 13.764C122.351 14.0914 121.947 14.317 121.503 14.4115C120.015 14.7764 118.46 14.7764 116.971 14.4115C116.289 14.2098 115.564 14.2098 114.882 14.4115C114.394 14.5176 113.898 14.5804 113.399 14.5992C113.149 14.5992 112.919 14.5991 112.961 14.2655C113.002 13.9318 112.773 13.619 113.211 13.4731C114.444 13.056 114.444 13.0351 114.444 11.7214V6.61225C114.444 5.84067 114.444 5.69469 113.587 5.59043C112.731 5.48616 112.877 5.31933 112.919 4.81884C112.961 4.31836 113.211 4.38092 113.545 4.38092L115.739 4.79799C115.959 4.83974 116.186 4.83974 116.407 4.79799L118.496 4.38092C118.746 4.38092 119.06 4.38092 118.997 4.75628C118.934 5.13165 119.227 5.50701 118.621 5.54872L118.057 5.65299C117.944 5.6603 117.834 5.69107 117.733 5.74334C117.633 5.7956 117.544 5.8682 117.474 5.95651C117.403 6.04482 117.351 6.1469 117.322 6.25621C117.293 6.36553 117.287 6.47969 117.305 6.59139C117.305 7.17529 117.305 7.78005 117.305 8.44736M117.305 9.69857V12.2844C117.305 13.056 117.535 13.3062 118.308 13.3688C118.619 13.4213 118.936 13.4213 119.248 13.3688C120.041 13.1603 120.375 12.6806 120.396 11.7422C120.417 10.8038 120.125 10.1573 119.31 9.96967C118.618 9.86835 117.921 9.80569 117.222 9.78198" fill="#676C6D"/>
<path d="M9.45879 14.3286C8.2322 15.0017 6.80945 15.2283 5.43399 14.9696C4.05853 14.7109 2.81586 13.9831 1.91859 12.9106C1.26068 11.8578 0.931235 10.6334 0.972147 9.39314C1.01306 8.1529 1.42248 6.95282 2.14834 5.9455C2.55933 5.42769 3.07094 4.9982 3.65242 4.68283C4.23391 4.36747 4.87326 4.17276 5.53204 4.11039C6.19581 4.01404 6.87218 4.05111 7.52141 4.21943C8.17063 4.38774 8.77962 4.6839 9.31258 5.09051C9.35725 4.92135 9.44008 4.76463 9.55473 4.63235C9.66939 4.50006 9.81283 4.39572 9.97409 4.32729C10.1353 4.25887 10.3101 4.22818 10.4851 4.23757C10.6601 4.24696 10.8306 4.29619 10.9835 4.38149V8.55219H9.73032C9.54489 7.82342 9.26397 7.12225 8.89485 6.46684C8.6509 6.10603 8.31162 5.81973 7.91464 5.6397C7.51765 5.45968 7.07847 5.39296 6.64582 5.44696C6.21317 5.50095 5.80395 5.67354 5.46356 5.94559C5.12318 6.21764 4.86492 6.57852 4.71744 6.98818C4.36614 7.79416 4.18484 8.66374 4.18484 9.54274C4.18484 10.4217 4.36614 11.2913 4.71744 12.0973C4.89421 12.595 5.23194 13.0198 5.67735 13.3047C6.12275 13.5895 6.65047 13.7182 7.17724 13.6704C7.70401 13.6226 8.19984 13.401 8.58649 13.0406C8.97315 12.6803 9.22861 12.2016 9.31258 11.6802C9.58412 10.721 9.58412 10.721 10.5867 10.7418H11.0044V14.8083C10.4196 14.8083 9.79299 15.0585 9.47968 14.2661" fill="#676C6D"/>
<path d="M63.1399 32.9715C62.5342 32.8256 61.9494 32.7422 61.4063 32.5545C61.272 32.4927 61.126 32.4607 60.9781 32.4607C60.8303 32.4607 60.6842 32.4927 60.5499 32.5545C59.9876 32.7322 59.4158 32.8784 58.8372 32.9924C58.6074 32.0957 58.6492 31.9914 59.3176 31.6369C59.8302 31.3638 60.2133 30.8988 60.3828 30.344C61.2183 27.925 62.0956 25.506 62.9311 23.087C62.9403 23.0008 62.9681 22.9176 63.0124 22.8431C63.0567 22.7685 63.1165 22.7043 63.1878 22.6549C63.2591 22.6055 63.3402 22.5719 63.4257 22.5565C63.5111 22.5411 63.5989 22.5442 63.683 22.5656H65.5837C66.0432 22.5656 66.2312 22.5656 66.3565 23.1078C67.1293 25.6102 67.9439 28.1127 68.7167 30.6151C68.9674 31.3658 69.2807 31.9914 70.2833 31.8037V32.8881C69.4353 32.9469 68.5852 32.8114 67.7977 32.4919C67.5667 32.4184 67.3186 32.4184 67.0876 32.4919C66.2987 32.805 65.4484 32.9334 64.602 32.8673V31.908H64.7064C65.1451 31.908 65.7926 31.908 65.8552 31.4492C65.8385 30.8607 65.7109 30.2806 65.4793 29.7392L65.1451 29.6141H62.5342C62.286 30.1189 62.0765 30.6417 61.9076 31.1781C61.8032 31.5744 62.2 31.6786 62.5133 31.7829C63.307 31.9914 63.307 31.9914 63.1399 33.0341M62.8057 28.2795H65.1033C64.7691 27.1951 64.4558 26.1941 64.1216 25.1723H63.9754L62.8057 28.2586" fill="#676C6D"/>
<path d="M47.4117 26.5064H46.3047V22.5859H56.2887V26.4855H55.2652C55.119 25.6723 55.119 24.7339 54.2626 24.2542C53.8092 24.0641 53.3413 23.9107 52.8632 23.7954C52.8632 24.0874 52.8632 24.2334 52.8632 24.3793V30.6354C52.8632 31.1776 53.0303 31.5112 53.5943 31.6155C54.4924 31.8032 54.4924 31.8449 54.3044 32.8042C53.4768 32.8769 52.6431 32.7702 51.8606 32.4914C51.5928 32.4283 51.3139 32.4283 51.046 32.4914L48.6231 32.971C48.3307 31.9492 48.3934 31.8241 49.2289 31.6572C49.6466 31.553 50.0226 31.4278 50.0226 30.8856V24.004C48.7276 23.6495 47.9339 24.4628 47.5788 26.5064" fill="#676C6D"/>
<path d="M21.0509 22.2522C21.7142 22.1901 22.3831 22.2696 23.0133 22.4853C23.6435 22.7011 24.2205 23.0481 24.7062 23.5034C25.3044 24.1265 25.7049 24.9123 25.8572 25.7619C26.0096 26.6115 25.9071 27.4872 25.5625 28.2788C25.2706 29.0536 24.7429 29.7177 24.0536 30.1777C23.3643 30.6377 22.548 30.8707 21.7193 30.8438C20.641 30.9694 19.5483 30.8187 18.5445 30.4059C18.0428 30.2043 17.5938 29.891 17.2318 29.4899C16.8698 29.0887 16.6044 28.6103 16.4558 28.0912C16.1392 27.3991 16.0182 26.6337 16.1059 25.8779C16.1937 25.1222 16.4868 24.4047 16.9536 23.8034C17.4205 23.202 18.0432 22.7395 18.7543 22.4661C19.4655 22.1927 20.238 22.1187 20.9883 22.2522M22.8054 26.548C22.8054 26.1935 22.8054 25.839 22.8054 25.4845C22.8054 25.13 22.8054 25.1091 22.8054 24.9423C22.7923 24.7641 22.7439 24.5902 22.6632 24.4308C22.5824 24.2713 22.4709 24.1294 22.335 24.0131C22.1992 23.8968 22.0416 23.8085 21.8714 23.7532C21.7012 23.698 21.5218 23.6768 21.3434 23.6911C20.1946 23.6911 19.6933 23.9204 19.5889 24.8797C19.4744 26.0029 19.4744 27.1348 19.5889 28.258C19.5889 29.1755 20.1946 29.4466 21.2389 29.4466C21.4201 29.4669 21.6036 29.451 21.7786 29.3999C21.9536 29.3489 22.1167 29.2637 22.2586 29.1492C22.4004 29.0348 22.518 28.8934 22.6047 28.7333C22.6914 28.5731 22.7455 28.3974 22.7637 28.2163C22.7637 27.6741 22.889 27.111 22.9517 26.548" fill="#676C6D"/>
<path d="M130.101 14.6616C129.2 14.7379 128.293 14.6096 127.449 14.2863C127.23 14.2237 126.999 14.2237 126.78 14.2863C125.956 14.6024 125.071 14.7306 124.19 14.6616C123.94 13.7858 124.002 13.6607 124.88 13.473C124.993 13.4682 125.103 13.44 125.204 13.3902C125.306 13.3404 125.396 13.2702 125.468 13.1839C125.541 13.0976 125.595 12.9972 125.627 12.889C125.658 12.7808 125.667 12.6672 125.653 12.5554C125.653 10.4701 125.653 8.53071 125.653 6.52877C125.653 5.86146 125.506 5.73634 124.671 5.56951C124.42 5.56951 124.107 5.56951 124.086 5.13159C124.065 4.69366 124.086 4.3183 124.817 4.40171C125.6 4.61151 126.395 4.77171 127.198 4.88134C127.967 4.763 128.727 4.59583 129.475 4.38086C130.164 4.38086 130.227 4.38086 130.143 5.08988C130.143 5.23585 129.913 5.40268 129.767 5.50695C129.571 5.57055 129.367 5.6125 129.162 5.63207C128.991 5.66273 128.84 5.75808 128.738 5.89808C128.637 6.03808 128.594 6.21183 128.618 6.3828V12.7223C128.607 12.9291 128.677 13.1323 128.814 13.2882C128.95 13.4441 129.143 13.5404 129.35 13.5564C130.227 13.7441 130.227 13.7441 130.101 14.7451" fill="#676C6D"/>
<path d="M95.2846 26.1525C95.6188 25.6103 95.953 25.0472 96.3081 24.5259C96.3542 24.4812 96.3908 24.4277 96.4159 24.3686C96.4409 24.3095 96.4538 24.246 96.4538 24.1818C96.4538 24.1176 96.4409 24.0541 96.4159 23.995C96.3908 23.9359 96.3542 23.8824 96.3081 23.8377C95.9739 23.4832 95.6815 23.1078 95.3682 22.7325C96.6214 22.232 96.8511 23.4206 97.4569 24.0045C97.4569 23.5041 97.4569 23.1078 97.4569 22.6908H98.3968C98.3968 23.087 98.3968 23.4832 98.3968 23.9837C99.1278 23.4832 99.3367 22.2111 100.611 22.7325C100.297 23.1078 100.005 23.4832 99.6709 23.8377C99.6248 23.8824 99.5881 23.9359 99.5631 23.995C99.5381 24.0541 99.5252 24.1176 99.5252 24.1818C99.5252 24.246 99.5381 24.3095 99.5631 24.3686C99.5881 24.4277 99.6248 24.4812 99.6709 24.5259C100.026 25.0472 100.36 25.6103 100.694 26.1525C99.462 26.6947 99.2949 25.5686 98.6056 24.797C98.4826 25.1123 98.3984 25.4415 98.355 25.7771C98.355 26.1942 98.1879 26.2776 97.8119 26.2776C97.436 26.2776 97.3315 26.1525 97.3315 25.798C97.3077 25.5054 97.2223 25.2211 97.0809 24.9638C96.4543 25.5477 96.3081 26.6947 94.9922 26.1525" fill="#676C6D"/>
<path d="M112.494 32.3669C111.575 32.5129 111.575 32.5129 111.575 31.6579V30.5526H111.429L110.614 31.7413L109.779 30.5318H109.653V31.6787C109.653 32.4712 109.653 32.492 108.734 32.3252V28.8843C109.653 28.6967 109.674 28.6967 110.113 29.4265C110.259 29.6559 110.426 29.8853 110.614 30.1981C110.886 29.781 111.115 29.4474 111.303 29.1137C111.491 28.7801 111.993 28.8009 112.348 28.8426C112.703 28.8843 112.557 29.2389 112.557 29.4474C112.557 30.3441 112.557 31.2616 112.557 32.1792L112.494 32.3669Z" fill="#676C6D"/>
<path d="M137.436 1.77458C137.824 1.99585 138.263 2.11224 138.71 2.11224C139.157 2.11224 139.596 1.99585 139.984 1.77458C139.984 1.62861 139.775 1.52434 139.796 1.42007C139.817 1.3158 139.796 0.71105 139.921 0.502515C140.031 0.398968 140.165 0.325375 140.312 0.288846C140.458 0.252317 140.611 0.254085 140.757 0.29398C140.896 0.366798 141.018 0.470296 141.112 0.596705C141.206 0.723114 141.27 0.86915 141.3 1.02385C141.336 1.38734 141.276 1.75395 141.126 2.08698C140.975 2.42002 140.74 2.7078 140.443 2.92152C140.051 3.22546 139.583 3.41709 139.09 3.47587C138.597 3.53464 138.097 3.45836 137.644 3.25518C137.233 3.11766 136.871 2.86251 136.604 2.52143C136.337 2.18035 136.175 1.76837 136.141 1.33666C136.141 0.877879 136.141 0.419101 136.663 0.29398C136.815 0.259545 136.974 0.260436 137.126 0.296585C137.278 0.332733 137.419 0.403178 137.54 0.502515C137.916 0.836172 137.812 1.2741 137.54 1.64946L137.436 1.77458Z" fill="#676C6D"/>
<path d="M24.6225 31.6364V32.8459H23.9959H18.2519C17.5 32.8459 17.5 32.8459 17.5 32.0744C17.5 31.9284 17.5 31.7824 17.5 31.5947L24.6225 31.6364Z" fill="#676C6D"/>
<path d="M103.938 26.1933V22.6691H104.857V24.4416H105.024C105.316 24.0037 105.65 23.5658 105.922 23.107C105.974 22.9892 106.049 22.883 106.142 22.7947C106.236 22.7064 106.347 22.6378 106.467 22.5931C106.588 22.5483 106.717 22.5283 106.846 22.5342C106.974 22.5401 107.101 22.5718 107.217 22.6274C107.217 23.7118 107.217 24.8379 107.217 25.9431C107.217 25.9431 106.674 26.1516 106.277 26.2976V24.3582H106.152C105.805 24.8057 105.485 25.2721 105.191 25.7554C105.137 25.8637 105.063 25.9604 104.972 26.04C104.881 26.1195 104.776 26.1804 104.661 26.2192C104.547 26.2579 104.426 26.2737 104.305 26.2657C104.185 26.2577 104.067 26.226 103.958 26.1725" fill="#676C6D"/>
<path d="M124.07 22.67H125.01V24.4843H125.177C125.47 24.0463 125.825 23.6293 126.096 23.1496C126.144 23.0308 126.216 22.9227 126.306 22.8318C126.397 22.7409 126.504 22.6691 126.623 22.6205C126.742 22.5719 126.869 22.5475 126.998 22.5489C127.126 22.5502 127.253 22.5772 127.37 22.6283V26.1108C126.556 26.3402 126.451 26.2777 126.451 25.4435V24.4008H126.305C125.95 24.9013 125.616 25.4227 125.24 25.9023C125.123 26.0607 124.964 26.1834 124.78 26.2568C124.175 26.2568 124.07 26.2568 124.07 25.6521V22.67Z" fill="#676C6D"/>
<path d="M118.927 26.3198C118.675 26.3341 118.423 26.2965 118.187 26.2094C117.95 26.1223 117.734 25.9875 117.552 25.8134C117.369 25.6394 117.225 25.4297 117.127 25.1975C117.03 24.9653 116.981 24.7156 116.985 24.4638C116.985 23.9494 117.189 23.4562 117.553 23.0924C117.918 22.7287 118.412 22.5244 118.927 22.5244C119.442 22.5244 119.936 22.7287 120.301 23.0924C120.665 23.4562 120.87 23.9494 120.87 24.4638C120.87 24.7138 120.819 24.9613 120.72 25.191C120.621 25.4207 120.477 25.6279 120.295 25.7997C120.113 25.9716 119.898 26.1045 119.663 26.1903C119.427 26.2762 119.177 26.3131 118.927 26.2989M119.888 24.4638C119.894 24.2031 119.8 23.9498 119.625 23.756C119.451 23.5621 119.208 23.4423 118.948 23.4211C118.684 23.4319 118.434 23.5443 118.251 23.7348C118.068 23.9252 117.966 24.179 117.966 24.4429C117.966 24.6974 118.067 24.9413 118.248 25.1212C118.428 25.3011 118.672 25.4022 118.927 25.4022C119.182 25.4022 119.426 25.3011 119.606 25.1212C119.787 24.9413 119.888 24.6974 119.888 24.4429" fill="#676C6D"/>
<path d="M103.515 32.4712C103.253 32.4989 102.988 32.4713 102.737 32.3901C102.487 32.309 102.256 32.1761 102.06 32.0001C101.864 31.8241 101.707 31.6089 101.6 31.3685C101.493 31.1282 101.438 30.868 101.438 30.6048C101.438 30.3417 101.493 30.0815 101.6 29.8412C101.707 29.6008 101.864 29.3856 102.06 29.2096C102.256 29.0336 102.487 28.9007 102.737 28.8196C102.988 28.7384 103.253 28.7108 103.515 28.7385C103.767 28.7263 104.019 28.7672 104.254 28.8586C104.489 28.9499 104.702 29.0897 104.879 29.2687C105.056 29.4477 105.194 29.6619 105.283 29.8975C105.372 30.1332 105.41 30.3848 105.395 30.6361C105.396 30.888 105.344 31.1373 105.244 31.3685C105.144 31.5998 104.997 31.8079 104.813 31.9801C104.629 32.1522 104.411 32.2847 104.174 32.3692C103.936 32.4537 103.683 32.4884 103.432 32.4712M104.413 30.6361C104.425 30.5061 104.409 30.375 104.367 30.2513C104.325 30.1277 104.258 30.0141 104.169 29.918C104.081 29.8218 103.973 29.7451 103.854 29.6928C103.734 29.6405 103.604 29.6138 103.473 29.6143C103.347 29.6081 103.22 29.6288 103.102 29.6751C102.983 29.7214 102.876 29.7922 102.787 29.8829C102.699 29.9735 102.63 30.082 102.586 30.201C102.542 30.3201 102.525 30.4471 102.534 30.5736C102.534 30.8224 102.633 31.0611 102.809 31.2371C102.985 31.4131 103.224 31.512 103.473 31.512C103.723 31.512 103.962 31.4131 104.138 31.2371C104.314 31.0611 104.413 30.8224 104.413 30.5736" fill="#676C6D"/>
<path d="M131.835 29.6353C131.271 29.6353 130.791 29.6353 130.31 29.6353C130.185 29.6353 130.06 29.8021 129.934 29.9064C129.809 30.0106 130.185 30.1775 130.331 30.1775C130.478 30.1775 131.188 30.1775 131.585 30.1775C131.793 30.8239 131.752 30.9073 131.146 30.9282C130.889 30.9074 130.63 30.9074 130.373 30.9282C130.217 30.9987 130.075 31.0977 129.955 31.2201C130.102 31.2201 130.248 31.5121 130.394 31.5329C130.769 31.5642 131.147 31.5642 131.522 31.5329C131.856 31.5329 131.919 31.6789 131.919 31.9709C131.919 32.2628 131.919 32.3671 131.543 32.3671C130.812 32.3671 130.081 32.3671 129.454 32.3671C129.367 32.3516 129.285 32.3122 129.219 32.2533C129.152 32.1944 129.104 32.1183 129.078 32.0334C129.078 31.0742 129.078 30.094 129.078 29.1348C129.078 29.0097 129.266 28.7803 129.371 28.7803H131.919L131.835 29.6353Z" fill="#676C6D"/>
<path d="M119.076 32.3879H118.115V29.6769H116.841V32.3879H115.922V28.8428H119.076V32.3879Z" fill="#676C6D"/>
<path d="M124.697 32.3872V30.3019C124.697 29.572 124.697 29.5512 123.882 29.6763C123.778 30.3227 123.736 30.9692 123.59 31.5948C123.579 31.7311 123.538 31.8633 123.471 31.9822C123.403 32.1012 123.311 32.2039 123.199 32.2834C123.088 32.3628 122.96 32.417 122.826 32.4422C122.691 32.4673 122.553 32.4628 122.42 32.4289C122.295 32.4289 122.086 32.2621 122.086 32.1787C122.086 32.0953 122.086 31.6991 122.253 31.6782C122.754 31.5531 122.775 31.1777 122.796 30.8024C122.817 30.427 122.901 29.5095 122.942 28.8213H125.637V32.3664L124.697 32.3872Z" fill="#676C6D"/>
<path d="M96.4944 30.1771C97.0584 29.6558 97.4761 29.197 97.9565 28.8216C98.4369 28.4462 98.4996 28.8216 98.9173 28.8216C98.636 29.1909 98.3362 29.5459 98.0192 29.8851C97.9373 29.9429 97.8705 30.0195 97.8244 30.1084C97.7783 30.1973 97.7542 30.2959 97.7542 30.3961C97.7542 30.4962 97.7783 30.5948 97.8244 30.6837C97.8705 30.7726 97.9373 30.8492 98.0192 30.907C98.3952 31.3449 98.6667 31.8454 99.0635 32.4084C98.5623 32.4084 98.1236 32.6378 97.7685 32.2207C97.4135 31.8037 97.2881 31.5326 97.0375 31.1572C96.39 31.3866 96.6824 31.9496 96.5362 32.3459C95.7007 32.5961 95.6172 32.5335 95.6172 31.6785C95.6172 30.8236 95.6172 30.0728 95.6172 29.2804C95.6172 28.8842 95.7843 28.8216 96.1394 28.8216C96.4944 28.8216 96.6406 28.8216 96.6198 29.3012C96.5972 29.5997 96.5972 29.8995 96.6198 30.1979" fill="#676C6D"/>
<path d="M135.992 32.4085H135.156V28.8634C135.449 28.8634 135.866 28.5714 136.034 29.0511C136.088 29.4245 136.088 29.8038 136.034 30.1772C136.848 29.6558 137.099 28.4046 138.394 28.8842C138.101 29.2179 137.872 29.5307 137.579 29.8227C137.287 30.1146 137.12 30.4691 137.579 30.907C138.039 31.345 138.227 31.8454 138.603 32.3876C138.101 32.3876 137.642 32.617 137.308 32.2C136.973 31.7829 136.827 31.4909 136.577 31.1573C135.929 31.3658 136.221 31.9497 136.054 32.4085" fill="#676C6D"/>
<path d="M111.033 22.6699H113.749C113.749 23.796 113.749 24.8804 113.749 25.9648C113.749 26.069 113.435 26.2567 113.289 26.2359C113.143 26.215 112.851 26.069 112.851 25.9439C112.851 25.2975 112.851 24.651 112.851 23.9837C112.851 23.7126 112.851 23.4832 112.433 23.4832C112.015 23.4832 111.952 23.6083 111.911 23.9628C111.885 24.5179 111.808 25.0694 111.681 25.6103C111.655 25.7351 111.602 25.8531 111.528 25.9567C111.453 26.0603 111.358 26.1472 111.248 26.212C111.138 26.2767 111.016 26.3179 110.889 26.3328C110.762 26.3476 110.633 26.336 110.511 26.2984L110.219 26.0482C110.219 25.9022 110.219 25.5894 110.344 25.5686C110.992 25.4017 110.929 24.8595 110.971 24.4008C111.012 23.942 110.971 23.2747 110.971 22.6699" fill="#676C6D"/>
<path d="M144.579 31.7201C144.332 32.0553 143.981 32.3001 143.581 32.417C143.181 32.5338 142.754 32.516 142.365 32.3665C141.986 32.2273 141.663 31.9689 141.445 31.6303C141.226 31.2918 141.124 30.8914 141.153 30.4897C141.17 30.1035 141.308 29.7322 141.548 29.4289C141.788 29.1256 142.118 28.9057 142.49 28.8006C142.866 28.6541 143.282 28.6449 143.664 28.7746C144.046 28.9043 144.37 29.1646 144.579 29.5096L143.973 29.9892C143.837 29.884 143.69 29.7932 143.534 29.7181C143.351 29.6177 143.137 29.5877 142.934 29.6338C142.73 29.6799 142.55 29.7989 142.427 29.9684C142.292 30.1566 142.218 30.3828 142.218 30.6148C142.218 30.8469 142.292 31.0731 142.427 31.2613C142.486 31.3479 142.561 31.422 142.649 31.4793C142.737 31.5367 142.835 31.5762 142.938 31.5956C143.04 31.615 143.146 31.6139 143.249 31.5923C143.351 31.5707 143.448 31.5291 143.534 31.4698C144.015 31.1362 144.307 31.3447 144.642 31.7201" fill="#676C6D"/>
<path d="M126.64 21.6685C126.614 21.8713 126.51 22.0563 126.35 22.1845C126.191 22.3128 125.988 22.3744 125.784 22.3566C125.577 22.3749 125.371 22.3139 125.208 22.186C125.045 22.0582 124.937 21.8731 124.906 21.6685H126.64Z" fill="#676C6D"/>
</g>
<defs>
<clipPath id="clip0_6277_58524">
<rect width="143.682" height="32.7817" fill="white" transform="translate(0.960938 0.210449)"/>
</clipPath>
</defs>
</svg>
