<svg width="26" height="20" viewBox="0 0 26 20" fill="none" xmlns="http://www.w3.org/2000/svg">
<path fill-rule="evenodd" clip-rule="evenodd" d="M1.42717 0H24.5681C25.3547 0 25.9953 0.708333 25.9953 1.57812V18.4167C25.9953 19.2812 25.3547 19.9896 24.5728 19.9948H1.42246C0.64058 20 0 19.2865 0 18.4219V1.57812C0 0.708333 0.64058 0 1.42717 0Z" fill="black"/>
<path fill-rule="evenodd" clip-rule="evenodd" d="M0 6.6665H26V18.4217C26 19.2915 25.3594 19.9998 24.5728 19.9998H1.42717C0.64058 19.9998 0 19.2915 0 18.4217V6.6665Z" fill="#DD0000"/>
<path fill-rule="evenodd" clip-rule="evenodd" d="M0 13.3335H26V18.422C26 19.2866 25.3594 19.995 24.5775 20.0002H1.42717C1.04905 19.9988 0.68676 19.8321 0.419381 19.5364C0.152003 19.2408 0.00124181 18.8402 0 18.422L0 13.3335Z" fill="#FFCE00"/>
</svg>
