<svg width="127" height="40" viewBox="0 0 127 40" fill="none" xmlns="http://www.w3.org/2000/svg">
<g clip-path="url(#clip0_6184_30384)">
<path d="M19.8968 19.4144H8.94391L6.54903 25.2938H0L10.8224 0.62994H18.4894L29.3117 25.2881H22.2463L19.8968 19.4144ZM10.3456 15.4305H18.5121L14.6474 5.7602H14.2614L10.3456 15.4305Z" fill="#C61F39"/>
<path d="M41.1513 25.2881H34.625V0.62994H47.7174C49.4313 0.62994 50.9692 0.811542 52.3426 1.17475C53.7103 1.53795 54.868 2.06573 55.8214 2.74674C56.7691 3.42775 57.5012 4.26198 58.012 5.23242C58.5227 6.20286 58.7781 7.3095 58.7781 8.54099C58.7781 9.32982 58.6532 10.0789 58.4035 10.8053C58.1482 11.5261 57.785 12.1957 57.3026 12.803C56.8202 13.4102 56.2243 13.9493 55.5206 14.4204C54.8169 14.8857 54.0167 15.2659 53.1257 15.5497L59.6918 25.2881H52.2972L46.4859 16.3556H41.1513V25.2881ZM41.1513 12.3887H46.8775C48.5346 12.3887 49.8172 12.0595 50.7252 11.3955C51.6332 10.7372 52.0872 9.80653 52.0872 8.60909C52.0872 8.03023 51.9623 7.50245 51.7183 7.03142C51.4743 6.56039 51.1224 6.15746 50.6684 5.8283C50.2144 5.49915 49.6583 5.24377 49.0056 5.06784C48.3473 4.89192 47.6209 4.80112 46.815 4.80112H41.157V12.3887H41.1513Z" fill="#C61F39"/>
<path d="M77.6111 0.612899C79.9265 0.612899 81.9979 0.885302 83.8083 1.42443C85.6243 1.96357 87.1509 2.75807 88.3994 3.80229C89.6479 4.8465 90.5957 6.12339 91.2483 7.62728C91.9066 9.13685 92.2301 10.8564 92.2301 12.7802C92.2301 14.7835 91.9066 16.5655 91.2596 18.1205C90.6127 19.6755 89.665 20.9807 88.4164 22.042C87.1679 23.1032 85.6413 23.9091 83.8253 24.4595C82.0093 25.01 79.9379 25.2881 77.6054 25.2881H65.3359V0.612899H77.6111ZM71.8679 20.8786H76.5782C79.4725 20.8786 81.6972 20.1976 83.2521 18.8355C84.8071 17.4735 85.5846 15.4816 85.5846 12.8654C85.5846 11.6225 85.3803 10.5159 84.966 9.53978C84.5574 8.56367 83.9672 7.74079 83.1954 7.07113C82.4236 6.40147 81.4815 5.89071 80.3635 5.54453C79.2455 5.19835 77.9857 5.02243 76.5726 5.02243H71.8623V20.8786H71.8679Z" fill="#C61F39"/>
<path d="M112.022 0C114.326 0 116.397 0.300779 118.242 0.908011C120.086 1.50957 121.652 2.37218 122.952 3.49017C124.246 4.60816 125.245 5.9645 125.943 7.56487C126.641 9.16524 126.987 10.9642 126.987 12.9562C126.987 14.9595 126.641 16.7642 125.949 18.3645C125.256 19.9649 124.263 21.3212 122.969 22.4392C121.675 23.5572 120.098 24.4141 118.247 25.0214C116.397 25.6229 114.32 25.9294 112.016 25.9294C109.695 25.9294 107.612 25.6286 105.762 25.0214C103.912 24.4198 102.34 23.5572 101.041 22.4392C99.7467 21.3212 98.7479 19.9649 98.0499 18.3645C97.3519 16.7642 97 14.9595 97 12.9562C97 10.9642 97.3519 9.16524 98.0556 7.56487C98.7593 5.9645 99.7638 4.60248 101.069 3.47882C102.374 2.35515 103.952 1.49822 105.802 0.896661C107.663 0.300779 109.735 0 112.022 0ZM112.022 4.5287C110.756 4.5287 109.61 4.72733 108.588 5.11891C107.567 5.51049 106.693 6.07232 105.967 6.80441C105.24 7.53082 104.678 8.4218 104.281 9.46034C103.884 10.5046 103.685 11.6679 103.685 12.9562C103.685 14.2444 103.878 15.4078 104.27 16.4407C104.656 17.4792 105.212 18.3645 105.933 19.0966C106.653 19.8287 107.527 20.3962 108.554 20.7991C109.582 21.1964 110.739 21.395 112.022 21.395C113.287 21.395 114.434 21.1964 115.455 20.7991C116.477 20.4019 117.351 19.8344 118.077 19.0966C118.804 18.3645 119.36 17.4792 119.751 16.4407C120.143 15.4021 120.336 14.2444 120.336 12.9562C120.336 11.6679 120.143 10.5046 119.751 9.46034C119.365 8.41613 118.804 7.53082 118.077 6.80441C117.351 6.07232 116.477 5.51617 115.455 5.11891C114.434 4.72166 113.293 4.5287 112.022 4.5287Z" fill="#C61F39"/>
<path d="M34.5609 37.7846C35.276 38.0513 36.3259 38.2783 37.4325 38.2783C39.067 38.2783 40.026 37.7506 40.026 36.9901C40.026 36.2807 39.3621 35.8778 37.6879 35.4862C35.6619 35.0492 34.4134 34.4079 34.4134 33.341C34.4134 32.1606 36.0138 31.2867 38.4257 31.2867C39.6969 31.2867 40.6162 31.4683 41.1667 31.6555L40.7241 32.45C40.3211 32.3138 39.4926 32.0925 38.3689 32.0925C36.6777 32.0925 36.0308 32.7111 36.0308 33.2275C36.0308 33.9369 36.7856 34.2831 38.4938 34.686C40.5935 35.1797 41.6548 35.7983 41.6548 36.9106C41.6548 38.0797 40.236 39.0899 37.3134 39.0899C36.1159 39.0899 34.8107 38.8742 34.1523 38.6075L34.5609 37.7846Z" fill="#C61F39"/>
<path d="M46.2057 32.2401H42.4375V31.4115H51.6141V32.2401H47.8231V38.9764H46.2057V32.2401Z" fill="#C61F39"/>
<path d="M54.5922 31.4115V35.8891C54.5922 37.586 55.8237 38.301 57.4808 38.301C59.3195 38.301 60.4999 37.5576 60.4999 35.8891V31.4115H62.1173V35.821C62.1173 38.1421 60.114 39.0955 57.4297 39.0955C54.893 39.0955 52.9805 38.2102 52.9805 35.8607V31.4058H54.5922V31.4115Z" fill="#C61F39"/>
<path d="M64.8945 31.5137C65.8706 31.4229 67.0284 31.3548 68.2996 31.3548C70.598 31.3548 72.2381 31.6782 73.322 32.2968C74.423 32.9154 75.0699 33.7894 75.0699 35.0152C75.0699 36.2467 74.4457 37.2625 73.288 37.9549C72.1302 38.6642 70.2177 39.0445 67.8058 39.0445C66.6652 39.0445 65.7117 39.0104 64.9002 38.9537V31.5137H64.8945ZM66.4949 38.2046C66.8978 38.25 67.488 38.2613 68.1123 38.2613C71.5344 38.2613 73.3901 37.0922 73.3901 35.0492C73.4071 33.2673 71.7557 32.1322 68.3677 32.1322C67.5391 32.1322 66.9149 32.1776 66.4892 32.2344V38.2046H66.4949Z" fill="#C61F39"/>
<path d="M78.7488 31.4115V38.9764H77.1484V31.4115H78.7488Z" fill="#C61F39"/>
<path d="M92.136 35.1173C92.136 37.7222 89.5425 39.1012 86.3815 39.1012C83.107 39.1012 80.8086 37.5519 80.8086 35.2649C80.8086 32.8643 83.2545 31.2923 86.5631 31.2923C89.9511 31.2867 92.136 32.87 92.136 35.1173ZM82.5168 35.2365C82.5168 36.8539 83.9526 38.3011 86.4723 38.3011C89.0091 38.3011 90.4449 36.8766 90.4449 35.1571C90.4449 33.6532 89.1566 32.0812 86.4893 32.0812C83.8448 32.0868 82.5168 33.5794 82.5168 35.2365Z" fill="#C61F39"/>
</g>
<defs>
<clipPath id="clip0_6184_30384">
<rect width="126.991" height="39.1012" fill="white"/>
</clipPath>
</defs>
</svg>
