<svg width="160" height="160" viewBox="0 0 160 160" fill="none" xmlns="http://www.w3.org/2000/svg">
<rect width="160" height="160" fill="#C5072B"/>
<g clip-path="url(#clip0_7301_49093)">
<path d="M31.1134 80.4835H18.8328L16.1476 87.0756H8.80469L20.939 59.4219H29.5354L41.6697 87.0692H33.7477L31.1134 80.4835ZM20.4045 76.0166H29.5609L25.2276 65.174H24.795L20.4045 76.0166Z" fill="white"/>
<path d="M54.9425 87.0692H47.625V59.4219H62.3045C64.2261 59.4219 65.9505 59.6255 67.4903 60.0327C69.0238 60.44 70.3219 61.0317 71.3909 61.7953C72.4535 62.5588 73.2743 63.4942 73.847 64.5823C74.4197 65.6704 74.706 66.9112 74.706 68.2919C74.706 69.1764 74.566 70.0163 74.286 70.8308C73.9997 71.6389 73.5925 72.3897 73.0516 73.0706C72.5108 73.7514 71.8426 74.3559 71.0536 74.884C70.2646 75.4058 69.3674 75.8321 68.3684 76.1503L75.7305 87.0692H67.4394L60.9237 77.0538H54.9425V87.0692V87.0692ZM54.9425 72.6061H61.3628C63.2208 72.6061 64.6588 72.237 65.6769 71.4925C66.695 70.7544 67.204 69.7109 67.204 68.3683C67.204 67.7193 67.064 67.1275 66.7904 66.5994C66.5168 66.0712 66.1223 65.6195 65.6133 65.2504C65.1042 64.8813 64.4806 64.595 63.7489 64.3978C63.0108 64.2005 62.1963 64.0987 61.2928 64.0987H54.9488V72.6061H54.9425Z" fill="white"/>
<path d="M95.8257 59.4033C98.4218 59.4033 100.744 59.7087 102.774 60.3132C104.81 60.9177 106.522 61.8085 107.922 62.9793C109.322 64.1501 110.384 65.5818 111.116 67.268C111.854 68.9606 112.217 70.8886 112.217 73.0456C112.217 75.2918 111.854 77.2898 111.129 79.0332C110.403 80.7767 109.341 82.2402 107.941 83.4301C106.541 84.62 104.829 85.5235 102.793 86.1407C100.757 86.758 98.4345 87.0697 95.8193 87.0697H82.0625V59.4033H95.8257ZM89.3863 82.1257H94.6676C97.9128 82.1257 100.407 81.3621 102.151 79.835C103.894 78.3079 104.766 76.0744 104.766 73.1411C104.766 71.7476 104.537 70.5068 104.072 69.4124C103.614 68.3179 102.952 67.3953 102.087 66.6444C101.222 65.8936 100.165 65.3209 98.9118 64.9328C97.6583 64.5446 96.2457 64.3474 94.6613 64.3474H89.38V82.1257H89.3863Z" fill="white"/>
<path d="M134.405 58.7158C136.989 58.7158 139.311 59.0531 141.379 59.7339C143.447 60.4084 145.203 61.3756 146.661 62.6291C148.111 63.8826 149.231 65.4034 150.014 67.1977C150.797 68.9921 151.185 71.0092 151.185 73.2426C151.185 75.4887 150.797 77.5122 150.02 79.3066C149.244 81.1009 148.13 82.6217 146.68 83.8752C145.229 85.1287 143.46 86.0895 141.386 86.7704C139.311 87.4449 136.982 87.7885 134.399 87.7885C131.797 87.7885 129.461 87.4512 127.387 86.7704C125.313 86.0959 123.55 85.1287 122.093 83.8752C120.642 82.6217 119.522 81.1009 118.74 79.3066C117.957 77.5122 117.562 75.4887 117.562 73.2426C117.562 71.0092 117.957 68.9921 118.746 67.1977C119.535 65.4034 120.661 63.8762 122.125 62.6164C123.588 61.3565 125.357 60.3957 127.432 59.7212C129.519 59.0531 131.841 58.7158 134.405 58.7158ZM134.405 63.7935C132.986 63.7935 131.701 64.0162 130.556 64.4553C129.41 64.8943 128.431 65.5243 127.616 66.3451C126.802 67.1595 126.172 68.1585 125.726 69.323C125.281 70.4938 125.058 71.7982 125.058 73.2426C125.058 74.687 125.274 75.9914 125.714 77.1495C126.146 78.3139 126.77 79.3066 127.578 80.1274C128.386 80.9482 129.366 81.5845 130.518 82.0363C131.669 82.4817 132.967 82.7044 134.405 82.7044C135.824 82.7044 137.11 82.4817 138.255 82.0363C139.4 81.5909 140.38 80.9546 141.195 80.1274C142.009 79.3066 142.633 78.3139 143.072 77.1495C143.511 75.9851 143.727 74.687 143.727 73.2426C143.727 71.7982 143.511 70.4938 143.072 69.323C142.639 68.1522 142.009 67.1595 141.195 66.3451C140.38 65.5243 139.4 64.9007 138.255 64.4553C137.11 64.0099 135.831 63.7935 134.405 63.7935Z" fill="white"/>
<path d="M47.5597 101.081C48.3614 101.38 49.5386 101.634 50.7794 101.634C52.6119 101.634 53.6873 101.042 53.6873 100.19C53.6873 99.3944 52.9428 98.9426 51.0657 98.5036C48.7941 98.0136 47.3943 97.2946 47.3943 96.0983C47.3943 94.7748 49.1886 93.7949 51.8929 93.7949C53.3182 93.7949 54.349 93.9985 54.9662 94.2085L54.4699 95.0993C54.0182 94.9466 53.0892 94.6985 51.8293 94.6985C49.9331 94.6985 49.2077 95.392 49.2077 95.9711C49.2077 96.7665 50.054 97.1546 51.9693 97.6064C54.3236 98.16 55.5135 98.8535 55.5135 100.101C55.5135 101.411 53.9227 102.544 50.6458 102.544C49.3032 102.544 47.8397 102.302 47.1016 102.003L47.5597 101.081Z" fill="white"/>
<path d="M60.6157 94.8636H56.3906V93.9346H66.6796V94.8636H62.4291V102.416H60.6157V94.8636V94.8636Z" fill="white"/>
<path d="M70.018 93.9351V98.9555C70.018 100.858 71.3988 101.66 73.2568 101.66C75.3184 101.66 76.6419 100.826 76.6419 98.9555V93.9351H78.4554V98.8791C78.4554 101.482 76.2093 102.551 73.1995 102.551C70.3553 102.551 68.2109 101.558 68.2109 98.9237V93.9287H70.018V93.9351Z" fill="white"/>
<path d="M81.5703 94.0493C82.6648 93.9474 83.9628 93.8711 85.3881 93.8711C87.9652 93.8711 89.8041 94.2338 91.0194 94.9274C92.2538 95.6209 92.9792 96.6008 92.9792 97.9752C92.9792 99.356 92.2793 100.495 90.9812 101.271C89.6832 102.067 87.5388 102.493 84.8345 102.493C83.5556 102.493 82.4866 102.455 81.5767 102.391V94.0493H81.5703ZM83.3647 101.551C83.8165 101.602 84.4782 101.615 85.1781 101.615C89.0151 101.615 91.0958 100.304 91.0958 98.0134C91.1149 96.0154 89.2632 94.7428 85.4645 94.7428C84.5355 94.7428 83.8356 94.7937 83.3583 94.8574V101.551H83.3647Z" fill="white"/>
<path d="M97.0991 93.9346V102.416H95.3047V93.9346H97.0991Z" fill="white"/>
<path d="M112.115 98.0905C112.115 101.011 109.207 102.557 105.663 102.557C101.991 102.557 99.4141 100.82 99.4141 98.2559C99.4141 95.5643 102.157 93.8018 105.866 93.8018C109.665 93.7954 112.115 95.5707 112.115 98.0905ZM101.329 98.2241C101.329 100.038 102.939 101.66 105.764 101.66C108.609 101.66 110.218 100.063 110.218 98.135C110.218 96.4488 108.774 94.6862 105.783 94.6862C102.818 94.6926 101.329 96.3661 101.329 98.2241Z" fill="white"/>
</g>
<defs>
<clipPath id="clip0_7301_49093">
<rect width="142.385" height="43.8412" fill="white" transform="translate(8.80469 58.7158)"/>
</clipPath>
</defs>
</svg>
