<svg width="140" height="49" fill="none" xmlns="http://www.w3.org/2000/svg"><g clip-path="url(#clip0_6277_58485)"><path d="M135.426 7.372l-5.12 4.532.096.256 5.884-2.467-.86-2.32zM83.678 2.536a44.481 44.481 0 01-5.57 1.02c-1.965.266-3.163 2.83-3.463 4.919-.865-2.346-2.536-3.67-5.767-2.902-1.74.42-4.348 1.659-6.338 1.862-.884.092-1.773-.039-2.724-.034l-.13.121c.85.484 2.163 1.5 3.637 1.586 2.898.17 5.13-1.712 7.4-1.678 1.449 0 3.168.039 3.787 2.815l.217-.102c.387-3.53 2.792-4.183 3.816-4.391 1.618-.329 4.27-.368 5.995-1.127 2.144-.943 2.207-2.955 2.487-4.077h-.135c-.594.929-1.744 1.582-3.212 2.022v-.034zM15.086 44.349h-.82l-1.45 1.934V44.35h-.734v1.934l-1.473-1.934h-.807l1.522 1.934-1.59 2.104h.822l1.526-2.065v2.094h.705v-2.094l1.531 2.094h.826l-1.589-2.108 1.531-1.96zm1.976 2.868v-2.834h-.71v4.033h.628l2.13-2.839v2.863h.7v-4.057h-.627l-2.12 2.834zm4.951-2.026c-.179 2.418-.59 2.563-.903 2.524v.701c.802.116 1.328-.266 1.57-2.611l.077-.76h1.184v3.386h.7v-4.048h-2.56l-.068.807zm6.135-.871a2.032 2.032 0 00-2.116 2.08 2.015 2.015 0 001.298 1.952 2 2 0 00.818.127 2.037 2.037 0 002.115-2.08 2.014 2.014 0 00-1.297-1.952 2.01 2.01 0 00-.818-.127zm0 3.497A1.362 1.362 0 0126.79 46.4a1.365 1.365 0 011.66-1.278 1.36 1.36 0 011.04 1.087 1.362 1.362 0 01-1.343 1.608zm5.313-3.589c.638 0 1.111-.329 1.13-.827h-.656c0 .252-.203.334-.483.334-.28 0-.45-.106-.483-.334h-.657c.058.493.463.827 1.159.827h-.01zm-1.091 3.023v-2.868h-.706v4.033h.628l2.13-2.839v2.863h.71v-4.057h-.622l-2.14 2.868zm9.443-2.868h-.85l-1.599 1.934v-1.934h-.715v4.033h.715v-2.08l1.657 2.08h.903l-1.773-2.157 1.662-1.876zm3.232 1.905a.965.965 0 00.58-.919c0-.556-.368-.996-1.334-.996-.41 0-.966 0-1.174.03v4.018c.237 0 .759.029 1.13.029.86 0 1.508-.382 1.508-1.209a.91.91 0 00-.7-.953h-.01zm-1.203-1.242h.444c.382 0 .638.173.638.483a.53.53 0 01-.378.514.535.535 0 01-.226.018h-.483l.005-1.016zm.483 2.732a4.38 4.38 0 01-.483-.03V46.68h.483c.45 0 .71.174.71.513 0 .338-.242.585-.725.585h.015zm4.168-3.385l-1.729 4.023h.72l.42-1.03h1.734l.425 1.03h.759l-1.715-4.043-.614.02zm-.3 2.35l.595-1.451.594 1.45h-1.188zm4.986-2.35h-1.155v4.033h.715v-1.45h.527a1.337 1.337 0 001.488-1.307c-.015-.662-.392-1.296-1.59-1.296l.015.02zm.067 1.934a4.538 4.538 0 01-.483-.029v-1.253h.513c.483 0 .748.203.748.624s-.372.644-.792.644l.014.014zm2.31-1.282h1.313v3.386h.715v-3.386h1.319v-.662h-3.347v.662zm5.38-.672l-1.714 4.043h.72l.42-1.03h1.734l.425 1.03h.763l-1.715-4.043h-.632zm-.299 2.35l.594-1.45.594 1.45h-1.188zm4.285-1.532c-.18 2.418-.59 2.563-.904 2.524v.701c.802.116 1.329-.266 1.565-2.611l.082-.76h1.184v3.386h.71v-4.048h-2.56l-.077.807zm8.694.841h-1.855v-1.65h-.715v4.034h.715v-1.721h1.855v1.721h.71v-4.033h-.71v1.649zm3.609-1.659l-1.72 4.043h.72l.425-1.03h1.734l.425 1.03h.758l-1.714-4.043h-.628zm-.305 2.35l.6-1.45.593 1.45H76.92zm7.753-.454l-1.386-1.886h-.72v4.033h.71v-2.901l1.295 1.774h.106l1.28-1.794v2.902h.71v-4.014h-.681l-1.314 1.886zm5.507-1.935a2.038 2.038 0 00-1.962 1.27 2.037 2.037 0 00-.15.81 2.015 2.015 0 001.295 1.951c.26.1.538.143.817.128a2.035 2.035 0 001.97-1.267c.104-.257.156-.533.15-.812a2.019 2.019 0 00-1.298-1.966 2.013 2.013 0 00-.822-.128v.014zm0 3.497a1.367 1.367 0 01-1.102-2.16 1.365 1.365 0 011.405-.534 1.36 1.36 0 011.04 1.086 1.361 1.361 0 01-1.343 1.608zm5.376 0a1.346 1.346 0 01-1.4-1.417 1.303 1.303 0 011.323-1.417c.325-.01.645.084.912.27l.32-.526a1.845 1.845 0 00-1.232-.407 2.074 2.074 0 00-1.92 1.284 2.076 2.076 0 00.45 2.267 2.074 2.074 0 001.47.608c.475.019.939-.144 1.299-.454l-.27-.532c-.276.202-.61.31-.952.31v.014zm5.7-3.434h-.86l-1.604 1.935v-1.935h-.729v4.034h.71v-2.08l1.662 2.08h.903l-1.773-2.157 1.691-1.877zm3.227 1.906a.964.964 0 00.579-.92c0-.555-.362-.995-1.333-.995-.406 0-.966 0-1.169.029v4.018c.237 0 .758.03 1.13.03.86 0 1.507-.382 1.507-1.21a.912.912 0 00-.714-.967v.015zm-1.213-1.243h.449c.382 0 .638.174.638.484a.528.528 0 01-.186.394.532.532 0 01-.418.123h-.483V45.06zm.483 2.732a4.533 4.533 0 01-.483-.029V46.68h.507c.445 0 .706.174.706.513 0 .338-.261.585-.74.585l.01.014zm3.686-1.068h1.449v-.663h-1.449v-1.016h1.637v-.662h-2.347v4.033h2.415v-.662h-1.696l-.009-1.03zm2.999 0h1.449v-.663h-1.449v.663zm4.121-2.317h-1.155v4.033h.71v-1.45h.532a1.335 1.335 0 001.482-1.306c-.009-.677-.386-1.31-1.579-1.31l.01.033zm.062 1.935a4.47 4.47 0 01-.483-.03v-1.267h.513c.482 0 .748.203.748.624s-.367.644-.787.644l.009.029zm3.623.396h1.449v-.677h-1.449v-1.016h1.638v-.662h-2.353v4.033h2.416v-.662h-1.696l-.005-1.016zm6.386-2.355h-.86l-1.599 1.934v-1.934h-.715v4.033h.715v-2.08l1.657 2.08h.903l-1.772-2.157 1.671-1.876zm2.019 2.326h1.449v-.648h-1.449v-1.016h1.633v-.662h-2.348v4.033h2.415v-.662h-1.69l-.01-1.045zM8.123 23.534H5.138v-8.1h5.415l1.386 4.947v.048h.41v-5.48H.009v.45l2.512.034V34.7l-2.512.068v.411h6.936c4.169 0 6.652-2.162 6.652-5.803 0-3.763-1.942-5.842-5.473-5.842zm-2.985.483l2.154.03c2.309.033 3.686 2.084 3.686 5.484 0 4.43-2.208 5.087-4.126 5.17H5.138V24.016zm32.154-9.067h-7.815v.338l2.477.174v19.205l-2.415.169h-.062v.339h7.883v-.34l-2.797-.14v-8.163h1.555c4.12 0 6.68-2.152 6.68-5.62 0-3.897-1.903-5.962-5.506-5.962zm2.86 6.103c0 3.313-1.392 4.996-4.13 4.996h-1.45V15.433h1.904c2.367 0 3.675 1.993 3.675 5.62zM58.21 15.4l2.638.033V34.7l-2.637.068v.411h7.898v-.445l-2.642-.034V15.433h4.999l1.483 5.325.014.053h.406V14.95H58.211v.45zm21.651-.773c-5.024 0-8.4 4.294-8.4 10.687 0 5.963 3.275 10.127 7.956 10.127 5.414 0 8.337-5.91 8.337-11.471 0-5.658-3.097-9.343-7.893-9.343zm4.99 10c0 3.105-.522 10.335-5.338 10.335-2.502 0-5.178-2.727-5.178-10.368 0-6.287 1.797-9.484 5.338-9.484 4.28 0 5.178 5.19 5.178 9.532v-.014zm12.525-.328c1.536-.484 3.913-1.857 3.913-4.498 0-3.177-2.073-4.836-5.986-4.836h-6.936v.344l2.609.169v19.19l-2.609.174v.338h7.637c4.024 0 6.429-2.161 6.429-5.803s-3.087-4.884-5.057-5.078zm-3.787.189v-9.054h1.14c2.415 0 3.782 1.722 3.782 4.72 0 2.902-1.174 4.353-3.492 4.353l-1.43-.02zm6.13 4.995c0 3.211-1.58 5.209-4.13 5.209h-2V24.98h1.14c3.497 0 4.99 1.35 4.99 4.512v-.01zm13.111-14.856c-5.024 0-8.4 4.294-8.4 10.687 0 5.963 3.27 10.127 7.955 10.127 5.415 0 8.338-5.91 8.338-11.471 0-5.658-3.097-9.343-7.893-9.343zm4.989 10.015c0 3.105-.521 10.335-5.337 10.335-2.502 0-5.178-2.728-5.178-10.369 0-6.287 1.797-9.483 5.337-9.483 4.261-.015 5.178 5.174 5.178 9.517zm21.685-9.282v-.41h-7.932v.45l2.642.033v3.013l-7.844 12.328v-15.34l2.637-.073v-.411h-7.898v.45l2.643.033V34.7l-2.643.068v.411h7.898v-.445l-2.637-.034v-3.119l7.844-12.327V34.7l-2.642.068v.411h7.932v-.445l-2.643-.034V15.433l2.643-.072zM25.689 34.7h-5.642V24.462l2.739.087.671 4.01.01.053h.459v-8.99h-.324l-.85 4.245-2.705.112v-8.546h5.448l1.401 4.203h.435V14.95h-12.51v.343l2.608.17v19.204l-2.609.174v.338h12.57l.45-4.749.004-.053-.333-.107-1.821 4.43zm28.734 0h-5.642V24.462l2.739.087.671 4.01.01.053h.459v-8.99h-.324l-.855 4.245-2.7.112v-8.546h5.449l1.396 4.203h.434V14.95H43.555v.343l2.608.17v19.204l-2.608.174v.338h12.563l.455-4.749.004-.053-.338-.107-1.816 4.43z" fill="#fff"/><path d="M135.426 7.372l-5.12 4.532.096.256 5.884-2.467-.86-2.32zM83.678 2.536a44.481 44.481 0 01-5.57 1.02c-1.965.266-3.163 2.83-3.463 4.919-.865-2.346-2.536-3.67-5.767-2.902-1.74.42-4.348 1.659-6.338 1.862-.884.092-1.773-.039-2.724-.034l-.13.121c.85.484 2.163 1.5 3.637 1.586 2.898.17 5.13-1.712 7.4-1.678 1.449 0 3.168.039 3.787 2.815l.217-.102c.387-3.53 2.792-4.183 3.816-4.391 1.618-.329 4.27-.368 5.995-1.127 2.144-.943 2.207-2.955 2.487-4.077h-.135c-.594.929-1.744 1.582-3.212 2.022v-.034zM15.086 44.349h-.82l-1.45 1.934V44.35h-.734v1.934l-1.473-1.934h-.807l1.522 1.934-1.59 2.104h.822l1.526-2.065v2.094h.705v-2.094l1.531 2.094h.826l-1.589-2.108 1.531-1.96zm1.976 2.868v-2.834h-.71v4.033h.628l2.13-2.839v2.863h.7v-4.057h-.627l-2.12 2.834zm4.951-2.026c-.179 2.418-.59 2.563-.903 2.524v.701c.802.116 1.328-.266 1.57-2.611l.077-.76h1.184v3.386h.7v-4.048h-2.56l-.068.807zm6.135-.871a2.032 2.032 0 00-2.116 2.08 2.015 2.015 0 001.298 1.952 2 2 0 00.818.127 2.037 2.037 0 002.115-2.08 2.014 2.014 0 00-1.297-1.952 2.01 2.01 0 00-.818-.127zm0 3.497A1.362 1.362 0 0126.79 46.4a1.365 1.365 0 011.66-1.278 1.36 1.36 0 011.04 1.087 1.362 1.362 0 01-1.343 1.608zm5.313-3.589c.638 0 1.111-.329 1.13-.827h-.656c0 .252-.203.334-.483.334-.28 0-.45-.106-.483-.334h-.657c.058.493.463.827 1.159.827h-.01zm-1.091 3.023v-2.868h-.706v4.033h.628l2.13-2.839v2.863h.71v-4.057h-.622l-2.14 2.868zm9.443-2.868h-.85l-1.599 1.934v-1.934h-.715v4.033h.715v-2.08l1.657 2.08h.903l-1.773-2.157 1.662-1.876zm3.232 1.905a.965.965 0 00.58-.919c0-.556-.368-.996-1.334-.996-.41 0-.966 0-1.174.03v4.018c.237 0 .759.029 1.13.029.86 0 1.508-.382 1.508-1.209a.91.91 0 00-.7-.953h-.01zm-1.203-1.242h.444c.382 0 .638.173.638.483a.53.53 0 01-.378.514.535.535 0 01-.226.018h-.483l.005-1.016zm.483 2.732a4.38 4.38 0 01-.483-.03V46.68h.483c.45 0 .71.174.71.513 0 .338-.242.585-.725.585h.015zm4.168-3.385l-1.729 4.023h.72l.42-1.03h1.734l.425 1.03h.759l-1.715-4.043-.614.02zm-.3 2.35l.595-1.451.594 1.45h-1.188zm4.986-2.35h-1.155v4.033h.715v-1.45h.527a1.337 1.337 0 001.488-1.307c-.015-.662-.392-1.296-1.59-1.296l.015.02zm.067 1.934a4.538 4.538 0 01-.483-.029v-1.253h.513c.483 0 .748.203.748.624s-.372.644-.792.644l.014.014zm2.31-1.282h1.313v3.386h.715v-3.386h1.319v-.662h-3.347v.662zm5.38-.672l-1.714 4.043h.72l.42-1.03h1.734l.425 1.03h.763l-1.715-4.043h-.632zm-.299 2.35l.594-1.45.594 1.45h-1.188zm4.285-1.532c-.18 2.418-.59 2.563-.904 2.524v.701c.802.116 1.329-.266 1.565-2.611l.082-.76h1.184v3.386h.71v-4.048h-2.56l-.077.807zm8.694.841h-1.855v-1.65h-.715v4.034h.715v-1.721h1.855v1.721h.71v-4.033h-.71v1.649zm3.609-1.659l-1.72 4.043h.72l.425-1.03h1.734l.425 1.03h.758l-1.714-4.043h-.628zm-.305 2.35l.6-1.45.593 1.45H76.92zm7.753-.454l-1.386-1.886h-.72v4.033h.71v-2.901l1.295 1.774h.106l1.28-1.794v2.902h.71v-4.014h-.681l-1.314 1.886zm5.507-1.935a2.038 2.038 0 00-1.962 1.27 2.037 2.037 0 00-.15.81 2.015 2.015 0 001.295 1.951c.26.1.538.143.817.128a2.035 2.035 0 001.97-1.267c.104-.257.156-.533.15-.812a2.019 2.019 0 00-1.298-1.966 2.013 2.013 0 00-.822-.128v.014zm0 3.497a1.367 1.367 0 01-1.102-2.16 1.365 1.365 0 011.405-.534 1.36 1.36 0 011.04 1.086 1.361 1.361 0 01-1.343 1.608zm5.376 0a1.346 1.346 0 01-1.4-1.417 1.303 1.303 0 011.323-1.417c.325-.01.645.084.912.27l.32-.526a1.845 1.845 0 00-1.232-.407 2.074 2.074 0 00-1.92 1.284 2.076 2.076 0 00.45 2.267 2.074 2.074 0 001.47.608c.475.019.939-.144 1.299-.454l-.27-.532c-.276.202-.61.31-.952.31v.014zm5.7-3.434h-.86l-1.604 1.935v-1.935h-.729v4.034h.71v-2.08l1.662 2.08h.903l-1.773-2.157 1.691-1.877zm3.227 1.906a.964.964 0 00.579-.92c0-.555-.362-.995-1.333-.995-.406 0-.966 0-1.169.029v4.018c.237 0 .758.03 1.13.03.86 0 1.507-.382 1.507-1.21a.912.912 0 00-.714-.967v.015zm-1.213-1.243h.449c.382 0 .638.174.638.484a.528.528 0 01-.186.394.532.532 0 01-.418.123h-.483V45.06zm.483 2.732a4.533 4.533 0 01-.483-.029V46.68h.507c.445 0 .706.174.706.513 0 .338-.261.585-.74.585l.01.014zm3.686-1.068h1.449v-.663h-1.449v-1.016h1.637v-.662h-2.347v4.033h2.415v-.662h-1.696l-.009-1.03zm2.999 0h1.449v-.663h-1.449v.663zm4.121-2.317h-1.155v4.033h.71v-1.45h.532a1.335 1.335 0 001.482-1.306c-.009-.677-.386-1.31-1.579-1.31l.01.033zm.062 1.935a4.47 4.47 0 01-.483-.03v-1.267h.513c.482 0 .748.203.748.624s-.367.644-.787.644l.009.029zm3.623.396h1.449v-.677h-1.449v-1.016h1.638v-.662h-2.353v4.033h2.416v-.662h-1.696l-.005-1.016zm6.386-2.355h-.86l-1.599 1.934v-1.934h-.715v4.033h.715v-2.08l1.657 2.08h.903l-1.772-2.157 1.671-1.876zm2.019 2.326h1.449v-.648h-1.449v-1.016h1.633v-.662h-2.348v4.033h2.415v-.662h-1.69l-.01-1.045zM8.123 23.534H5.138v-8.1h5.415l1.386 4.947v.048h.41v-5.48H.009v.45l2.512.034V34.7l-2.512.068v.411h6.936c4.169 0 6.652-2.162 6.652-5.803 0-3.763-1.942-5.842-5.473-5.842zm-2.985.483l2.154.03c2.309.033 3.686 2.084 3.686 5.484 0 4.43-2.208 5.087-4.126 5.17H5.138V24.016zm32.154-9.067h-7.815v.338l2.477.174v19.205l-2.415.169h-.062v.339h7.883v-.34l-2.797-.14v-8.163h1.555c4.12 0 6.68-2.152 6.68-5.62 0-3.897-1.903-5.962-5.506-5.962zm2.86 6.103c0 3.313-1.392 4.996-4.13 4.996h-1.45V15.433h1.904c2.367 0 3.675 1.993 3.675 5.62zM58.21 15.4l2.638.033V34.7l-2.637.068v.411h7.898v-.445l-2.642-.034V15.433h4.999l1.483 5.325.014.053h.406V14.95H58.211v.45zm21.651-.773c-5.024 0-8.4 4.294-8.4 10.687 0 5.963 3.275 10.127 7.956 10.127 5.414 0 8.337-5.91 8.337-11.471 0-5.658-3.097-9.343-7.893-9.343zm4.99 10c0 3.105-.522 10.335-5.338 10.335-2.502 0-5.178-2.727-5.178-10.368 0-6.287 1.797-9.484 5.338-9.484 4.28 0 5.178 5.19 5.178 9.532v-.014zm12.525-.328c1.536-.484 3.913-1.857 3.913-4.498 0-3.177-2.073-4.836-5.986-4.836h-6.936v.344l2.609.169v19.19l-2.609.174v.338h7.637c4.024 0 6.429-2.161 6.429-5.803s-3.087-4.884-5.057-5.078zm-3.787.189v-9.054h1.14c2.415 0 3.782 1.722 3.782 4.72 0 2.902-1.174 4.353-3.492 4.353l-1.43-.02zm6.13 4.995c0 3.211-1.58 5.209-4.13 5.209h-2V24.98h1.14c3.497 0 4.99 1.35 4.99 4.512v-.01zm13.111-14.856c-5.024 0-8.4 4.294-8.4 10.687 0 5.963 3.27 10.127 7.955 10.127 5.415 0 8.338-5.91 8.338-11.471 0-5.658-3.097-9.343-7.893-9.343zm4.989 10.015c0 3.105-.521 10.335-5.337 10.335-2.502 0-5.178-2.728-5.178-10.369 0-6.287 1.797-9.483 5.337-9.483 4.261-.015 5.178 5.174 5.178 9.517zm21.685-9.282v-.41h-7.932v.45l2.642.033v3.013l-7.844 12.328v-15.34l2.637-.073v-.411h-7.898v.45l2.643.033V34.7l-2.643.068v.411h7.898v-.445l-2.637-.034v-3.119l7.844-12.327V34.7l-2.642.068v.411h7.932v-.445l-2.643-.034V15.433l2.643-.072zM25.689 34.7h-5.642V24.462l2.739.087.671 4.01.01.053h.459v-8.99h-.324l-.85 4.245-2.705.112v-8.546h5.448l1.401 4.203h.435V14.95h-12.51v.343l2.608.17v19.204l-2.609.174v.338h12.57l.45-4.749.004-.053-.333-.107-1.821 4.43zm28.734 0h-5.642V24.462l2.739.087.671 4.01.01.053h.459v-8.99h-.324l-.855 4.245-2.7.112v-8.546h5.449l1.396 4.203h.434V14.95H43.555v.343l2.608.17v19.204l-2.608.174v.338h12.563l.455-4.749.004-.053-.338-.107-1.816 4.43z" fill="#3B3B3B"/></g><defs><clipPath id="clip0_6277_58485"><path fill="#fff" transform="translate(.008 .548)" d="M0 0h139.497v48.151H0z"/></clipPath></defs></svg>