<svg width="140" height="22" fill="none" xmlns="http://www.w3.org/2000/svg"><g clip-path="url(#clip0_6277_58586)" fill="#676C6D"><path d="M8.776 16.883v-7.2l-3.862 7.2H.008l5.194-8.358L.43.51h4.55l3.796 7.108V.509h3.996v7.108L16.568.509h4.55l-4.772 8.016 5.195 8.358h-4.906l-3.863-7.2v7.2H8.776z"/><path d="M21.188 5.573h4.129l2.73 6.064 2.286-6.064h3.708l-7.148 16.215h-3.84l2.974-6.563-4.84-9.652zm13.757 11.31V5.573h3.574v4.61l2.975-4.61h4.373l-4.062 5.314 4.417 5.996h-4.506l-3.197-5.02v5.02h-3.574zm21.959-1.317a5.54 5.54 0 01-2.03 1.373 5.435 5.435 0 01-2.41.353 5.436 5.436 0 01-2.41-.353 5.54 5.54 0 01-2.03-1.373 6.432 6.432 0 01-1.398-4.36 6.426 6.426 0 011.487-4.315 5.542 5.542 0 012.03-1.374 5.436 5.436 0 012.41-.352 5.435 5.435 0 012.41.352 5.542 5.542 0 012.03 1.374 6.449 6.449 0 011.51 4.315 6.45 6.45 0 01-1.51 4.36m-6.016-2.067c.175.273.416.494.7.642.285.147.602.216.92.198.322.015.641-.054.928-.201a1.9 1.9 0 00.715-.639c.4-.684.593-1.474.555-2.27a3.79 3.79 0 00-.577-2.272 1.99 1.99 0 00-.707-.635 1.94 1.94 0 00-1.827 0c-.282.15-.525.368-.707.635a3.953 3.953 0 00-.577 2.271c-.043.8.159 1.594.577 2.271zm9.191-7.926h7.348c.232.04.457.116.666.227.215.13.416.282.6.455.228.197.398.457.488.749.121.358.181.734.177 1.113a2.683 2.683 0 01-.373 1.685 2.588 2.588 0 01-1.314 1.085c.218.054.427.138.622.25.255.116.488.278.688.477.269.235.469.542.577.886.16.435.235.898.222 1.362.02.563-.11 1.12-.377 1.613a2.033 2.033 0 01-1.022.885 6.067 6.067 0 01-.998.296h-7.37l.066-11.083zm3.419 4.429h1.465c.688 0 1.043-.341 1.043-1 0-.658-.355-.976-1.043-.976h-1.465v1.976zm0 4.405h1.576a1.087 1.087 0 00.866-.272c.181-.213.276-.49.266-.772a1.113 1.113 0 00-.31-.84 1.246 1.246 0 00-.822-.273h-1.576v2.157zm7.991 2.476V5.573h3.574v4.61l2.975-4.61H82.5l-4.063 5.314 4.418 5.996H78.35l-3.197-5.02v5.02h-3.574zm19.444-9.924V5.574h3.419v11.354h-3.419v-1.385a3.784 3.784 0 01-1.388 1.301 3.682 3.682 0 01-1.83.448 4.029 4.029 0 01-1.83-.423 4.126 4.126 0 01-1.456-1.212 7.04 7.04 0 01-1.31-4.542 8.704 8.704 0 01.267-2.271 7.323 7.323 0 01.888-1.726c.341-.6.841-1.087 1.443-1.408a3.99 3.99 0 012.086-.545 3.687 3.687 0 011.788.49 3.79 3.79 0 011.342 1.304zm-1.998 6.972c.298.006.594-.058.863-.188.27-.13.506-.322.691-.562.41-.57.614-1.268.578-1.975a3.07 3.07 0 00-.578-1.93 1.939 1.939 0 00-.69-.562 1.895 1.895 0 00-.864-.188c-.31-.016-.62.048-.899.187-.28.14-.52.348-.699.608a3.279 3.279 0 00-.533 1.885c-.02.684.166 1.358.533 1.93a1.844 1.844 0 001.598.795zm15.96 2.952l5.239-8.607-4.728-7.767h4.795l2.131 4.428L114.53.51h4.528l-4.462 7.517 5.217 8.857h-4.706l-2.686-5.405-2.864 5.405h-4.573z"/><path d="M119.523 16.883l5.239-8.607-4.728-7.767h4.795l2.131 4.428L129.091.51h4.506l-4.462 7.517 5.217 8.857h-4.706l-2.686-5.405-2.864 5.405h-4.573zM139.504.509h-3.996v16.35h3.996V.51z"/></g><defs><clipPath id="clip0_6277_58586"><path fill="#fff" transform="translate(.008 .509)" d="M0 0h139.497v21.279H0z"/></clipPath></defs></svg>