<svg width="140" height="51" fill="none" xmlns="http://www.w3.org/2000/svg"><g clip-path="url(#clip0_6277_58641)"><path d="M129.394 5.686h2.062l.226.14a.855.855 0 00.594.481 3.107 3.107 0 001.61 0 1.044 1.044 0 00.791-.565h2.147a2.596 2.596 0 01-.989 1.328 3.84 3.84 0 01-1.441.621 6.242 6.242 0 01-3.305 0 2.634 2.634 0 01-1.808-1.723l.113-.282zm8.361 22.176a6.865 6.865 0 01-.508 1.638 2.657 2.657 0 01-2.289 1.47 3.163 3.163 0 01-2.118-.537 2.817 2.817 0 01-1.215-2.147v-.311h2.119v.537a.846.846 0 001.27.394.848.848 0 00.312-.394c.115-.167.21-.348.282-.537h2.147v-.113z" fill="#717070"/><path d="M20.094 42.495h-.282a43.825 43.825 0 01-3.56-1.977 34.372 34.372 0 01-2.825-2.006c-.678-.537-1.355-1.073-2.005-1.667-.65-.593-1.102-1.073-1.639-1.61a20.592 20.592 0 01-2.034-2.43 21.665 21.665 0 01-1.638-2.655 18.792 18.792 0 01-.763-1.723 16.61 16.61 0 01-.763-2.655c0-.565-.17-1.159-.197-1.724-.029-.565 0-1.243 0-1.836a12.63 12.63 0 01.96-4.322c.418-1.022.99-1.975 1.695-2.825a12.511 12.511 0 011.865-1.808 17.91 17.91 0 013.361-2.062c1.097-.5 2.23-.915 3.39-1.243.927-.27 1.87-.477 2.825-.622a26.121 26.121 0 012.062-.339l2.063-.17h1.384a4.9 4.9 0 011.44.255l.34.198a.452.452 0 010 .706 1.328 1.328 0 01-.34.339 8.08 8.08 0 01-1.412.424 34.15 34.15 0 00-4.718 1.553 17.6 17.6 0 00-4.068 2.317 9.886 9.886 0 00-2.824 3.08 9.067 9.067 0 00-1.074 2.824c0 .509 0 .989-.198 1.526a18.178 18.178 0 000 2.147c.113 1.58.397 3.142.848 4.66.4 1.242.87 2.459 1.412 3.645a36.568 36.568 0 002.288 4.124 39.816 39.816 0 002.825 3.927c.48.593.99 1.187 1.498 1.723v.17l.084.056z" fill="#fff"/><path d="M18.314 46.45a19.5 19.5 0 01-3.108-.904 23.166 23.166 0 01-11.3-8.785 21.442 21.442 0 01-3.418-8.475 22.123 22.123 0 01-.48-2.232c.03-.187.03-.378 0-.565v-1.751a2.825 2.825 0 000-.791c.034-.626.11-1.25.226-1.865a22.091 22.091 0 012.203-6.413 23.107 23.107 0 012.26-3.503h.226a6.018 6.018 0 004.238.735 5.65 5.65 0 003.446-2.006 5.791 5.791 0 001.3-4.887c0-.31-.198-.593-.226-.904a23.815 23.815 0 0110.283-1.92H25.8a7.496 7.496 0 000 1.581c.172.95.537 1.853 1.073 2.656a6.837 6.837 0 002.204 2.203 7.12 7.12 0 002.825.989 7.91 7.91 0 002.005 0 6.949 6.949 0 002.345-.791 6.497 6.497 0 001.723-1.441h.198c.58.45 1.137.931 1.667 1.44a22.15 22.15 0 015.65 9.04c.499 1.504.83 3.058.988 4.634a20.404 20.404 0 010 3.474 21.216 21.216 0 01-3.559 10.679 23.023 23.023 0 01-12.854 9.435c-1.472.446-2.987.74-4.52.876-1.222.098-2.45.098-3.672 0l.17-.142.96-.508c.876-.452 1.752-.96 2.627-1.469a72.567 72.567 0 005.029-3.249 49.791 49.791 0 004.265-3.474 37.063 37.063 0 001.837-1.808 33.228 33.228 0 001.977-2.26 25.43 25.43 0 002.373-3.588 22.374 22.374 0 001.695-4.096c.38-1.381.58-2.805.593-4.238v-.593a9.438 9.438 0 00-.226-1.977 11.808 11.808 0 00-1.3-3.616 10.594 10.594 0 00-2.655-3.164 7.455 7.455 0 00-2.486-1.328 9.237 9.237 0 00-2.316-.254 23.605 23.605 0 00-2.825 0l-2.232.197-2.373.368c-1.356.254-2.825.565-4.04.932-1.214.367-3.22.96-4.774 1.554h.34c.777-.099 1.56-.155 2.344-.17 1.195-.07 2.393-.07 3.588 0l1.497.396c1.255.16 2.487.463 3.672.904.918.327 1.783.783 2.571 1.356a6.47 6.47 0 012.458 3.39 7.43 7.43 0 01.254 3.05 10.875 10.875 0 01-.537 2.345 25.005 25.005 0 01-1.808 3.955 41.224 41.224 0 01-2.147 3.305 59.03 59.03 0 01-3.616 4.69c-.734.847-1.44 1.695-2.175 2.514l-2.486 2.825-1.356 1.384a83.566 83.566 0 01-2.288 2.26h-.17z" fill="#BCBCBB"/><path d="M20.09 42.495v-.17a29.822 29.822 0 01-1.497-1.723 39.845 39.845 0 01-2.825-3.927 36.568 36.568 0 01-2.288-4.124 33.527 33.527 0 01-1.413-3.644 21.837 21.837 0 01-.847-4.662 18.135 18.135 0 010-2.146c0-.537 0-1.046.198-1.526.197-.995.56-1.95 1.073-2.825a9.887 9.887 0 012.825-3.08 17.596 17.596 0 014.068-2.316 30.731 30.731 0 014.718-1.553 8.21 8.21 0 001.327-.48c.204-.069.388-.185.537-.34a.453.453 0 000-.706l-.537-.198a4.209 4.209 0 00-1.497-.254h-1.327l-2.148.198c-.678 0-1.384.198-2.062.339-.954.144-1.898.352-2.825.621-1.18.335-2.332.76-3.446 1.272a17.913 17.913 0 00-3.362 2.062 12.51 12.51 0 00-1.864 1.808 10.877 10.877 0 00-1.695 2.825 12.656 12.656 0 00-.96 4.322v1.836c0 .622 0 1.159.197 1.724.175.875.42 1.734.734 2.57.226.587.48 1.162.763 1.723a19.438 19.438 0 001.639 2.628 18.776 18.776 0 002.034 2.457c.536.537 1.073 1.102 1.638 1.61a44.83 44.83 0 002.006 1.667c.678.537 1.864 1.356 2.825 2.006.96.65 2.345 1.384 3.56 1.978l.451.028zm119.417-19.549h-3.418c-.169 0-.169 0-.169-.17v-9.039a40.771 40.771 0 01-2.317 3.842c-.847 1.328-1.723 2.627-2.514 3.983-.226.396-.452.791-.65 1.187l-.282.17h-3.305V10.658c.056-.828.056-1.658 0-2.486h3.531v9.153c.282-.537.593-1.046.932-1.582 1.13-1.752 2.26-3.503 3.362-5.255a13.71 13.71 0 001.214-2.175l.255-.141h3.474v13.644l-.113 1.13z" fill="#717070"/><path d="M18.313 46.45h.17c.762-.735 1.525-1.47 2.288-2.26l1.356-1.47 2.486-2.824c.734-.82 1.44-1.667 2.175-2.514a59.03 59.03 0 003.616-4.69 41.241 41.241 0 002.147-3.305 24.993 24.993 0 001.808-3.955c.265-.76.445-1.546.537-2.345a7.429 7.429 0 00-.255-2.966 6.469 6.469 0 00-2.457-3.39 10.195 10.195 0 00-2.57-1.356 16.608 16.608 0 00-3.673-.904l-1.752-.197a30.542 30.542 0 00-3.588 0c-.784.023-1.567.09-2.344.197h-.34a55.327 55.327 0 014.775-1.553c1.61-.452 2.74-.848 4.18-1.102l2.374-.367 2.232-.198c.94-.057 1.884-.057 2.825 0a9.237 9.237 0 012.316.254 7.459 7.459 0 012.684 1.328 10.594 10.594 0 012.655 3.164 11.809 11.809 0 011.3 3.616c.145.65.22 1.312.226 1.977v.593a16.498 16.498 0 01-.594 4.238 22.375 22.375 0 01-1.695 4.096 25.413 25.413 0 01-2.373 3.588c-.621.79-1.299 1.525-1.977 2.26a27.341 27.341 0 01-1.836 1.808 49.76 49.76 0 01-4.266 3.474 72.565 72.565 0 01-5.028 3.25 61.136 61.136 0 01-2.628 1.468l-.96.509-.17.14h-.254c-2.486 1.272-5.028 2.402-7.599 3.476h-.198v-.17c1.384-1.215 2.825-2.486 4.012-3.757l.395-.113zm86.217-31.216l.424.142a3.138 3.138 0 012.26 2.288 4.434 4.434 0 010 2.825 3.452 3.452 0 01-2.316 2.26 6.587 6.587 0 01-2.232.339h-7.12V10.375c.043-.724.043-1.45 0-2.175h7.233a5.65 5.65 0 012.26.509 3.333 3.333 0 011.836 2.627 4.402 4.402 0 010 1.61 3.071 3.071 0 01-1.751 2.147l-.594.141zm-3.757 4.888h1.554a1.496 1.496 0 001.525-1.3v-.537a1.468 1.468 0 00-1.271-1.497h-3.362c-.197 0-.197 0-.197.198v2.825c0 .198 0 .198.197.198h1.554m0-8.956h-1.497c-.198 0-.198 0-.198.198v2.514h3.277a1.272 1.272 0 001.017-.904 1.949 1.949 0 000-.988 1.156 1.156 0 00-.734-.763 2.067 2.067 0 00-.707 0h-1.271M61.54 22.946a36.95 36.95 0 000-5v-6.3c0-.283 0-.254-.255-.254h-4.548l-.226.056v9.379c-.043.65-.043 1.3 0 1.95v.169h-3.503V10.573a21.32 21.32 0 000-2.317c0-.17 0-.17 0 0h11.921c.198 0 .198 0 .17.198a30.669 30.669 0 000 3.22v8.673a17.87 17.87 0 000 2.458c.17.14.17.14-.113.14h-3.447zm6.694 0a4.261 4.261 0 000-.565V10.459c.043-.705.043-1.413 0-2.118h10.509v2.994h-6.836l-.141.17v2.316h4.52a13.9 13.9 0 001.497 0c.17 0 .198 0 .198.198v2.825c0 .198 0 .198-.198.198-.65-.043-1.3-.043-1.95 0h-3.926l-.141.17v2.655l.14.17h5.227a16 16 0 001.639 0c.197 0 .197 0 .197.169v2.74c0 .198 0 .198-.226.17l-2.457-.17h-8.052zM85.32 8.143h3.107c.71.024 1.414.147 2.09.367a4.04 4.04 0 012.713 3.136 6.759 6.759 0 010 2.825 4.35 4.35 0 01-3.306 3.305 7.004 7.004 0 01-1.864.226h-2.514v4.548c0 .509 0 .198-.17.198H81.93v.028c.042-.705.042-1.413 0-2.118V10.46c.042-.725.042-1.451 0-2.176 0-.197 0-.197.197-.17h3.193m0 4.916v1.639c0 .31 0 .282.282.282h2.656a1.498 1.498 0 001.384-1.13 2.18 2.18 0 000-1.469 1.44 1.44 0 00-.96-1.017 2.203 2.203 0 00-.735 0h-2.458c-.17 0-.17 0-.17.198v1.526m27.093 9.888h-2.967a3.09 3.09 0 000-.509c.028-.517.028-1.036 0-1.554V10.517c.043-.696.043-1.395 0-2.09v-.17h3.193l.141.17a16.893 16.893 0 000 2.062v2.966h3.051c.5.046.993.15 1.469.31a3.678 3.678 0 012.373 2.6c.197.841.255 1.71.169 2.57-.048.382-.123.76-.226 1.13a3.754 3.754 0 01-2.825 2.57 7.404 7.404 0 01-1.751.199h-2.599m.254-4.718v1.525c0 .226 0 .226.226.226h2.232a1.494 1.494 0 001.214-1.101c.07-.298.07-.607 0-.904a1.443 1.443 0 00-1.073-1.356 1.784 1.784 0 00-.537 0h-1.751c-.198 0-.198 0-.198.226v1.497M81.455 35.037v.17l-2.345 6.328v.141h-2.006l-.198-.17c-.197-.593-.423-1.158-.65-1.751-.593-1.554-1.186-3.108-1.75-4.661v-.198c.014.235.014.471 0 .706 0 1.441-.199 2.825-.312 4.294v1.554c0 .508 0 .226-.226.226h-1.836c-.17 0-.198 0-.17-.198.029-.197 0-1.243.142-1.864.141-.622 0-1.271.17-1.893l.282-3.08c0-.818 0-1.61.198-2.429l.17-1.836c0-.226 0-.198.225-.198h1.836c.311 0 .255 0 .34.226l2.824 7.656v.226-.198l2.825-7.655h2.204l.17.17c0 .734 0 1.496.197 2.26l.254 3.022c0 .79.141 1.582.226 2.373l.254 2.994v.509l-.14.17h-1.95v-.933l-.254-3.334-.198-2.457-.282-.17zm16.775 2.712l.31-.452 4.407-6.808a.34.34 0 01.396-.198h1.751c.17 0 .17 0 .17.17v11.045c0 .311 0 .283-.283.283h-1.78c-.226 0-.226 0-.226-.226v-7.317l-.169.17-4.577 7.006c-.226.339 0 .282-.536.282h-1.639c-.226 0-.226 0-.226-.226V30.461c0-.283 0-.255.254-.255h1.808c.255 0 .226 0 .226.226v7.204l.113.113zm34.074-.001l.169-.226 4.577-7.006a.396.396 0 01.424-.226h1.695c.197 0 .197 0 .197.226v10.99c0 .31 0 .282-.254.282h-1.808c-.226 0-.226 0-.226-.254v-7.119l-.169.226-4.633 7.062a.399.399 0 01-.368.198h-1.695c-.197 0-.197 0-.197-.226V30.573c0-.34 0-.283.282-.283h1.752c.282 0 .254 0 .254.226v7.232zm-15.713-1.723v5.509c0 .254 0 .254-.254.254h-1.808c-.226 0-.226 0-.226-.226v-4.35c0-.31 0-.283-.283-.283h-4.181c-.226 0-.226 0-.226.226v4.35c0 .34 0 .283-.31.283h-1.808c-.17 0-.198 0-.198-.197V30.544c0-.283 0-.254.254-.254h1.808c.254 0 .254 0 .254.226V34.5c0 .226 0 .226.226.226h4.238c.226 0 .226 0 .226-.198v-3.983c0-.31 0-.254.282-.254h1.808c.198 0 .198 0 .198.226v5.508zm-54.718 1.922a7.29 7.29 0 01-.451 1.582 4.04 4.04 0 01-2.486 2.231 5.988 5.988 0 01-3.786 0 4.718 4.718 0 01-3.023-2.825 7.318 7.318 0 01-.423-2.825 7.74 7.74 0 01.565-2.994 4.97 4.97 0 012.825-2.825 5.65 5.65 0 012.542-.339c.458.03.913.105 1.356.226a3.87 3.87 0 012.57 2.514c0 .311.17.622.227.932v.142H59.67l-.339-.367a1.892 1.892 0 00-1.356-1.215 3.475 3.475 0 00-1.526 0 2.4 2.4 0 00-1.497.96 3.927 3.927 0 00-.79 1.978c-.17.8-.17 1.628 0 2.43.13.524.37 1.015.706 1.44a2.599 2.599 0 002.231.989h.735a2.176 2.176 0 001.469-1.215l.226-.593h2.175m24.609-2.147v-5.48c0-.283 0-.255.254-.255h5.904c.17 0 .17 0 .17.17v1.863h-3.786c-.254 0-.254 0-.254.254v1.78c0 .226 0 .226.226.226h3.53c.227 0 .227 0 .227.226v1.723c0 .254 0 .254-.226.254H88.91c-.338 0-.31 0-.31.311v2.232h3.898c.198 0 .198 0 .198.197v1.78c0 .593 0 .226-.226.226h-6.017l-.141-.141v-5.65.282zm-22.743 0v-5.48c0-.283 0-.255.283-.255h5.65c.282 0 .254 0 .254.254v1.723c0 .198 0 .198-.226.198h-3.475c-.17 0-.197 0-.197.198v1.864c0 .17 0 .17.197.17h3.645l.169.17v1.864c0 .17 0 .197-.17.197h-3.615c-.226 0-.226 0-.226.198v2.26c0 .198 0 .198.226.198h3.729c.31 0 .282 0 .282.282v1.667c0 .283 0 .254-.254.254h-6.046c-.226 0-.226 0-.226-.254v-5.508zm54.75 0v-5.65l.17-.141h1.836c.226 0 .226 0 .226.226v3.87c0 .34 0 .283.311.283a10.99 10.99 0 011.667 0c.463.049.913.183 1.327.395a3.021 3.021 0 011.78 2.599c.112.56.112 1.136 0 1.695a3.244 3.244 0 01-1.836 1.921 5.114 5.114 0 01-2.147.424h-2.995c-.226 0-.226 0-.226-.226l-.113-5.396zm2.289 2.232v1.186l.141.142h.734a2.572 2.572 0 001.046-.227 1.08 1.08 0 00.678-.79 3.434 3.434 0 000-.537 1.08 1.08 0 00-.622-.904h-.424a5.142 5.142 0 00-1.469 0c-.169 0-.169 0-.169.17v1.186m3.617-15.537h-3.532c.126-.936.173-1.881.142-2.825V8.257h3.277v12.656a12.686 12.686 0 000 1.808l.113.226zm1.89 13.078v-5.452c0-.339 0-.282.283-.282h1.779c.226 0 .226 0 .226.226v10.96c0 .368 0 .311-.282.311h-1.752c-.225 0-.254 0-.254-.254v-5.509z" fill="#717070"/><path d="M103.627 27.834a5.92 5.92 0 01-.367 1.384 2.822 2.822 0 01-2.825 1.751 3.249 3.249 0 01-2.062-.763 2.826 2.826 0 01-.904-2.005c0-.367 0-.367.339-.367h1.553l.198.169a1.61 1.61 0 000 .509.82.82 0 00.678.593.79.79 0 00.876-.452c.104-.216.18-.444.226-.678h2.147l.141-.142zM4.7 11.167l-.226-.17a5.848 5.848 0 01.622-9.887 6.017 6.017 0 018.475 2.825v.198c0 .31.17.593.226.904a5.876 5.876 0 01-1.272 4.887 5.65 5.65 0 01-3.474 2.006 6.017 6.017 0 01-4.238-.735l-.113-.028z" fill="#717070"/></g><defs><clipPath id="clip0_6277_58641"><path fill="#fff" transform="translate(.008 .346)" d="M0 0h139.497v50.228H0z"/></clipPath></defs></svg>