<svg width="140" height="45" fill="none" xmlns="http://www.w3.org/2000/svg"><g clip-path="url(#clip0_6277_58558)"><path d="M5.836 31.999A5.996 5.996 0 017.24 28.18a5.598 5.598 0 013.537-2.037h2.038a5.714 5.714 0 014.215 3.724 6.067 6.067 0 01-.866 6.019v.164l-.14.14c-.42.465-.91.86-1.453 1.171-.53.31-1.108.532-1.71.656a5.832 5.832 0 01-1.686 0 5.294 5.294 0 01-2.342-.82 5.996 5.996 0 01-1.85-1.827 6.23 6.23 0 01-.89-2.201 8.033 8.033 0 010-1.312" fill="#717070"/><path d="M38.231 11.06a117.704 117.704 0 01-.937 14.052A25.436 25.436 0 0127.036 40.57a24.758 24.758 0 01-7.027 3.795 1.944 1.944 0 01-1.498 0 26.933 26.933 0 01-17.332-18.41 37.145 37.145 0 01-.867-8.806C.125 13.027.125 8.881.008 4.76c0-.89.21-1.311 1.124-1.499 2.342-.468 4.684-1.03 7.167-1.405a67.714 67.714 0 016.839-.984A60.614 60.614 0 0132.212 2.16c1.616.374 3.255.679 4.872 1.077.843.21 1.194.539 1.17 1.476v6.347" fill="#BDBCBC"/><path d="M20.692 14.527l.398-.539c0-.117-.234-.281-.398-.422a.468.468 0 01-.117-.491 9.533 9.533 0 014.333-5.645 6.066 6.066 0 013.677-.703 2.06 2.06 0 011.874 2.53c0 .445-.234.867-.328 1.312-.094.444 0 .398-.164.632l.585.14c.352.118.75.211 1.101.352a1.125 1.125 0 01.726 1.054 1.03 1.03 0 01-.75.96 12.51 12.51 0 01-1.24.375h-.281c0 .374.21.632.632.726.422.093 1.452.421 2.155.632l.445.164-.281.258-1.64 1.288a.538.538 0 00-.234.562 11.29 11.29 0 01-7.026 11.71c-.55.215-1.114.395-1.687.54a.329.329 0 00-.28.374v4.192h1.78c.07.372.07.753 0 1.125H22.8c0 .328.375.421.515.75l-.773.749c-.35-.352-.702-.656-1.007-1.008a1.217 1.217 0 00-1.17-.468h-.82l.608.703-.796.773a6.768 6.768 0 01-.82-.82 1.57 1.57 0 00-1.592-.445h-.539a3.139 3.139 0 010-1.054h1.359a2.973 2.973 0 000-.398v-3.841c0-.375 0-.399-.352-.469a12.578 12.578 0 01-5.879-3.607l-.632-.655-4.426 4.403a6.629 6.629 0 01-1.968-2.67 1.592 1.592 0 01.843-2.085 7.706 7.706 0 012.342-.726l1.944-.304-.257-.305a31.451 31.451 0 01-2.74-5.082.609.609 0 010-.656 13.28 13.28 0 016.042-4.965 6.886 6.886 0 014.333-.422c.288.08.57.183.843.305l2.342 1.03.375.14m.234 1.265l-5.691 6.043a4.685 4.685 0 004.684 3.068 4.685 4.685 0 004.24-4.005 4.684 4.684 0 00-3.116-5.106m8.596 6.863c.533-1.5.71-3.104.515-4.684a.727.727 0 00-.21-.422 1.942 1.942 0 01-.469-1.757v-.562c0-.28-.281-.562-.398-.843a.351.351 0 00-.351-.234 29.935 29.935 0 01-4.802-.375h-.374a4.403 4.403 0 00-1.687 1.171 5.808 5.808 0 012.717 7.846 21.61 21.61 0 012.342-.304c.846.01 1.69.065 2.53.164M11.722 25.16a11.874 11.874 0 006.324 3.958 10.725 10.725 0 011.85-3.255 5.833 5.833 0 01-5.645-3.326l-2.53 2.623zm8.057-9.697a3.068 3.068 0 00-1.429.188c-1.026.345-1.99.851-2.857 1.499a28.686 28.686 0 00-3.771 3.232l-2.085 2.131 1.242 1.757 8.9-8.806zM9.099 21.53l4.38-4.216-.352-.305a.631.631 0 00-.632-.187.703.703 0 01-.773-.937.423.423 0 00-.21-.562 13.233 13.233 0 00-3.772 3.56L9.1 21.53zm13.161-9.37a9.744 9.744 0 017.027-2.342V9.14a.983.983 0 00-.937-1.242 4.45 4.45 0 00-2.46.328 7.214 7.214 0 00-3.676 3.818l.046.117zM18.982 34.6a7.19 7.19 0 002.132 0 31.514 31.514 0 000-4.216h-2.132V34.6zM14.44 16.61c.562-.351 1.1-.75 1.686-1.077.586-.328 1.195-.61 1.78-.914a5.363 5.363 0 00-5.363.188 5.152 5.152 0 001.897 1.803zm-4.895 9.111h-.258l-2.717.539c-.279.083-.547.2-.796.351a.492.492 0 00-.258.562 2.98 2.98 0 00.984 1.523l3.045-2.905M31.184 12.7a8.033 8.033 0 00-5.41.258h.586a19.14 19.14 0 003.28 0 3.116 3.116 0 001.475-.352m-7.542-.14a15.598 15.598 0 015.363-1.242v-.468a8.127 8.127 0 00-5.363 1.71zM135.15 20.5l-.866 1.522-2.881 5.13a.608.608 0 01-.632.374h-4.169V13.473h4.332v6.582c.727-1.054 1.359-2.179 1.991-3.28.633-1.1 1.288-2.201 1.921-3.302h4.684v13.983a39.816 39.816 0 01-4.427 0c0-2.343.141-4.685.188-7.027l-.141.07zm-37.22-6.935h4.403c0 2.202-.141 4.38-.187 6.582l.234-.375c1.124-1.967 2.342-3.911 3.372-5.855a.708.708 0 01.703-.422h4.31V27.36a29.834 29.834 0 01-4.404 0c0-2.342.141-4.684.164-7.026l-.234.398c-1.171 2.061-2.342 4.122-3.466 6.183a.777.777 0 01-.843.469H97.93V13.565zM72.616 27.501h-4.684v-5.27h-3.795v5.271h-4.684v-13.89a35.963 35.963 0 014.684 0v4.591a22.6 22.6 0 003.841 0v-4.637h4.685L72.616 27.5zm2.15-.023V13.613h9.579v3.794h-5.153v1.218h4.684a20.304 20.304 0 010 3.63h-4.684v1.312c.437.023.875.023 1.312 0h4.099a25.758 25.758 0 010 3.84l-9.837.071zm43.449-4.473v4.427a30.824 30.824 0 01-4.684 0V13.566h6.183a7.476 7.476 0 013.022.586 4.071 4.071 0 012.506 3.63 5.538 5.538 0 01-.258 2.342 4.288 4.288 0 01-2.6 2.413 7.842 7.842 0 01-2.74.468h-1.429zm0-5.785v2.272a4.055 4.055 0 001.64 0 1.079 1.079 0 00.773-1.218.983.983 0 00-.96-1.124h-1.429M55.47 22.395a111.51 111.51 0 002.858 3.443l-.351.352a7.026 7.026 0 01-3.607 1.616 8.174 8.174 0 01-5.06-.68 7.027 7.027 0 01-3.98-5.574 7.45 7.45 0 01.772-4.544 6.771 6.771 0 014.357-3.513 8.618 8.618 0 016.792.797c.375.21.726.491 1.1.75a150.38 150.38 0 01-2.857 3.465l-.187-.14a2.858 2.858 0 00-3.162-.68 2.623 2.623 0 00-1.803 2.343 2.974 2.974 0 00.983 2.717 2.857 2.857 0 003.818 0l.328-.375m35.877 5.13h-4.684v-13.89h9.556v4.685h-4.872v9.298-.093zM87.627 37.9h-5.644a34.603 34.603 0 010-4.356h.562v3.841h1.78v-3.841h.656v3.864h1.944v-3.864h.609l.093 4.356zm19.51-2.856a.96.96 0 00-.609-1.008 1.64 1.64 0 00-1.804.54l-.351-.329a1.952 1.952 0 011.421-.877 1.943 1.943 0 011.577.55c.263.288.413.663.421 1.053v2.951h-.538v-.515l-.352.258a1.826 1.826 0 01-2.342 0 1.22 1.22 0 01-.238-1.669 1.22 1.22 0 01.472-.392c.243-.095.494-.166.75-.211l1.452-.234.141-.117zm0 .585c-.609 0-1.218.234-1.804.398a.705.705 0 00-.539.773.755.755 0 00.656.61 1.428 1.428 0 001.687-1.781zm-33.396 2.295h-.586v-.515a1.947 1.947 0 01-.374.281 1.757 1.757 0 01-1.991 0 1.194 1.194 0 01-.656-1.218 1.17 1.17 0 01.89-1.054c.515-.14 1.078-.21 1.616-.304h.539a1.03 1.03 0 00-.633-1.03 1.616 1.616 0 00-1.803.538l-.468-.445a1.944 1.944 0 012.342-.703 1.523 1.523 0 011.077 1.382v3.068m-.68-2.342c-.608 0-1.217.21-1.826.375a.75.75 0 00-.539.796.773.773 0 00.703.61 1.429 1.429 0 001.663-1.781zm-19.138-.492a1.007 1.007 0 00-.609-1.03c-.515-.258-1.007-.117-1.827.492l-.328-.305a1.898 1.898 0 013.022-.258c.187.22.308.488.351.773v3.139h-.609v-.469l-.351.258a1.85 1.85 0 01-2.225 0 1.218 1.218 0 01.234-2.038c.23-.11.475-.188.726-.234l1.64-.257m0 .562l-1.5.257a1.571 1.571 0 00-.538.235.656.656 0 000 1.17c.278.06.565.06.843 0a1.357 1.357 0 001.1-1.756m24.685 2.295h-.586v-1.5a9.836 9.836 0 00-1.194 0l-.305.235-.773 1.241h-.679a2.48 2.48 0 01.422-.82c.14-.257.304-.515.468-.772l-.187-.14a1.452 1.452 0 01.656-2.624h2.178v4.38zm-.61-3.888a6.015 6.015 0 00-1.592 0 .82.82 0 00-.656.843.82.82 0 00.656.867c.53.058 1.064.058 1.593 0v-1.71zm15.53 1.639a2.34 2.34 0 114.567 0 2.344 2.344 0 01-2.283 2.863 2.343 2.343 0 01-2.284-2.862zm.633 0a1.686 1.686 0 001.616 1.757 1.756 1.756 0 000-3.49 1.685 1.685 0 00-1.64 1.733m-28.387.329v1.897h-.609v-4.426h.586v1.85h2.6v-1.85h.632V37.9h-.585v-1.897h-2.624zm34.008-2.46h3.232v4.427h-.586v-3.935h-2.014v.656a8.298 8.298 0 01-.187 2.154c-.033.16-.08.317-.14.469a1.08 1.08 0 01-1.476.609v-.562h.187c.445 0 .656 0 .773-.516a7.02 7.02 0 00.187-1.194v-2.108m-6.604 4.333a.75.75 0 01-.96-.304c-.398-.61-.843-1.148-1.242-1.733h-.14l-.773.843v1.288h-.656a39.81 39.81 0 010-4.427h.562v2.343l.328-.282c.539-.562 1.101-1.124 1.616-1.733a.96.96 0 011.054-.28l-1.663 1.756.914 1.311.96 1.312M59.64 34.247l-.445.375a1.733 1.733 0 00-1.452-.68 1.407 1.407 0 00-1.054.54 1.804 1.804 0 000 2.341c.68.703 1.57.656 2.553-.21l.398.328a2.342 2.342 0 01-2.482.866 2.342 2.342 0 010-4.45 2.343 2.343 0 012.53.773m-13.774-.586h.609v.796c-.012.195-.012.39 0 .586a1.1 1.1 0 001.03 1.03 2.89 2.89 0 00.75-.117c.515-.14.586-.257.586-.796v-1.5h.562a35.148 35.148 0 010 4.451h-.562v-1.78a2.309 2.309 0 01-.399.164 2.085 2.085 0 01-1.756 0 1.476 1.476 0 01-.82-1.124V33.59m16.514.4v3.91h-.632v-3.865H60.25v-.515a25.533 25.533 0 013.794 0v.492l-1.616-.023z" fill="#717070"/><path d="M27.25 14.807a.867.867 0 01.867.89.889.889 0 01-1.242.818.89.89 0 01-.538-.865.844.844 0 01.914-.843z" fill="#717070"/><path d="M19.14 29.188a8.502 8.502 0 0110.025-5.738 10.095 10.095 0 01-3.888 4.262 9.135 9.135 0 01-6.136 1.476z" fill="#70706F"/></g><defs><clipPath id="clip0_6277_58558"><path fill="#fff" transform="translate(.008 .754)" d="M0 0h139.497v43.891H0z"/></clipPath></defs></svg>