<svg width="141" height="34" fill="none" xmlns="http://www.w3.org/2000/svg"><path d="M122.93.37c.297.303.574.625.828.964a5.583 5.583 0 01.983 3.642c0 1.098-.173 2.177-.308 3.256-.135 1.079-.308 2.408-.463 3.622-.154 1.214-.308 2.197-.481 3.314l-.463 3.14c0 .213 0 .425-.115.675a1.294 1.294 0 01-.116-.578c-.25-1.56-.482-3.14-.693-4.701-.212-1.56-.405-2.852-.598-4.278a89.165 89.165 0 01-.366-3.198 14.097 14.097 0 010-1.792 5.476 5.476 0 011.811-4.027l-.019-.038zm17.264 20.849l-.539.462a4.473 4.473 0 01-2.852 1.002 19.268 19.268 0 01-2.1-.154l-2.543-.308-2.621-.366-2.871-.424-1.676-.25c.165-.07.342-.11.52-.116l3.97-.578 3.853-.54a33.59 33.59 0 013.391-.308 4.529 4.529 0 012.948 1.06c.173.134.328.29.462.462l.058.058zM.695 21.892V8.078h9.884c.23-.029.464-.029.694 0H1.12c-.404 0-.366 0-.366.366V21.93l-.058-.039zm53.101-4.315l.193-.27c1.927-2.98 3.854-5.979 5.78-8.997a.482.482 0 01.482-.25h1.773c.212 0 .212 0 .23.211v13.295c0 .327 0 .327-.346.327h-1.484c-.385 0-.327 0-.327-.327v-9.48a.695.695 0 000-.328l-3.121 4.894-3.18 4.914-6.242-9.788a.692.692 0 000 .327v9.634c0 .173 0 .193-.193.193h-1.753c-.154 0-.193 0-.174-.193V8.252c0-.25 0-.25.232-.25h1.791a.443.443 0 01.424.23c1.233 1.927 2.467 3.854 3.68 5.78l2.1 3.276.135.29zm23.973-.039l4.354 4.355h-2.717a.558.558 0 01-.423-.174l-4.027-4.046a.617.617 0 00-.501-.193h-3.14c-.367 0-.328 0-.328.309v3.95l-.135.154H69.06c-.193 0-.193 0-.193-.212V8.348c0-.386 0-.347.328-.347h9.44a6.416 6.416 0 011.716.192 2.986 2.986 0 012.235 2.351c.098.384.15.779.154 1.175.058.84.058 1.684 0 2.524-.03.422-.121.838-.27 1.233a2.947 2.947 0 01-2.12 1.83 6.7 6.7 0 01-1.522.174h-1.06m-2.658-7.34h-4.123v4.816c0 .328 0 .309.308.309h7.707a1.58 1.58 0 001.58-1.426c.077-.782.077-1.57 0-2.35a1.522 1.522 0 00-1.233-1.369 3.46 3.46 0 00-.771 0H75.11m9.954 6.435v-4.374a6.822 6.822 0 01.173-1.657 2.986 2.986 0 012.409-2.312 5.78 5.78 0 011.406-.154h5.896c.492-.006.984.046 1.464.154a3.044 3.044 0 012.409 2.486c.086.496.125 1 .115 1.503v9.633c0 .135 0 .174-.173.174h-1.734c-.193 0-.193 0-.193-.212v-2.62l-.115-.116h-9.326c-.154 0-.193 0-.193.193v2.581c0 .116 0 .193-.173.174h-1.715c-.27 0-.25 0-.25-.27v-5.183zm6.936.328h4.701l.116-.135V12.18c.01-.14.01-.282 0-.423a1.56 1.56 0 00-1.368-1.523h-6.764a1.56 1.56 0 00-1.425 1.272c-.02.23-.02.463 0 .694v4.566l.096.135h4.702l-.058-.02zm-76.007-.327v-4.277a7.77 7.77 0 01.174-1.773 3.026 3.026 0 012.678-2.35 5.78 5.78 0 011.156-.097h5.896a5.626 5.626 0 011.927.27 2.986 2.986 0 011.926 2.196c.115.434.173.881.174 1.33v9.884c0 .212 0 .212-.212.212h-1.696c-.212 0-.23 0-.23-.212v-2.736H18.44c-.134 0-.192 0-.192.173v2.544c0 .23 0 .23-.25.23H16.34c-.23 0-.23 0-.23-.23l-.117-5.164zm6.937.328h4.566c.25 0 .25 0 .25-.25v-4.567a2.76 2.76 0 000-.56 1.503 1.503 0 00-1.155-1.232 3.158 3.158 0 00-.848 0h-6.089a1.56 1.56 0 00-1.406 1.214c-.029.269-.029.54 0 .809v4.489c0 .116 0 .154.135.154h4.662l-.115-.057z" fill="#676C6D"/><path d="M.695 21.893V8.405c0-.424 0-.385.366-.385h10.154a3.85 3.85 0 011.407.308 2.89 2.89 0 011.792 2.139c.1.397.152.804.154 1.214v2.08c-.005.39-.05.777-.135 1.157a3.025 3.025 0 01-2.524 2.427 6.745 6.745 0 01-1.387.116H3.123c-.328 0-.308 0-.308.308v3.854c0 .27 0 .25-.232.25H.946l-.25.02zm6.282-11.696H3.123c-.212 0-.231 0-.231.193v4.836c0 .135 0 .212.192.193h7.804a1.544 1.544 0 001.599-1.484 11.92 11.92 0 000-2.196v-.193a1.522 1.522 0 00-1.195-1.252 2.681 2.681 0 00-.79 0H7.034m25.126 4.701V8.367c0-.347 0-.308.308-.308h1.618c.193 0 .212 0 .212.212v11.233c0 .347 0 .327.308.327h8.189c.347 0 .308 0 .308.309v1.618c0 .135 0 .212-.173.193H32.487c-.386 0-.328 0-.328-.328v-6.628zm89.916 4.142l-.116-.135c-1.926-3.352-4.046-6.705-5.934-10.134-.347-.655-.713-1.31-1.002-1.927a5.51 5.51 0 01-.096-4.143l.096-.192c0-.231 0-.231.328-.135a5.413 5.413 0 013.16 3.333c.481 1.407.886 2.852 1.271 4.278.79 2.928 1.542 5.876 2.254 8.824v.308l.039-.077zm1.604.077c.212-.906.443-1.811.655-2.717a552.765 552.765 0 001.926-7.707c.289-1.02.578-2.042.964-3.044a5.31 5.31 0 013.006-3.18c.308-.134.308-.115.424.194a5.328 5.328 0 010 4.238c-.367.867-.848 1.696-1.291 2.524-1.792 3.199-3.681 6.32-5.569 9.441l-.115.251zm.734.425l.116-.193c2.196-2.986 4.393-5.973 6.705-8.863.404-.482.809-.982 1.252-1.464a5.184 5.184 0 013.314-1.773h.636c.308 0 .327 0 .327.29a6.7 6.7 0 01-.231 1.521 5.067 5.067 0 01-1.368 2.235c-.713.694-1.503 1.31-2.273 1.927-2.736 2.158-5.511 4.22-8.305 6.262l-.173.058zm-3.043 0c-.617-.405-1.195-.867-1.773-1.291-2.369-1.753-4.739-3.526-7.032-5.356a37.202 37.202 0 01-1.619-1.35 5.16 5.16 0 01-1.714-3.217 3.597 3.597 0 010-.79c0-.212 0-.212.231-.212.707 0 1.407.138 2.061.405a5.202 5.202 0 011.927 1.406c1.118 1.272 2.139 2.62 3.179 3.95a463.252 463.252 0 014.605 6.166c0 .096.174.154.154.289h-.019zm-.391.751l-2.755-.751a242.448 242.448 0 01-6.705-1.753c-1.002-.29-1.927-.56-2.987-.944a4.836 4.836 0 01-2.755-2.679c-.116-.25-.116-.25.135-.366a4.627 4.627 0 011.04-.308 5.107 5.107 0 013.064.424c1.31.616 2.562 1.33 3.853 2.061a321.54 321.54 0 017.052 4.162l.058.154zm3.879-.077l.174-.135c2.948-1.792 5.896-3.564 8.901-5.221a18.9 18.9 0 012.158-1.08 4.875 4.875 0 013.68 0c.212 0 .232 0 .135.328a4.856 4.856 0 01-2.736 2.717 29.662 29.662 0 01-3.14.983c-2.987.828-6.012 1.58-9.037 2.331l-.135.077zm-58.252-5.319v6.57c0 .347 0 .308-.308.308h-1.484c-.385 0-.328 0-.328-.327V8.27c0-.212 0-.212.212-.212h1.657c.25 0 .25 0 .25.25v6.686zm54.145 6.128l-2.736.404-3.352.482-2.89.366-1.927.193a4.74 4.74 0 01-3.853-1.175c-.386-.367-.347-.29 0-.617a4.43 4.43 0 013.063-1.214c.645.017 1.288.068 1.927.154l2.562.308 2.64.367 2.871.404 1.599.25m4.184.906l2.928.713c1.927.501 3.854 1.002 5.781 1.56.404.136.828.251 1.213.405a3.945 3.945 0 012.409 2.274c0 .212 0 .212-.135.308a3.857 3.857 0 01-3.064 0c-.558-.231-1.079-.54-1.618-.828-2.505-1.368-4.971-2.852-7.437-4.355h-.097l.02-.077zm-3.857.02l-1.927 1.117c-2.081 1.233-4.143 2.486-6.281 3.623a7.007 7.007 0 01-1.619.674 4.121 4.121 0 01-2.408-.212c-.212-.096-.212-.096-.116-.308a3.847 3.847 0 012.197-2.177 23.78 23.78 0 012.813-.887c2.35-.655 4.72-1.252 7.09-1.927l.251.097zm3.431.693l1.33.963a132.87 132.87 0 014.951 3.738c.397.306.777.634 1.137.982a3.395 3.395 0 01.983 2.524c0 .212 0 .232-.232.232a3.392 3.392 0 01-2.543-1.021 18.9 18.9 0 01-1.387-1.638c-1.445-1.927-2.833-3.757-4.22-5.684l-.019-.096zm-3.029 0v.154c-1.58 2.158-3.141 4.335-4.836 6.416a5.44 5.44 0 01-.906.963 3.391 3.391 0 01-2.158.713c-.27 0-.289 0-.289-.289a3.384 3.384 0 011.021-2.486c.513-.48 1.054-.93 1.619-1.348a185.45 185.45 0 015.414-4.008l.135-.115zm.698.463c0 .289-.115.54-.173.81-.463 2.042-.944 4.103-1.503 6.126a12.5 12.5 0 01-.385 1.195 3.008 3.008 0 01-1.927 1.792c-.193 0-.212 0-.308-.154a3.005 3.005 0 010-2.66c.289-.635.655-1.252 1.001-1.926 1.002-1.696 2.062-3.372 3.122-5.048l.173-.135zm1.597-.039l.135.173c1.194 1.927 2.369 3.757 3.468 5.684.25.443.501.887.713 1.33a3.148 3.148 0 010 2.659c0 .192 0 .192-.289.115a3.079 3.079 0 01-1.927-1.927 41.22 41.22 0 01-.752-2.62 162.695 162.695 0 01-1.291-5.453m-.804.194c.212 1.271.424 2.505.616 3.738.193 1.233.289 1.926.424 2.87.09.555.141 1.115.154 1.677a3.08 3.08 0 01-1.233 2.37 3.157 3.157 0 01-1.194-1.927 4.529 4.529 0 010-1.252c.269-2.39.693-4.779 1.098-7.149l.135-.327zm-20.253-5.01V4.225c0-.25 0-.25.25-.25.251 0 .193 0 .174.173v28.38c0 .097 0 .155-.135.155s-.289 0-.289-.27V18.232zm-7.57 8.767v-2.466c0-.212 0-.212.211-.212.212 0 .154 0 .154.173v1.33l.155.134h2.158a1.022 1.022 0 011.079.964c.029.436.029.874 0 1.31.01.173.01.347 0 .52a.983.983 0 01-.925.887h-2.62c-.213 0-.213 0-.213-.212V26.98m1.561 2.312c.366.028.733.028 1.098 0a.828.828 0 00.752-.829v-1.29a.829.829 0 00-.752-.83h-2.08c-.116 0-.193 0-.193.174v2.64c0 .154 0 .193.212.193h.982m-26.957-1.465H68.25c-.27 0-.27 0-.27.308-.01.128-.01.257 0 .385a.79.79 0 00.636.675h2.388c.192 0 .192 0 .212.173.019.173 0 .174-.174.174h-2.466a.982.982 0 01-1.04-1.002 9.066 9.066 0 010-1.773 1 1 0 011.02-1.002 14.505 14.505 0 011.927 0 1.004 1.004 0 011.002 1.021c.02.27.02.54 0 .81 0 .154 0 .192-.192.192h-1.56m-.213-.366h1.137c.482 0 .481 0 .443-.482a.828.828 0 00-.77-.809 10.821 10.821 0 00-1.58 0 .83.83 0 00-.771.752v.404c0 .193 0 .193.192.193h1.35m-24.068-.52v-2.486c0-.192 0-.192.212-.192s.154 0 .154.154v1.29c0 .136 0 .174.193.174h2.12a1.04 1.04 0 011.098 1.06v1.58a1.003 1.003 0 01-1.08 1.04h-2.504c-.154 0-.193 0-.193-.192v-2.447m.366.77v1.31c0 .136 0 .213.193.213h2.177a.829.829 0 00.694-.771v-1.368a.829.829 0 00-.752-.81H46.07c-.212 0-.231 0-.231.232v1.252m11.693-1.869h1.233c.154 0 .231.116.174.27h-2.563a.617.617 0 00-.54.616.636.636 0 00.502.655h2.215a.771.771 0 01.733.752 2.2 2.2 0 010 .5.734.734 0 01-.733.752H56.03c-.173 0-.25-.115-.173-.289h2.467a.599.599 0 00.539-.655.597.597 0 00-.56-.616 4.01 4.01 0 00-.693 0h-1.252a.809.809 0 01-.906-.79 1.463 1.463 0 010-.501.771.771 0 01.79-.713h1.253l.038.02zm21.657 0h1.233c.193 0 .231 0 .193.231l-.096.116h-2.37a.674.674 0 000 1.33h1.715a1.34 1.34 0 01.481 0 .675.675 0 01.482.5c.097.294.097.612 0 .906a.732.732 0 01-.694.54h-2.37c-.212 0-.212 0-.212-.193s0-.174.154-.155h2.275a.597.597 0 00.52-.635.616.616 0 00-.54-.636h-2.12a.77.77 0 01-.732-.752 1.721 1.721 0 010-.443.752.752 0 01.81-.809h1.271zm-4.719-.001h1.252c.129 0 .187.058.174.174 0 .116 0 .173-.154.173h-2.39a.617.617 0 00-.558.636.617.617 0 00.52.655h2.139a.79.79 0 01.732.675c.037.216.037.438 0 .655a.77.77 0 01-.713.674H72.93c-.193 0-.212 0-.212-.231l.154-.116h2.39a.617.617 0 00.577-.674.635.635 0 00-.578-.636H73.45c-.147.01-.296.01-.443 0a.732.732 0 01-.54-.54 2.102 2.102 0 010-.693.754.754 0 01.79-.732l1.214-.02zm-20.386 1.389c.028.436.028.873 0 1.31a.905.905 0 01-.906.886 7.902 7.902 0 01-1.926 0 .964.964 0 01-.925-.925 9.405 9.405 0 010-1.04v-1.484c0-.5 0-.212.212-.212s.173 0 .154.154v2.235a.848.848 0 00.597.887c.128.02.258.02.386 0h1.31a.81.81 0 00.655-.636 3.853 3.853 0 000-.443v-2.023c0-.193 0-.193.173-.193.174 0 .193 0 .193.193v1.29m8.345.444V26.17c0-.212 0-.212.212-.212h2.504a.983.983 0 011.022.925v2.563c0 .212 0 .212-.213.212-.211 0-.173 0-.173-.155.01-.186.01-.372 0-.558v-1.696a.847.847 0 00-.886-.925H62.89c-.231 0-.231 0-.231.27v3.064h-.27v-1.85m23.723 1.831h-1.194a1.021 1.021 0 01-1.099-1.099v-1.445a1.02 1.02 0 011.099-1.136h2.485a.194.194 0 01.172.093.193.193 0 01.002.195h-2.679a.79.79 0 00-.712.733v1.464a.79.79 0 00.635.713c.16.02.322.02.482 0h2.1c.212 0 .193 0 .212.173.02.174 0 .174-.173.174h-1.31l-.02.135zm8.069-2.294v1.06c.01.108.01.218 0 .327a.963.963 0 01-.944.867c-.642.042-1.285.042-1.927 0a1.04 1.04 0 01-.963-1.117v-2.37a.192.192 0 01.308-.174v2.351a.868.868 0 00.829.963c.48.058.965.058 1.445 0a.829.829 0 00.77-.867V26.15c0-.212 0-.212.193-.212s.173 0 .173.193v1.214m-5.432-.385v-2.427c0-.193 0-.212.212-.212s.173 0 .173.154v4.971c0 .193-.115.27-.308.212V26.96h-.077zm-27.978.828v-1.619c0-.192.116-.27.29-.212v3.391c0 .097 0 .232-.155.232-.154 0-.212 0-.212-.212V27.71m.271-2.928c.192 0 .192 0 .192.192 0 .193 0 .173-.192.173-.193 0-.193 0-.193-.173s0-.192.193-.192z" fill="#676C6D"/><path d="M122.039 19.155l.038.038-.019.019-.019-.075v.018z" fill="#676C6D"/></svg>