<svg width="36" height="27" viewBox="0 0 36 27" fill="none" xmlns="http://www.w3.org/2000/svg">
<path d="M10.469 14.32H11.9298C13.351 14.32 14.2508 15.1691 14.2618 16.3418C14.2794 17.5482 13.3224 18.4063 11.8726 18.4063C10.557 18.3973 9.5912 17.6762 9.523 16.708H7.125C7.191 18.7612 8.8652 20.5 11.8616 20.5C14.5896 20.5 16.8886 19.0173 16.86 16.4609C16.8314 14.32 15.2166 13.3608 14.0176 13.2439V13.1047C14.9856 12.9474 16.4926 11.9208 16.4552 10.0158C16.4266 7.98048 14.6952 6.48883 11.9386 6.50006C9.0566 6.5113 7.444 8.14896 7.3758 10.2517H9.8024C9.8508 9.37328 10.645 8.56456 11.8616 8.56456C13.032 8.56456 13.9032 9.30589 13.9032 10.3909C13.912 11.467 13.0606 12.2667 11.8616 12.2667H10.4712V14.32H10.469ZM18.4022 6.75616V20.2327H23.218C27.2 20.2327 29.125 17.7458 29.125 13.4596C29.125 9.2048 27.2308 6.75616 23.218 6.75616H18.4022ZM21.0136 8.92849H22.8704C25.3168 8.92849 26.4366 10.4696 26.4366 13.5113C26.4366 16.5507 25.3256 18.0491 22.8704 18.0491H21.0136V8.92849Z" fill="#42BD98"/>
<path d="M30.75 2.66667C31.3302 2.66667 31.8866 2.89494 32.2968 3.30127C32.707 3.7076 32.9375 4.2587 32.9375 4.83333V22.1667C32.9375 22.7413 32.707 23.2924 32.2968 23.6987C31.8866 24.1051 31.3302 24.3333 30.75 24.3333H4.5C3.91984 24.3333 3.36344 24.1051 2.9532 23.6987C2.54297 23.2924 2.3125 22.7413 2.3125 22.1667V4.83333C2.3125 4.2587 2.54297 3.7076 2.9532 3.30127C3.36344 2.89494 3.91984 2.66667 4.5 2.66667H30.75ZM4.5 0.5C3.33968 0.5 2.22688 0.956546 1.40641 1.7692C0.585936 2.58186 0.125 3.68406 0.125 4.83333L0.125 22.1667C0.125 23.3159 0.585936 24.4181 1.40641 25.2308C2.22688 26.0435 3.33968 26.5 4.5 26.5H30.75C31.9103 26.5 33.0231 26.0435 33.8436 25.2308C34.6641 24.4181 35.125 23.3159 35.125 22.1667V4.83333C35.125 3.68406 34.6641 2.58186 33.8436 1.7692C33.0231 0.956546 31.9103 0.5 30.75 0.5H4.5Z" fill="#42BD98"/>
</svg>
