<svg width="65" height="52" viewBox="0 0 65 52" fill="none" xmlns="http://www.w3.org/2000/svg">
  <path d="M54.6766 21.8779L36.3295 29.6526L36.376 49.4262L54.7238 41.653L54.6766 21.8786V21.8779ZM55.4226 19.2964C56.208 19.2964 56.9218 19.9186 56.9218 20.7562L56.9769 42.1209C56.9769 42.7045 56.624 43.2348 56.0748 43.4649L36.2264 51.885C36.0412 51.9658 35.8407 52.0077 35.6379 52.0077C34.8525 52.0077 34.1379 51.3855 34.1379 50.5486L34.0828 29.184C34.0828 28.5996 34.4365 28.07 34.9863 27.8392L54.8255 19.4353C55.0217 19.335 55.2257 19.2964 55.4219 19.2964H55.4226ZM32.8829 7.26582L13.852 15.5785L32.9222 23.8063L51.9452 15.4866L32.8822 7.26582H32.8829ZM32.875 5C33.079 5 33.2902 5.03858 33.4793 5.12276L54.3938 14.1418C55.5794 14.6567 55.5873 16.3003 54.4016 16.8152L33.5344 25.9417C33.343 26.0223 33.1377 26.0665 32.9294 26.0721C32.7214 26.0736 32.5154 26.0318 32.3251 25.9494L11.4027 16.9226C10.2171 16.4084 10.2093 14.7641 11.3949 14.2499L32.27 5.13048C32.459 5.0463 32.6631 5 32.875 5V5ZM11.2925 21.8779L11.2452 41.6523L29.5931 49.4255L29.6403 29.6518L11.2925 21.8779ZM10.5465 19.2964C10.7426 19.2964 10.9395 19.335 11.1357 19.4192L30.982 27.8315C31.2505 27.9443 31.4792 28.1319 31.6399 28.3709C31.8005 28.61 31.8859 28.89 31.8855 29.1762L31.8304 50.5402C31.8304 51.3855 31.1238 51.9993 30.3312 51.9993C30.1282 51.9996 29.9275 51.958 29.742 51.8772L9.90282 43.4727C9.6346 43.3598 9.40607 43.1723 9.24559 42.9333C9.08511 42.6944 8.99971 42.4146 9 42.1286L9.05513 20.7639C9.05475 20.3757 9.21154 20.0032 9.49112 19.7281C9.7707 19.4529 10.1502 19.2977 10.5465 19.2964Z" fill="#C4072B"/>
</svg>
