<svg width="65" height="52" viewBox="0 0 65 52" fill="none" xmlns="http://www.w3.org/2000/svg">
  <path d="M21.5426 33.0148H51.9735L57.3576 15.1197H49.4341L46.5888 6.93772L34.7245 10.5192L36.3469 15.1197H35.7884L32.8595 6.93772L20.9946 10.5192L22.617 15.1197H16.2737L14.9566 10.2147C14.2928 7.76134 11.9961 6.02539 9.35087 6.02539H5.72656V8.07568H9.35087C10.9943 8.07568 12.4278 9.09589 12.8705 10.6363L18.6973 31.867C18.0809 32.2777 17.5784 32.8206 17.232 33.4503C16.8855 34.0801 16.7051 34.7784 16.7059 35.4867C16.7059 37.9401 18.9079 39.9904 21.5426 39.9904H51.2044V37.9395H21.5426C20.1098 37.9395 18.9079 36.8114 18.9079 35.4873C18.9079 34.1429 20.1197 33.0148 21.5426 33.0148ZM45.1664 9.48908L47.1473 15.0118H38.581L37.3692 11.8433L45.1664 9.48853V9.48908ZM31.4365 9.48908L33.4174 15.0118H24.8511L23.6393 11.8433L31.4365 9.48853V9.48908ZM54.5024 17.0627L50.3295 30.9744H20.6677L16.8217 17.0627H54.503H54.5024ZM41.5421 43.0412C39.0132 43.0412 36.9265 44.9836 36.9265 47.3383C36.9265 49.6931 39.0132 51.6355 41.5421 51.6355C44.1763 51.6355 46.1572 49.6931 46.1572 47.3383C46.1572 44.9836 44.071 43.0412 41.5421 43.0412ZM41.5421 49.6931C40.1092 49.6931 39.0132 48.565 39.0132 47.3383C39.0132 46.0043 40.225 44.9836 41.5421 44.9836C42.975 44.9836 44.071 46.0043 44.071 47.3383C44.071 48.6729 42.8592 49.6931 41.5421 49.6931ZM24.6195 43.0412C22.0906 43.0412 20.0045 44.9836 20.0045 47.3383C20.0045 49.6931 22.0906 51.6355 24.6195 51.6355C27.1484 51.6355 29.2351 49.6931 29.2351 47.3383C29.2351 44.9836 27.1484 43.0412 24.6195 43.0412ZM24.6195 49.6931C23.1866 49.6931 22.0906 48.565 22.0906 47.3383C22.0906 46.0043 23.3024 44.9836 24.6195 44.9836C25.9366 44.9836 27.1484 46.0043 27.1484 47.3383C27.1484 48.6729 25.9366 49.6931 24.6195 49.6931Z" fill="#C4072B"/>
</svg>
