<svg width="14" height="14" viewBox="0 0 14 14" fill="none" xmlns="http://www.w3.org/2000/svg">
<path d="M6.13561 6.97374L10.6958 5.31396C10.8204 5.26861 10.9579 5.27461 11.0781 5.33065C11.1983 5.3867 11.2913 5.48819 11.3367 5.6128L12.5337 8.90172C12.5562 8.96342 12.5663 9.02894 12.5634 9.09454C12.5606 9.16014 12.5448 9.22453 12.517 9.28404C12.4893 9.34355 12.4501 9.39701 12.4017 9.44137C12.3533 9.48573 12.2966 9.52012 12.2349 9.54258L4.01259 12.5353M12.493 9.32925V12.1709C12.493 12.3035 12.4404 12.4307 12.3466 12.5245C12.2528 12.6183 12.1257 12.6709 11.993 12.6709H3.24305M1.03496 9.98648L2.54667 1.41318C2.56969 1.28258 2.64366 1.16649 2.75228 1.09043C2.86091 1.01437 2.9953 0.984571 3.12589 1.0076L6.57272 1.61537C6.70332 1.63839 6.81941 1.71236 6.89547 1.82098C6.97153 1.92961 7.00133 2.064 6.9783 2.1946L5.45888 10.8117C5.35657 11.3919 5.03079 11.9088 4.55152 12.2514C4.07224 12.594 3.47771 12.7349 2.89563 12.644C1.64921 12.4487 0.815882 11.2289 1.03496 9.98648Z" stroke="#C8C8C8" stroke-width="1.5" stroke-linecap="round" stroke-linejoin="round"/>
<path d="M3.24316 11.171C3.65738 11.171 3.99316 10.8352 3.99316 10.421C3.99316 10.0067 3.65738 9.67096 3.24316 9.67096C2.82895 9.67096 2.49316 10.0067 2.49316 10.421C2.49316 10.8352 2.82895 11.171 3.24316 11.171Z" fill="#C8C8C8"/>
</svg>
