<svg width="65" height="52" viewBox="0 0 65 52" fill="none" xmlns="http://www.w3.org/2000/svg">
  <path fill-rule="evenodd" clip-rule="evenodd" d="M14.1791 51.4409V50.4891H50.8218C51.0409 50.4891 51.4209 50.3511 51.8399 49.98C52.2413 49.6254 52.5568 49.1615 52.697 48.7316L54.929 41.3462L55.0007 41.2352C57.913 36.7129 59.3301 29.9692 60.0048 24.496L60.0876 23.825L60.752 23.6822C63.1879 23.1572 65.001 21.0253 65.001 18.5049C65.001 15.5942 62.5849 13.2022 59.5898 13.2022C56.5946 13.2022 54.1794 15.5934 54.1794 18.5049C54.1794 19.9047 54.737 21.1808 55.6515 22.1333L56.2665 22.7733L55.669 23.43C54.5953 24.6107 53.2848 25.5539 51.8221 26.1987C50.3594 26.8435 48.7771 27.1756 47.1775 27.1735C44.2923 27.1735 41.7536 25.4945 39.8593 23.3468C37.9555 21.1895 36.579 18.4263 36.0357 15.955L35.9226 15.4379L36.3034 15.0691C36.8115 14.5807 37.2158 13.9955 37.4921 13.3483C37.7684 12.7011 37.9111 12.0051 37.9116 11.3019C37.9116 8.39121 35.4956 6 32.5005 6C29.5053 6 27.0893 8.392 27.0893 11.3027C27.0893 12.7707 27.7027 14.1039 28.6984 15.0699L29.0784 15.4379L28.9653 15.9542C28.4228 18.4263 27.0455 21.1887 25.1417 23.3468C23.2474 25.4945 20.7087 27.1735 17.8243 27.1735C14.4532 27.1735 11.4198 25.7245 9.33274 23.43L8.7345 22.7733L9.34946 22.1333C10.2934 21.1591 10.8213 19.8585 10.8223 18.5049C10.8223 15.5942 8.40631 13.2022 5.41117 13.2022C2.41603 13.2022 0 15.5942 0 18.5049C0 21.0261 1.81302 23.158 4.24896 23.6822L4.91331 23.825L4.99615 24.496C5.67086 29.9684 7.08797 36.7129 9.99947 41.2344L10.0712 41.347L12.304 48.7316C12.4442 49.1615 12.7596 49.6254 13.1611 49.98C13.5801 50.3511 13.9601 50.4899 14.1791 50.4899V51.4417V51.4409ZM12.1048 42.1568L13.8414 48.0313H51.1349L52.9033 42.1568H12.104H12.1048ZM11.7065 40.1883H53.2952L53.5732 39.7251C55.7479 36.1014 56.9611 31.0962 57.6477 26.6865L58.05 24.105L56.0745 25.8244C53.6112 27.9686 50.4486 29.1475 47.1767 29.1412C41.1107 29.1412 35.9011 24.6022 34.2721 19.0529L34.0411 18.2685L33.2278 18.3764C33.1711 18.3846 33.1137 18.387 33.0565 18.3835C33.0437 18.3835 33.027 18.3819 33.0063 18.3803C32.8923 18.373 32.778 18.3691 32.6638 18.3684H32.6287L32.5945 18.3708H32.5921L32.5785 18.3716L32.5252 18.3748C32.479 18.378 32.4137 18.3803 32.342 18.3827C32.2256 18.3879 32.1091 18.3858 31.9931 18.3764L31.1797 18.2685L30.9487 19.0537C29.3237 24.5848 23.907 29.1412 17.8243 29.1412C14.4141 29.1412 11.3003 27.8881 8.92967 25.8268L6.95415 24.1089L7.35562 26.6897C8.04307 31.0993 9.25626 36.1054 11.4285 39.7243L11.7065 40.1883ZM59.5898 15.1699C57.7361 15.1699 56.2083 16.653 56.2083 18.5049C56.2083 20.356 57.7369 21.8391 59.5898 21.8391C61.4426 21.8391 62.9713 20.356 62.9713 18.5049C62.9713 16.653 61.4434 15.1699 59.5898 15.1699ZM32.5005 7.96848C30.6476 7.96848 29.119 9.45159 29.119 11.3027C29.119 13.1538 30.6476 14.6369 32.5005 14.6369C34.3541 14.6369 35.882 13.1538 35.882 11.3027C35.882 9.45079 34.3541 7.96769 32.5005 7.96769V7.96848ZM5.41117 15.1699C3.55753 15.1699 2.02969 16.653 2.02969 18.5049C2.02969 20.3568 3.55832 21.8391 5.41117 21.8391C7.26402 21.8391 8.79265 20.356 8.79265 18.5049C8.79265 16.653 7.26481 15.1699 5.41117 15.1699Z" fill="#C4072B"/>
</svg>
