<svg width="22" height="18" viewBox="0 0 22 18" fill="none" xmlns="http://www.w3.org/2000/svg">
<path d="M20.75 0.40625H1.25C0.835156 0.40625 0.5 0.755371 0.5 1.1875V16.8125C0.5 17.2446 0.835156 17.5938 1.25 17.5938H20.75C21.1648 17.5938 21.5 17.2446 21.5 16.8125V1.1875C21.5 0.755371 21.1648 0.40625 20.75 0.40625ZM19.8125 3.11133V15.8359H2.1875V3.11133L1.54063 2.58643L2.46172 1.35352L3.46484 2.1665H18.5375L19.5406 1.35352L20.4617 2.58643L19.8125 3.11133ZM18.5375 2.16406L11 8.26758L3.4625 2.16406L2.45938 1.35107L1.53828 2.58398L2.18516 3.10889L10.1914 9.59326C10.4217 9.77959 10.7049 9.88074 10.9965 9.88074C11.2881 9.88074 11.5713 9.77959 11.8016 9.59326L19.8125 3.11133L20.4594 2.58643L19.5383 1.35352L18.5375 2.16406Z" fill="white"/>
</svg>
