<svg width="13" height="14" viewBox="0 0 13 14" fill="none" xmlns="http://www.w3.org/2000/svg">
<path d="M6.5 11.5C5.94772 11.5 5.5 11.9477 5.5 12.5C5.5 13.0523 5.94772 13.5 6.5 13.5C7.05228 13.5 7.5 13.0523 7.5 12.5C7.5 11.9477 7.05228 11.5 6.5 11.5ZM6.5 11.5V9.5M0.5 9.5H12.5M4.5 6V7M6.5 5.5V7M8.5 5V7M11.5 2.5V9.5M1.5 9.5V2.5M1 0.5H12C12.2761 0.5 12.5 0.723858 12.5 1V2C12.5 2.27614 12.2761 2.5 12 2.5H1C0.723858 2.5 0.5 2.27614 0.5 2V1C0.5 0.723858 0.723858 0.5 1 0.5Z" stroke="#808080" stroke-linecap="round" stroke-linejoin="round"/>
</svg>
