<svg width="15" height="15" viewBox="0 0 15 15" fill="none" xmlns="http://www.w3.org/2000/svg">
<path d="M14.4602 7.5C14.4602 11.3672 11.3338 14.5 7.48009 14.5C3.62635 14.5 0.5 11.3672 0.5 7.5C0.5 3.63275 3.62635 0.5 7.48009 0.5C11.3338 0.5 14.4602 3.63275 14.4602 7.5Z" stroke="#808080"/>
<path d="M7.19874 11.8235C7.25406 11.9194 7.32265 11.9953 7.39939 12.0545C7.24262 12.0902 7.08526 12.1094 6.93909 12.1094C6.60968 12.1094 6.51418 12.0168 6.48019 11.9652C6.42852 11.8868 6.3662 11.678 6.47055 11.2125L6.47092 11.2109L7.34389 7.25333C7.34399 7.25287 7.3441 7.25241 7.3442 7.25195C7.38363 7.07746 7.43529 6.78174 7.26893 6.51502C7.2533 6.48996 7.23659 6.46651 7.21898 6.44454L8.15025 6.33194L7.11724 11.016L7.11683 11.0179C7.06505 11.2572 7.04669 11.5599 7.19874 11.8235ZM8.37326 3.36654C8.37326 3.53088 8.30575 3.69228 8.17941 3.81417C8.05246 3.93664 7.87657 4.00848 7.68956 4.00848C7.50255 4.00848 7.32666 3.93664 7.1997 3.81417C7.07336 3.69228 7.00586 3.53088 7.00586 3.36654C7.00586 3.20221 7.07336 3.0408 7.1997 2.91892C7.32666 2.79645 7.50255 2.72461 7.68956 2.72461C7.87657 2.72461 8.05246 2.79645 8.17941 2.91892C8.30575 3.0408 8.37326 3.20221 8.37326 3.36654Z" fill="#42BD98" stroke="#808080"/>
</svg>
