<svg width="12" height="15" viewBox="0 0 12 15" fill="none" xmlns="http://www.w3.org/2000/svg">
<path d="M6.25781 8C7.36238 8 8.25781 7.10457 8.25781 6C8.25781 4.89543 7.36238 4 6.25781 4C5.15324 4 4.25781 4.89543 4.25781 6C4.25781 7.10457 5.15324 8 6.25781 8Z" stroke="#808080" stroke-linecap="round" stroke-linejoin="round"/>
<path d="M11.2578 6C11.2578 10.5 6.25781 14 6.25781 14C6.25781 14 1.25781 10.5 1.25781 6C1.25781 4.67392 1.7846 3.40215 2.72228 2.46447C3.65996 1.52678 4.93173 1 6.25781 1C7.5839 1 8.85566 1.52678 9.79335 2.46447C10.731 3.40215 11.2578 4.67392 11.2578 6Z" stroke="#808080" stroke-linecap="round" stroke-linejoin="round"/>
</svg>
