<svg width="16" height="16" viewBox="0 0 16 16" fill="none" xmlns="http://www.w3.org/2000/svg">
<circle cx="8.2793" cy="7.625" r="7" stroke="#42BD98"/>
<path d="M9.59688 5.87587L6.87899 6.20361L6.78167 6.63754L7.31575 6.73232C7.66469 6.81226 7.73353 6.9333 7.65757 7.26789L6.78167 11.2281C6.55142 12.2524 6.90629 12.7343 7.74065 12.7343C8.38748 12.7343 9.13876 12.4466 9.47938 12.0515L9.58383 11.5764C9.34646 11.7774 8.9999 11.8573 8.76965 11.8573C8.44326 11.8573 8.32458 11.6369 8.40884 11.2487L9.59688 5.87587ZM9.67996 3.49151C9.67996 3.79437 9.55492 4.08483 9.33234 4.29898C9.10976 4.51314 8.80788 4.63345 8.49311 4.63345C8.17834 4.63345 7.87646 4.51314 7.65388 4.29898C7.4313 4.08483 7.30626 3.79437 7.30626 3.49151C7.30626 3.18865 7.4313 2.8982 7.65388 2.68404C7.87646 2.46989 8.17834 2.34958 8.49311 2.34958C8.80788 2.34958 9.10976 2.46989 9.33234 2.68404C9.55492 2.8982 9.67996 3.18865 9.67996 3.49151Z" fill="#42BD98"/>
</svg>
