<svg width="35" height="35" viewBox="0 0 35 35" fill="none" xmlns="http://www.w3.org/2000/svg">
<circle cx="17.5" cy="17.5" r="17.5" fill="#FAFAFA"/>
<path d="M24.625 20.6667V14.3333C24.6247 14.0557 24.5514 13.783 24.4125 13.5426C24.2735 13.3022 24.0738 13.1026 23.8333 12.9638L18.2917 9.79709C18.051 9.65812 17.7779 9.58496 17.5 9.58496C17.2221 9.58496 16.949 9.65812 16.7083 9.79709L11.1667 12.9638C10.9262 13.1026 10.7265 13.3022 10.5875 13.5426C10.4486 13.783 10.3753 14.0557 10.375 14.3333V20.6667C10.3753 20.9443 10.4486 21.217 10.5875 21.4574C10.7265 21.6978 10.9262 21.8974 11.1667 22.0363L16.7083 25.2029C16.949 25.3419 17.2221 25.415 17.5 25.415C17.7779 25.415 18.051 25.3419 18.2917 25.2029L23.8333 22.0363C24.0738 21.8974 24.2735 21.6978 24.4125 21.4574C24.5514 21.217 24.6247 20.9443 24.625 20.6667Z" stroke="#808080" stroke-width="2" stroke-linecap="round" stroke-linejoin="round"/>
<path d="M10.5898 13.51L17.5011 17.5079L24.4123 13.51" stroke="#808080" stroke-width="2" stroke-linecap="round" stroke-linejoin="round"/>
<path d="M17.5 25.48V17.5" stroke="#808080" stroke-width="2" stroke-linecap="round" stroke-linejoin="round"/>
</svg>
