<svg width="35" height="35" viewBox="0 0 35 35" fill="none" xmlns="http://www.w3.org/2000/svg">
<circle cx="17.5" cy="17.5" r="17.5" fill="#FAFAFA"/>
<g clip-path="url(#clip0_6105_38477)">
<path d="M24.4981 21.69V23.94C24.499 24.1489 24.4562 24.3556 24.3725 24.547C24.2888 24.7384 24.1661 24.9102 24.0122 25.0514C23.8583 25.1926 23.6765 25.3001 23.4787 25.367C23.2808 25.434 23.0711 25.4588 22.8631 25.44C20.5552 25.1892 18.3384 24.4006 16.3906 23.1375C14.5785 21.986 13.0421 20.4496 11.8906 18.6375C10.6231 16.6809 9.8343 14.4533 9.58812 12.135C9.56938 11.9276 9.59402 11.7186 9.66049 11.5212C9.72696 11.3239 9.8338 11.1425 9.97419 10.9887C10.1146 10.8349 10.2855 10.712 10.476 10.6279C10.6665 10.5438 10.8724 10.5002 11.0806 10.5H13.3306C13.6946 10.4964 14.0475 10.6253 14.3234 10.8627C14.5994 11.1 14.7797 11.4296 14.8306 11.79C14.9256 12.5101 15.1017 13.2171 15.3556 13.8975C15.4565 14.166 15.4784 14.4577 15.4185 14.7382C15.3587 15.0186 15.2198 15.2761 15.0181 15.48L14.0656 16.4325C15.1333 18.3102 16.688 19.8648 18.5656 20.9325L19.5181 19.98C19.722 19.7784 19.9795 19.6394 20.26 19.5796C20.5404 19.5198 20.8322 19.5416 21.1006 19.6425C21.7811 19.8964 22.4881 20.0725 23.2081 20.1675C23.5724 20.2189 23.9052 20.4024 24.143 20.6831C24.3809 20.9638 24.5072 21.3222 24.4981 21.69Z" stroke="#808080" stroke-width="2" stroke-linecap="round" stroke-linejoin="round"/>
</g>
<defs>
<clipPath id="clip0_6105_38477">
<rect width="18" height="18" fill="white" transform="translate(8 9)"/>
</clipPath>
</defs>
</svg>
