<svg width="35" height="35" viewBox="0 0 35 35" fill="none" xmlns="http://www.w3.org/2000/svg">
<circle cx="17.5" cy="17.5" r="17.5" fill="#FAFAFA"/>
<path d="M23.75 16.5C23.75 21.75 17 26.25 17 26.25C17 26.25 10.25 21.75 10.25 16.5C10.25 14.7098 10.9612 12.9929 12.227 11.727C13.4929 10.4612 15.2098 9.75 17 9.75C18.7902 9.75 20.5071 10.4612 21.773 11.727C23.0388 12.9929 23.75 14.7098 23.75 16.5Z" stroke="#808080" stroke-width="2" stroke-linecap="round" stroke-linejoin="round"/>
<path d="M17 18.75C18.2426 18.75 19.25 17.7426 19.25 16.5C19.25 15.2574 18.2426 14.25 17 14.25C15.7574 14.25 14.75 15.2574 14.75 16.5C14.75 17.7426 15.7574 18.75 17 18.75Z" stroke="#808080" stroke-width="2" stroke-linecap="round" stroke-linejoin="round"/>
</svg>
