<svg width="35" height="35" viewBox="0 0 35 35" fill="none" xmlns="http://www.w3.org/2000/svg">
<circle cx="17.5" cy="17.5" r="17.5" fill="#FAFAFA"/>
<path d="M24.625 17.1042C24.6277 18.1491 24.3836 19.1798 23.9125 20.1125C23.3539 21.2302 22.4952 22.1702 21.4326 22.8274C20.3699 23.4845 19.1453 23.8329 17.8958 23.8334C16.8509 23.8361 15.8202 23.592 14.8875 23.1209L10.375 24.625L11.8792 20.1125C11.4081 19.1798 11.1639 18.1491 11.1667 17.1042C11.1672 15.8547 11.5155 14.6301 12.1727 13.5675C12.8298 12.5048 13.7699 11.6461 14.8875 11.0875C15.8202 10.6164 16.8509 10.3723 17.8958 10.375H18.2917C19.9418 10.4661 21.5003 11.1625 22.6689 12.3311C23.8375 13.4997 24.534 15.0582 24.625 16.7084V17.1042Z" stroke="#808080" stroke-width="2" stroke-linecap="round" stroke-linejoin="round"/>
</svg>
