<svg width="19" height="20" viewBox="0 0 19 20" fill="none" xmlns="http://www.w3.org/2000/svg">
<path d="M18.4414 11.5417V10.1667H14.5039V17.0417H15.8164V14.2917H17.7852V12.9167H15.8164V11.5417H18.4414Z" fill="white"/>
<path d="M11.2227 17.0417H8.59766V10.1667H11.2227C11.7446 10.1673 12.2451 10.3848 12.6142 10.7714C12.9833 11.1581 13.1909 11.6824 13.1914 12.2292V14.9792C13.1909 15.5261 12.9833 16.0504 12.6142 16.4371C12.2451 16.8237 11.7446 17.0412 11.2227 17.0417ZM9.91016 15.6667H11.2227C11.3967 15.6666 11.5635 15.5941 11.6865 15.4652C11.8095 15.3363 11.8787 15.1615 11.8789 14.9792V12.2292C11.8787 12.047 11.8095 11.8722 11.6865 11.7433C11.5635 11.6144 11.3967 11.5419 11.2227 11.5417H9.91016V15.6667Z" fill="white"/>
<path d="M5.97266 10.1667H2.69141V17.0417H4.00391V14.9792H5.97266C6.32059 14.9787 6.65413 14.8337 6.90016 14.5759C7.14619 14.3182 7.28464 13.9688 7.28516 13.6042V11.5417C7.28481 11.1772 7.14642 10.8277 6.90035 10.5699C6.65428 10.3121 6.32065 10.1671 5.97266 10.1667ZM4.00391 13.6042V11.5417H5.97266L5.97331 13.6042H4.00391Z" fill="white"/>
<path d="M13.1914 8.79175V6.04175C13.1937 5.95139 13.1773 5.86159 13.1433 5.77851C13.1093 5.69543 13.0586 5.62105 12.9945 5.5605L8.40078 0.747995C8.34301 0.680857 8.27201 0.627649 8.19271 0.592041C8.1134 0.556433 8.02766 0.539273 7.94141 0.541745H1.37891C1.03113 0.542833 0.697893 0.688049 0.451976 0.945676C0.206059 1.2033 0.0674449 1.55241 0.0664062 1.91675V18.4167C0.0664063 18.7814 0.204687 19.1312 0.450829 19.389C0.69697 19.6469 1.03081 19.7917 1.37891 19.7917H11.8789V18.4167H1.37891V1.91675H6.62891V6.04175C6.62994 6.40608 6.76856 6.75519 7.01448 7.01282C7.26039 7.27044 7.59363 7.41566 7.94141 7.41675H11.8789V8.79175H13.1914ZM7.94141 6.04175V2.19175L11.6164 6.04175H7.94141Z" fill="white"/>
</svg>
