<svg width="17" height="17" viewBox="0 0 17 17" fill="none" xmlns="http://www.w3.org/2000/svg">
<path d="M4.50758 1.41835C5.09148 1.41835 5.62947 1.73503 5.91296 2.24558L6.89607 4.0165C7.15351 4.48026 7.16561 5.04117 6.92838 5.51555L6.11666 7.13807L6.12913 7.17732L6.20531 7.39263C6.3583 7.7965 6.57118 8.20106 6.85112 8.57563C6.97446 8.74067 7.10858 8.89649 7.25386 9.04176C7.39735 9.18525 7.551 9.31774 7.71357 9.43962C8.08827 9.72053 8.49287 9.93357 8.89677 10.0861C8.97564 10.1159 9.04777 10.1411 9.11194 10.162L9.15101 10.1742L10.775 9.3627C11.2023 9.14903 11.6997 9.13761 12.1331 9.32549L12.275 9.39549L14.0509 10.3828C14.561 10.6664 14.8773 11.2041 14.8773 11.7877V13.8266C14.8773 15.4142 13.3744 16.5525 11.8684 16.0443C8.85843 15.0287 6.19188 13.6629 4.41234 11.8833C2.63275 10.1038 1.26699 7.43722 0.251348 4.4272C-0.256804 2.92119 0.881509 1.41835 2.46909 1.41835H4.50758ZM4.50761 3.02577H2.46909C1.96073 3.02577 1.62465 3.46947 1.77441 3.91329C2.71755 6.70846 3.9847 9.18246 5.54896 10.7467C7.11318 12.3109 9.58719 13.5781 12.3824 14.5212C12.8262 14.671 13.2699 14.3349 13.2699 13.8266V11.7877L11.494 10.8004L9.60002 11.7473C9.44211 11.8263 9.2626 11.8511 9.08921 11.8178C8.47723 11.7004 7.61498 11.3747 6.74936 10.7257C6.52702 10.559 6.3157 10.3768 6.11725 10.1784C5.91639 9.97753 5.73207 9.7634 5.56355 9.53791C4.91801 8.67414 4.59219 7.814 4.4735 7.20375C4.43965 7.02974 4.46429 6.84943 4.54356 6.69087L5.49068 4.79664L4.50761 3.02577ZM11.8243 0.348197C12.873 0.611163 13.8349 1.1516 14.6155 1.93226C15.3962 2.71295 15.9367 3.67481 16.1996 4.72349C16.3933 5.49576 16.4323 6.30009 16.3149 7.08743C16.2495 7.52646 15.8405 7.8293 15.4015 7.76385C14.9625 7.69841 14.6596 7.28945 14.7251 6.85042C14.8113 6.27218 14.7826 5.68126 14.6405 5.11444C14.4478 4.34604 14.0524 3.6424 13.4789 3.06888C12.9054 2.4954 12.2018 2.10003 11.4334 1.90735C10.8666 1.76523 10.2756 1.73656 9.69737 1.82276C9.25834 1.8882 8.84939 1.58535 8.78395 1.14633C8.71851 0.707298 9.02136 0.298345 9.46038 0.232903C10.2477 0.115541 11.0521 0.154551 11.8243 0.348197ZM12.3586 4.01556C13.0879 4.74493 13.414 5.76419 13.2649 6.7647C13.1994 7.20372 12.7905 7.50657 12.3514 7.44112C11.9438 7.38035 11.6535 7.02339 11.6665 6.6212L11.675 6.5277C11.7498 6.02576 11.5872 5.51747 11.222 5.1522C10.8931 4.82341 10.4486 4.6588 9.99704 4.6837L9.84643 4.69906C9.4074 4.76451 8.99844 4.46166 8.933 4.02263C8.86755 3.58361 9.1704 3.17465 9.60943 3.10921C10.6099 2.96006 11.6291 3.28618 12.3586 4.01556Z" fill="#C5072B"/>
</svg>
