<svg width="13" height="13" viewBox="0 0 13 13" fill="none" xmlns="http://www.w3.org/2000/svg">
<path d="M4.03758 6.30095C4.55623 7.36129 5.41573 8.21689 6.47841 8.7307C6.55617 8.76754 6.64217 8.7835 6.72797 8.77701C6.81376 8.77052 6.89639 8.7418 6.96771 8.69368L8.53244 7.65028C8.60164 7.60414 8.68126 7.57598 8.76409 7.56838C8.84692 7.56077 8.93034 7.57394 9.00679 7.60671L11.9341 8.86127C12.0335 8.90351 12.1166 8.97692 12.1707 9.07045C12.2247 9.16398 12.247 9.27255 12.234 9.37981C12.1415 10.1038 11.7882 10.7693 11.2404 11.2516C10.6926 11.7339 9.9877 12 9.25781 12C7.00347 12 4.84146 11.1045 3.24741 9.51041C1.65335 7.91635 0.757813 5.75434 0.757812 3.5C0.757851 2.77011 1.02393 2.06526 1.50624 1.51742C1.98854 0.969588 2.654 0.616337 3.378 0.523813C3.48526 0.510833 3.59383 0.533062 3.68736 0.587152C3.78088 0.641241 3.8543 0.724261 3.89654 0.823702L5.1522 3.75357C5.18468 3.82935 5.19791 3.91199 5.19072 3.99413C5.18353 4.07626 5.15614 4.15535 5.11099 4.22434L4.07122 5.81307C4.02389 5.88454 3.99592 5.96706 3.99002 6.05257C3.98413 6.13809 4.00051 6.22367 4.03758 6.30095V6.30095Z" stroke="#808080" stroke-linecap="round" stroke-linejoin="round"/>
</svg>
