<svg width="20" height="20" viewBox="0 0 20 20" fill="none" xmlns="http://www.w3.org/2000/svg">
<path d="M5.68931 2.03705C6.37193 2.03705 7.00088 2.41311 7.3323 3.0194L8.48163 5.12236C8.78259 5.67307 8.79674 6.33916 8.5194 6.90248L7.57045 8.82922L7.58502 8.87584L7.67408 9.13151C7.85293 9.61112 8.10181 10.0915 8.42908 10.5363C8.57328 10.7323 8.73007 10.9173 8.89991 11.0899C9.06766 11.2603 9.2473 11.4176 9.43735 11.5623C9.87539 11.8959 10.3484 12.1489 10.8206 12.3301C10.9128 12.3654 10.9971 12.3953 11.0722 12.4202L11.1178 12.4346L13.0164 11.471C13.5159 11.2172 14.0974 11.2037 14.6041 11.4268L14.77 11.5099L16.8461 12.6824C17.4425 13.0191 17.8123 13.6577 17.8123 14.3507V16.7718C17.8123 18.6571 16.0553 20.0088 14.2947 19.4054C10.7758 18.1993 7.65838 16.5775 5.57796 14.4642C3.49749 12.351 1.90081 9.18447 0.713456 5.61006C0.119389 3.82168 1.45016 2.03705 3.30616 2.03705H5.68931ZM5.68934 3.94587H3.30616C2.71185 3.94587 2.31895 4.47276 2.49402 4.9998C3.59663 8.31907 5.07802 11.2569 6.90676 13.1145C8.73544 14.972 11.6277 16.4768 14.8955 17.5967C15.4144 17.7746 15.9331 17.3755 15.9331 16.7718V14.3507L13.8569 13.1782L11.6427 14.3027C11.4581 14.3965 11.2483 14.4259 11.0456 14.3864C10.3301 14.247 9.32209 13.8602 8.31011 13.0896C8.05018 12.8916 7.80314 12.6753 7.57113 12.4396C7.33631 12.2011 7.12083 11.9468 6.92382 11.679C6.16913 10.6533 5.78823 9.63189 5.64946 8.90722C5.6099 8.70059 5.63869 8.48646 5.73137 8.29818L6.83863 6.04877L5.68934 3.94587ZM14.2432 0.766252C15.4692 1.07852 16.5936 1.7203 17.5063 2.64733C18.4189 3.5744 19.0508 4.7166 19.3582 5.96191C19.5846 6.87898 19.6302 7.83413 19.493 8.76909C19.4165 9.29043 18.9384 9.65006 18.4251 9.57235C17.9118 9.49463 17.5578 9.00899 17.6343 8.48765C17.7351 7.80099 17.7016 7.09926 17.5354 6.42617C17.3102 5.5137 16.848 4.67812 16.1775 3.99707C15.507 3.31605 14.6844 2.84656 13.7861 2.61775C13.1235 2.44897 12.4326 2.41494 11.7566 2.5173C11.2433 2.59501 10.7652 2.23537 10.6887 1.71403C10.6122 1.19268 10.9662 0.707053 11.4795 0.62934C12.4 0.489973 13.3403 0.536297 14.2432 0.766252ZM14.8677 5.12125C15.7204 5.98738 16.1016 7.19774 15.9272 8.38585C15.8507 8.90719 15.3726 9.26682 14.8594 9.1891C14.3828 9.11694 14.0435 8.69305 14.0587 8.21544L14.0686 8.10441C14.1561 7.50836 13.9659 6.90476 13.5389 6.47101C13.1545 6.08056 12.6347 5.88509 12.1069 5.91467L11.9308 5.9329C11.4176 6.01062 10.9395 5.65099 10.863 5.12965C10.7864 4.6083 11.1405 4.12267 11.6537 4.04495C12.8234 3.86785 14.0149 4.2551 14.8677 5.12125Z" fill="#ABABAB"/>
</svg>
