<svg width="20" height="16" viewBox="0 0 20 16" fill="none" xmlns="http://www.w3.org/2000/svg">
<path d="M18.7834 3.35004C18.6844 2.95455 18.4828 2.59218 18.1989 2.29955C17.915 2.00691 17.559 1.79436 17.1667 1.68337C15.7334 1.33337 10 1.33337 10 1.33337C10 1.33337 4.2667 1.33337 2.83336 1.71671C2.44107 1.82769 2.08501 2.04024 1.80115 2.33288C1.51729 2.62552 1.31569 2.98788 1.2167 3.38337C0.954374 4.838 0.826059 6.31363 0.833362 7.79171C0.824012 9.28091 0.952335 10.7678 1.2167 12.2334C1.32583 12.6166 1.53195 12.9652 1.81515 13.2454C2.09835 13.5257 2.44905 13.7282 2.83336 13.8334C4.2667 14.2167 10 14.2167 10 14.2167C10 14.2167 15.7334 14.2167 17.1667 13.8334C17.559 13.7224 17.915 13.5098 18.1989 13.2172C18.4828 12.9246 18.6844 12.5622 18.7834 12.1667C19.0437 10.723 19.172 9.25865 19.1667 7.79171C19.176 6.3025 19.0477 4.81562 18.7834 3.35004Z" stroke="#C5072B" stroke-width="2" stroke-linecap="round" stroke-linejoin="round"/>
<path d="M8.125 10.5167L12.9167 7.79165L8.125 5.06665V10.5167Z" stroke="#C5072B" stroke-width="2" stroke-linecap="round" stroke-linejoin="round"/>
</svg>
