<svg width="22" height="16" viewBox="0 0 22 16" fill="none" xmlns="http://www.w3.org/2000/svg">
<path d="M8 1.25V14.75" stroke="#C8C8C8" stroke-width="1.5" stroke-linecap="round" stroke-linejoin="round"/>
<path d="M1.25 11.6741C1.24997 11.5013 1.30968 11.3338 1.41902 11.2C1.52836 11.0662 1.68059 10.9744 1.84992 10.94C2.52749 10.8016 3.13645 10.4334 3.57379 9.89763C4.01113 9.36191 4.25 8.69157 4.25 8C4.25 7.30843 4.01113 6.63809 3.57379 6.10237C3.13645 5.56665 2.52749 5.19843 1.84992 5.06C1.68059 5.02562 1.52836 4.93376 1.41902 4.79997C1.30968 4.66618 1.24997 4.4987 1.25 4.32592V2C1.25 1.80109 1.32902 1.61032 1.46967 1.46967C1.61032 1.32902 1.80109 1.25 2 1.25H20C20.1989 1.25 20.3897 1.32902 20.5303 1.46967C20.671 1.61032 20.75 1.80109 20.75 2V4.32592C20.75 4.4987 20.6903 4.66618 20.581 4.79997C20.4716 4.93376 20.3194 5.02563 20.1501 5.06C19.4725 5.19843 18.8635 5.56665 18.4262 6.10237C17.9889 6.6381 17.75 7.30844 17.75 8C17.75 8.69157 17.9889 9.36191 18.4262 9.89763C18.8635 10.4334 19.4725 10.8016 20.1501 10.94C20.3194 10.9744 20.4716 11.0662 20.581 11.2C20.6903 11.3338 20.75 11.5013 20.75 11.6741V14C20.75 14.1989 20.671 14.3897 20.5303 14.5303C20.3897 14.671 20.1989 14.75 20 14.75H2C1.80109 14.75 1.61032 14.671 1.46967 14.5303C1.32902 14.3897 1.25 14.1989 1.25 14V11.6741Z" stroke="#C8C8C8" stroke-width="1.5" stroke-linecap="round" stroke-linejoin="round"/>
</svg>
