<svg xmlns="http://www.w3.org/2000/svg" width="62" height="55" fill="none"><rect width="62" height="54.12" fill="#C5072B" rx="5"/><g fill="#fff" clip-path="url(#a)"><path d="M14.66 27.53h-4.1l-.9 2.13H7.23l4.04-8.93h2.87l4.05 8.93h-2.65l-.87-2.13Zm-3.57-1.44h3.05l-1.45-3.5h-.14l-1.46 3.5ZM22.6 29.66h-2.44v-8.93h4.89c.64 0 1.22.06 1.73.2.51.13.94.32 1.3.56a2.47 2.47 0 0 1 1.1 2.1 2.43 2.43 0 0 1-.55 1.55c-.18.22-.4.41-.66.58-.27.17-.56.31-.9.41l2.46 3.53h-2.77l-2.17-3.24h-2v3.24Zm0-4.67h2.14c.62 0 1.1-.12 1.43-.36.34-.24.51-.58.51-1.01a1.2 1.2 0 0 0-.53-1 1.92 1.92 0 0 0-.62-.28c-.24-.07-.52-.1-.82-.1H22.6v2.75ZM36.23 20.72c.86 0 1.64.1 2.32.3.67.2 1.25.48 1.71.86.47.38.82.84 1.07 1.38.24.55.36 1.17.36 1.87 0 .73-.12 1.37-.36 1.93a3.7 3.7 0 0 1-1.06 1.42c-.47.39-1.04.68-1.72.88-.68.2-1.45.3-2.32.3h-4.59v-8.94h4.59Zm-2.15 7.34h1.76c1.09 0 1.92-.24 2.5-.74.58-.49.87-1.21.87-2.16 0-.45-.08-.85-.23-1.2a2.39 2.39 0 0 0-.66-.9 2.93 2.93 0 0 0-1.06-.55 4.92 4.92 0 0 0-1.42-.2h-1.76v5.75ZM49.1 20.5c.85 0 1.63.1 2.32.33.69.22 1.27.53 1.76.93.48.4.85.9 1.12 1.48.26.58.39 1.23.39 1.95 0 .73-.13 1.38-.4 1.96a4.06 4.06 0 0 1-1.1 1.48c-.49.4-1.08.71-1.77.93-.7.22-1.47.33-2.33.33a7.7 7.7 0 0 1-2.34-.33 5.13 5.13 0 0 1-1.76-.93 4.1 4.1 0 0 1-1.12-1.48 4.73 4.73 0 0 1-.4-1.96c0-.72.14-1.37.4-1.95.26-.58.64-1.07 1.13-1.48.49-.4 1.08-.72 1.77-.94.7-.21 1.47-.32 2.32-.32Zm0 1.64c-.48 0-.91.07-1.3.21a2.7 2.7 0 0 0-1.61 1.57c-.14.39-.21.8-.21 1.27s.07.9.21 1.27a2.68 2.68 0 0 0 1.6 1.57c.39.15.82.22 1.3.22.47 0 .9-.07 1.29-.22a2.69 2.69 0 0 0 1.6-1.58c.15-.37.22-.79.22-1.26 0-.46-.07-.88-.22-1.26a2.62 2.62 0 0 0-1.6-1.58c-.39-.14-.81-.21-1.29-.21ZM20.14 34.19c.26.1.66.18 1.07.18.61 0 .97-.2.97-.47 0-.26-.25-.4-.87-.55-.76-.15-1.23-.39-1.23-.77 0-.43.6-.75 1.5-.75.48 0 .82.07 1.03.14l-.17.28a2.87 2.87 0 0 0-.88-.13c-.63 0-.87.23-.87.42 0 .25.28.38.92.52.78.18 1.18.4 1.18.81 0 .42-.53.79-1.62.79-.45 0-.94-.08-1.19-.18l.16-.3ZM24.49 32.18h-1.41v-.3h3.43v.3h-1.42v2.44h-.6v-2.44ZM27.63 31.88v1.62c0 .61.46.87 1.08.87.68 0 1.12-.27 1.12-.87v-1.62h.6v1.6c0 .84-.74 1.18-1.74 1.18-.95 0-1.67-.32-1.67-1.17v-1.61h.6ZM31.48 31.92c.36-.04.8-.06 1.27-.06.86 0 1.47.11 1.88.34.4.22.65.54.65.98 0 .45-.23.82-.67 1.07-.43.26-1.14.4-2.05.4-.42 0-.78-.02-1.08-.04v-2.7Zm.6 2.42c.15.02.37.02.6.02 1.28 0 1.97-.42 1.97-1.16 0-.65-.6-1.06-1.88-1.06-.3 0-.54.02-.7.04v2.16ZM36.65 31.88v2.74h-.6v-2.74h.6ZM41.66 33.22c0 .94-.97 1.44-2.15 1.44-1.23 0-2.09-.56-2.09-1.39 0-.87.92-1.44 2.15-1.44 1.27 0 2.09.58 2.09 1.4Zm-3.6.04c0 .59.54 1.11 1.48 1.11.95 0 1.48-.51 1.48-1.14 0-.54-.48-1.1-1.47-1.1-1 0-1.49.53-1.49 1.13Z"/></g><defs><clipPath id="a"><path fill="#fff" d="M7.22 20.5h47.47v14.16H7.22z"/></clipPath></defs></svg>