<svg xmlns="http://www.w3.org/2000/svg">
    <defs>
        <style>
            .cls-1 {
                fill: #c1c1c2
            }
        </style>
    </defs>
<symbol width="19" height="20" viewBox="0 0 19 20" fill="none" id="icon-user2">
<path fill-rule="evenodd" clip-rule="evenodd" d="M6.36052 12.2649C6.70873 12.0116 7.18943 12.0494 7.49389 12.3538L9.50017 14.3601L11.5065 12.3538C11.8109 12.0494 12.2916 12.0116 12.6398 12.2649L17.4523 15.7649C17.63 15.8941 17.7526 16.0855 17.7957 16.3009L18.2332 18.4884C18.3279 18.9623 18.0206 19.4233 17.5468 19.518C17.0729 19.6128 16.6119 19.3055 16.5172 18.8316L16.1467 16.9792L12.2152 14.1199L10.1189 16.2163C9.77718 16.558 9.22316 16.558 8.88145 16.2163L6.78514 14.1199L2.85366 16.9792L2.48318 18.8316C2.3884 19.3055 1.92743 19.6128 1.45357 19.518C0.979702 19.4233 0.672388 18.9623 0.767161 18.4884L1.20466 16.3009C1.24775 16.0855 1.37032 15.8941 1.54802 15.7649L6.36052 12.2649Z" fill="#535353"/>
<path fill-rule="evenodd" clip-rule="evenodd" d="M3.37517 6.41003C3.37517 3.02729 6.11743 0.285034 9.50017 0.285034C12.8829 0.285034 15.6252 3.02729 15.6252 6.41003C15.6252 8.10115 14.9387 9.63361 13.8312 10.7411C13.4895 11.0828 12.9355 11.0828 12.5938 10.7411C12.2521 10.3994 12.2521 9.84534 12.5938 9.50363C12.8328 9.26465 13.0441 8.99841 13.2228 8.70996C13.2577 8.45969 13.1618 8.22884 12.8962 7.95035C12.6317 7.67309 12.3098 7.46329 11.991 7.25549C11.9117 7.20377 11.8325 7.15216 11.7544 7.09967C11.7222 7.07801 11.6036 7.02205 11.341 6.95534C11.0965 6.89325 10.8053 6.84014 10.4787 6.78408C10.1655 6.73034 9.81306 6.67286 9.49784 6.60587C9.19354 6.54119 8.84545 6.45249 8.55673 6.31102C7.9029 5.99064 7.53548 5.32848 7.33893 4.97427C7.30528 4.91362 7.27544 4.85911 7.24852 4.80994C7.18574 4.69527 7.12441 4.57899 7.05087 4.47072C7.00424 4.45771 6.9873 4.46361 6.97109 4.46926L6.96798 4.47034C6.90237 4.49273 6.66581 4.60959 6.27965 5.16156C5.87859 5.73487 5.59914 6.74075 5.56592 8.32648C5.77973 8.76443 6.06487 9.16194 6.40657 9.50363C6.74828 9.84534 6.74828 10.3994 6.40657 10.7411C6.06486 11.0828 5.51084 11.0828 5.16913 10.7411C4.63296 10.2049 4.19537 9.56922 3.88653 8.86339C3.55735 8.11111 3.37517 7.28069 3.37517 6.41003ZM13.8748 6.46839C13.9062 4.06213 11.9073 2.03503 9.50017 2.03503C8.63559 2.03503 7.82959 2.28582 7.15094 2.71862C7.42796 2.74099 7.66194 2.82261 7.83874 2.89943M13.8748 6.46839C13.5162 6.15511 13.1308 5.90651 12.8832 5.74681C12.5346 5.52193 12.1764 5.36197 11.7718 5.2592C11.4525 5.17809 11.0987 5.11491 10.7747 5.0593C10.4372 5.00137 10.1332 4.95181 9.86165 4.8941C9.57917 4.83406 9.41014 4.78039 9.32676 4.73954C9.07518 4.61626 8.93769 4.25115 8.80896 4.01554C8.7278 3.86701 8.62931 3.68676 8.53303 3.53917C8.4258 3.37478 8.20626 3.05913 7.83874 2.89943" fill="#535353"/>
</symbol>

    <symbol id="arr-down" viewBox="0 0 5.6246948 3.0307469">
        <path d="M5.312.39l-2.5 2-2.5-2" />
    </symbol>
    <symbol id="arr-next" viewBox="0 0 14 21">
        <path d="M.795.667l11.526 9.935L.795 20.538" stroke-width="3px" />
    </symbol>
    <symbol id="arr-prev" viewBox="0 0 14 21">
        <path d="M12.962 20.539L1.436 10.603 12.962.667" stroke-width="3px"  />
    </symbol>
    <symbol id="arr-up" viewBox="0 0 5.6246948 3.0307469">
        <path d="M.312 2.64l2.5-2 2.5 2" />
    </symbol>
    <symbol id="icon-box" viewBox="0 0 11 11">
        <path
            d="M.013 8.71L0 3.712c0-.246.252-.411.478-.316L5.043 5.34a.346.346 0 0 1 .209.315l.012 4.997a.344.344 0 0 1-.478.317L.22 9.024a.342.342 0 0 1-.207-.314zM10.47 3.948L6.258 5.766l.01 4.626 4.214-1.819-.011-4.625zm.171-.604c.18 0 .344.146.344.342L11 8.683c0 .136-.081.26-.207.314l-4.558 1.97a.344.344 0 0 1-.48-.313l-.012-4.997c0-.137.081-.26.207-.315l4.556-1.966a.294.294 0 0 1 .137-.032zM5.466.53l-4.37 1.944L5.476 4.4l4.367-1.946L5.466.53zM5.464 0c.047 0 .096.009.14.029l4.802 2.11c.272.12.274.504.002.625L5.616 4.898a.337.337 0 0 1-.278.002L.534 2.79a.341.341 0 0 1-.002-.625L5.326.03C5.369.01 5.416 0 5.464 0z" />
    </symbol>
    <symbol id="icon-cart-2" viewBox="0 0 89 84">
        <path
            d="M27.433 49.285h52.032l9.206-32.678H75.123L70.258 1.666l-20.286 6.54 2.774 8.401h-.955L46.783 1.666l-20.287 6.54 2.774 8.401H18.424L16.172 7.65C15.037 3.17 11.11 0 6.587 0H.39v3.744h6.197c2.81 0 5.261 1.863 6.018 4.676l9.963 38.769a8.102 8.102 0 0 0-3.405 6.61c0 4.48 3.765 8.224 8.27 8.224H78.15v-3.745H27.433c-2.45 0-4.505-2.06-4.505-4.478 0-2.455 2.072-4.515 4.505-4.515zm40.393-42.96l3.387 10.085H56.566l-2.072-5.786 13.332-4.3zm-23.476 0l3.387 10.085H33.09l-2.072-5.786 13.332-4.3zm39.439 13.83l-7.135 25.404H25.937l-6.576-25.404H83.79zM61.629 67.594c-4.324 0-7.892 3.547-7.892 7.847 0 4.3 3.568 7.847 7.892 7.847 4.504 0 7.891-3.547 7.891-7.847 0-4.3-3.567-7.847-7.891-7.847zm0 12.147c-2.45 0-4.324-2.06-4.324-4.3 0-2.436 2.072-4.3 4.324-4.3 2.45 0 4.324 1.864 4.324 4.3 0 2.437-2.072 4.3-4.324 4.3zM32.694 67.594c-4.324 0-7.891 3.547-7.891 7.847 0 4.3 3.567 7.847 7.891 7.847s7.892-3.547 7.892-7.847c0-4.3-3.568-7.847-7.892-7.847zm0 12.147c-2.45 0-4.324-2.06-4.324-4.3 0-2.436 2.072-4.3 4.324-4.3s4.324 1.864 4.324 4.3c0 2.437-2.072 4.3-4.324 4.3z" />
    </symbol>
    <symbol id="icon-cart" viewBox="0 0 18 18">
        <path opacity=".6"
            d="M5.4 14.4c-.99 0-1.8.81-1.8 1.8S4.41 18 5.4 18s1.8-.81 1.8-1.8-.81-1.8-1.8-1.8zM0 0v1.8h1.8l3.24 6.84-1.26 2.16c-.09.27-.18.63-.18.9 0 .99.81 1.8 1.8 1.8h10.8v-1.8H5.76c-.09 0-.18-.09-.18-.18v-.09l.81-1.53h6.66c.72 0 1.26-.36 1.53-.9l3.24-5.85c.18-.18.18-.27.18-.45 0-.54-.36-.9-.9-.9H3.78L2.97 0H0zm14.4 14.4c-.99 0-1.8.81-1.8 1.8s.81 1.8 1.8 1.8 1.8-.81 1.8-1.8-.81-1.8-1.8-1.8z" />
    </symbol>
    <symbol id="icon-catalog" viewBox="0 0 21 21">
        <path fill-rule="evenodd" clip-rule="evenodd"
            d="M1.5 7.95V1.5h6.45v6.45H1.5zM0 1a1 1 0 0 1 1-1h7.45a1 1 0 0 1 1 1v7.45a1 1 0 0 1-1 1H1a1 1 0 0 1-1-1V1zm1.5 18.5v-6.45h6.45v6.45H1.5zM0 12.55a1 1 0 0 1 1-1h7.45a1 1 0 0 1 1 1V20a1 1 0 0 1-1 1H1a1 1 0 0 1-1-1v-7.45zM13.05 1.5v6.45h6.45V1.5h-6.45zm-.5-1.5a1 1 0 0 0-1 1v7.45a1 1 0 0 0 1 1H20a1 1 0 0 0 1-1V1a1 1 0 0 0-1-1h-7.45zm.5 19.5v-6.45h6.45v6.45h-6.45zm-1.5-6.95a1 1 0 0 1 1-1H20a1 1 0 0 1 1 1V20a1 1 0 0 1-1 1h-7.45a1 1 0 0 1-1-1v-7.45z" />
    </symbol>
    <symbol id="icon-close" viewBox="0 0 20 21">
        <path fill-rule="evenodd" clip-rule="evenodd"
            d="M19.085 0L9.9 9.32.715 0 .003.702l9.195 9.33L0 19.365l.712.702 9.186-9.32 9.185 9.32.712-.702-9.195-9.33L19.798.702 19.086 0z" />
    </symbol>
    <symbol id="icon-ig" viewBox="0 0 18 18">
        <path fill-rule="evenodd" clip-rule="evenodd"
            d="M.811 0h16.354c.448 0 .813.363.813.81v16.357c0 .446-.365.81-.813.81H.811a.812.812 0 0 1-.811-.81V.81C0 .363.364 0 .811 0zm11.315 8.989a3.137 3.137 0 1 0-6.274 0 3.137 3.137 0 0 0 6.274 0zm3.604 6.741H2.247V7.865h1.48a5.37 5.37 0 0 0-.123 1.124 5.39 5.39 0 0 0 5.385 5.384 5.39 5.39 0 0 0 5.384-5.384c0-.386-.045-.76-.121-1.124h1.478v7.865zM12.36 5.618h3.37v-3.37h-3.37v3.37z" />
    </symbol>
    <symbol id="icon-marker" viewBox="0 0 8 10">
        <path fill-rule="evenodd" clip-rule="evenodd"
            d="M3.998 0A4.003 4.003 0 0 0 .366 5.67c.43 1.015 1.378 2.573 3.456 4.241a.284.284 0 0 0 .356 0c2.076-1.668 3.025-3.226 3.456-4.24a3.893 3.893 0 0 0 .295-.922A4.01 4.01 0 0 0 3.998 0zM2.023 4.042c0 1.087.885 1.974 1.974 1.974 1.09 0 1.974-.887 1.974-1.974a1.978 1.978 0 0 0-1.974-1.974 1.978 1.978 0 0 0-1.974 1.974z" />
    </symbol>
    <symbol id="icon-minus" viewBox="0 0 32 32">
        <path d="M3 15h26v2H3z" />
    </symbol>
    <symbol id="icon-pdf" viewBox="0 0 55 58">
        <path fill-rule="evenodd" clip-rule="evenodd"
            d="M39.566.342l14.776 15.354c.2.208.312.485.312.773v37.073C54.654 56 52.649 58 50.184 58H16.739c-2.465 0-4.47-2-4.47-4.46V43.5H3.344A3.347 3.347 0 0 1 0 40.157V23.42c0-1.843 1.5-3.343 3.344-3.343h8.925V4.468A4.474 4.474 0 0 1 16.74 0h22.023c.303 0 .593.123.804.342zm11.603 15.273L39.039 3.011v12.604h12.13zM2.23 40.157c0 .613.5 1.112 1.113 1.112h30.12c.614 0 1.113-.499 1.113-1.112V23.42c0-.613-.5-1.112-1.113-1.112H3.344c-.614 0-1.113.499-1.113 1.112v16.737zm47.953 15.612c1.235 0 2.239-.999 2.239-2.227V17.846h-14.5c-.616 0-1.115-.5-1.115-1.115V2.23H16.739A2.24 2.24 0 0 0 14.5 4.468v15.609h18.964c1.844 0 3.344 1.5 3.344 3.343v16.737c0 1.843-1.5 3.343-3.344 3.343H14.5v10.04c0 1.23 1.005 2.23 2.24 2.23h33.444zM11.956 27.37c.549.144 1.008.457 1.379.938.37.482.555 1.104.555 1.866 0 .588-.106 1.083-.32 1.484-.213.4-.485.715-.814.944-.329.229-.663.38-1.003.454-.462.092-1.13.137-2.006.137H8.485v3.615H6.551v-9.581h3.104c1.177 0 1.943.047 2.3.143zm-.883 4.046c.258-.1.459-.257.605-.47.146-.214.219-.463.219-.746 0-.348-.103-.636-.308-.862a1.337 1.337 0 0 0-.777-.425c-.231-.044-.695-.066-1.392-.066h-.935v2.72h1.059c.762 0 1.272-.05 1.53-.151zm12.116-1.572a4.186 4.186 0 0 0-.915-1.552 3.203 3.203 0 0 0-1.444-.883c-.418-.121-1.026-.182-1.824-.182h-3.535v9.58h3.64c.715 0 1.285-.067 1.712-.202.571-.183 1.024-.438 1.36-.765.444-.431.786-.995 1.026-1.692.196-.571.294-1.25.294-2.04 0-.897-.105-1.652-.314-2.264zm-1.882 3.934c-.13.43-.3.738-.507.925-.207.188-.467.32-.78.399-.24.06-.63.091-1.17.091h-1.445v-6.346h.87c.788 0 1.317.03 1.588.092.361.078.66.229.895.45.235.223.418.532.549.929.13.396.196.965.196 1.706 0 .74-.065 1.325-.196 1.754zm10.417-6.551v1.62h-4.633v2.268h4v1.621h-4v4.072h-1.935v-9.581h6.568z" />
    </symbol>
    <symbol id="icon-phone-full" viewBox="0 0 16 16">
        <path
            d="M15.966 12.397c-.045-.136-.333-.337-.864-.602a26.173 26.173 0 0 0-.613-.341 58.136 58.136 0 0 1-.722-.398 24.117 24.117 0 0 1-.608-.352c-.03-.023-.125-.089-.284-.199a3.199 3.199 0 0 0-.403-.244.744.744 0 0 0-.324-.08c-.152 0-.341.108-.568.324-.227.216-.436.45-.625.705-.19.254-.39.488-.602.704-.212.216-.387.324-.523.324a.77.77 0 0 1-.256-.057 2.621 2.621 0 0 1-.233-.096 4.248 4.248 0 0 1-.272-.16 7.1 7.1 0 0 0-.216-.13c-1.038-.576-1.928-1.235-2.671-1.977-.742-.743-1.402-1.633-1.977-2.67a6.588 6.588 0 0 0-.131-.217 4.1 4.1 0 0 1-.16-.272 2.46 2.46 0 0 1-.096-.233.769.769 0 0 1-.057-.256c0-.136.108-.31.324-.523.216-.212.451-.413.705-.602a5.53 5.53 0 0 0 .704-.625c.216-.227.324-.416.324-.568a.742.742 0 0 0-.08-.324 3.16 3.16 0 0 0-.244-.403 14.96 14.96 0 0 0-.198-.284c-.114-.19-.231-.392-.353-.608a57.422 57.422 0 0 1-.398-.722c-.143-.265-.257-.47-.34-.613-.265-.53-.466-.819-.603-.864A.636.636 0 0 0 3.364 0c-.205 0-.472.038-.801.114a4.5 4.5 0 0 0-.779.238c-.379.16-.78.621-1.204 1.386C.193 2.45 0 3.155 0 3.852c0 .204.013.403.04.597.026.193.074.41.142.653.068.242.123.422.165.54.041.117.119.327.233.63.113.303.181.489.204.557.265.743.58 1.405.943 1.989.598.97 1.415 1.971 2.449 3.005 1.034 1.034 2.036 1.85 3.006 2.45.583.363 1.246.677 1.989.943.068.022.253.09.556.204.303.114.514.191.63.233.118.042.298.097.54.165.243.068.461.116.654.142.193.026.392.04.597.04.697 0 1.401-.193 2.114-.58.764-.424 1.226-.825 1.386-1.204.083-.19.162-.449.238-.779.076-.33.114-.596.114-.8a.635.635 0 0 0-.034-.24z" />
    </symbol>
    <symbol viewBox="0 0 14 14"  id="icon-phone">
      <path d="M3.75717 1.59477C4.22485 1.59477 4.65576 1.84842 4.88283 2.25736L5.67026 3.6758C5.87646 4.04726 5.88616 4.49653 5.69614 4.87649L5.04599 6.17607L5.05597 6.20751L5.11699 6.37996C5.23953 6.70346 5.41004 7.02749 5.63426 7.32751C5.73306 7.4597 5.84048 7.58451 5.95684 7.70087C6.07177 7.8158 6.19485 7.92191 6.32506 8.01953C6.62517 8.24453 6.94925 8.41517 7.27276 8.53738C7.33593 8.56125 7.3937 8.58141 7.44511 8.59815L7.47639 8.60787L8.77717 7.95793C9.1194 7.78678 9.51781 7.77764 9.86495 7.92812L9.97862 7.98419L11.401 8.775C11.8096 9.00212 12.063 9.43285 12.063 9.9003V11.5333C12.063 12.8049 10.8592 13.7167 9.65297 13.3097C7.24205 12.4962 5.10624 11.4022 3.68088 9.97685C2.25549 8.55149 1.16156 6.41568 0.348071 4.00476C-0.0589404 2.7985 0.852809 1.59477 2.1244 1.59477H3.75717ZM3.75719 2.88226H2.1244C1.71723 2.88226 1.44804 3.23765 1.56799 3.59313C2.32342 5.83197 3.33836 7.81356 4.59128 9.06646C5.84416 10.3194 7.82576 11.3343 10.0646 12.0897C10.4201 12.2097 10.7755 11.9405 10.7755 11.5333V9.9003L9.35301 9.10946L7.83604 9.86794C7.70956 9.93118 7.56577 9.95101 7.42689 9.92438C6.93672 9.83036 6.24609 9.56947 5.55276 9.04967C5.37467 8.91615 5.20541 8.77022 5.04645 8.61127C4.88557 8.45039 4.73795 8.27887 4.60296 8.09826C4.08591 7.40642 3.82494 6.71747 3.72987 6.22868C3.70276 6.08931 3.72249 5.94488 3.78599 5.81788L4.5446 4.30067L3.75719 2.88226ZM9.61765 0.737619C10.4576 0.948246 11.228 1.38112 11.8533 2.0064C12.4786 2.63171 12.9115 3.40212 13.1221 4.24208C13.2772 4.86064 13.3085 5.50488 13.2144 6.13551C13.162 6.48716 12.8345 6.72973 12.4828 6.67731C12.1312 6.62488 11.8886 6.29732 11.941 5.94568C12.0101 5.48253 11.9871 5.00922 11.8733 4.55522C11.719 3.93976 11.4023 3.37616 10.9429 2.9168C10.4836 2.45745 9.91997 2.14078 9.3045 1.98645C8.85052 1.87261 8.37717 1.84965 7.91401 1.91869C7.56237 1.97111 7.23481 1.72854 7.18239 1.37689C7.12998 1.02525 7.37255 0.69769 7.72419 0.645273C8.35482 0.55127 8.99909 0.582516 9.61765 0.737619ZM10.0455 3.67505C10.6297 4.25925 10.8909 5.07564 10.7715 5.87701C10.719 6.22866 10.3915 6.47123 10.0398 6.41881C9.71331 6.37013 9.48083 6.08422 9.49126 5.76208L9.49804 5.68719C9.55797 5.28515 9.42772 4.87803 9.13516 4.58546C8.87178 4.32211 8.51568 4.19026 8.15403 4.21021L8.0334 4.22251C7.68175 4.27493 7.3542 4.03236 7.30178 3.68072C7.24936 3.32907 7.49193 3.00151 7.84357 2.94909C8.64492 2.82964 9.46128 3.09084 10.0455 3.67505Z"/>
    </symbol>
    <symbol id="icon-plus" viewBox="0 0 32 32">
        <path d="M29 15H17V3h-2v12H3v2h12v12h2V17h12z" />
    </symbol>
    <symbol id="icon-search" viewBox="0 0 23 23">
        <path
            d="M22.718 21.366l-5.529-5.529a9.658 9.658 0 0 0 2.197-6.144C19.386 4.342 15.044 0 9.693 0 4.337 0 0 4.342 0 9.693c0 5.35 4.337 9.693 9.693 9.693a9.642 9.642 0 0 0 6.14-2.192l5.529 5.524a.958.958 0 0 0 1.356-1.352zm-13.025-3.91c-4.286 0-7.769-3.482-7.769-7.763s3.483-7.769 7.769-7.769c4.28 0 7.768 3.488 7.768 7.769 0 4.28-3.487 7.763-7.768 7.763z" />
    </symbol>
    <symbol id="icon-tel" viewBox="0 0 15 16">
        <path
            d="M8.77 10.285h-.001a3.96 3.96 0 0 1-.31-.167c-.936-.594-1.787-1.369-2.604-2.373-.386-.487-.646-.897-.837-1.31.226-.209.439-.424.644-.633l.068-.069.134-.135.133-.135c.342-.341.516-.737.516-1.135s-.174-.794-.516-1.135l-.867-.868c-.1-.099-.2-.2-.295-.3v-.001a15.07 15.07 0 0 0-.6-.593C3.92 1.118 3.54.95 3.137.95c-.402 0-.79.168-1.115.481l-.004.004-.003.003-1.08 1.09H.932a2.375 2.375 0 0 0-.704 1.51c-.077.94.2 1.812.41 2.38.517 1.395 1.29 2.687 2.44 4.07a15.007 15.007 0 0 0 4.997 3.913c.733.347 1.716.76 2.816.832.067.003.138.006.203.006.748 0 1.378-.27 1.871-.805l.002.002.004-.009.002-.002.003-.004a.06.06 0 0 0 .006-.007c.15-.182.322-.349.506-.526l.044-.043c.137-.13.277-.267.414-.41.323-.336.494-.73.494-1.135 0-.41-.175-.8-.504-1.126l-1.744-1.75c-.317-.33-.7-.509-1.11-.509-.407 0-.794.176-1.123.505l-.978.975a11.348 11.348 0 0 0-.132-.069l-.08-.041zm4.48 2.495c-.098.105-.199.203-.305.306a22.15 22.15 0 0 0-.073.07 8.4 8.4 0 0 0-.616.64c-.31.331-.675.488-1.158.488-.048 0-.097 0-.143-.003-.934-.06-1.804-.425-2.46-.74a14.07 14.07 0 0 1-4.675-3.66C2.739 8.578 2.017 7.375 1.54 6.084c-.294-.787-.4-1.396-.353-1.968.03-.36.168-.657.424-.913L2.694 2.12c.15-.14.303-.212.449-.212.18 0 .33.11.428.208l.005.005.005.005h.001c.193.181.377.368.57.568l.15.153.002.001.15.154.869.869c.163.163.238.313.238.457 0 .143-.075.294-.238.457l-.093.093-.18.18-.001.001c-.267.273-.52.526-.796.773l-.002.002-.001.001-.002.002-.003.002a.706.706 0 0 0-.23.435.827.827 0 0 0 .043.348l.005.015.005.014.001.004c.228.552.549 1.07 1.034 1.687l.003.004.002.001c.88 1.084 1.808 1.93 2.833 2.577.132.084.268.152.394.215h.001c.115.058.221.111.31.167l.005.002a.168.168 0 0 1 .015.009c.006.004.014.01.023.013a.74.74 0 0 0 .337.085.729.729 0 0 0 .518-.233l1.088-1.088c.105-.106.265-.224.444-.224.176 0 .326.112.42.216l.002.002h.001v.001h.001v.001h.001v.001h.001v.001h.001v.001h.001v.001l1.752 1.752c.158.156.231.309.232.457 0 .147-.07.3-.224.461a.05.05 0 0 0-.011.012l-.003.004z"
            stroke-width=".1" />
    </symbol>
    <symbol id="icon-user" width="32" height="28" viewBox="0 0 32 28">
      <path d="M16 19.1172C19.4518 19.1172 22.25 16.319 22.25 12.8672C22.25 9.41541 19.4518 6.61719 16 6.61719C12.5482 6.61719 9.75 9.41541 9.75 12.8672C9.75 16.319 12.5482 19.1172 16 19.1172ZM16 19.1172C13.6733 19.1172 11.4038 19.8383 9.50379 21.1813C7.6038 22.5243 6.16675 24.4231 5.3904 26.6165M16 19.1172C18.3267 19.1172 20.5962 19.8383 22.4962 21.1813C24.3962 22.5243 25.8333 24.4231 26.6096 26.6165M2.25 1.61719H29.75C30.4404 1.61719 31 2.17683 31 2.86719V25.3672C31 26.0575 30.4404 26.6172 29.75 26.6172H2.25C1.55964 26.6172 1 26.0575 1 25.3672V2.86719C1 2.17683 1.55964 1.61719 2.25 1.61719Z" fill="none" stroke-width="1.5" stroke-linecap="round" stroke-linejoin="round"/>
    </symbol>
    <symbol id="icon-vk" viewBox="0 0 22 13">
        <path fill-rule="evenodd" clip-rule="evenodd"
            d="M21.884 11.74a1.573 1.573 0 0 0-.075-.148c-.382-.712-1.111-1.586-2.188-2.622l-.022-.024-.012-.011-.012-.012h-.01c-.49-.483-.8-.807-.929-.973-.237-.316-.29-.637-.16-.961.091-.245.435-.763 1.03-1.554.314-.419.562-.755.745-1.008 1.321-1.82 1.894-2.982 1.718-3.488L21.901.82c-.046-.071-.164-.137-.355-.196-.19-.06-.435-.07-.733-.03l-3.3.024a.414.414 0 0 0-.228.006l-.15.036-.057.03-.045.035a.506.506 0 0 0-.126.125.827.827 0 0 0-.114.207 19.7 19.7 0 0 1-1.226 2.67c-.283.49-.543.915-.78 1.275-.236.36-.435.625-.595.794-.16.17-.305.307-.435.41-.13.102-.229.146-.298.13a11.859 11.859 0 0 1-.195-.048.768.768 0 0 1-.257-.29 1.326 1.326 0 0 1-.132-.463 5.525 5.525 0 0 1-.04-.48c-.004-.134-.002-.325.006-.57.007-.245.011-.411.011-.498 0-.3.006-.627.017-.979l.029-.836c.007-.206.011-.423.011-.653 0-.229-.013-.408-.04-.54a1.876 1.876 0 0 0-.12-.379.63.63 0 0 0-.235-.284 1.292 1.292 0 0 0-.383-.161c-.405-.095-.92-.146-1.547-.154-1.42-.016-2.332.08-2.738.285-.16.086-.305.205-.435.355-.137.174-.156.27-.057.285.458.071.782.241.974.51l.068.143c.054.102.108.284.16.545.054.261.088.55.103.866a9.473 9.473 0 0 1 0 1.483c-.037.411-.074.732-.108.96a1.975 1.975 0 0 1-.293.82.2.2 0 0 1-.057.059c-.099.04-.202.06-.31.06-.105 0-.235-.056-.388-.167a2.786 2.786 0 0 1-.475-.457 6.1 6.1 0 0 1-.557-.813c-.205-.347-.419-.758-.64-1.233l-.184-.344a28.422 28.422 0 0 1-.47-.967 18.766 18.766 0 0 1-.526-1.228.785.785 0 0 0-.275-.38L4.319.75a.815.815 0 0 0-.184-.101A1.189 1.189 0 0 0 3.872.57L.733.595C.413.595.195.67.08.82L.034.89a.4.4 0 0 0-.034.19.97.97 0 0 0 .069.32c.458 1.115.956 2.191 1.495 3.227A36.617 36.617 0 0 0 2.966 7.13c.398.633.802 1.23 1.215 1.791.412.562.685.921.819 1.08.134.159.239.276.315.355l.286.285c.183.19.452.418.808.682.355.265.748.526 1.18.784.431.256.933.466 1.506.628.573.162 1.13.228 1.673.196h1.317c.267-.024.47-.111.607-.261l.045-.06a.802.802 0 0 0 .086-.219c.027-.099.04-.207.04-.326-.007-.34.018-.646.075-.92.056-.272.122-.477.195-.616a1.491 1.491 0 0 1 .44-.522.762.762 0 0 1 .092-.042c.184-.063.399-.001.648.184.247.187.48.416.698.689.218.273.48.58.784.919.307.34.574.593.802.76l.23.141c.153.096.351.182.595.261.245.08.458.1.642.06l2.932-.048c.29 0 .516-.05.676-.148.16-.099.255-.208.286-.326a.952.952 0 0 0 .006-.404 1.584 1.584 0 0 0-.08-.314z" />
    </symbol>
    <symbol id="icon-yt" viewBox="0 0 20 14">
        <path fill-rule="evenodd" clip-rule="evenodd"
            d="M17.276.278c1.63.059 2.422 1.71 2.533 3.019.228 2.75.228 4.485.002 7.236-.109 1.309-1.114 2.982-2.533 3.224-4.522.344-9.887.3-14.575 0C1.24 13.575.28 11.842.17 10.533c-.227-2.75-.227-4.315 0-7.064C.278 2.159 1.263.436 2.7.278c4.634-.384 10.025-.301 14.576 0zM7.49 3.439v7.05l6.244-3.525L7.491 3.44z" />
    </symbol>
    <symbol width="36" height="30" viewBox="0 0 36 30" id="icon-doors">
      <path d="M34.3333 28.9502H30.3333M1 28.9502H4.33333M4.33333 28.9502V0.950195H23V8.25454M4.33333 28.9502H23M23 28.9502V8.25454M23 28.9502H30.3333M23 8.25454L30.3333 12.5154V28.9502" fill="none" stroke-width="1.5" stroke-linecap="round" stroke-linejoin="round"/>
    </symbol>

<symbol width="28" height="28" viewBox="0 0 28 28" fill="none" id="icon-fb">
<path d="M14 0C6.28133 0 0 6.28133 0 14C0 21.7187 6.28133 28 14 28C21.7187 28 28 21.7187 28 14C28 6.28133 21.7187 0 14 0ZM14 2.33333C20.4575 2.33333 25.6667 7.5425 25.6667 14C25.6695 16.793 24.668 19.4938 22.8449 21.6097C21.0218 23.7256 18.4987 25.1154 15.736 25.5255V17.402H19.0587L19.5802 14.0268H15.736V12.1835C15.736 10.7835 16.1968 9.53867 17.507 9.53867H19.6128V6.594C19.243 6.54383 18.4602 6.43533 16.9808 6.43533C13.8915 6.43533 12.0808 8.06633 12.0808 11.7833V14.0268H8.90517V17.402H12.0808V25.4963C9.35637 25.0479 6.88011 23.6454 5.09447 21.5394C3.30884 19.4334 2.33017 16.7611 2.33333 14C2.33333 7.5425 7.5425 2.33333 14 2.33333Z" fill="#D92547"/>
</symbol>
<symbol width="26" height="27" viewBox="0 0 26 27" fill="none" id="icon-insta">
<path fill-rule="evenodd" clip-rule="evenodd" d="M7.70925 0.743748C9.07775 0.680748 9.51408 0.666748 13.0001 0.666748C16.4861 0.666748 16.9224 0.681915 18.2897 0.743748C19.6571 0.805581 20.5904 1.02375 21.4071 1.33991C22.2622 1.66308 23.0381 2.16825 23.6797 2.82158C24.3331 3.46208 24.8371 4.23675 25.1591 5.09308C25.4764 5.90975 25.6934 6.84308 25.7564 8.20808C25.8194 9.57891 25.8334 10.0152 25.8334 13.5001C25.8334 16.9861 25.8182 17.4224 25.7564 18.7909C25.6946 20.1559 25.4764 21.0892 25.1591 21.9059C24.8371 22.7624 24.3322 23.5383 23.6797 24.1797C23.0381 24.8331 22.2622 25.3371 21.4071 25.6591C20.5904 25.9764 19.6571 26.1934 18.2921 26.2564C16.9224 26.3194 16.4861 26.3334 13.0001 26.3334C9.51408 26.3334 9.07775 26.3182 7.70925 26.2564C6.34425 26.1946 5.41091 25.9764 4.59425 25.6591C3.73782 25.337 2.96187 24.8322 2.32041 24.1797C1.66752 23.5389 1.16228 22.7633 0.839915 21.9071C0.523748 21.0904 0.306748 20.1571 0.243748 18.7921C0.180748 17.4212 0.166748 16.9849 0.166748 13.5001C0.166748 10.0141 0.181915 9.57775 0.243748 8.21041C0.305581 6.84308 0.523748 5.90975 0.839915 5.09308C1.16276 4.23684 1.66839 3.46128 2.32158 2.82041C2.96213 2.16767 3.7373 1.66243 4.59308 1.33991C5.40975 1.02375 6.34308 0.806748 7.70808 0.743748H7.70925ZM18.1859 3.05375C16.8326 2.99191 16.4266 2.97908 13.0001 2.97908C9.57358 2.97908 9.16758 2.99191 7.81425 3.05375C6.56241 3.11091 5.88341 3.31975 5.43075 3.49591C4.83225 3.72925 4.40408 4.00575 3.95491 4.45491C3.52913 4.86914 3.20146 5.37341 2.99591 5.93075C2.81975 6.38341 2.61091 7.06241 2.55375 8.31425C2.49191 9.66758 2.47908 10.0736 2.47908 13.5001C2.47908 16.9266 2.49191 17.3326 2.55375 18.6859C2.61091 19.9377 2.81975 20.6167 2.99591 21.0694C3.20125 21.6259 3.52908 22.1311 3.95491 22.5452C4.36908 22.9711 4.87425 23.2989 5.43075 23.5042C5.88341 23.6804 6.56241 23.8892 7.81425 23.9464C9.16758 24.0082 9.57241 24.0211 13.0001 24.0211C16.4277 24.0211 16.8326 24.0082 18.1859 23.9464C19.4377 23.8892 20.1167 23.6804 20.5694 23.5042C21.1679 23.2709 21.5961 22.9944 22.0452 22.5452C22.4711 22.1311 22.7989 21.6259 23.0042 21.0694C23.1804 20.6167 23.3892 19.9377 23.4464 18.6859C23.5082 17.3326 23.5211 16.9266 23.5211 13.5001C23.5211 10.0736 23.5082 9.66758 23.4464 8.31425C23.3892 7.06241 23.1804 6.38341 23.0042 5.93075C22.7709 5.33225 22.4944 4.90408 22.0452 4.45491C21.631 4.02916 21.1267 3.70149 20.5694 3.49591C20.1167 3.31975 19.4377 3.11091 18.1859 3.05375ZM11.3609 17.4562C12.2764 17.8373 13.2957 17.8887 14.2448 17.6018C15.194 17.3148 16.014 16.7071 16.565 15.8827C17.1159 15.0582 17.3635 14.0681 17.2655 13.0814C17.1675 12.0946 16.7299 11.1725 16.0276 10.4726C15.5799 10.0251 15.0385 9.68253 14.4425 9.46942C13.8464 9.25631 13.2106 9.178 12.5807 9.24013C11.9507 9.30226 11.3424 9.50329 10.7995 9.82873C10.2566 10.1542 9.79262 10.5959 9.44093 11.1222C9.08925 11.6485 8.85863 12.2463 8.76568 12.8724C8.67273 13.4985 8.71976 14.1374 8.90338 14.7432C9.087 15.3489 9.40264 15.9065 9.82759 16.3756C10.2525 16.8447 10.7762 17.2138 11.3609 17.4562ZM8.33575 8.83575C8.94828 8.22322 9.67545 7.73733 10.4758 7.40584C11.2761 7.07434 12.1338 6.90372 13.0001 6.90372C13.8663 6.90372 14.7241 7.07434 15.5244 7.40584C16.3247 7.73733 17.0519 8.22322 17.6644 8.83575C18.2769 9.44828 18.7628 10.1755 19.0943 10.9758C19.4258 11.7761 19.5964 12.6338 19.5964 13.5001C19.5964 14.3663 19.4258 15.2241 19.0943 16.0244C18.7628 16.8247 18.2769 17.5519 17.6644 18.1644C16.4274 19.4015 14.7495 20.0964 13.0001 20.0964C11.2506 20.0964 9.57281 19.4015 8.33575 18.1644C7.09869 16.9274 6.40372 15.2495 6.40372 13.5001C6.40372 11.7506 7.09869 10.0728 8.33575 8.83575ZM21.0594 7.88608C21.2112 7.7429 21.3327 7.57071 21.4168 7.37972C21.5008 7.18873 21.5457 6.98281 21.5487 6.77417C21.5518 6.56552 21.5129 6.35839 21.4345 6.16503C21.356 5.97167 21.2396 5.79601 21.092 5.64846C20.9445 5.50091 20.7688 5.38446 20.5755 5.30602C20.3821 5.22757 20.175 5.18872 19.9663 5.19176C19.7577 5.1948 19.5518 5.23968 19.3608 5.32373C19.1698 5.40778 18.9976 5.52929 18.8544 5.68108C18.5759 5.97628 18.4235 6.36839 18.4294 6.77417C18.4353 7.17994 18.5991 7.56744 18.8861 7.8544C19.1731 8.14136 19.5606 8.30518 19.9663 8.3111C20.3721 8.31701 20.7642 8.16455 21.0594 7.88608Z" fill="#D92547"/>
</symbol>
<symbol width="29" height="21" viewBox="0 0 29 21" fill="none" id="icon-youtube">
<path d="M28.0625 10.4151C28.0625 10.3485 28.0625 10.2729 28.0595 10.1851C28.0564 9.93984 28.0504 9.66436 28.0443 9.3707C28.0201 8.52607 27.9777 7.68447 27.9111 6.89131C27.8203 5.79844 27.6871 4.88721 27.5055 4.20303C27.3138 3.48903 26.9381 2.83784 26.4158 2.31456C25.8936 1.79128 25.2432 1.41423 24.5296 1.22109C23.6729 0.991015 21.9957 0.84873 19.6344 0.760937C18.5112 0.718555 17.3094 0.691308 16.1075 0.676172C15.6867 0.670117 15.2962 0.66709 14.945 0.664062H14.055C13.7038 0.66709 13.3133 0.670117 12.8925 0.676172C11.6906 0.691308 10.4888 0.718555 9.36562 0.760937C7.0043 0.851758 5.32412 0.994043 4.47041 1.22109C3.75657 1.41375 3.10589 1.79064 2.5836 2.314C2.06131 2.83736 1.68574 3.48879 1.49453 4.20303C1.30986 4.88721 1.17969 5.79844 1.08887 6.89131C1.02227 7.68447 0.979883 8.52607 0.955664 9.3707C0.946582 9.66436 0.943555 9.93984 0.940527 10.1851C0.940527 10.2729 0.9375 10.3485 0.9375 10.4151V10.5847C0.9375 10.6513 0.9375 10.727 0.940527 10.8147C0.943555 11.06 0.949609 11.3354 0.955664 11.6291C0.979883 12.4737 1.02227 13.3153 1.08887 14.1085C1.17969 15.2014 1.31289 16.1126 1.49453 16.7968C1.88203 18.2469 3.02031 19.3912 4.47041 19.7787C5.32412 20.0088 7.0043 20.1511 9.36562 20.2389C10.4888 20.2812 11.6906 20.3085 12.8925 20.3236C13.3133 20.3297 13.7038 20.3327 14.055 20.3357H14.945C15.2962 20.3327 15.6867 20.3297 16.1075 20.3236C17.3094 20.3085 18.5112 20.2812 19.6344 20.2389C21.9957 20.148 23.6759 20.0058 24.5296 19.7787C25.9797 19.3912 27.118 18.2499 27.5055 16.7968C27.6901 16.1126 27.8203 15.2014 27.9111 14.1085C27.9777 13.3153 28.0201 12.4737 28.0443 11.6291C28.0534 11.3354 28.0564 11.06 28.0595 10.8147C28.0595 10.727 28.0625 10.6513 28.0625 10.5847V10.4151ZM25.8828 10.5726C25.8828 10.6361 25.8828 10.7058 25.8798 10.7875C25.8768 11.0236 25.8707 11.284 25.8646 11.5655C25.8435 12.3708 25.8011 13.1761 25.7375 13.9238C25.6558 14.8986 25.5407 15.6979 25.3984 16.2337C25.2107 16.933 24.6598 17.487 23.9635 17.6717C23.3277 17.8412 21.7263 17.9774 19.5496 18.0592C18.4477 18.1016 17.2609 18.1288 16.0772 18.1439C15.6625 18.15 15.278 18.153 14.9329 18.153H14.0671L12.9228 18.1439C11.7391 18.1288 10.5554 18.1016 9.45039 18.0592C7.27373 17.9744 5.66924 17.8412 5.03652 17.6717C4.34023 17.484 3.78926 16.933 3.60156 16.2337C3.45928 15.6979 3.34424 14.8986 3.2625 13.9238C3.19893 13.1761 3.15957 12.3708 3.13535 11.5655C3.12627 11.284 3.12324 11.0206 3.12021 10.7875C3.12021 10.7058 3.11719 10.6331 3.11719 10.5726V10.4272C3.11719 10.3637 3.11719 10.294 3.12021 10.2123C3.12324 9.97617 3.1293 9.71582 3.13535 9.43428C3.15654 8.629 3.19893 7.82373 3.2625 7.07598C3.34424 6.10117 3.45928 5.30195 3.60156 4.76611C3.78926 4.0668 4.34023 3.51279 5.03652 3.32812C5.67227 3.15859 7.27373 3.02236 9.45039 2.94062C10.5523 2.89824 11.7391 2.871 12.9228 2.85586C13.3375 2.8498 13.722 2.84678 14.0671 2.84678H14.9329L16.0772 2.85586C17.2609 2.871 18.4446 2.89824 19.5496 2.94062C21.7263 3.02539 23.3308 3.15859 23.9635 3.32812C24.6598 3.51582 25.2107 4.0668 25.3984 4.76611C25.5407 5.30195 25.6558 6.10117 25.7375 7.07598C25.8011 7.82373 25.8404 8.629 25.8646 9.43428C25.8737 9.71582 25.8768 9.9792 25.8798 10.2123C25.8798 10.294 25.8828 10.3667 25.8828 10.4272V10.5726ZM11.8057 14.5565L18.8291 10.4696L11.8057 6.44326V14.5565Z" fill="#D92547"/>
</symbol>
<symbol width="27" height="24" viewBox="0 0 27 24" fill="none" id="icon-tg">
<path d="M24.255 0.983914C23.944 1.00654 23.6387 1.0795 23.3511 1.19994H23.3472C23.0711 1.30941 21.7585 1.8616 19.7629 2.6986L12.6115 5.71045C7.48008 7.87076 2.4358 9.99813 2.4358 9.99813L2.49586 9.97488C2.49586 9.97488 2.14808 10.0892 1.7848 10.3382C1.56037 10.481 1.36724 10.6678 1.21711 10.8874C1.03886 11.149 0.895486 11.5491 0.948767 11.9628C1.03595 12.6622 1.48933 13.0817 1.81483 13.3132C2.1442 13.5476 2.45808 13.6571 2.45808 13.6571H2.46583L7.19624 15.2507C7.40839 15.9317 8.63773 19.9734 8.9332 20.9043C9.10758 21.4604 9.27711 21.8082 9.48927 22.0736C9.59195 22.2092 9.71208 22.3226 9.85642 22.4136C9.93146 22.4573 10.0115 22.4918 10.0947 22.5163L10.0463 22.5047C10.0608 22.5086 10.0725 22.5202 10.0831 22.5241C10.1219 22.5347 10.148 22.5386 10.1974 22.5464C10.9463 22.773 11.5479 22.308 11.5479 22.308L11.5818 22.2809L14.3747 19.7379L19.0557 23.3291L19.1622 23.3746C20.1378 23.8028 21.1259 23.5645 21.648 23.1441C22.1741 22.7207 22.3785 22.1792 22.3785 22.1792L22.4124 22.092L26.0297 3.56079C26.1324 3.10354 26.1585 2.67535 26.0452 2.25976C25.9283 1.83915 25.6585 1.4774 25.2886 1.24548C24.978 1.05668 24.6179 0.965555 24.255 0.983914V0.983914ZM24.1571 2.96985C24.1532 3.03088 24.1649 3.0241 24.1377 3.14132V3.15198L20.5543 21.4904C20.5388 21.5166 20.5127 21.5737 20.441 21.6309C20.3654 21.6909 20.3054 21.7287 19.9905 21.6038L14.2652 17.2144L10.8068 20.3667L11.5333 15.7264L20.8876 7.0076C21.2731 6.64916 21.1443 6.5736 21.1443 6.5736C21.1714 6.13379 20.5621 6.44476 20.5621 6.44476L8.76658 13.752L8.7627 13.7327L3.10908 11.8291V11.8252L3.09455 11.8223C3.10446 11.819 3.11416 11.8151 3.12361 11.8107L3.15461 11.7952L3.18464 11.7845C3.18464 11.7845 8.2328 9.65713 13.3643 7.49682C15.9334 6.41473 18.5219 5.32488 20.5127 4.48401C21.6933 3.98704 22.8752 3.49298 24.0583 3.00182C24.1377 2.97082 24.1 2.97082 24.1571 2.97082V2.96985Z" fill="#D92547"/>
</symbol>
<symbol width="33" height="21" viewBox="0 0 33 21" fill="none" id="icon-vk2">
<path d="M31.2892 2.65334C31.5058 1.93397 31.2892 1.40643 30.2651 1.40643H26.8725C26.0092 1.40643 25.6147 1.86281 25.3982 2.36404C25.3982 2.36404 23.6732 6.57041 21.2289 9.29781C20.4399 10.0914 20.0795 10.3421 19.6494 10.3421C19.4344 10.3421 19.1219 10.0914 19.1219 9.37207V2.65334C19.1219 1.7901 18.8728 1.40643 18.1534 1.40643H12.8224C12.284 1.40643 11.9591 1.80557 11.9591 2.18613C11.9591 3.00296 13.1813 3.1917 13.3066 5.49368V10.4875C13.3066 11.5812 13.1101 11.7808 12.677 11.7808C11.5275 11.7808 8.73049 7.55896 7.07053 2.72605C6.7472 1.787 6.42078 1.40798 5.55444 1.40798H2.16336C1.19338 1.40798 1 1.86435 1 2.36559C1 3.26596 2.14944 7.72139 6.35426 13.614C9.15747 17.6378 13.1039 19.8191 16.6992 19.8191C18.8542 19.8191 19.1203 19.3349 19.1203 18.4995V15.4581C19.1203 14.4896 19.3261 14.2947 20.0083 14.2947C20.5095 14.2947 21.3728 14.5484 23.3855 16.4868C25.6844 18.7857 26.0649 19.8176 27.3567 19.8176H30.7478C31.7162 19.8176 32.2004 19.3334 31.922 18.3773C31.6172 17.4259 30.5188 16.0413 29.0615 14.403C28.2694 13.4686 27.086 12.463 26.7255 11.9602C26.2227 11.312 26.3681 11.0258 26.7255 10.4503C26.727 10.4519 30.8592 4.63198 31.2892 2.65334V2.65334Z" stroke="#D92547" stroke-width="2"/>
</symbol>
<symbol viewBox="0 0 29 29" fill="none" id="icon-whatsapp">
<path d="M20.8741 16.9925C20.5244 16.8154 18.8213 15.9844 18.503 15.8658C18.1847 15.7524 17.9536 15.6931 17.7217 16.0428C17.4949 16.3838 16.827 17.1643 16.6229 17.3919C16.4188 17.6195 16.2183 17.6369 15.8738 17.4826C15.5241 17.3055 14.4071 16.9419 13.0807 15.7524C12.0447 14.8307 11.3549 13.6953 11.15 13.3456C10.946 13.0003 11.1273 12.805 11.3 12.6323C11.4587 12.4736 11.6497 12.2329 11.8267 12.0236C11.995 11.8143 12.0491 11.6739 12.172 11.4472C12.2854 11.2022 12.227 11.0112 12.1406 10.8385C12.0543 10.6659 11.3593 8.95406 11.0689 8.27213C10.7916 7.59543 10.5012 7.68176 10.2876 7.68176C10.0879 7.66345 9.85591 7.66345 9.62482 7.66345C9.39373 7.66345 9.01614 7.74978 8.69785 8.08115C8.37956 8.43084 7.48049 9.26625 7.48049 10.9562C7.48049 12.6506 8.72488 14.29 8.89754 14.5351C9.07457 14.7618 11.3453 18.2499 14.8291 19.749C15.6602 20.0987 16.3055 20.3079 16.8095 20.4806C17.6406 20.744 18.3992 20.7073 18.9983 20.621C19.6611 20.512 21.0511 19.7804 21.3423 18.9633C21.638 18.1409 21.638 17.4599 21.5516 17.3055C21.4653 17.1468 21.2386 17.0605 20.8889 16.9061L20.8741 16.9925ZM14.5562 25.5585H14.5379C12.4755 25.5585 10.4367 24.9995 8.65599 23.9548L8.23829 23.7054L3.87812 24.8408L5.05013 20.5983L4.76846 20.1623C3.61691 18.3314 3.00599 16.2123 3.00608 14.0494C3.00608 7.71839 8.18858 2.5542 14.5649 2.5542C17.6536 2.5542 20.5514 3.75761 22.7315 5.93769C23.8069 7.00035 24.66 8.26653 25.2409 9.66237C25.8218 11.0582 26.119 12.5558 26.115 14.0677C26.1063 20.3943 20.9281 25.5585 14.5605 25.5585H14.5562ZM24.3892 4.27995C21.7365 1.71792 18.2484 0.26947 14.5379 0.26947C6.88489 0.26947 0.653335 6.47399 0.648975 14.0991C0.648975 16.5338 1.28469 18.9092 2.50205 21.0117L0.53125 28.1746L7.89819 26.2535C9.93902 27.3538 12.2202 27.9325 14.5387 27.9382H14.5431C22.2004 27.9382 28.432 21.7337 28.4363 14.1034C28.4363 10.4112 26.9966 6.93617 24.3718 4.32443L24.3892 4.27995Z" fill="#333"/>
</symbol>
<symbol viewBox="0 0 28 24" fill="none" id="icon-tg-dark">
<path d="M25.925 0.970198L2.07369 10.1677C0.445933 10.8215 0.45535 11.7295 1.77504 12.1344L7.89862 14.0447L22.0668 5.1055C22.7367 4.69789 23.3488 4.91716 22.8457 5.36378L11.3667 15.7236H11.364L11.3667 15.7249L10.9443 22.0368C11.5631 22.0368 11.8362 21.753 12.1832 21.418L15.1576 18.5257L21.3444 23.0955C22.4852 23.7238 23.3044 23.4009 23.5883 22.0395L27.6496 2.89929C28.0653 1.23252 27.0133 0.477836 25.925 0.970198Z" fill="#333"/>
</symbol>

<symbol width="16" height="18" viewBox="0 0 16 18" fill="none" id="icon-question">
<path d="M8.45319 15.3829H1.45745C1.20352 15.3829 0.959986 15.282 0.78043 15.1024C0.600873 14.9229 0.5 14.6794 0.5 14.4254V1.02117C0.5 0.767237 0.600873 0.523707 0.78043 0.34415C0.959986 0.164594 1.20352 0.0637207 1.45745 0.0637207H11.6702C11.9241 0.0637207 12.1677 0.164594 12.3472 0.34415C12.5268 0.523707 12.6277 0.767237 12.6277 1.02117V10.9148H11.9894V1.02117C11.9894 0.936524 11.9557 0.855347 11.8959 0.795495C11.836 0.735643 11.7549 0.702019 11.6702 0.702019H1.45745C1.3728 0.702019 1.29163 0.735643 1.23177 0.795495C1.17192 0.855347 1.1383 0.936524 1.1383 1.02117V14.4254C1.1383 14.5101 1.17192 14.5912 1.23177 14.6511C1.29163 14.7109 1.3728 14.7446 1.45745 14.7446H8.45319V15.3829ZM8.47872 8.04244H6.56383V8.68074H8.47872V8.04244ZM10.7128 6.12755H6.56383V6.76585H10.7128V6.12755ZM8.47872 11.8722H6.56383V12.5105H8.47872V11.8722ZM10.7128 9.95734H6.56383V10.5956H10.7128V9.95734ZM8.47872 4.21266H6.56383V4.85096H8.47872V4.21266ZM10.7128 2.29776H6.56383V2.93606H10.7128V2.29776ZM15.5 14.7446C15.5 14.1134 15.3128 13.4963 14.9621 12.9715C14.6115 12.4466 14.113 12.0376 13.5298 11.796C12.9467 11.5545 12.305 11.4913 11.6859 11.6144C11.0668 11.7376 10.4981 12.0415 10.0518 12.4878C9.60545 12.9342 9.30149 13.5029 9.17834 14.1219C9.0552 14.741 9.1184 15.3827 9.35996 15.9659C9.60151 16.5491 10.0106 17.0475 10.5354 17.3982C11.0603 17.7489 11.6773 17.9361 12.3085 17.9361C13.1549 17.9361 13.9667 17.5998 14.5652 17.0013C15.1638 16.4028 15.5 15.591 15.5 14.7446ZM14.8617 14.7446C14.8617 15.2495 14.712 15.7432 14.4314 16.163C14.1509 16.5829 13.7521 16.9102 13.2856 17.1034C12.819 17.2967 12.3057 17.3472 11.8104 17.2487C11.3151 17.1502 10.8602 16.907 10.5031 16.55C10.1461 16.1929 9.90289 15.7379 9.80438 15.2427C9.70586 14.7474 9.75642 14.234 9.94967 13.7675C10.1429 13.301 10.4702 12.9022 10.89 12.6217C11.3099 12.3411 11.8035 12.1914 12.3085 12.1914C12.9857 12.1914 13.6351 12.4604 14.1139 12.9392C14.5927 13.418 14.8617 14.0674 14.8617 14.7446ZM11.6702 13.1488H11.0319V14.1063H11.6702V13.1488ZM13.5851 13.1488H12.9468V14.1063H13.5851V13.1488ZM13.5851 13.1488H12.9468V14.1063H13.5851V13.1488ZM11.6702 13.1488H11.0319V14.1063H11.6702V13.1488ZM14.2234 15.0637H13.5851C13.5851 15.8361 12.9468 16.1807 12.3085 16.1807C11.6702 16.1807 11.0319 15.8361 11.0319 15.0637H10.3936C10.3869 15.3179 10.4393 15.5701 10.5468 15.8005C10.6542 16.0309 10.8137 16.2332 11.0128 16.3914C11.3843 16.6755 11.8408 16.8262 12.3085 16.819C13.266 16.819 14.2234 16.2158 14.2234 15.0637ZM3.93723 8.56585L5.53298 6.65096L5.04149 6.24244L3.63085 7.93713L2.90957 7.4584L2.55851 7.98819L3.51596 8.62649C3.56735 8.66249 3.62874 8.68146 3.69149 8.68074C3.73838 8.68082 3.7847 8.67056 3.82718 8.65071C3.86965 8.63085 3.90723 8.60188 3.93723 8.56585ZM3.93723 4.73606L5.53298 2.82117L5.04149 2.41266L3.63085 4.10734L2.90957 3.62861L2.55851 4.1584L3.51596 4.7967C3.56735 4.8327 3.62874 4.85167 3.69149 4.85096C3.73838 4.85103 3.7847 4.84078 3.82718 4.82092C3.86965 4.80106 3.90723 4.77209 3.93723 4.73606ZM3.93723 12.3956L5.53298 10.4807L5.04149 10.0722L3.63085 11.7669L2.90957 11.2882L2.55851 11.818L3.51596 12.4563C3.56735 12.4923 3.62874 12.5112 3.69149 12.5105C3.73838 12.5106 3.7847 12.5004 3.82718 12.4805C3.86965 12.4606 3.90723 12.4317 3.93723 12.3956Z" fill="black"/>
</symbol>
<symbol width="16" height="16" viewBox="0 0 16 16" fill="none" id="icon-pencil">
<path d="M8.7795 3.57965L12.4196 7.21976M8.7795 3.57965L10.8606 1.5L14.5 5.14012L12.4196 7.21976L8.7795 3.57965ZM8.7795 3.57965L1.71547 10.6444C1.57755 10.7823 1.50004 10.9693 1.5 11.1643V14.5H4.83567C5.03069 14.5 5.21771 14.4225 5.35558 14.2845L12.4196 7.21976L8.7795 3.57965Z" stroke="#333333" stroke-width="1.5" stroke-linecap="round" stroke-linejoin="round"/>
</symbol>


<symbol width="15" height="11" viewBox="0 0 15 11" fill="none" id="icon-car">
<path fill-rule="evenodd" clip-rule="evenodd" d="M0 1.34753C0 1.00236 0.279822 0.722534 0.625 0.722534H9.6875C10.0327 0.722534 10.3125 1.00236 10.3125 1.34753V2.91003H12.3661C12.5619 2.91003 12.7464 3.00183 12.8645 3.15803L14.8735 5.81428C14.9556 5.92282 15 6.05519 15 6.19128V8.84753C15 9.19271 14.7202 9.47253 14.375 9.47253H12.7058C12.4484 10.2008 11.7539 10.7225 10.9375 10.7225C10.1211 10.7225 9.4266 10.2008 9.16919 9.47253H5.51831C5.2609 10.2008 4.56638 10.7225 3.75 10.7225C2.93361 10.7225 2.23909 10.2008 1.98169 9.47253H0.625C0.279822 9.47253 0 9.19271 0 8.84753V1.34753ZM1.98169 8.22253C2.23909 7.4943 2.93361 6.97253 3.75 6.97253C4.56638 6.97253 5.2609 7.49429 5.51831 8.22253H9.0625V1.97253H1.25V8.22253H1.98169ZM10.3125 7.07923V4.16003H12.0551L13.75 6.40102V8.22253H12.7058C12.4484 7.49429 11.7539 6.97253 10.9375 6.97253C10.7184 6.97253 10.508 7.01013 10.3125 7.07923ZM3.75 8.22253C3.40483 8.22253 3.125 8.50236 3.125 8.84753C3.125 9.1927 3.40483 9.47253 3.75 9.47253C4.09517 9.47253 4.375 9.1927 4.375 8.84753C4.375 8.50237 4.09517 8.22253 3.75 8.22253ZM10.9375 8.22253C10.5923 8.22253 10.3125 8.50237 10.3125 8.84753C10.3125 9.1927 10.5923 9.47253 10.9375 9.47253C11.2827 9.47253 11.5625 9.1927 11.5625 8.84753C11.5625 8.50237 11.2827 8.22253 10.9375 8.22253Z" fill="#333333"/>
</symbol>

<symbol width="15" height="15" viewBox="0 0 15 15" fill="none" id="icon-des">
<path fill-rule="evenodd" clip-rule="evenodd" d="M5.31254 1.16003C5.31254 0.814856 5.59237 0.535034 5.93754 0.535034H9.06254C9.40772 0.535034 9.68754 0.814856 9.68754 1.16003V3.62116L11.819 2.39059C11.9625 2.30771 12.1331 2.28525 12.2932 2.32815C12.4533 2.37105 12.5898 2.4758 12.6727 2.61935L14.2352 5.32569C14.4078 5.62462 14.3054 6.00687 14.0065 6.17946L11.875 7.41003L14.0064 8.64058C14.15 8.72346 14.2548 8.85997 14.2977 9.02008C14.3406 9.18019 14.3181 9.35079 14.2352 9.49435L12.6727 12.2007C12.5898 12.3442 12.4533 12.449 12.2932 12.4919C12.1331 12.5348 11.9625 12.5123 11.8189 12.4295L9.68754 11.1989V13.66C9.68754 14.0052 9.40772 14.285 9.06254 14.285H5.93754C5.59237 14.285 5.31254 14.0052 5.31254 13.66V11.1989L3.18114 12.4295C3.03758 12.5123 2.86699 12.5348 2.70687 12.4919C2.54676 12.449 2.41025 12.3442 2.32737 12.2007L0.764868 9.49435C0.681988 9.35079 0.659529 9.18019 0.702432 9.02008C0.745334 8.85997 0.850084 8.72346 0.993638 8.64058L3.12504 7.41003L0.993634 6.17946C0.694702 6.00687 0.59228 5.62462 0.764868 5.32569L2.32737 2.61935C2.41025 2.4758 2.54676 2.37105 2.70687 2.32815C2.86698 2.28525 3.03758 2.30771 3.18114 2.39059L5.31254 3.62116V1.16003ZM6.56254 1.78503V4.70369C6.56254 4.92698 6.44342 5.13331 6.25004 5.24496C6.05667 5.3566 5.81842 5.3566 5.62504 5.24496L3.0974 3.78562L2.1599 5.40942L4.68755 6.86877C4.88092 6.98042 5.00005 7.18675 5.00004 7.41004C5.00004 7.63333 4.88092 7.83966 4.68754 7.9513L2.1599 9.41062L3.0974 11.0344L5.62504 9.57508C5.81842 9.46344 6.05667 9.46343 6.25004 9.57508C6.44342 9.68673 6.56254 9.89305 6.56254 10.1163V13.035H8.43754V10.1163C8.43754 9.89305 8.55667 9.68673 8.75004 9.57508C8.94342 9.46343 9.18167 9.46344 9.37505 9.57508L11.9027 11.0344L12.8402 9.41062L10.3125 7.9513C10.1192 7.83966 10 7.63333 10 7.41004C10 7.18675 10.1192 6.98042 10.3125 6.86877L12.8402 5.40943L11.9027 3.78562L9.37504 5.24496C9.18167 5.3566 8.94342 5.3566 8.75004 5.24496C8.55667 5.13331 8.43754 4.92698 8.43754 4.70369V1.78503H6.56254Z" fill="white"/>
</symbol>

<symbol width="19" height="21" viewBox="0 0 19 21" fill="none" id="icon-cube">
<path d="M1.09961 16.0141L8.79697 20.4581C9.01562 20.5839 9.26346 20.6501 9.51572 20.6501C9.76798 20.6501 10.0158 20.5839 10.2345 20.4581L17.9319 16.014C18.1502 15.8875 18.3314 15.706 18.4575 15.4875C18.5837 15.2691 18.6503 15.0214 18.6507 14.7691V5.88099C18.6503 5.62874 18.5837 5.38101 18.4575 5.16256C18.3314 4.9441 18.1502 4.76256 17.9319 4.63607L10.2345 0.191993C10.0159 0.0662029 9.76802 0 9.51577 0C9.26351 0 9.01567 0.0662029 8.79702 0.191993L1.09961 4.63607C0.881355 4.76255 0.700112 4.94409 0.573986 5.16255C0.447859 5.38101 0.381266 5.62874 0.380859 5.88099V14.7692C0.381266 15.0214 0.447859 15.2691 0.573986 15.4876C0.700112 15.7061 0.881355 15.8876 1.09961 16.0141ZM10.2345 1.8519L17.2131 5.88099V13.8492L10.2345 9.90469V1.8519ZM9.51343 11.1484L16.5731 15.1387L9.5159 19.2131L2.45607 15.1373L9.51343 11.1484ZM1.81836 5.88099L8.79697 1.8519V9.90191L1.81836 13.8465V5.88099Z" fill="#535353"/>
</symbol>

<symbol width="23" height="20" viewBox="0 0 23 20" fill="none" id="icon-basket">
<path d="M1.89502 1.59583H5.05286L9.43104 15.7756H18.725" stroke="#535353" stroke-width="2" stroke-linecap="round"/>
<path d="M20.0406 3.61956L7.00229 3.65662C6.32654 3.65854 5.8472 4.31626 6.0523 4.96014L8.18941 11.669C8.32308 12.0887 8.71553 12.3714 9.15588 12.3654L18.2777 12.241C18.7249 12.2349 19.1137 11.9326 19.2298 11.5006L21.0092 4.87908C21.1802 4.24265 20.6996 3.61769 20.0406 3.61956Z" stroke="#535353" stroke-width="2"/>
<circle cx="10.578" cy="18.6062" r="1.37694" fill="#535353"/>
<circle cx="16.8041" cy="18.6062" r="1.37694" fill="#535353"/>
</symbol>

<symbol width="27" height="16" viewBox="0 0 27 16" fill="none" id="icon-menu">
<line y1="1" x2="26.5056" y2="1" stroke="#222121"/>
<line y1="8" x2="26.5056" y2="8" stroke="#222121"/>
<line y1="15" x2="26.5056" y2="15" stroke="#222121"/>
</symbol>

<symbol width="14" height="14" viewBox="0 0 14 14" fill="none" id="icon-tel2">
<path d="M3.75717 1.59477C4.22485 1.59477 4.65576 1.84842 4.88283 2.25736L5.67026 3.6758C5.87646 4.04726 5.88616 4.49653 5.69614 4.87649L5.04599 6.17607L5.05597 6.20751L5.11699 6.37996C5.23953 6.70346 5.41004 7.02749 5.63426 7.32751C5.73306 7.4597 5.84048 7.58451 5.95684 7.70087C6.07177 7.8158 6.19485 7.92191 6.32506 8.01953C6.62517 8.24453 6.94925 8.41517 7.27276 8.53738C7.33593 8.56125 7.3937 8.58141 7.44511 8.59815L7.47639 8.60787L8.77717 7.95793C9.1194 7.78678 9.51781 7.77764 9.86495 7.92812L9.97862 7.98419L11.401 8.775C11.8096 9.00212 12.063 9.43285 12.063 9.9003V11.5333C12.063 12.8049 10.8592 13.7167 9.65297 13.3097C7.24205 12.4962 5.10624 11.4022 3.68088 9.97685C2.25549 8.55149 1.16156 6.41568 0.348071 4.00476C-0.0589404 2.7985 0.852809 1.59477 2.1244 1.59477H3.75717ZM3.75719 2.88226H2.1244C1.71723 2.88226 1.44804 3.23765 1.56799 3.59313C2.32342 5.83197 3.33836 7.81356 4.59128 9.06646C5.84416 10.3194 7.82576 11.3343 10.0646 12.0897C10.4201 12.2097 10.7755 11.9405 10.7755 11.5333V9.9003L9.35301 9.10946L7.83604 9.86794C7.70956 9.93118 7.56577 9.95101 7.42689 9.92438C6.93672 9.83036 6.24609 9.56947 5.55276 9.04967C5.37467 8.91615 5.20541 8.77022 5.04645 8.61127C4.88557 8.45039 4.73795 8.27887 4.60296 8.09826C4.08591 7.40642 3.82494 6.71747 3.72987 6.22868C3.70276 6.08931 3.72249 5.94488 3.78599 5.81788L4.5446 4.30067L3.75719 2.88226ZM9.61765 0.737619C10.4576 0.948246 11.228 1.38112 11.8533 2.0064C12.4786 2.63171 12.9115 3.40212 13.1221 4.24208C13.2772 4.86064 13.3085 5.50488 13.2144 6.13551C13.162 6.48716 12.8345 6.72973 12.4828 6.67731C12.1312 6.62488 11.8886 6.29732 11.941 5.94568C12.0101 5.48253 11.9871 5.00922 11.8733 4.55522C11.719 3.93976 11.4023 3.37616 10.9429 2.9168C10.4836 2.45745 9.91997 2.14078 9.3045 1.98645C8.85052 1.87261 8.37717 1.84965 7.91401 1.91869C7.56237 1.97111 7.23481 1.72854 7.18239 1.37689C7.12998 1.02525 7.37255 0.69769 7.72419 0.645273C8.35482 0.55127 8.99909 0.582516 9.61765 0.737619ZM10.0455 3.67505C10.6297 4.25925 10.8909 5.07564 10.7715 5.87701C10.719 6.22866 10.3915 6.47123 10.0398 6.41881C9.71331 6.37013 9.48083 6.08422 9.49126 5.76208L9.49804 5.68719C9.55797 5.28515 9.42772 4.87803 9.13516 4.58546C8.87178 4.32211 8.51568 4.19026 8.15403 4.21021L8.0334 4.22251C7.68175 4.27493 7.3542 4.03236 7.30178 3.68072C7.24936 3.32907 7.49193 3.00151 7.84357 2.94909C8.64492 2.82964 9.46128 3.09084 10.0455 3.67505Z" fill="#ABABAB"/>
</symbol>

<symbol width="12" height="16" viewBox="0 0 12 16" fill="none" id="icon-marker2">
<g clip-path="url(#clip0_1912_6048)">
<path fill-rule="evenodd" clip-rule="evenodd" d="M5.99726 0.125C3.10468 0.125 0.75 2.47968 0.75 5.37226C0.75 5.70158 0.780188 6.03365 0.843309 6.35749C0.846053 6.3767 0.857031 6.43433 0.878986 6.53313C0.958573 6.88715 1.07658 7.23569 1.23027 7.56776C1.79561 8.89878 3.03881 10.9433 5.76673 13.1334C5.83534 13.1883 5.91767 13.2157 6 13.2157C6.08233 13.2157 6.16466 13.1883 6.23327 13.1334C8.95844 10.9433 10.2044 8.89878 10.7697 7.56776C10.9234 7.23569 11.0414 6.8899 11.121 6.53313C11.143 6.43433 11.1539 6.3767 11.1567 6.35749C11.2171 6.03365 11.25 5.70158 11.25 5.37226C11.2445 2.47968 8.88983 0.125 5.99726 0.125ZM3.40576 5.42978C3.40576 6.85685 4.56663 8.02047 5.99646 8.02047C7.42628 8.02047 8.58715 6.85685 8.58715 5.42978C8.58715 4.0027 7.42354 2.83908 5.99646 2.83908C4.56938 2.83908 3.40576 4.0027 3.40576 5.42978Z" fill="#ABABAB"/>
</g>
<defs>
<clipPath id="clip0_1912_6048">
<rect width="10.5" height="15.75" fill="white" transform="translate(0.75 0.125)"/>
</clipPath>
</defs>
</symbol>

<symbol width="21" height="22" viewBox="0 0 21 22" fill="none" id="icon-percent">
<path fill-rule="evenodd" clip-rule="evenodd" d="M13.0461 2.76491L10.2876 0.946777L7.5292 2.76491L4.22889 2.91539L3.06593 6.00766L0.484375 8.06927L1.36112 11.2545L0.484375 14.4398L3.06593 16.5014L4.22889 19.5937L7.5292 19.7442L10.2876 21.5623L13.0461 19.7442L16.3464 19.5937L17.5094 16.5014L20.0909 14.4398L19.2142 11.2545L20.0909 8.06927L17.5094 6.00766L16.3464 2.91539L13.0461 2.76491ZM15.2904 4.3688L12.5653 4.24455L10.2876 2.74329L8.00996 4.24455L5.28486 4.3688L4.32459 6.92213L2.19296 8.62442L2.9169 11.2545L2.19296 13.8847L4.32459 15.587L5.28486 18.1403L8.00996 18.2645L10.2876 19.7658L12.5653 18.2645L15.2904 18.1403L16.2507 15.587L18.3823 13.8847L17.6584 11.2545L18.3823 8.62442L16.2507 6.92213L15.2904 4.3688Z" fill="#D92547"/>
<path d="M6.34766 8.93066V8.47949C6.34766 8.15527 6.41797 7.86035 6.55859 7.59473C6.69922 7.3291 6.90625 7.11621 7.17969 6.95605C7.45312 6.7959 7.78906 6.71582 8.1875 6.71582C8.59766 6.71582 8.93945 6.7959 9.21289 6.95605C9.49023 7.11621 9.69727 7.3291 9.83398 7.59473C9.97461 7.86035 10.0449 8.15527 10.0449 8.47949V8.93066C10.0449 9.24707 9.97461 9.53809 9.83398 9.80371C9.69727 10.0693 9.49219 10.2822 9.21875 10.4424C8.94531 10.6025 8.60742 10.6826 8.20508 10.6826C7.79883 10.6826 7.45703 10.6025 7.17969 10.4424C6.90625 10.2822 6.69922 10.0693 6.55859 9.80371C6.41797 9.53809 6.34766 9.24707 6.34766 8.93066ZM7.4668 8.47949V8.93066C7.4668 9.06738 7.49219 9.19824 7.54297 9.32324C7.59766 9.44434 7.67969 9.54395 7.78906 9.62207C7.90234 9.69629 8.03906 9.7334 8.19922 9.7334C8.36719 9.7334 8.50391 9.69629 8.60938 9.62207C8.71484 9.54395 8.79297 9.44434 8.84375 9.32324C8.89453 9.19824 8.91992 9.06738 8.91992 8.93066V8.47949C8.91992 8.33496 8.89258 8.20215 8.83789 8.08105C8.78711 7.95605 8.70703 7.85645 8.59766 7.78223C8.49219 7.7041 8.35547 7.66504 8.1875 7.66504C8.03125 7.66504 7.89844 7.7041 7.78906 7.78223C7.67969 7.85645 7.59766 7.95605 7.54297 8.08105C7.49219 8.20215 7.4668 8.33496 7.4668 8.47949ZM10.4258 13.7295V13.2783C10.4258 12.958 10.4961 12.665 10.6367 12.3994C10.7812 12.1338 10.9902 11.9209 11.2637 11.7607C11.541 11.6006 11.8809 11.5205 12.2832 11.5205C12.6895 11.5205 13.0293 11.6006 13.3027 11.7607C13.5762 11.9209 13.7832 12.1338 13.9238 12.3994C14.0645 12.665 14.1348 12.958 14.1348 13.2783V13.7295C14.1348 14.0498 14.0645 14.3428 13.9238 14.6084C13.7871 14.874 13.582 15.0869 13.3086 15.2471C13.0352 15.4072 12.6973 15.4873 12.2949 15.4873C11.8887 15.4873 11.5469 15.4072 11.2695 15.2471C10.9922 15.0869 10.7812 14.874 10.6367 14.6084C10.4961 14.3428 10.4258 14.0498 10.4258 13.7295ZM11.5508 13.2783V13.7295C11.5508 13.8701 11.582 14.0029 11.6445 14.1279C11.707 14.2529 11.793 14.3525 11.9023 14.4268C12.0156 14.501 12.1465 14.5381 12.2949 14.5381C12.4824 14.5381 12.6289 14.501 12.7344 14.4268C12.8398 14.3525 12.9121 14.2529 12.9512 14.1279C12.9941 14.0029 13.0156 13.8701 13.0156 13.7295V13.2783C13.0156 13.1377 12.9883 13.0068 12.9336 12.8857C12.8789 12.7607 12.7969 12.6611 12.6875 12.5869C12.582 12.5088 12.4473 12.4697 12.2832 12.4697C12.1191 12.4697 11.9824 12.5088 11.873 12.5869C11.7676 12.6611 11.6875 12.7607 11.6328 12.8857C11.5781 13.0068 11.5508 13.1377 11.5508 13.2783ZM12.6992 8.05762L8.5332 14.7256L7.71289 14.292L11.8789 7.62402L12.6992 8.05762Z" fill="#D92547"/>
</symbol>

</svg>
