<svg width="36" height="36" viewBox="0 0 36 36" fill="none" xmlns="http://www.w3.org/2000/svg">
<path d="M18 0C8.0588 0 0 8.0588 0 18C0 27.9412 8.0588 36 18 36C27.9412 36 36 27.9412 36 18C36 8.0588 27.9412 0 18 0Z" fill="#40B3E0"/>
<path d="M26.7612 10.3536L23.5461 26.5633C23.5461 26.5633 23.0965 27.6874 21.86 27.1478L14.4409 21.4598L11.7432 20.156L7.20183 18.6271C7.20183 18.6271 6.50489 18.3799 6.43739 17.8403C6.36989 17.3007 7.22433 17.0085 7.22433 17.0085L25.2772 9.92662C25.2772 9.92662 26.7611 9.27468 26.7611 10.3538" fill="white"/>
<path d="M13.8738 26.3821C13.8738 26.3821 13.6572 26.3618 13.3872 25.5074C13.1176 24.6531 11.7461 20.1568 11.7461 20.1568L22.6499 13.2324C22.6499 13.2324 23.2795 12.8502 23.257 13.2324C23.257 13.2324 23.3693 13.2999 23.032 13.6146C22.6949 13.9295 14.4665 21.3259 14.4665 21.3259" fill="#D2E5F1"/>
<path d="M17.2781 23.6413L14.3437 26.3168C14.3437 26.3168 14.1142 26.4909 13.8633 26.3818L14.4252 21.4121" fill="#B5CFE4"/>
</svg>
