<svg width="36" height="36" viewBox="0 0 36 36" fill="none" xmlns="http://www.w3.org/2000/svg">
<path d="M17.9724 0C8.04644 0 0 8.04644 0 17.9724C0 27.8984 8.04644 35.9448 17.9724 35.9448C27.8984 35.9448 35.9448 27.8984 35.9448 17.9724C35.9448 8.04644 27.8984 0 17.9724 0Z" fill="#40B3E0"/>
<path d="M26.8902 9.89069L23.68 26.0755C23.68 26.0755 23.2311 27.198 21.9965 26.6592L14.5888 20.9799L11.8952 19.6781L7.36081 18.1515C7.36081 18.1515 6.66494 17.9047 6.59754 17.3659C6.53015 16.8272 7.38327 16.5354 7.38327 16.5354L25.4085 9.4644C25.4085 9.4644 26.8901 8.81347 26.8901 9.89097" fill="white"/>
<path d="M14.0228 25.8939C14.0228 25.8939 13.8066 25.8737 13.537 25.0205C13.2679 24.1675 11.8984 19.6781 11.8984 19.6781L22.7855 12.7643C22.7855 12.7643 23.4141 12.3827 23.3917 12.7643C23.3917 12.7643 23.5038 12.8317 23.167 13.146C22.8304 13.4603 14.6147 20.8455 14.6147 20.8455" fill="#D2E5F1"/>
<path d="M17.4252 23.1574L14.4953 25.8288C14.4953 25.8288 14.2661 26.0027 14.0156 25.8937L14.5767 20.9316" fill="#B5CFE4"/>
</svg>
