<svg width="13" height="17" viewBox="0 0 13 17" fill="none" xmlns="http://www.w3.org/2000/svg">
<path d="M12.4091 0.677185H2.51136C2.43011 0.677185 2.36364 0.741471 2.36364 0.820042V1.82004C2.36364 1.89861 2.43011 1.9629 2.51136 1.9629H11.6705V14.2486C11.6705 14.3272 11.7369 14.3915 11.8182 14.3915H12.8523C12.9335 14.3915 13 14.3272 13 14.2486V1.24861C13 0.932542 12.7359 0.677185 12.4091 0.677185ZM10.0455 2.9629H0.590909C0.264062 2.9629 0 3.21826 0 3.53433V13.0111C0 13.1629 0.062784 13.3075 0.173579 13.4147L3.37372 16.5093C3.41435 16.5486 3.46051 16.5808 3.51037 16.6075V16.6415H3.58793C3.65256 16.6647 3.72088 16.6772 3.79105 16.6772H10.0455C10.3723 16.6772 10.6364 16.4218 10.6364 16.1058V3.53433C10.6364 3.21826 10.3723 2.9629 10.0455 2.9629ZM3.50852 14.8236L1.91861 13.2843H3.50852V14.8236ZM9.30682 15.3915H4.69034V12.8558C4.69034 12.4611 4.3598 12.1415 3.9517 12.1415H1.32955V4.24861H9.30682V15.3915Z" fill="#ADADAD"/>
</svg>
