<svg width="65" height="52" viewBox="0 0 65 52" fill="none" xmlns="http://www.w3.org/2000/svg">
  <path d="M55.6719 8.98093L38.7922 0.384683C37.191 -0.431067 34.9885 0.196184 34.1216 1.70288L24.2461 18.9578H12.2356C10.7013 18.9578 9.5 20.0875 9.5 21.5305V49.4525C9.5 50.8955 10.7013 52.0252 12.2363 52.0252H50.6014C52.1364 52.0252 53.3377 50.8955 53.3377 49.4525V42.9265H54.4713C55.072 42.9265 55.5388 42.4878 55.5388 41.9229V34.4564C55.5388 33.8915 55.072 33.4521 54.4713 33.4521H53.337V26.111C53.337 24.9189 52.4033 23.8523 51.202 23.6014L57.0732 13.3736C57.9413 11.8045 57.3407 9.85973 55.6726 8.98093H55.6719ZM43.6628 5.15373L33.1204 23.5383H30.1172L41.3934 4.02403L43.6621 5.15373H43.6628ZM36.0559 2.64408C36.3897 2.07858 37.1903 1.82833 37.7909 2.14163L39.4584 3.02043L27.7154 23.5383H24.0454L36.0559 2.64473V2.64408ZM11.5688 21.4681C11.5688 21.2796 11.8356 20.9656 12.1687 20.9656H23.0448L21.5767 23.4753H12.1687C11.9687 23.4753 11.7687 23.4753 11.5688 23.5383V21.4687V21.4681ZM51.1351 49.4525C51.1346 49.5277 51.1186 49.602 51.0881 49.6711C51.0575 49.7403 51.0131 49.8029 50.9572 49.8554C50.9014 49.9079 50.8353 49.9493 50.7627 49.9771C50.6901 50.0049 50.6126 50.0186 50.5345 50.0174H12.1687C12.0907 50.0185 12.0132 50.0047 11.9407 49.9769C11.8682 49.9491 11.8022 49.9077 11.7464 49.8552C11.6907 49.8027 11.6462 49.7401 11.6157 49.671C11.5852 49.6018 11.5693 49.5276 11.5688 49.4525V26.111C11.5688 25.7971 11.8356 25.5462 12.1687 25.5462H50.4683C50.8014 25.5462 51.0689 25.7971 51.0689 26.111V33.4521H46.9983C45.1971 33.4521 43.7959 34.8327 43.7959 36.4642V39.9157C43.7959 41.609 45.2633 42.9272 46.9983 42.9272H51.1351V49.4532V49.4525ZM53.3377 35.46V40.9193H46.9983C46.3977 40.9193 45.9308 40.4799 45.9308 39.9151V36.4636C45.9308 35.8994 46.3977 35.46 46.9983 35.46H53.337H53.3377ZM55.1389 12.3694L48.7333 23.5383H35.5222L45.5309 6.15733L54.6044 10.8009C55.272 11.0518 55.4719 11.8045 55.1382 12.3694H55.1389Z" fill="#C4072B"/>
</svg>
