<svg width="26" height="20" fill="none" xmlns="http://www.w3.org/2000/svg"><path fill-rule="evenodd" clip-rule="evenodd" d="M1.427 0h23.141c.787 0 1.427.708 1.427 1.578v16.839c0 .864-.64 1.573-1.422 1.578H1.423C.64 20 0 19.286 0 18.422V1.578C0 .708.64 0 1.427 0z" fill="#000"/><path fill-rule="evenodd" clip-rule="evenodd" d="M0 6.667h26v11.755c0 .87-.64 1.578-1.427 1.578H1.427C.641 20 0 19.29 0 18.422V6.666z" fill="#D00"/><path fill-rule="evenodd" clip-rule="evenodd" d="M0 13.334h26v5.088c0 .865-.64 1.573-1.422 1.578H1.428a1.367 1.367 0 01-1.009-.464A1.672 1.672 0 010 18.422v-5.088z" fill="#FFCE00"/></svg>