<svg width="127" height="40" fill="none" xmlns="http://www.w3.org/2000/svg"><g clip-path="url(#clip0_6184_30384)" fill="#C61F39"><path d="M19.897 19.414H8.944l-2.395 5.88H0L10.822.63h7.667l10.823 24.658h-7.066l-2.35-5.874zm-9.551-3.984h8.166l-3.865-9.67h-.386l-3.915 9.67zm30.805 9.858h-6.526V.63h13.092c1.714 0 3.252.182 4.626.545 1.367.363 2.525.89 3.478 1.572a7.144 7.144 0 012.191 2.485c.51.97.766 2.077.766 3.309 0 .789-.125 1.538-.374 2.264a6.884 6.884 0 01-1.101 1.998 7.78 7.78 0 01-1.782 1.617 9.615 9.615 0 01-2.395 1.13l6.566 9.738h-7.395l-5.811-8.932H41.15v8.932zm0-12.9h5.726c1.658 0 2.94-.329 3.848-.992.908-.659 1.362-1.59 1.362-2.787 0-.579-.125-1.107-.369-1.578a3.426 3.426 0 00-1.05-1.203c-.454-.329-1.01-.584-1.662-.76a8.455 8.455 0 00-2.191-.267h-5.658v7.588h-.006zM77.611.613c2.316 0 4.387.272 6.197.811 1.816.54 3.343 1.334 4.591 2.378a10.217 10.217 0 012.85 3.825c.658 1.51.981 3.23.981 5.153 0 2.004-.323 3.786-.97 5.34a10.211 10.211 0 01-2.844 3.922c-1.248 1.061-2.775 1.867-4.59 2.417-1.817.551-3.888.83-6.22.83h-12.27V.612H77.61zm-5.743 20.266h4.71c2.894 0 5.12-.681 6.674-2.044 1.555-1.361 2.333-3.353 2.333-5.97 0-1.242-.205-2.35-.619-3.325a6.582 6.582 0 00-1.77-2.469c-.772-.67-1.715-1.18-2.832-1.526-1.118-.347-2.378-.523-3.791-.523h-4.71V20.88h.005zM112.022 0c2.304 0 4.375.3 6.22.908 1.844.602 3.41 1.464 4.71 2.582a11.263 11.263 0 012.991 4.075c.698 1.6 1.044 3.4 1.044 5.391 0 2.004-.346 3.808-1.038 5.409a11.178 11.178 0 01-2.98 4.074c-1.294 1.118-2.871 1.975-4.722 2.582-1.85.602-3.927.908-6.231.908-2.321 0-4.404-.3-6.254-.908-1.85-.601-3.422-1.464-4.721-2.582a11.26 11.26 0 01-2.991-4.075c-.698-1.6-1.05-3.405-1.05-5.408 0-1.992.352-3.79 1.056-5.391a11.345 11.345 0 013.013-4.086c1.305-1.124 2.883-1.98 4.733-2.582C107.663.3 109.735 0 112.022 0zm0 4.529c-1.266 0-2.412.198-3.434.59a7.34 7.34 0 00-2.621 1.685c-.727.727-1.289 1.618-1.686 2.656-.397 1.045-.596 2.208-.596 3.496 0 1.288.193 2.452.585 3.485.386 1.038.942 1.924 1.663 2.656.72.732 1.594 1.3 2.621 1.702 1.028.397 2.185.596 3.468.596 1.265 0 2.412-.199 3.433-.596a7.373 7.373 0 002.622-1.702c.727-.733 1.283-1.618 1.674-2.656.392-1.039.585-2.197.585-3.485 0-1.288-.193-2.451-.585-3.496-.386-1.044-.947-1.93-1.674-2.656-.726-.732-1.6-1.288-2.622-1.685-1.021-.397-2.162-.59-3.433-.59zM34.56 37.785c.716.266 1.766.493 2.872.493 1.635 0 2.594-.527 2.594-1.288 0-.71-.664-1.112-2.338-1.504-2.026-.437-3.275-1.078-3.275-2.145 0-1.18 1.6-2.054 4.013-2.054 1.27 0 2.19.181 2.74.369l-.442.794c-.403-.136-1.231-.358-2.355-.358-1.691 0-2.338.62-2.338 1.136 0 .709.755 1.055 2.463 1.458 2.1.494 3.16 1.112 3.16 2.225 0 1.169-1.418 2.179-4.34 2.179-1.198 0-2.503-.216-3.162-.483l.409-.822zm11.646-5.545h-3.769v-.829h9.177v.83h-3.79v6.735h-1.618V32.24zm8.386-.828v4.477c0 1.697 1.232 2.412 2.889 2.412 1.838 0 3.019-.743 3.019-2.412v-4.478h1.617v4.41c0 2.321-2.003 3.275-4.687 3.275-2.537 0-4.45-.886-4.45-3.235v-4.455h1.612v.006zm10.302.102c.977-.091 2.134-.16 3.406-.16 2.298 0 3.938.324 5.022.943 1.101.618 1.748 1.492 1.748 2.718 0 1.232-.624 2.248-1.782 2.94-1.158.71-3.07 1.09-5.482 1.09a42.25 42.25 0 01-2.906-.091v-7.44h-.006zm1.6 6.69c.404.046.994.057 1.618.057 3.422 0 5.278-1.169 5.278-3.212.017-1.782-1.634-2.917-5.022-2.917-.829 0-1.453.046-1.879.102v5.97h.006zm12.255-6.792v7.564h-1.6v-7.564h1.6zm13.387 3.705c0 2.605-2.593 3.984-5.754 3.984-3.275 0-5.573-1.55-5.573-3.836 0-2.4 2.445-3.973 5.754-3.973 3.388-.005 5.573 1.578 5.573 3.825zm-9.62.12c0 1.617 1.437 3.064 3.956 3.064 2.537 0 3.973-1.424 3.973-3.144 0-1.504-1.288-3.076-3.956-3.076-2.644.006-3.972 1.498-3.972 3.155z"/></g><defs><clipPath id="clip0_6184_30384"><path fill="#fff" d="M0 0h126.991v39.101H0z"/></clipPath></defs></svg>