<svg width="160" height="160" fill="none" xmlns="http://www.w3.org/2000/svg"><path fill="#C5072B" d="M0 0h160v160H0z"/><g clip-path="url(#clip0_7301_49093)" fill="#fff"><path d="M31.113 80.484h-12.28l-2.685 6.592H8.805l12.134-27.654h8.596L41.67 87.069h-7.922l-2.635-6.585zm-10.709-4.467h9.157l-4.333-10.843h-.433l-4.39 10.843zM54.943 87.07h-7.318V59.421h14.68c1.921 0 3.646.204 5.185.61 1.534.408 2.832 1 3.9 1.763 1.064.764 1.884 1.7 2.457 2.787.573 1.088.859 2.33.859 3.71 0 .884-.14 1.724-.42 2.539a7.72 7.72 0 01-1.234 2.24 8.719 8.719 0 01-1.998 1.813c-.79.522-1.687.948-2.686 1.266l7.363 10.92h-8.292l-6.515-10.016h-5.981v10.015zm0-14.464h6.42c1.858 0 3.296-.369 4.314-1.113 1.018-.739 1.527-1.782 1.527-3.125 0-.649-.14-1.24-.414-1.769a3.841 3.841 0 00-1.177-1.349c-.509-.369-1.132-.655-1.864-.852a9.478 9.478 0 00-2.456-.3h-6.344v8.508h-.006zm40.883-13.203c2.596 0 4.918.306 6.948.91 2.036.605 3.748 1.495 5.148 2.666a11.457 11.457 0 013.194 4.289c.738 1.693 1.101 3.62 1.101 5.778 0 2.246-.363 4.244-1.088 5.987-.726 1.744-1.788 3.207-3.188 4.397-1.4 1.19-3.112 2.093-5.148 2.71-2.036.618-4.359.93-6.974.93H82.062V59.403h13.764zm-6.44 22.723h5.282c3.245 0 5.739-.764 7.483-2.291 1.743-1.527 2.615-3.76 2.615-6.694 0-1.393-.229-2.634-.694-3.729a7.382 7.382 0 00-1.985-2.768c-.865-.75-1.922-1.323-3.175-1.711-1.254-.388-2.666-.586-4.25-.586H89.38v17.779h.006zm45.019-23.41c2.584 0 4.906.337 6.974 1.018 2.068.674 3.824 1.642 5.282 2.895a12.641 12.641 0 013.353 4.569c.783 1.794 1.171 3.811 1.171 6.045 0 2.246-.388 4.27-1.165 6.064a12.528 12.528 0 01-3.34 4.568c-1.451 1.254-3.22 2.215-5.294 2.895-2.075.675-4.404 1.019-6.987 1.019-2.602 0-4.938-.338-7.012-1.019-2.074-.674-3.837-1.641-5.294-2.895a12.618 12.618 0 01-3.353-4.568c-.783-1.795-1.178-3.818-1.178-6.064 0-2.234.395-4.25 1.184-6.045a12.714 12.714 0 013.379-4.582c1.463-1.26 3.232-2.22 5.307-2.895 2.087-.668 4.409-1.005 6.973-1.005zm0 5.078c-1.419 0-2.704.222-3.849.661a8.233 8.233 0 00-2.94 1.89c-.814.814-1.444 1.814-1.89 2.978-.445 1.17-.668 2.475-.668 3.92 0 1.444.216 2.748.656 3.907.432 1.164 1.056 2.157 1.864 2.977.808.821 1.788 1.458 2.94 1.91 1.151.445 2.449.667 3.887.667 1.419 0 2.705-.222 3.85-.668a8.285 8.285 0 002.94-1.909c.814-.82 1.438-1.813 1.877-2.977.439-1.165.655-2.463.655-3.907 0-1.445-.216-2.75-.655-3.92-.433-1.17-1.063-2.163-1.877-2.978-.815-.82-1.795-1.444-2.94-1.89-1.145-.445-2.424-.661-3.85-.661zM47.56 101.081c.801.299 1.979.553 3.22.553 1.832 0 2.907-.592 2.907-1.444 0-.796-.744-1.247-2.621-1.686-2.272-.49-3.672-1.21-3.672-2.406 0-1.323 1.795-2.303 4.499-2.303 1.425 0 2.456.204 3.073.413l-.496.891c-.452-.152-1.38-.4-2.64-.4-1.897 0-2.622.693-2.622 1.272 0 .795.846 1.184 2.761 1.635 2.355.554 3.544 1.248 3.544 2.495 0 1.31-1.59 2.443-4.867 2.443-1.343 0-2.806-.242-3.544-.541l.458-.922zm13.056-6.217H56.39v-.93h10.29v.93h-4.25v7.552h-1.814v-7.552zm9.402-.929v5.02c0 1.903 1.38 2.705 3.239 2.705 2.061 0 3.385-.834 3.385-2.704v-5.02h1.813v4.943c0 2.603-2.246 3.672-5.255 3.672-2.845 0-4.99-.993-4.99-3.627v-4.995h1.808v.006zm11.552.115a41.393 41.393 0 013.818-.179c2.577 0 4.416.363 5.631 1.056 1.235.694 1.96 1.674 1.96 3.048 0 1.381-.7 2.52-1.998 3.296-1.298.796-3.442 1.222-6.146 1.222-1.28 0-2.348-.038-3.258-.102v-8.342h-.007zm1.795 7.501c.452.051 1.113.064 1.813.064 3.837 0 5.918-1.311 5.918-3.602.019-1.998-1.833-3.27-5.632-3.27-.928 0-1.628.05-2.106.114v6.694h.007zM97.1 93.935v8.481h-1.795v-8.481h1.794zm15.015 4.155c0 2.921-2.908 4.467-6.452 4.467-3.672 0-6.249-1.737-6.249-4.301 0-2.692 2.743-4.454 6.452-4.454 3.799-.007 6.249 1.769 6.249 4.288zm-10.786.134c0 1.814 1.61 3.436 4.435 3.436 2.845 0 4.454-1.597 4.454-3.525 0-1.686-1.444-3.449-4.435-3.449-2.965.007-4.454 1.68-4.454 3.538z"/></g><defs><clipPath id="clip0_7301_49093"><path fill="#fff" transform="translate(8.805 58.716)" d="M0 0h142.385v43.841H0z"/></clipPath></defs></svg>